<?xml version="1.0" standalone="no"?>
<!DOCTYPE svg PUBLIC "-//W3C//DTD SVG 1.1//EN" "http://www.w3.org/Graphics/SVG/1.1/DTD/svg11.dtd" >
<svg xmlns="http://www.w3.org/2000/svg" xmlns:xlink="http://www.w3.org/1999/xlink" version="1.1">
<metadata>
Created by FontForge 20201107 at Tue Jun 24 15:06:00 2025
 By 
Copyright (c) 2021 by __Designer__. All rights reserved.
</metadata>
<defs>
<font id="LamaSans-Medium" horiz-adv-x="0" >
  <font-face 
    font-family="Lama Sans Medium"
    font-weight="500"
    font-stretch="normal"
    units-per-em="2048"
    panose-1="0 0 2 0 0 0 0 0 0 0"
    ascent="1638"
    descent="-410"
    x-height="1024"
    cap-height="1434"
    bbox="-1022 -868 2869 2247"
    underline-thickness="102"
    underline-position="-245"
    unicode-range="U+000D-FEFC"
  />
<missing-glyph horiz-adv-x="972" 
d="M799 1434v-1946h-619v1946h619zM647 1303h-319v-64h125v-72h-127v-63h321v63h-127v72h127v64zM520 1053h-194v-203h321v65h-127v138zM453 987v-72h-64v72h64zM647 797h-321v-64h127v-71h-127v-64h194v135h127v64zM647 680h-63v-127h-258v-68h321v195zM647 442h-194v-108
h67v45h64v-92h-195v155h-63v-219h321v219zM647 106h-321v-219h321v219zM584 43v-92h-195v92h195zM647 -158h-321v-63h135l-135 -92v-64h321v64h-198l137 92h61v63z" />
    <glyph glyph-name="uniFDF2" unicode="&#x627;&#xfedf;&#xfee0;&#xfeea;" horiz-adv-x="3053" arabic-form="isolated" 
d="M1591 2097v-246h-84v220zM1460 1513q-59 0 -98 39t-39 107v80h86v-80q0 -60 51 -60q49 0 49 70v115h86v-103q0 -24 14 -36.5t36 -12.5q61 0 61 72v135h86v-135q0 -74 -37 -118t-98 -44q-26 0 -51.5 12.5t-40.5 32.5q-13 -34 -42.5 -54t-62.5 -20zM2693 1434h176v-1434
h-176v1434zM2150 299v1128h174v-1128q0 -124 -86.5 -211.5t-209.5 -87.5h-181q-75 0 -141.5 34.5t-108.5 92.5q-41 -58 -104.5 -92.5t-136.5 -34.5h-170q-93 0 -170.5 50t-116.5 132q-55 -83 -146 -132.5t-196 -49.5q-187 0 -321 130t-134 312v76q0 194 130 319.5t325 125.5
h457v-615q0 -75 47.5 -123.5t124.5 -48.5h151q66 0 114 48.5t48 115.5v1087h176v-1089q5 -68 55 -115t117 -47h178q51 0 88 36t37 87zM838 459v329h-281q-116 0 -198.5 -76t-82.5 -194v-67q0 -115 82.5 -195t198.5 -80q117 0 199 82.5t82 200.5z" />
    <glyph glyph-name="uniFEF5" unicode="&#xfedf;&#xfe82;" horiz-adv-x="1253" arabic-form="isolated" 
d="M242 1286l-54 64l131 90q12 9 27.5 8t24.5 -12q30 -33 82 -49.5t106 -16.5q55 0 172 49l37 -90q-41 -23 -105 -42t-104 -19q-122 0 -209 75q-14 10 -26 -2zM926 1427h174v-1128q0 -124 -87 -211.5t-210 -87.5h-703v176h316v928h174v-928h211q51 0 88 36t37 87v1128z" />
    <glyph glyph-name="uniFEF6" unicode="&#xfee0;&#xfe82;" horiz-adv-x="1351" arabic-form="final" 
d="M236 1282l-54 61l131 93q12 8 27.5 6t24.5 -12q30 -32 82 -48t106 -16q30 0 82.5 16t89.5 33l37 -90q-40 -23 -104 -42t-105 -19q-120 0 -209 73q-14 10 -27 0zM1354 176q36 0 62 -25t26 -61q0 -38 -26.5 -64t-63.5 -26h-80q-76 0 -142 34.5t-108 92.5
q-41 -58 -104.5 -92.5t-137.5 -34.5h-682v176h316v926h176v-926h172q66 0 114 48.5t48 115.5v1087h176v-1089q5 -68 55 -115t117 -47h82z" />
    <glyph glyph-name="uniFEF7" unicode="&#xfedf;&#xfe84;" horiz-adv-x="1253" arabic-form="isolated" 
d="M688 1348v-95h-389v95h70q-36 48 -33 96q6 74 57 123t123 49q64 0 112.5 -38t63.5 -97l-76 -47q-24 88 -100 88q-37 0 -60.5 -24.5t-23.5 -61.5q0 -33 22 -60.5t62 -27.5h172zM926 1427h174v-1128q0 -124 -87 -211.5t-210 -87.5h-703v176h316v928h174l2 -928h209
q51 0 88 36t37 87v1128z" />
    <glyph glyph-name="uniFEF8" unicode="&#xfee0;&#xfe84;" horiz-adv-x="1351" arabic-form="final" 
d="M692 1348v-95h-389v95h70q-36 48 -33 96q6 74 57 123t123 49q64 0 112.5 -38t63.5 -97l-75 -47q-11 40 -37 64t-64 24q-37 0 -60.5 -24.5t-23.5 -61.5q0 -33 22 -60.5t62 -27.5h172zM1356 176q36 0 62 -25t26 -61q0 -38 -26.5 -64t-63.5 -26h-80q-76 0 -142 34.5
t-108 92.5q-41 -58 -104.5 -92.5t-137.5 -34.5h-598q-40 0 -66 25t-26 63t26 63t66 25h232v926h176v-926h172q66 0 114 48.5t48 115.5v1087h176v-1089q5 -68 55 -115t117 -47h82z" />
    <glyph glyph-name="uniFEF9" unicode="&#xfedf;&#xfe88;" horiz-adv-x="1253" arabic-form="isolated" 
d="M926 1427h174v-1128q0 -124 -87 -211.5t-210 -87.5h-703v176h316v928h174l2 -928h209q51 0 88 36t37 87v1128zM489 -258q-35 0 -59 -24.5t-24 -61.5q0 -33 21.5 -60.5t61.5 -27.5h173v-94h-390v94h70q-35 53 -33 96q6 73 57.5 122.5t122.5 49.5q65 0 114 -38.5t63 -96.5
l-76 -47q-9 40 -35.5 64t-65.5 24z" />
    <glyph glyph-name="uniFEFA" unicode="&#xfee0;&#xfe88;" horiz-adv-x="1351" arabic-form="final" 
d="M1356 176q36 0 62 -25t26 -61q0 -38 -26.5 -64t-63.5 -26h-80q-76 0 -142 34.5t-108 92.5q-41 -58 -104.5 -92.5t-137.5 -34.5h-682v176h316v926h176v-926h172q66 0 114 48.5t48 115.5v1087h176v-1089q5 -68 55 -115t117 -47h82zM502 -258q-37 0 -60.5 -24t-23.5 -62
q0 -33 22 -60.5t62 -27.5h172v-92h-389v92h69q-35 47 -32 98q6 74 57 123t123 49q65 0 113 -38.5t63 -98.5l-76 -47q-23 88 -100 88z" />
    <glyph glyph-name="uniFEFB" unicode="&#xfedf;&#xfe8e;" horiz-adv-x="1253" arabic-form="isolated" 
d="M926 1427h174v-1128q0 -124 -87 -211.5t-210 -87.5h-703v176h316v928h174v-928h211q51 0 88 36t37 87v1128z" />
    <glyph glyph-name="uniFEFC" unicode="&#xfee0;&#xfe8e;" horiz-adv-x="1351" arabic-form="final" 
d="M1356 176q36 0 62 -25t26 -61q0 -38 -26.5 -64t-63.5 -26h-80q-76 0 -142 34.5t-108 92.5q-41 -58 -104.5 -92.5t-137.5 -34.5h-682v176h316v926h176v-926h172q66 0 114 48.5t48 115.5v1087h176v-1089q5 -68 55 -115t117 -47h82z" />
    <glyph glyph-name="uniFEDFFB51" unicode="&#xfedf;&#xfb51;" horiz-adv-x="1253" 
d="M926 1427h174v-1128q0 -124 -87 -211.5t-210 -87.5h-703v176h316v928h174l2 -928h209q51 0 88 36t37 87v1128z" />
    <glyph glyph-name="uniFEE0FB51" unicode="&#xfee0;&#xfb51;" horiz-adv-x="1351" 
d="M1356 176q36 0 62 -25t26 -61q0 -38 -26.5 -64t-63.5 -26h-80q-76 0 -142 34.5t-108 92.5q-41 -58 -104.5 -92.5t-137.5 -34.5h-682v176h316v926h176v-926h172q66 0 114 48.5t48 115.5v1087h176v-1089q5 -68 55 -115t117 -47h82z" />
    <glyph glyph-name="uni066E.init" unicode="&#x66e;" horiz-adv-x="567" 
d="M137 0h-139q-37 0 -63.5 26.5t-26.5 61.5q0 38 26.5 63t63.5 25h139q57 0 95 37.5t38 93.5v647h174v-647q0 -126 -90 -216.5t-217 -90.5z" />
    <glyph glyph-name="uni066E.medi" unicode="&#x66e;" horiz-adv-x="684" 
d="M688 176q37 0 62.5 -24.5t25.5 -61.5q0 -38 -26 -64t-62 -26h-82q-75 0 -141.5 34.5t-108.5 92.5q-41 -58 -104.5 -92.5t-136.5 -34.5h-117q-38 0 -64 25t-26 63t26 63t64 25h98q66 0 114 48.5t48 115.5v422h176v-424q5 -68 55 -115t117 -47h82z" />
    <glyph glyph-name="uni066E.fina" unicode="&#x66e;" horiz-adv-x="1853" 
d="M1858 176q37 0 62.5 -24.5t25.5 -61.5q0 -38 -26 -64t-62 -26h-76q-76 0 -142 34.5t-108 92.5q-41 -58 -104.5 -92.5t-137.5 -34.5h-794q-167 0 -285.5 117.5t-118.5 283.5v347h178v-347q0 -94 66 -159.5t160 -65.5h776q66 0 114 48.5t48 115.5v612h176v-614
q5 -68 55 -115t117 -47h76z" />
    <glyph glyph-name="uni066F.fina" unicode="&#x66f;" horiz-adv-x="1558" 
d="M1579 176v-176h-205v-211q0 -89 -63 -152t-152 -63h-541q-215 0 -365.5 150.5t-150.5 365.5v283h177v-281q0 -141 99.5 -240.5t239.5 -99.5h519q27 0 44 17.5t17 44.5v186h-260q-186 0 -318.5 128.5t-132.5 311.5v86q0 188 131.5 320.5t319.5 132.5q179 0 307.5 -128.5
t128.5 -309.5v-365h205zM1198 176v365q0 108 -77 185t-183 77q-117 0 -196.5 -80.5t-79.5 -196.5v-84q0 -109 81 -187.5t195 -78.5h260z" />
    <glyph glyph-name="uni06A1.init" unicode="&#x6a1;" horiz-adv-x="1159" 
d="M582 963h444v-826q0 -57 -40 -97t-97 -40h-909v176h288q-63 45 -100 119t-37 160v73q0 120 61.5 220.5t165 157.5t224.5 57zM852 209v588h-268q-116 0 -198.5 -82t-82.5 -199v-67q3 -114 85 -193.5t196 -79.5h235q12 0 22.5 10t10.5 23z" />
    <glyph glyph-name="uni06A1.medi" unicode="&#x6a1;" horiz-adv-x="1236" 
d="M1028 176h223v-176h-1265v176h303q-63 45 -100 119t-37 160v73q0 184 132.5 313.5t317.5 131.5q183 0 312.5 -131t129.5 -314v-288q0 -32 -16 -64zM838 176q14 0 23 10t9 25v317q0 111 -78 190t-190 79q-116 0 -197 -82t-81 -199v-67q1 -114 82.5 -193.5t195.5 -79.5h236
z" />
    <glyph glyph-name="uni06A1.fina" unicode="&#x6a1;" horiz-adv-x="2123" 
d="M2136 176v-176h-1575q-189 0 -324 135.5t-135 325.5v254h174v-254q0 -118 84 -201.5t201 -83.5h610q-73 48 -116 130.5t-43 178.5v43q0 183 133 313t317 132q184 0 314.5 -131t130.5 -314v-352h229zM1733 176v352q0 110 -79.5 189.5t-189.5 79.5q-116 0 -198 -82
t-82 -199v-37q0 -120 86 -207.5t207 -95.5h256z" />
    <glyph glyph-name="uni06C2.fina" unicode="&#x6c2;" horiz-adv-x="1284" 
d="M885 1192v-92h-389v92h69q-36 48 -33 98q6 74 57.5 123t123.5 49q65 0 113 -38.5t63 -98.5l-76 -47q-23 88 -100 88q-37 0 -60.5 -24t-23.5 -62q0 -33 22 -60.5t62 -27.5h172zM723 45q-73 -45 -166 -45q-187 0 -321 130t-134 312v76q0 194 130 319.5t325 125.5h457v-615
q0 -75 47.5 -123.5t124.5 -48.5h102q36 0 61 -25.5t27 -62.5q0 -35 -25.5 -60.5t-62.5 -27.5h-102q-43 0 -84 6t-90.5 26t-85 52t-60 90t-24.5 135l-4 479h-281q-116 0 -198.5 -76t-82.5 -194v-67q0 -115 82.5 -195t198.5 -80q89 0 154 51z" />
    <glyph glyph-name="uni06C3.fina" unicode="&#x6c3;" horiz-adv-x="1284" 
d="M723 45q-73 -45 -166 -45q-187 0 -321 130t-134 312v76q0 194 130 319.5t325 125.5h457v-615q0 -75 47.5 -123.5t124.5 -48.5h102q36 0 61 -25.5t27 -62.5q0 -35 -25.5 -60.5t-62.5 -27.5h-102q-43 0 -84 6t-90.5 26t-85 52t-60 90t-24.5 135l-4 479h-281
q-116 0 -198.5 -76t-82.5 -194v-67q0 -115 82.5 -195t198.5 -80q89 0 154 51z" />
    <glyph glyph-name="uniFB51" unicode="&#x671;" horiz-adv-x="536" arabic-form="final" 
d="M557 0h-96q-123 0 -210 87.5t-87 211.5v1135h176v-1135q0 -51 36.5 -87t88.5 -36h92v-176z" />
    <glyph glyph-name="uniFB57" unicode="&#x67e;" horiz-adv-x="1853" arabic-form="final" 
d="M1858 176q37 0 62.5 -24.5t25.5 -61.5q0 -38 -26 -64t-62 -26h-76q-76 0 -142 34.5t-108 92.5q-41 -58 -104.5 -92.5t-137.5 -34.5h-794q-167 0 -285.5 117.5t-118.5 283.5v347h178v-347q0 -94 66 -159.5t160 -65.5h776q66 0 114 48.5t48 115.5v612h176v-614
q5 -68 55 -115t117 -47h76zM752 -393q-46 0 -79.5 32.5t-33.5 77.5q0 46 33.5 79.5t79.5 33.5t79 -33.5t33 -79.5t-33 -78t-79 -32zM1065 -393q-46 0 -79.5 32.5t-33.5 77.5q0 46 33.5 79.5t79.5 33.5t79.5 -33.5t33.5 -79.5q0 -45 -33.5 -77.5t-79.5 -32.5zM905 -682
q-45 0 -77.5 33t-32.5 78q0 46 33 79t77 33q47 0 81 -33t34 -79t-34 -78.5t-81 -32.5z" />
    <glyph glyph-name="uniFB58" unicode="&#x67e;" horiz-adv-x="679" arabic-form="initial" 
d="M250 0h-252q-37 0 -63.5 26.5t-26.5 61.5q0 38 26.5 63t63.5 25h252q57 0 95 37.5t38 93.5v647h174v-647q0 -126 -90 -216.5t-217 -90.5zM123 -393q-45 0 -78 32.5t-33 77.5q0 46 33.5 79.5t77.5 33.5q47 0 81 -33.5t34 -79.5t-34 -78t-81 -32zM436 -393
q-45 0 -77.5 32.5t-32.5 77.5q0 46 33 79.5t77 33.5q47 0 81 -33.5t34 -79.5t-34 -78t-81 -32zM279 -682q-46 0 -79.5 32.5t-33.5 78.5t33.5 79t79.5 33t79 -33t33 -79t-33 -78.5t-79 -32.5z" />
    <glyph glyph-name="uniFB59" unicode="&#x67e;" horiz-adv-x="684" arabic-form="medial" 
d="M688 176q37 0 62.5 -24.5t25.5 -61.5q0 -38 -26 -64t-62 -26h-82q-75 0 -141.5 34.5t-108.5 92.5q-41 -58 -104.5 -92.5t-136.5 -34.5h-117q-38 0 -64 25t-26 63t26 63t64 25h98q66 0 114 48.5t48 115.5v422h176v-424q5 -68 55 -115t117 -47h82zM174 -393
q-46 0 -79.5 32.5t-33.5 77.5q0 46 33.5 79.5t79.5 33.5t79.5 -33.5t33.5 -79.5q0 -45 -33.5 -77.5t-79.5 -32.5zM487 -393q-46 0 -79 32t-33 78t33 79.5t79 33.5t79.5 -33.5t33.5 -79.5q0 -45 -33.5 -77.5t-79.5 -32.5zM328 -682q-45 0 -78 33t-33 78t33.5 78.5t77.5 33.5
q47 0 80.5 -33t33.5 -79t-33.5 -78.5t-80.5 -32.5z" />
    <glyph glyph-name="uniFB67" unicode="&#x679;" horiz-adv-x="1853" arabic-form="final" 
d="M616 1044v84h72v334h82v-198q70 73 139 73q146 0 146 -172v-121h-439zM772 1176v-48h201v43q0 82 -72 82q-64 0 -129 -77zM1858 176q37 0 62.5 -24.5t25.5 -61.5q0 -38 -26 -64t-62 -26h-76q-76 0 -142 34.5t-108 92.5q-41 -58 -104.5 -92.5t-137.5 -34.5h-794
q-167 0 -285.5 117.5t-118.5 283.5v347h178v-347q0 -94 66 -159.5t160 -65.5h776q66 0 114 48.5t48 115.5v612h176v-614q5 -68 55 -115t117 -47h76z" />
    <glyph glyph-name="uniFB68" unicode="&#x679;" horiz-adv-x="567" arabic-form="initial" 
d="M424 1438q145 0 145 -172v-121h-438v84h72v334h82v-199q71 74 139 74zM487 1229v43q0 82 -71 82q-63 0 -129 -78v-47h200zM270 307v647h174v-647q0 -126 -90 -216.5t-217 -90.5h-139q-37 0 -63.5 26.5t-26.5 61.5q0 38 26.5 63t63.5 25h139q57 0 95 37.5t38 93.5z" />
    <glyph glyph-name="uniFB69" unicode="&#x679;" horiz-adv-x="684" arabic-form="medial" 
d="M139 1069v84h72v334h82v-199q71 74 139 74q146 0 146 -172v-121h-439zM295 1200v-47h201v43q0 82 -72 82q-63 0 -129 -78zM688 176q37 0 62.5 -24.5t25.5 -61.5q0 -38 -26 -64t-62 -26h-82q-75 0 -141.5 34.5t-108.5 92.5q-41 -58 -104.5 -92.5t-136.5 -34.5h-117
q-38 0 -64 25t-26 63t26 63t64 25h98q66 0 114 48.5t48 115.5v422h176v-424q5 -68 55 -115t117 -47h82z" />
    <glyph glyph-name="uniFB6B" unicode="&#x6a4;" horiz-adv-x="2082" arabic-form="final" 
d="M1487 1608q45 0 78.5 -33t33.5 -78q0 -47 -33 -80t-79 -33t-79.5 33t-33.5 80q0 44 33.5 77.5t79.5 33.5zM1331 1319q47 0 81 -33t34 -78q0 -47 -33.5 -79.5t-81.5 -32.5q-45 0 -77.5 32.5t-32.5 79.5q0 44 33 77.5t77 33.5zM1645 1319q47 0 80.5 -33t33.5 -78
q0 -47 -33.5 -79.5t-80.5 -32.5q-45 0 -78 32.5t-33 79.5q0 44 33.5 77.5t77.5 33.5zM2095 176v-176h-1534q-189 0 -324 135.5t-135 325.5v295h174v-295q0 -118 84 -201.5t201 -83.5h610q-74 48 -116.5 127t-42.5 174v43q0 183 133 313t317 132q184 0 314.5 -131t130.5 -314
v-344h188zM1733 176v344q0 110 -79.5 189t-189.5 79q-116 0 -198 -81.5t-82 -198.5v-37q0 -120 85.5 -203.5t207.5 -91.5h256z" />
    <glyph glyph-name="uniFB6C" unicode="&#x6a4;" horiz-adv-x="1159" arabic-form="initial" 
d="M686 1608q47 0 81 -33t34 -78q0 -47 -34 -80t-81 -33q-45 0 -78 33t-33 80q0 44 33.5 77.5t77.5 33.5zM532 1319q46 0 79.5 -33.5t33.5 -77.5q0 -47 -33.5 -79.5t-79.5 -32.5t-79 32.5t-33 79.5q0 44 33 77.5t79 33.5zM846 1319q46 0 79 -33.5t33 -77.5q0 -47 -33 -79.5
t-79 -32.5t-79.5 32.5t-33.5 79.5q0 44 33.5 77.5t79.5 33.5zM582 963h444v-826q0 -57 -40 -97t-97 -40h-909v176h288q-63 45 -100 119t-37 160v73q0 120 61.5 220.5t165 157.5t224.5 57zM852 209v588h-268q-116 0 -198.5 -82t-82.5 -199v-67q3 -114 85 -193.5t196 -79.5
h235q12 0 22.5 10t10.5 23z" />
    <glyph glyph-name="uniFB6D" unicode="&#x6a4;" horiz-adv-x="1236" arabic-form="medial" 
d="M623 1608q45 0 78.5 -33t33.5 -78q0 -47 -33 -80t-79 -33t-79.5 33t-33.5 80q0 44 33.5 77.5t79.5 33.5zM467 1319q47 0 81 -33t34 -78q0 -47 -33.5 -79.5t-81.5 -32.5q-45 0 -78 32.5t-33 79.5q0 44 33.5 77.5t77.5 33.5zM780 1319q47 0 81 -33t34 -78
q0 -47 -33.5 -79.5t-81.5 -32.5q-45 0 -77.5 32.5t-32.5 79.5q0 44 33 77.5t77 33.5zM1028 176h223v-176h-1265v176h303q-65 45 -101 114.5t-36 155.5v72q0 184 132.5 314.5t317.5 130.5q182 1 312 -130t130 -315v-278q0 -32 -16 -64zM838 176q14 0 23 10t9 25v307
q0 111 -78 189.5t-190 78.5q-116 0 -197 -81.5t-81 -198.5v-66q0 -113 81.5 -188.5t196.5 -75.5h236z" />
    <glyph glyph-name="uniFB7B" unicode="&#x686;" horiz-adv-x="1501" arabic-form="final" 
d="M520 0q-99 0 -169 -71t-70 -171q0 -101 69.5 -171t169.5 -70h422v-176h-422q-173 0 -295.5 122t-122.5 295q0 172 122.5 295t295.5 123h641q-26 14 -46.5 51.5t-20.5 81.5v84q-3 215 -129 307q-58 46 -139 68t-161 19.5t-144 -13t-113 -26.5l-74 155q75 28 162 44
t188 17.5t203.5 -28.5t183.5 -92q86 -68 140 -181t57 -272v-84q0 -51 31 -91t81 -40h199v-176h-1059zM520 -244q-25 0 -42 17.5t-17 42.5t17 42t42 17t43.5 -17.5t18.5 -41.5q0 -25 -18.5 -42.5t-43.5 -17.5zM702 -244q-24 0 -41.5 18t-17.5 42t17.5 41.5t41.5 17.5
q26 0 44 -17t18 -42t-18 -42.5t-44 -17.5zM610 -414q-24 0 -41.5 18t-17.5 42q0 26 17.5 43.5t41.5 17.5q26 0 44 -17.5t18 -43.5q0 -25 -18 -42.5t-44 -17.5z" />
    <glyph glyph-name="uniFB7C" unicode="&#x686;" horiz-adv-x="1310" arabic-form="initial" 
d="M1190 0h-1194q-36 0 -62 26t-26 62t26 62t62 26h944q-33 19 -53.5 54.5t-20.5 78.5v74q0 217 -133 319q-61 47 -143.5 69t-163.5 18t-144.5 -15.5t-115.5 -28.5l-68 160q72 28 160 43.5t189.5 16t206 -30t186.5 -92.5q88 -67 143 -179.5t55 -271.5v-82q0 -59 33.5 -96
t87.5 -37h31v-176zM403 -393q-45 0 -77.5 32.5t-32.5 77.5q0 46 33 79.5t77 33.5q47 0 81 -33.5t34 -79.5t-34 -78t-81 -32zM717 -393q-45 0 -78 32.5t-33 77.5q0 46 33.5 79.5t77.5 33.5q47 0 80.5 -33.5t33.5 -79.5t-33.5 -78t-80.5 -32zM559 -682q-46 0 -79.5 32.5
t-33.5 78.5t33.5 79t79.5 33t79.5 -33t33.5 -79t-33.5 -78.5t-79.5 -32.5z" />
    <glyph glyph-name="uniFB7D" unicode="&#x686;" horiz-adv-x="1273" arabic-form="medial" 
d="M1309 0h-1313q-36 0 -62 26t-26 62t26 62t62 26h924q-33 19 -53.5 54.5t-20.5 78.5v72q0 219 -133 321q-60 47 -142.5 68.5t-162.5 18.5t-143 -14t-111 -27l-62 157q65 28 152.5 43t187 14.5t203.5 -31.5t184 -91q88 -67 143.5 -179t55.5 -270v-82q0 -59 33.5 -96
t87.5 -37h170v-176zM446 -393q-45 0 -77.5 32.5t-32.5 77.5q0 46 33 79.5t77 33.5q47 0 81 -33.5t34 -79.5t-34 -78t-81 -32zM760 -393q-45 0 -78 32.5t-33 77.5q0 46 33.5 79.5t77.5 33.5q47 0 80.5 -33.5t33.5 -79.5t-33.5 -78t-80.5 -32zM602 -682q-46 0 -79.5 32.5
t-33.5 78.5t33.5 79t79.5 33t79.5 -33t33.5 -79t-33.5 -78.5t-79.5 -32.5z" />
    <glyph glyph-name="uniFB89" unicode="&#x688;" horiz-adv-x="1257" arabic-form="final" 
d="M457 1161v84h71v334h82v-199q71 74 140 74q145 0 145 -172v-121h-438zM612 1292v-47h201v43q0 82 -72 82q-63 0 -129 -78zM1260 176q37 0 62.5 -27t25.5 -63t-25 -61t-63 -25h-48q-192 0 -323 137q-4 -4 -8 -12q-50 -58 -120.5 -91.5t-144.5 -33.5h-522v176h522
q77 0 123 57q45 52 33 125l-156 605l166 45l166 -623q22 -93 95 -151t169 -58h48z" />
    <glyph glyph-name="uniFB8B" unicode="&#x698;" horiz-adv-x="755" arabic-form="final" 
d="M399 1626q46 0 79.5 -33t33.5 -77q0 -47 -33.5 -80t-79.5 -33t-79 33t-33 80q0 44 33 77t79 33zM244 1337q47 0 80.5 -32.5t33.5 -77.5q0 -47 -33.5 -80t-80.5 -33q-45 0 -78 33t-33 80q0 44 33.5 77t77.5 33zM557 1337q47 0 81 -33t34 -77q0 -47 -34 -80t-81 -33
q-45 0 -78 33t-33 80q0 44 33.5 77t77.5 33zM760 176q37 0 62.5 -25.5t25.5 -62.5t-25.5 -62.5t-62.5 -25.5h-70q-64 0 -120 26.5t-89 71.5v-116q-5 -104 -42 -187t-98.5 -138t-135.5 -89t-162 -51l-63 166q57 11 101.5 26.5t88.5 42t72.5 62t46.5 88t18 118.5v934h174v-571
q0 -86 61.5 -146.5t147.5 -60.5h70z" />
    <glyph glyph-name="uniFB8D" unicode="&#x691;" horiz-adv-x="755" arabic-form="final" 
d="M188 1157v84h72v334h82v-199q71 74 139 74q146 0 146 -172v-121h-439zM344 1288v-47h201v43q0 82 -72 82q-63 0 -129 -78zM758 176q37 0 62.5 -25.5t25.5 -62.5t-25.5 -62.5t-62.5 -25.5h-70q-64 0 -120 26.5t-89 71.5v-116q-5 -104 -42 -187t-98.5 -138t-135.5 -89
t-162 -51l-64 166q57 11 101.5 26.5t88.5 42t73 61.5t47 88t18 119v934h174v-571q0 -86 61.5 -146.5t147.5 -60.5h70z" />
    <glyph glyph-name="uniFB8F" unicode="&#x6a9;" horiz-adv-x="2056" arabic-form="final" 
d="M1849 176h228v-174l-885 -2h-696q-166 0 -285 117.5t-119 281.5v349h180v-349q0 -94 65 -158.5t159 -64.5h1177v268q0 142 -100.5 243t-241.5 101h-493l-95 199l418 588l144 -102l-363 -508h401q137 0 253.5 -68t184.5 -185t68 -255v-281z" />
    <glyph glyph-name="uniFB90" unicode="&#x6a9;" horiz-adv-x="1386" arabic-form="initial" 
d="M748 965q137 0 253.5 -68t184 -185t67.5 -255v-332q0 -51 -36 -88t-87 -37h-1150v176h1054q19 0 32 13t13 32v223q0 142 -101.5 243t-242.5 101h-499l-127 195l417 580l144 -103l-361 -495h439z" />
    <glyph glyph-name="uniFB91" unicode="&#x6a9;" horiz-adv-x="1406" arabic-form="medial" 
d="M1198 176h227l-2 -174l-1446 -2v176h1045v268q0 142 -101.5 243t-242.5 101h-492l-96 199l418 588l143 -102l-362 -508h401q138 0 255 -68t185 -185t68 -255v-281z" />
    <glyph glyph-name="uniFB93" unicode="&#x6af;" horiz-adv-x="2056" arabic-form="final" 
d="M1055 1622l-404 -549l-61 53l399 545zM1849 176h228v-174l-885 -2h-696q-166 0 -285 117.5t-119 281.5v349h180v-349q0 -94 65 -158.5t159 -64.5h1177v268q0 142 -100.5 243t-241.5 101h-493l-95 199l418 588l144 -102l-363 -508h401q137 0 253.5 -68t184.5 -185t68 -255
v-281z" />
    <glyph glyph-name="uniFB94" unicode="&#x6af;" horiz-adv-x="1386" arabic-form="initial" 
d="M-41 1104l399 545l66 -50l-404 -548zM748 965q137 0 253.5 -68t184 -185t67.5 -255v-457h-1273v176h1099v268q0 142 -101.5 243t-242.5 101h-499l-127 195l417 580l144 -103l-361 -495h439z" />
    <glyph glyph-name="uniFB95" unicode="&#x6af;" horiz-adv-x="1406" arabic-form="medial" 
d="M412 1606l-404 -549l-61 53l399 545zM1198 176h227l-2 -174l-1446 -2v176h1045v268q0 142 -101.5 243t-242.5 101h-492l-96 199l418 588l143 -102l-362 -508h401q138 0 255 -68t185 -185t68 -255v-281z" />
    <glyph glyph-name="uniFB9F" unicode="&#x6ba;" horiz-adv-x="1499" arabic-form="final" 
d="M1501 176q37 0 63.5 -26.5t26.5 -61.5q0 -37 -26.5 -62.5t-63.5 -25.5h-98q-49 0 -92.5 24.5t-63.5 63.5v-332q0 -63 -44.5 -108t-108.5 -45h-482q-212 0 -361 149t-149 361v313h174v-313q0 -138 98.5 -237t237.5 -99h394q28 0 47.5 18.5t19.5 46.5v1092h174v-600
q3 -66 48 -112t106 -46h100z" />
    <glyph glyph-name="uniFBA7" unicode="&#x6c1;" horiz-adv-x="1284" arabic-form="final" 
d="M723 45q-73 -45 -166 -45q-187 0 -321 130t-134 312v76q0 194 130 319.5t325 125.5h457v-615q0 -75 47.5 -123.5t124.5 -48.5h102q36 0 61 -25.5t27 -62.5q0 -35 -25.5 -60.5t-62.5 -27.5h-102q-43 0 -84 6t-90.5 26t-85 52t-60 90t-24.5 135l-4 479h-281
q-116 0 -198.5 -76t-82.5 -194v-67q0 -115 82.5 -195t198.5 -80q89 0 154 51z" />
    <glyph glyph-name="uniFBA8" unicode="&#x6c1;" horiz-adv-x="567" arabic-form="initial" 
d="M137 0h-139q-37 0 -63.5 26.5t-26.5 61.5q0 38 26.5 63t63.5 25h139q57 0 95 37.5t38 93.5v647h174v-647q0 -126 -90 -216.5t-217 -90.5z" />
    <glyph glyph-name="uniFBA9" unicode="&#x6c1;" horiz-adv-x="1323" arabic-form="medial" 
d="M1069 176h274v-176h-208v-37q0 -187 -129 -304.5t-340 -117.5q-183 0 -320 121t-160 301l-2 37h-204v174h198v281q0 97 36 187t96.5 156.5t144.5 108t176 45.5q200 9 350 -131q70 -67 108.5 -157t38.5 -187q-2 -207 -154.5 -342t-385.5 -135h-223l4 -33
q15 -108 99.5 -181t197.5 -73q128 0 212.5 82.5t84.5 202.5v70q0 45 32.5 76.5t73.5 31.5zM352 455v-281h236q64 0 127 19.5t117 55.5t88 96t34 134q0 134 -92 217q-86 86 -223 80q-118 -4 -202.5 -98.5t-84.5 -222.5z" />
    <glyph glyph-name="uniFBAB" unicode="&#x6be;" horiz-adv-x="1466" arabic-form="final" 
d="M1212 176h275v-176h-209v-37q0 -187 -129 -304.5t-340 -117.5q-183 0 -319.5 121t-159.5 301l-2 37h-205v174h199v281q0 130 60.5 242.5t164.5 180.5t227 74q200 9 350 -131q71 -68 109.5 -157.5t38.5 -186.5q-1 -136 -71 -245t-193.5 -170.5t-276.5 -61.5h-223l4 -33
q15 -108 99.5 -181t197.5 -73q128 0 212.5 82.5t84.5 202.5v70q0 45 32.5 76.5t73.5 31.5zM496 455v-281h235q64 0 127 19.5t117.5 55.5t88.5 96.5t34 133.5q0 134 -92 217q-87 87 -224 80q-118 -4 -202 -98.5t-84 -222.5z" />
    <glyph glyph-name="uniFBAC" unicode="&#x6be;" horiz-adv-x="1517" arabic-form="initial" 
d="M797 1153q258 -60 422.5 -269.5t164.5 -498.5v-192q0 -78 -55 -135.5t-133 -57.5h-1216v174h280q-59 43 -95 117t-36 155q0 169 125 282.5t301 113.5q183 0 308.5 -129.5t125.5 -315.5v-153q0 -42 -12 -70h190q20 0 32.5 13.5t12.5 33.5v164q0 222 -122.5 386.5
t-321.5 211.5q-158 41 -334 41l2 172q125 -3 192.5 -11.5t168.5 -31.5zM555 668q-101 0 -177.5 -69.5t-76.5 -174.5q0 -106 71 -178t165 -72h235q18 0 31.5 12.5t13.5 32.5v195q0 98 -76.5 176t-185.5 78z" />
    <glyph glyph-name="uniFBAD" unicode="&#x6be;" horiz-adv-x="1323" arabic-form="medial" 
d="M1069 176h274v-176h-208v-37q0 -187 -129 -304.5t-340 -117.5q-183 0 -320 121t-160 301l-2 37h-204v174h198v281q0 97 36 187t96.5 156.5t144.5 108t176 45.5q200 9 350 -131q70 -67 108.5 -157t38.5 -187q-2 -207 -154.5 -342t-385.5 -135h-223l4 -33
q15 -108 99.5 -181t197.5 -73q128 0 212.5 82.5t84.5 202.5v70q0 45 32.5 76.5t73.5 31.5zM352 455v-281h236q64 0 127 19.5t117 55.5t88 96t34 134q0 134 -92 217q-86 86 -223 80q-118 -4 -202.5 -98.5t-84.5 -222.5z" />
    <glyph glyph-name="uniFBAF" unicode="&#x6d2;" horiz-adv-x="1282" arabic-form="final" 
d="M455 162h848v-176h-848q-77 0 -123 -60q-48 -63 -31 -133l94 -358l-168 -47l-94 360q-38 159 64 289q46 59 114 92t144 33z" />
    <glyph glyph-name="uniFBB1" unicode="&#x6d3;" horiz-adv-x="1282" arabic-form="final" 
d="M641 393v-94h-389v94h70q-36 48 -33 96q6 74 57 123.5t123 49.5q64 0 112.5 -38.5t63.5 -97.5l-76 -47q-24 88 -100 88q-37 0 -60.5 -24.5t-23.5 -61.5q0 -33 22 -60.5t62 -27.5h172zM455 162h848v-176h-848q-77 0 -123 -60q-48 -63 -31 -133l94 -358l-168 -47l-94 360
q-38 159 64 289q46 59 114 92t144 33z" />
    <glyph glyph-name="uniFBFD" unicode="&#x6cc;" horiz-adv-x="1800" arabic-form="final" 
d="M1800 176q36 0 63 -24.5t27 -61.5q0 -36 -27 -63t-63 -27q-106 0 -225 25q59 -62 59 -156q0 -155 -109 -264t-263 -109h-637q-109 0 -208 42t-170.5 113.5t-114 170t-42.5 207.5v342h176v-342q0 -149 105.5 -254t253.5 -105h637q80 0 138 58.5t58 140.5q0 70 -40.5 127
t-108.5 80l-289 117l76 159q228 -96 235 -98q229 -78 469 -78z" />
    <glyph glyph-name="uniFBFE" unicode="&#x6cc;" horiz-adv-x="735" arabic-form="initial" 
d="M305 0h-307q-37 0 -63.5 26.5t-26.5 61.5q0 38 26.5 63t63.5 25h307q57 0 95 37.5t38 93.5v647h174v-647q0 -126 -90 -216.5t-217 -90.5zM178 -205q46 0 79.5 -32.5t33.5 -77.5q0 -46 -33.5 -79.5t-79.5 -33.5t-79 33.5t-33 79.5t33 78t79 32zM498 -205q47 0 80.5 -32
t33.5 -78t-33.5 -79.5t-80.5 -33.5q-44 0 -77.5 33.5t-33.5 79.5q0 45 33 77.5t78 32.5z" />
    <glyph glyph-name="uniFBFF" unicode="&#x6cc;" horiz-adv-x="778" arabic-form="medial" 
d="M780 176q36 0 62 -25t26 -61q0 -38 -26.5 -64t-63.5 -26h-137q-76 0 -142 34.5t-108 92.5q-41 -58 -104.5 -92.5t-136.5 -34.5h-154q-38 0 -64 25t-26 63t26 63t64 25h135q66 0 114 48.5t48 115.5v442h176v-444q5 -68 55 -115t117 -47h139zM207 -205q46 0 79 -32t33 -78
t-33 -79.5t-79 -33.5t-79.5 33.5t-33.5 79.5q0 45 33.5 77.5t79.5 32.5zM526 -205q47 0 81 -32t34 -78t-34 -79.5t-81 -33.5q-44 0 -77 33.5t-33 79.5q0 45 32.5 77.5t77.5 32.5z" />
    <glyph glyph-name="uniFE82" unicode="&#x622;" horiz-adv-x="557" arabic-form="final" 
d="M39 1640l-55 62l133 92q10 8 25.5 6t25.5 -12q30 -32 81 -48t105 -16q64 0 172 50l39 -91q-42 -24 -106 -42.5t-105 -18.5q-117 0 -207 74q-12 9 -28 0zM578 0h-97q-123 0 -210 87.5t-87 211.5v1135h176v-1135q0 -51 36 -87t87 -36h95v-176z" />
    <glyph glyph-name="uniFE84" unicode="&#x623;" horiz-adv-x="544" arabic-form="final" 
d="M451 1645v-95h-390v95h70q-33 49 -33 96q6 73 58 122.5t123 49.5q65 0 113.5 -38.5t62.5 -96.5l-76 -47q-9 40 -35 64t-65 24q-35 0 -59.5 -24.5t-24.5 -61.5q0 -33 22 -60.5t62 -27.5h172zM557 0h-96q-123 0 -210 87.5t-87 211.5v1135h176v-1135q0 -51 36.5 -87
t88.5 -36h92v-176z" />
    <glyph glyph-name="uniFE86" unicode="&#x624;" horiz-adv-x="1189" arabic-form="final" 
d="M829 1231v-94h-389v94h70q-36 48 -33 96q6 74 57 123t123 49q65 0 113.5 -38.5t63.5 -96.5l-76 -47q-11 40 -37 64t-64 24q-37 0 -60.5 -24.5t-23.5 -61.5q0 -33 22 -60.5t62 -27.5h172zM1178 176v-176h-181q0 -207 -141 -336q-103 -97 -241 -130.5t-386 -33.5v174h75
t73 2t82 6t74 12.5t78 20.5t65.5 31.5t62.5 44.5q67 64 76 170l2 39h-250q-129 0 -236.5 65t-168 176t-60.5 242q0 202 134 341t331 139h430v-787h181zM821 176v610h-254q-126 0 -208.5 -86.5t-82.5 -216.5q0 -129 83 -218t208 -89h254z" />
    <glyph glyph-name="uniFE88" unicode="&#x625;" horiz-adv-x="552" arabic-form="final" 
d="M557 0h-96q-123 0 -210 87.5t-87 211.5v1128h176v-1128q0 -51 36.5 -87t88.5 -36h92q36 0 62 -26t26 -62q0 -37 -25.5 -62.5t-62.5 -25.5zM465 -416v-92h-389v92h69q-35 52 -32 99q6 73 57.5 122.5t122.5 49.5q65 0 113.5 -39t62.5 -99l-76 -47q-9 41 -35 64.5t-65 23.5
q-36 0 -60 -24t-24 -62q0 -33 22 -60.5t62 -27.5h172z" />
    <glyph glyph-name="uniFE8A" unicode="&#x626;" horiz-adv-x="1800" arabic-form="final" 
d="M373 592v-94h-391v94h71q-36 48 -33 96q6 74 57.5 123t123.5 49q64 0 112.5 -38t63.5 -97l-76 -47q-24 88 -100 88q-37 0 -60.5 -24.5t-23.5 -61.5q0 -33 22 -60.5t62 -27.5h172zM1802 176q36 0 63 -24.5t27 -61.5q0 -36 -27 -63t-63 -27q-106 0 -225 25q59 -62 59 -156
q0 -155 -109 -264t-263 -109h-637q-109 0 -208 42t-170.5 113.5t-114 170t-42.5 207.5v342h176v-342q0 -149 105.5 -254t253.5 -105h637q80 0 138 58.5t58 140.5q0 70 -40.5 127t-108.5 80l-289 117l76 159q228 -96 235 -98q229 -78 469 -78z" />
    <glyph glyph-name="uniFE8B" unicode="&#x626;" horiz-adv-x="636" arabic-form="initial" 
d="M586 1210v-94h-389v94h69q-36 53 -33 97q6 73 58 122.5t123 49.5q65 0 113.5 -39t62.5 -97l-76 -47q-9 40 -35 64t-65 24q-35 0 -59.5 -24.5t-24.5 -61.5q0 -33 22 -60.5t62 -27.5h172zM168 0h-170q-37 0 -63.5 26.5t-26.5 61.5q0 38 26.5 63t63.5 25h170q57 0 94 37.5
t37 93.5v647h176v-647q0 -126 -90 -216.5t-217 -90.5z" />
    <glyph glyph-name="uniFE8C" unicode="&#x626;" horiz-adv-x="684" arabic-form="medial" 
d="M549 1057v-94h-389v94h69q-35 47 -32 96q6 74 57 123t123 49q64 0 112.5 -38t63.5 -97l-76 -47q-24 88 -100 88q-37 0 -60.5 -24.5t-23.5 -61.5q0 -33 22 -60.5t62 -27.5h172zM688 176q37 0 62.5 -24.5t25.5 -61.5q0 -38 -26 -64t-62 -26h-82q-75 0 -141.5 34.5
t-108.5 92.5q-41 -58 -104.5 -92.5t-136.5 -34.5h-117q-38 0 -64 25t-26 63t26 63t64 25h98q66 0 114 48.5t48 115.5v442h176v-444q5 -68 55 -115t117 -47h82z" />
    <glyph glyph-name="uniFE8E" unicode="&#x627;" horiz-adv-x="557" arabic-form="final" 
d="M578 0h-97q-123 0 -210 87.5t-87 211.5v1135h176v-1135q0 -51 36 -87t87 -36h95v-176z" />
    <glyph glyph-name="uniFE90" unicode="&#x628;" horiz-adv-x="1863" arabic-form="final" 
d="M1868 176q36 0 62 -25t26 -61q0 -38 -26.5 -64t-63.5 -26h-84q-76 0 -142 34.5t-108 92.5q-41 -58 -104.5 -92.5t-137.5 -34.5h-794q-167 0 -285.5 117.5t-118.5 283.5v367h178v-367q0 -94 66 -159.5t160 -65.5h776q66 0 114 48.5t48 115.5v623h176v-625q5 -68 55 -115
t117 -47h86zM897 -205q46 0 79.5 -32.5t33.5 -77.5q0 -46 -33.5 -79.5t-79.5 -33.5t-79.5 33.5t-33.5 79.5q0 45 33.5 77.5t79.5 32.5z" />
    <glyph glyph-name="uniFE91" unicode="&#x628;" horiz-adv-x="587" arabic-form="initial" 
d="M168 0h-170q-37 0 -63.5 26.5t-26.5 61.5q0 38 26.5 63t63.5 25h170q57 0 94 37.5t37 93.5v656h176v-656q0 -126 -90 -216.5t-217 -90.5zM121 -315q0 46 33 78t79 32t79.5 -32.5t33.5 -77.5q0 -46 -33.5 -79.5t-79.5 -33.5t-79 33.5t-33 79.5z" />
    <glyph glyph-name="uniFE92" unicode="&#x628;" horiz-adv-x="653" arabic-form="medial" 
d="M657 176q36 0 62 -25t26 -61q0 -38 -26.5 -64t-63.5 -26h-73q-75 0 -141.5 34.5t-108.5 92.5q-41 -58 -104.5 -92.5t-137.5 -34.5h-92q-38 0 -64 25t-26 63t26 63t64 25h74q66 0 113.5 48.5t47.5 115.5v428h177v-430q5 -68 55 -115t117 -47h75zM207 -315q0 45 32.5 77.5
t77.5 32.5q47 0 81 -32t34 -78t-34 -79.5t-81 -33.5q-44 0 -77 33.5t-33 79.5z" />
    <glyph glyph-name="uniFE94" unicode="&#x629;" horiz-adv-x="1273" arabic-form="final" 
d="M483 1358q46 0 79.5 -32.5t33.5 -78.5t-33.5 -79t-79.5 -33t-79 33t-33 79t33 78.5t79 32.5zM797 1358q46 0 79 -32.5t33 -78.5t-33 -79t-79 -33t-79.5 33t-33.5 79t33.5 78.5t79.5 32.5zM1288 176q36 0 61 -25.5t27 -62.5q0 -35 -25.5 -60.5t-62.5 -27.5h-102
q-93 0 -170.5 50t-116.5 132q-55 -83 -146 -132.5t-196 -49.5q-187 0 -321 130t-134 312v76q0 194 130 319.5t325 125.5h457v-615q0 -75 47.5 -123.5t124.5 -48.5h102zM557 176q117 0 199 82.5t82 200.5v325l-281 4q-116 0 -198.5 -76t-82.5 -194v-67q0 -115 82.5 -195
t198.5 -80z" />
    <glyph glyph-name="uniFE96" unicode="&#x62a;" horiz-adv-x="1853" arabic-form="final" 
d="M692 1176q46 0 79.5 -32.5t33.5 -78.5t-33.5 -79.5t-79.5 -33.5t-79 33.5t-33 79.5t33 78.5t79 32.5zM1006 1176q46 0 79 -32.5t33 -78.5t-33 -79.5t-79 -33.5t-79.5 33.5t-33.5 79.5t33.5 78.5t79.5 32.5zM1858 176q36 0 62 -25t26 -61q0 -38 -27 -64t-64 -26h-73
q-76 0 -142 34.5t-108 92.5q-41 -58 -104.5 -92.5t-137.5 -34.5h-794q-167 0 -285.5 117.5t-118.5 283.5v367h178v-367q0 -94 66 -159.5t160 -65.5h776q66 0 114 48.5t48 115.5v623h176v-625q5 -68 55 -115t117 -47h76z" />
    <glyph glyph-name="uniFE97" unicode="&#x62a;" horiz-adv-x="768" arabic-form="initial" 
d="M227 1364q47 0 81 -32.5t34 -78.5t-34 -79t-81 -33q-44 0 -77 33t-33 79q0 45 32.5 78t77.5 33zM541 1364q47 0 80.5 -32.5t33.5 -78.5t-33.5 -79t-80.5 -33q-45 0 -78 33.5t-33 78.5t33 78t78 33zM211 0h-213q-37 0 -63.5 26.5t-26.5 61.5q0 38 26.5 63t63.5 25h215
q55 0 93 38t38 93v656h176v-656q0 -126 -91 -216.5t-218 -90.5z" />
    <glyph glyph-name="uniFE98" unicode="&#x62a;" horiz-adv-x="718" arabic-form="medial" 
d="M201 1208q47 0 80.5 -32.5t33.5 -77.5q0 -47 -33.5 -80t-80.5 -33q-45 0 -78 33t-33 80q0 44 33.5 77t77.5 33zM514 1208q47 0 81 -33t34 -77q0 -47 -34 -80t-81 -33q-45 0 -78 33t-33 80q0 44 33.5 77t77.5 33zM723 176q36 0 62 -25t26 -61q0 -38 -26.5 -64t-63.5 -26
h-96q-75 0 -141.5 34.5t-108.5 92.5q-41 -58 -104.5 -92.5t-137.5 -34.5h-135q-38 0 -64 25t-26 63t26 63t64 25h117q66 0 113.5 48.5t47.5 115.5v428h177v-430q5 -68 55 -115t117 -47h98z" />
    <glyph glyph-name="uniFE9A" unicode="&#x62b;" horiz-adv-x="1863" arabic-form="final" 
d="M829 1464q46 0 79.5 -32.5t33.5 -77.5q0 -46 -33.5 -79.5t-79.5 -33.5t-79 33.5t-33 79.5t33 78t79 32zM674 1176q47 0 80.5 -32.5t33.5 -78.5t-33.5 -79.5t-80.5 -33.5q-44 0 -77.5 33.5t-33.5 79.5q0 45 33 78t78 33zM987 1176q47 0 81 -32.5t34 -78.5t-34 -79.5
t-81 -33.5q-44 0 -77 33.5t-33 79.5q0 45 32.5 78t77.5 33zM1878 176q37 0 62.5 -24.5t25.5 -61.5q0 -38 -26 -64t-62 -26h-96q-76 0 -142 34.5t-108 92.5q-41 -58 -104.5 -92.5t-137.5 -34.5h-794q-167 0 -285.5 117.5t-118.5 283.5v340h178v-340q0 -94 66 -159.5
t160 -65.5h776q66 0 114 48.5t48 115.5v616h176v-618q5 -68 55 -115t117 -47h96z" />
    <glyph glyph-name="uniFE9B" unicode="&#x62b;" horiz-adv-x="761" arabic-form="initial" 
d="M377 1647q47 0 81 -33t34 -78q0 -47 -34 -80t-81 -33q-45 0 -78 33t-33 80q0 44 33.5 77.5t77.5 33.5zM223 1358q46 0 79.5 -33.5t33.5 -77.5q0 -47 -33.5 -79.5t-79.5 -32.5t-79 32.5t-33 79.5q0 45 33.5 78t78.5 33zM537 1358q45 0 78.5 -33t33.5 -78q0 -47 -33 -79.5
t-79 -32.5t-79.5 32.5t-33.5 79.5q0 44 33.5 77.5t79.5 33.5zM201 0h-203q-37 0 -63.5 26.5t-26.5 61.5q0 38 26.5 63t63.5 25h203q57 0 95 37.5t38 93.5v656h174v-656q0 -126 -90 -216.5t-217 -90.5z" />
    <glyph glyph-name="uniFE9C" unicode="&#x62b;" horiz-adv-x="737" arabic-form="medial" 
d="M362 1495q46 0 79.5 -33.5t33.5 -77.5q0 -47 -33.5 -79.5t-79.5 -32.5t-79 32.5t-33 79.5q0 44 33 77.5t79 33.5zM207 1206q47 0 81 -33t34 -77q0 -47 -34 -80t-81 -33q-45 0 -78 33t-33 80q0 44 33.5 77t77.5 33zM520 1206q47 0 81 -33t34 -77q0 -47 -34 -80t-81 -33
q-45 0 -77.5 33t-32.5 80q0 44 33 77t77 33zM741 176q36 0 62 -25t26 -61q0 -38 -26.5 -64t-63.5 -26h-96q-76 0 -142 34.5t-108 92.5q-41 -58 -104.5 -92.5t-136.5 -34.5h-154q-38 0 -64 25t-26 63t26 63t64 25h135q66 0 114 48.5t48 115.5v428h176v-430q5 -68 55 -115
t117 -47h98z" />
    <glyph glyph-name="uniFE9E" unicode="&#x62c;" horiz-adv-x="1501" arabic-form="final" 
d="M520 0q-99 0 -169 -71t-70 -171q0 -101 69.5 -171t169.5 -70h422v-176h-422q-173 0 -295.5 122t-122.5 295q0 172 122.5 295t295.5 123h641q-26 14 -46.5 51.5t-20.5 81.5v82q-3 214 -129 309q-58 46 -139.5 67.5t-161 19t-143.5 -13.5t-113 -28l-74 158q75 27 162 42.5
t188 17.5t203.5 -28t183.5 -91q192 -155 197 -453v-84q0 -51 31 -91t81 -40h199v-176h-1059zM586 -147q43 0 74.5 -31t31.5 -72q0 -44 -31.5 -75t-74.5 -31t-74 31t-31 75q0 41 31 72t74 31z" />
    <glyph glyph-name="uniFE9F" unicode="&#x62c;" horiz-adv-x="1310" arabic-form="initial" 
d="M1190 0h-1194q-36 0 -62 26t-26 62t26 62t62 26h944q-33 19 -53.5 54.5t-20.5 78.5v72q0 217 -133 319q-61 47 -143.5 69t-163.5 18t-144.5 -15.5t-115.5 -28.5l-68 160q72 28 160 43.5t189.5 16t206 -30t186.5 -92.5q88 -67 143 -179.5t55 -271.5v-80q0 -59 33.5 -96
t87.5 -37h31v-176zM547 -190q47 0 81 -33t34 -78q0 -47 -34 -80t-81 -33q-45 0 -78 33t-33 80q0 44 33.5 77.5t77.5 33.5z" />
    <glyph glyph-name="uniFEA0" unicode="&#x62c;" horiz-adv-x="1273" arabic-form="medial" 
d="M1309 0h-1313q-36 0 -62 26t-26 62t26 62t62 26h924q-33 19 -53.5 54.5t-20.5 78.5v70q0 219 -133 321q-60 47 -142.5 68.5t-162.5 18t-143 -14.5t-111 -27l-62 158q65 28 152.5 43t187 14.5t203.5 -31.5t184 -91q88 -67 143.5 -179t55.5 -270v-80q0 -59 33.5 -96
t87.5 -37h170v-176zM633 -190q47 0 81 -33t34 -78q0 -47 -34 -80t-81 -33q-45 0 -78 33t-33 80q0 44 33.5 77.5t77.5 33.5z" />
    <glyph glyph-name="uniFEA2" unicode="&#x62d;" horiz-adv-x="1546" arabic-form="final" 
d="M481 0q-84 0 -143 -60t-59 -145t59 -145t143 -60h463v-174h-463q-157 0 -268 110.5t-111 268.5q0 159 111 270t268 111h680q-26 14 -46.5 51.5t-20.5 81.5v82q-3 210 -129 307q-58 46 -139 67.5t-161 19t-144 -13t-113 -26.5l-74 156q75 28 162.5 44.5t189 18.5
t204 -28.5t181.5 -93.5q86 -68 140 -181t57 -272v-82q0 -51 31 -91t81 -40h199v-176h-1098z" />
    <glyph glyph-name="uniFEA3" unicode="&#x62d;" horiz-adv-x="1310" arabic-form="initial" 
d="M1190 0h-1194q-36 0 -62 26t-26 62t26 62t62 26h944q-33 19 -53.5 54.5t-20.5 78.5v74q0 217 -133 319q-61 47 -143.5 69t-163.5 18t-144.5 -15.5t-115.5 -28.5l-68 160q72 28 160 43.5t189.5 16t206 -30t186.5 -92.5q88 -67 143 -179.5t55 -271.5v-82q0 -59 33.5 -96
t87.5 -37h31v-176z" />
    <glyph glyph-name="uniFEA4" unicode="&#x62d;" horiz-adv-x="1273" arabic-form="medial" 
d="M1309 0h-1313q-36 0 -62 26t-26 62t26 62t62 26h924q-33 19 -53.5 54.5t-20.5 78.5v74q0 220 -133 322q-60 47 -142.5 68.5t-162.5 18t-143 -14.5t-111 -27l-62 157q66 28 153 43.5t187 15.5t204 -31t183 -93q88 -67 143.5 -179t55.5 -270v-84q0 -59 33.5 -96t87.5 -37
h170v-176z" />
    <glyph glyph-name="uniFEA6" unicode="&#x62e;" horiz-adv-x="1544" arabic-form="final" 
d="M745 1364q46 0 79.5 -32.5t33.5 -78.5t-33.5 -79t-79.5 -33t-79 33t-33 79t33 78.5t79 32.5zM481 0q-84 0 -143 -60t-59 -145t59 -145t143 -60h463v-174h-463q-157 0 -268 110.5t-111 268.5q0 159 111 270t268 111h680q-26 14 -46.5 51.5t-20.5 81.5v80q-3 207 -129 309
q-58 46 -139.5 67.5t-161 19t-143.5 -13.5t-113 -28l-74 158q76 28 162.5 44t188.5 18.5t204.5 -28t181.5 -93.5q192 -155 197 -453v-82q0 -51 31 -91t81 -40h199v-176h-1098z" />
    <glyph glyph-name="uniFEA7" unicode="&#x62e;" horiz-adv-x="1310" arabic-form="initial" 
d="M412 1253q0 45 33 78t77 33q47 0 81 -32.5t34 -78.5t-34 -79t-81 -33q-44 0 -77 33t-33 79zM1190 0h-1194q-36 0 -62 26t-26 62t26 62t62 26h944q-33 19 -53.5 54.5t-20.5 78.5v74q0 217 -133 319q-61 47 -143.5 69t-163.5 18t-144.5 -15.5t-115.5 -28.5l-68 160
q72 28 160 43.5t189.5 16t206 -30t186.5 -92.5q88 -67 143 -179.5t55 -271.5v-82q0 -59 33.5 -96t87.5 -37h31v-176z" />
    <glyph glyph-name="uniFEA8" unicode="&#x62e;" horiz-adv-x="1277" arabic-form="medial" 
d="M391 1253q0 45 33 78t78 33q47 0 80.5 -32.5t33.5 -78.5t-33.5 -79t-80.5 -33q-44 0 -77.5 33.5t-33.5 78.5zM1309 0h-1313q-36 0 -62 26t-26 62t26 62t62 26h924q-33 19 -53.5 54.5t-20.5 78.5v74q0 217 -133 319q-60 47 -142.5 68.5t-162.5 18.5t-143 -14t-111 -27
l-62 159q65 28 152.5 43t187 14.5t203.5 -31.5t184 -91q88 -67 143.5 -179.5t55.5 -271.5v-82q0 -59 33.5 -96t87.5 -37h170v-176z" />
    <glyph glyph-name="uniFEAA" unicode="&#x62f;" horiz-adv-x="1257" arabic-form="final" 
d="M1262 176q37 0 62.5 -27t25.5 -63t-25 -61t-63 -25h-48q-192 0 -323 137q-4 -4 -8 -12q-50 -58 -120.5 -91.5t-144.5 -33.5h-522v176h522q77 0 123 57q45 52 33 125l-156 605l166 45l166 -623q22 -93 95 -151t169 -58h48z" />
    <glyph glyph-name="uniFEAC" unicode="&#x630;" horiz-adv-x="1286" arabic-form="final" 
d="M645 1122q-46 0 -79.5 33t-33.5 80q0 44 33.5 77.5t79.5 33.5t79.5 -33.5t33.5 -77.5q0 -47 -33.5 -80t-79.5 -33zM1292 176q39 0 63.5 -26.5t24.5 -63.5q0 -36 -24.5 -61t-63.5 -25h-78q-194 0 -323 135q-6 -6 -8 -10q-50 -58 -120.5 -91.5t-144.5 -33.5h-522v176h522
q77 0 123 57q51 62 31 138l-154 592l166 45l166 -623q22 -93 95 -151t169 -58h78z" />
    <glyph glyph-name="uniFEAE" unicode="&#x631;" horiz-adv-x="755" arabic-form="final" 
d="M760 176q37 0 62.5 -25.5t25.5 -62.5t-25.5 -62.5t-62.5 -25.5h-70q-64 0 -120 26.5t-89 71.5v-116q-5 -104 -42 -187t-98.5 -138t-135.5 -89t-162 -51l-63 166q57 11 101.5 26.5t88.5 42t72.5 62t46.5 88t18 118.5v934h174v-571q0 -86 61.5 -146.5t147.5 -60.5h70z" />
    <glyph glyph-name="uniFEB0" unicode="&#x632;" horiz-adv-x="755" arabic-form="final" 
d="M393 1364q47 0 81 -32.5t34 -78.5t-34 -79t-81 -33q-44 0 -77 33t-33 79q0 45 32.5 78t77.5 33zM756 176q35 0 60.5 -25.5t25.5 -62.5t-25.5 -62.5t-60.5 -25.5h-66q-65 0 -120.5 25.5t-88.5 72.5v-116q-5 -104 -42 -187t-98.5 -138t-135.5 -89t-162 -51l-63 166
q80 16 136 38t101.5 59.5t67.5 97t22 142.5v934h174v-571q0 -86 61.5 -146.5t147.5 -60.5h66z" />
    <glyph glyph-name="uniFEB2" unicode="&#x633;" horiz-adv-x="2627" arabic-form="final" 
d="M2634 176q34 0 60 -26.5t26 -61.5q0 -36 -26 -62t-62 -26h-74q-72 0 -133.5 37.5t-91.5 97.5q-109 -135 -283 -135q-94 0 -173.5 43.5t-127.5 118.5q-45 -74 -122.5 -117.5t-172.5 -44.5q-137 0 -223 96v-303q0 -85 -59 -145t-144 -60h-424q-136 0 -251.5 67.5t-183 183
t-67.5 251.5v330h179v-330q0 -135 94 -230.5t229 -95.5h387q28 0 48 19.5t20 48.5v926h172v-379q0 -87 61 -145t154 -58q95 0 157 60.5t62 148.5v367h176v-373q0 -90 61.5 -146.5t153.5 -56.5q87 0 148 61t61 148v571h176v-659q0 -51 34 -86t83 -35h76z" />
    <glyph glyph-name="uniFEB3" unicode="&#x633;" horiz-adv-x="1804" arabic-form="initial" 
d="M1671 956v-569q0 -163 -116 -275t-279 -112q-104 0 -182 44.5t-123 121.5q-113 -166 -318 -166q-83 0 -154.5 36.5t-119.5 100.5q-31 -61 -92 -99t-135 -38h-158q-35 0 -60.5 25.5t-25.5 62.5q0 34 25.5 60t60.5 26h158q51 0 85.5 35t34.5 86v467h174v-381
q0 -88 62 -147.5t154 -59.5q99 0 162 61.5t61 151.5v375h174v-381q0 -88 61 -146.5t156 -58.5q97 0 159 60.5t62 150.5v569h174z" />
    <glyph glyph-name="uniFEB4" unicode="&#x633;" horiz-adv-x="1941" arabic-form="medial" 
d="M1946 174q35 0 61.5 -25.5t26.5 -60.5q0 -36 -26 -62t-62 -26h-138q-76 0 -139.5 40t-95.5 103q-51 -66 -128.5 -104.5t-166.5 -38.5q-105 0 -185.5 46.5t-125.5 123.5q-112 -170 -324 -170q-76 0 -154 34t-129 107q-33 -63 -95.5 -102t-137.5 -39h-131q-37 0 -62.5 25.5
t-25.5 62.5q0 35 25.5 60.5t62.5 25.5h131q53 0 90 37t37 90v461h174v-373q0 -91 64 -153t159 -62q100 0 165 64t65 157v367h174v-373q0 -91 63 -152t160 -61q100 0 164.5 63t64.5 156v561h174v-655q0 -53 36.5 -90t90.5 -37h138z" />
    <glyph glyph-name="uniFEB6" unicode="&#x634;" horiz-adv-x="2637" arabic-form="final" 
d="M1726 1464q46 0 79.5 -32.5t33.5 -77.5q0 -46 -33.5 -79.5t-79.5 -33.5t-79 33.5t-33 79.5t33 78t79 32zM1561 1163q46 0 79 -32t33 -78t-33 -79.5t-79 -33.5t-79.5 33.5t-33.5 79.5q0 45 33.5 77.5t79.5 32.5zM1898 1163q46 0 79.5 -32.5t33.5 -77.5q0 -46 -33.5 -79.5
t-79.5 -33.5t-79 33.5t-33 79.5t33 78t79 32zM2644 176q35 0 60.5 -26.5t25.5 -61.5q0 -36 -26 -62t-60 -26h-86q-72 0 -133.5 37.5t-91.5 97.5q-109 -135 -283 -135q-94 0 -173.5 43.5t-127.5 118.5q-45 -74 -122.5 -117.5t-172.5 -44.5q-137 0 -223 96v-303
q0 -85 -59 -145t-144 -60h-424q-136 0 -251.5 67.5t-183 183t-67.5 251.5v330h179v-330q0 -135 94 -230.5t229 -95.5h387q28 0 48 19.5t20 48.5v934h172v-387q0 -87 61 -145t154 -58q95 0 157 60.5t62 148.5v375h176v-381q0 -90 61.5 -146.5t153.5 -56.5q87 0 148 61t61 148
v571h176v-659q0 -51 34 -86t83 -35h86z" />
    <glyph glyph-name="uniFEB7" unicode="&#x634;" horiz-adv-x="1808" arabic-form="initial" 
d="M932 1477q47 0 81 -32.5t34 -78.5t-34 -79.5t-81 -33.5q-44 0 -77.5 33.5t-33.5 79.5q0 45 33 78t78 33zM766 1176q47 0 81 -32.5t34 -78.5t-34 -79.5t-81 -33.5q-44 0 -77.5 33.5t-33.5 79.5q0 45 33 78t78 33zM1104 1176q47 0 81 -32.5t34 -78.5t-34 -79.5t-81 -33.5
q-44 0 -77.5 33.5t-33.5 79.5q0 45 33 78t78 33zM1675 956v-569q0 -163 -115.5 -275t-279.5 -112q-103 0 -181.5 45t-121.5 121q-113 -166 -320 -166q-82 0 -154 36.5t-118 100.5q-33 -61 -94 -99t-133 -38h-164q-35 0 -60.5 25.5t-25.5 62.5q0 34 25.5 61t60.5 27h164
q50 0 85.5 35t35.5 86v465h172v-381q0 -88 62.5 -147.5t154.5 -59.5q97 0 160 61.5t63 151.5v375h172v-381q0 -88 61 -146.5t156 -58.5q98 0 159.5 60t61.5 151v569h174z" />
    <glyph glyph-name="uniFEB8" unicode="&#x634;" horiz-adv-x="1910" arabic-form="medial" 
d="M918 1477q47 0 80.5 -32.5t33.5 -78.5t-33.5 -79.5t-80.5 -33.5q-44 0 -77.5 33.5t-33.5 79.5q0 45 33 78t78 33zM752 1176q47 0 80.5 -32.5t33.5 -78.5t-33.5 -79.5t-80.5 -33.5q-44 0 -77.5 33.5t-33.5 79.5q0 45 33 78t78 33zM1090 1176q47 0 80.5 -32.5t33.5 -78.5
t-33.5 -79.5t-80.5 -33.5q-44 0 -77.5 33.5t-33.5 79.5q0 45 33 78t78 33zM1915 174q35 0 61.5 -25.5t26.5 -60.5q0 -36 -26 -62t-62 -26h-125q-76 0 -140 40t-96 103q-51 -66 -128 -104.5t-166 -38.5q-105 0 -186 46.5t-126 123.5q-112 -170 -323 -170q-76 0 -154 34
t-129 107q-33 -63 -95.5 -102t-137.5 -39h-113q-37 0 -62.5 25.5t-25.5 62.5q0 35 25.5 60.5t62.5 25.5h113q53 0 90 37t37 90v461h174v-373q0 -91 64 -153t159 -62q100 0 164.5 63.5t64.5 157.5v367h174v-373q0 -91 63 -152t161 -61q100 0 164.5 63t64.5 156v561h174v-655
q0 -53 36.5 -90t90.5 -37h125z" />
    <glyph glyph-name="uniFEBA" unicode="&#x635;" horiz-adv-x="2721" arabic-form="final" 
d="M2462 176h280v-176h-1489v-229q0 -78 -57 -135.5t-135 -57.5h-447q-139 0 -257 68.5t-186.5 186t-68.5 255.5v287h174v-287q0 -138 100 -237t238 -99h408q23 0 40 17.5t17 40.5v1146h174v-192l551 168q170 52 336.5 -8t251.5 -205q70 -116 70 -258v-285zM2245 176
q19 0 31 12t12 31v242q0 97 -47 170q-52 93 -160 130.5t-223 4.5l-605 -184v-406h992z" />
    <glyph glyph-name="uniFEBB" unicode="&#x635;" horiz-adv-x="1771" arabic-form="initial" 
d="M1579 719q70 -116 70 -258v-301q0 -67 -46.5 -113.5t-111.5 -46.5h-1511v176h286v780h174v-192l551 168q170 52 336.5 -8t251.5 -205zM1475 219v242q0 96 -48 170q-52 93 -160 130.5t-223 4.5l-604 -184v-406h992q19 0 31 12t12 31z" />
    <glyph glyph-name="uniFEBC" unicode="&#x635;" horiz-adv-x="1843" arabic-form="medial" 
d="M1616 176h248v-176h-1884v176h253v780h175v-192l550 168q170 52 336.5 -8t251.5 -205q70 -116 70 -258v-285zM1399 176q19 0 31 12t12 31v242q0 97 -47 170q-52 93 -160 130.5t-223 4.5l-604 -184v-406h991z" />
    <glyph glyph-name="uniFEBE" unicode="&#x636;" horiz-adv-x="2721" arabic-form="final" 
d="M1833 1141q-45 0 -78 33.5t-33 78.5t33 78t78 33q47 0 81 -32.5t34 -78.5t-34 -79t-81 -33zM2462 176h280v-176h-1489v-229q0 -78 -57 -135.5t-135 -57.5h-447q-139 0 -257 68.5t-186.5 186t-68.5 255.5v338h174v-338q0 -138 100 -237t238 -99h408q23 0 40 17.5t17 40.5
v1146h174v-192l551 168q170 52 336.5 -8t251.5 -205q70 -116 70 -258v-285zM2245 176q19 0 31 12t12 31v242q0 97 -47 170q-52 93 -160 130.5t-223 4.5l-605 -184v-406h992z" />
    <glyph glyph-name="uniFEBF" unicode="&#x636;" horiz-adv-x="1738" arabic-form="initial" 
d="M924 1364q47 0 80.5 -32.5t33.5 -78.5t-33.5 -79t-80.5 -33q-44 0 -77.5 33.5t-33.5 78.5t33 78t78 33zM1548 719q68 -118 68 -258v-301q0 -67 -46 -113.5t-110 -46.5h-1480v176h256v780h172v-192l553 168q170 52 335.5 -8t251.5 -205zM1442 219v242q0 96 -45 170
q-54 93 -161.5 130t-223.5 5l-604 -184v-406h993q17 0 29 12t12 31z" />
    <glyph glyph-name="uniFEC0" unicode="&#x636;" horiz-adv-x="1867" arabic-form="medial" 
d="M995 1141q-46 0 -79 33t-33 79t33 78.5t79 32.5t79.5 -32.5t33.5 -78.5t-33.5 -79t-79.5 -33zM1632 176h256v-176h-1908v176h270v780h174v-192l551 168q170 52 336.5 -8t251.5 -205q69 -115 69 -258v-285zM1415 176q19 0 31 12t12 31v242q0 97 -47 170q-52 93 -160 130.5
t-223 4.5l-604 -184v-406h991z" />
    <glyph glyph-name="uniFEC2" unicode="&#x637;" horiz-adv-x="2015" arabic-form="final" 
d="M1755 176h281v-176h-1915v184h254v1243h174v-657l551 168q170 52 336 -8t252 -205q67 -116 67 -256v-293zM1540 176q17 0 29 12t12 31v250q0 96 -45 170q-53 93 -160.5 129.5t-224.5 5.5l-602 -184v-414h991z" />
    <glyph glyph-name="uniFEC3" unicode="&#x637;" horiz-adv-x="1757" arabic-form="initial" 
d="M1567 725q67 -116 67 -256v-309q0 -67 -45.5 -113.5t-109.5 -46.5h-1499v176h274v1251h174v-657l551 168q170 52 336 -8t252 -205zM1460 219v250q0 96 -45 170q-53 93 -160.5 129.5t-224.5 5.5l-602 -184v-414h991q17 0 29 12t12 31z" />
    <glyph glyph-name="uniFEC4" unicode="&#x637;" horiz-adv-x="1873" arabic-form="medial" 
d="M1636 176h258v-176h-1914v176h274v1251h174v-657l551 168q170 52 336.5 -8t251.5 -205q69 -115 69 -258v-291zM1419 176q19 0 31 12t12 31v248q0 97 -47 170q-52 93 -160 130.5t-223 4.5l-604 -184v-412h991z" />
    <glyph glyph-name="uniFEC6" unicode="&#x638;" horiz-adv-x="1998" arabic-form="final" 
d="M1739 176h280v-176h-1908v184h245v1243h174v-657l551 168q170 52 336.5 -8t251.5 -205q70 -116 70 -256v-293zM1143 1141q-46 0 -79.5 33t-33.5 79t33.5 78.5t79.5 32.5t79 -32.5t33 -78.5t-33 -79t-79 -33zM1522 176q19 0 31 12t12 31v250q0 97 -47 170
q-52 92 -159.5 129t-223.5 6l-605 -184v-414h992z" />
    <glyph glyph-name="uniFEC7" unicode="&#x638;" horiz-adv-x="1746" arabic-form="initial" 
d="M1567 725q67 -116 67 -256v-309q0 -67 -45.5 -113.5t-109.5 -46.5h-1499v176h274v1251h174v-657l551 168q170 52 336 -8t252 -205zM1008 1364q47 0 80.5 -32.5t33.5 -78.5t-33.5 -79t-80.5 -33q-44 0 -77.5 33.5t-33.5 78.5t33 78t78 33zM1460 219v250q0 96 -45 170
q-53 93 -160.5 129.5t-224.5 5.5l-602 -184v-414h991q17 0 29 12t12 31z" />
    <glyph glyph-name="uniFEC8" unicode="&#x638;" horiz-adv-x="1880" arabic-form="medial" 
d="M1642 176h259v-176h-1921v176h280v1251h174v-657l551 168q170 52 336.5 -8t251.5 -205q69 -115 69 -258v-291zM1032 1141q-44 0 -77 33t-33 79q0 45 33 78t77 33q47 0 81 -32.5t34 -78.5t-34 -79t-81 -33zM1425 176q19 0 31 12t12 31v248q0 97 -47 170q-52 93 -160 130.5
t-223 4.5l-604 -184v-412h991z" />
    <glyph glyph-name="uniFECA" unicode="&#x639;" horiz-adv-x="1363" arabic-form="final" 
d="M1395 176v-176h-885q-92 0 -155.5 -65t-63.5 -156q0 -90 63.5 -154.5t155.5 -64.5h498v-176h-498q-164 0 -280.5 115.5t-116.5 279.5q0 86 29 160t77 123t109 78t127 32l77 2l-215 506l56 162q137 81 283.5 113t275.5 6q149 -29 240.5 -151t76.5 -273
q-12 -104 -65.5 -205t-151.5 -156h363zM526 723l-16 -57l215 -480q75 11 136 44t98 73.5t63 90t37 88.5t14 73q9 83 -41.5 149.5t-132.5 83.5q-159 32 -373 -65z" />
    <glyph glyph-name="uniFECB" unicode="&#x639;" horiz-adv-x="1161" arabic-form="initial" 
d="M1024 176v-176h-1044v174h268q-61 37 -97 103.5t-36 148.5l2 106q6 180 135.5 305.5t308.5 125.5q144 0 261 -87.5t145 -218.5l-131 -106q-16 98 -90.5 166.5t-184.5 68.5q-107 0 -185.5 -74.5t-82.5 -181.5l-2 -102q0 -111 78 -181.5t192 -70.5h463z" />
    <glyph glyph-name="uniFECC" unicode="&#x639;" horiz-adv-x="1159" arabic-form="medial" 
d="M-10 0v176h334l-220 504l56 162q137 81 284.5 113t274.5 6q149 -29 240.5 -151t76.5 -273q-11 -103 -64.5 -204.5t-152.5 -156.5h348v-174zM297 666l217 -480q75 11 136 43.5t98 73.5t62.5 90.5t36 88.5t13.5 73q9 82 -41 149t-131 84q-155 31 -375 -65z" />
    <glyph glyph-name="uniFECE" unicode="&#x63a;" horiz-adv-x="1363" arabic-form="final" 
d="M750 1141q-46 0 -79.5 33t-33.5 79t33.5 78.5t79.5 32.5t79 -32.5t33 -78.5t-33 -79t-79 -33zM1395 176v-176h-885q-92 0 -155.5 -65t-63.5 -156q0 -90 63.5 -154.5t155.5 -64.5h498v-176h-498q-164 0 -280.5 115.5t-116.5 279.5q0 86 29 160t77 123t109 78t127 32l77 2
l-215 506l56 162q137 81 283.5 113t275.5 6q149 -29 240.5 -151t76.5 -273q-12 -104 -65.5 -205t-151.5 -156h363zM526 723l-16 -57l215 -480q75 11 136 44t98 73.5t63 90t37 88.5t14 73q9 83 -41.5 149.5t-132.5 83.5q-159 32 -373 -65z" />
    <glyph glyph-name="uniFECF" unicode="&#x63a;" horiz-adv-x="1161" arabic-form="initial" 
d="M547 1364q46 0 79 -32.5t33 -78.5t-33 -79t-79 -33t-79.5 33t-33.5 79t33.5 78.5t79.5 32.5zM1030 176v-176h-1050v174h268q-62 47 -97.5 114.5t-35.5 147.5l2 99q6 180 135.5 305t308.5 125q144 0 261 -87.5t145 -218.5l-131 -106q-16 98 -90.5 166.5t-184.5 68.5
q-107 0 -185.5 -74.5t-82.5 -181.5l-2 -94q0 -110 78.5 -186t191.5 -76h469z" />
    <glyph glyph-name="uniFED0" unicode="&#x63a;" horiz-adv-x="1169" arabic-form="medial" 
d="M584 1364q47 0 80.5 -32.5t33.5 -78.5t-33.5 -79t-80.5 -33q-44 0 -77.5 33.5t-33.5 78.5t33 78t78 33zM-10 0v176h334l-220 504l56 162q137 81 284.5 113t274.5 6q149 -29 240.5 -151t76.5 -273q-11 -103 -64.5 -204.5t-152.5 -156.5h348v-174zM297 666l217 -480
q75 11 136 43.5t98 73.5t62.5 90.5t36 88.5t13.5 73q9 82 -41 149t-131 84q-155 31 -375 -65z" />
    <glyph glyph-name="uniFED2" unicode="&#x641;" horiz-adv-x="2088" arabic-form="final" 
d="M1479 1370q46 0 79 -33t33 -77q0 -47 -33 -80t-79 -33t-79.5 33t-33.5 80q0 44 33.5 77t79.5 33zM2103 176v-176h-1542q-189 0 -324 135.5t-135 325.5v295h174v-295q0 -118 84 -201.5t201 -83.5h610q-74 48 -116.5 126t-42.5 173v45q0 121 61.5 223t165 161t223.5 59
q121 1 223.5 -58.5t162 -162t59.5 -222.5v-344h196zM1733 176v344q0 109 -79.5 188.5t-189.5 79.5q-116 0 -198 -82t-82 -198v-33q0 -121 85.5 -206t207.5 -93h256z" />
    <glyph glyph-name="uniFED3" unicode="&#x641;" horiz-adv-x="1159" arabic-form="initial" 
d="M602 1370q47 0 81 -33t34 -77q0 -47 -34 -80t-81 -33q-45 0 -77.5 33t-32.5 80q0 44 33 77t77 33zM582 963h444v-826q0 -57 -40 -97t-97 -40h-909v176h288q-63 45 -100 119t-37 160v73q0 120 61.5 220.5t165 157.5t224.5 57zM852 209v588h-268q-116 0 -198.5 -82
t-82.5 -199v-67q3 -114 85 -193.5t196 -79.5h235q12 0 22.5 10t10.5 23z" />
    <glyph glyph-name="uniFED4" unicode="&#x641;" horiz-adv-x="1241" arabic-form="medial" 
d="M610 1147q-45 0 -77.5 33t-32.5 80q0 44 33 77t77 33q47 0 81 -33t34 -77q0 -47 -34 -80t-81 -33zM1024 176h231v-176h-1269v176h299q-64 45 -101 118t-37 159v67q0 184 133 314.5t318 130.5q182 1 312 -130t130 -315v-291q0 -47 -16 -53zM834 176q14 0 23 10t9 25v309
q0 111 -78 189.5t-190 78.5q-116 0 -197.5 -80t-81.5 -196v-66q0 -113 82 -191.5t197 -78.5h236z" />
    <glyph glyph-name="uniFED6" unicode="&#x642;" horiz-adv-x="1533" arabic-form="final" 
d="M793 1370q47 0 80.5 -32.5t33.5 -77.5q0 -47 -33.5 -80t-80.5 -33q-45 0 -78 33t-33 80q0 44 33.5 77t77.5 33zM1110 1370q47 0 81 -33t34 -77q0 -47 -34 -80t-81 -33q-45 0 -78 33t-33 80q0 44 33.5 77t77.5 33zM1554 176v-176h-180v-211q0 -89 -63 -152t-152 -63h-541
q-215 0 -365.5 150.5t-150.5 365.5v334h177v-332q0 -141 99.5 -240.5t239.5 -99.5h519q27 0 44 17.5t17 44.5v186h-260q-122 0 -226 56.5t-164.5 155.5t-60.5 218v82q0 189 131 322t320 133q179 0 307.5 -129.5t128.5 -311.5v-350h180zM1198 176v350q0 109 -77 187t-183 78
q-116 0 -196 -81.5t-80 -197.5v-78q0 -109 80.5 -183.5t195.5 -74.5h260z" />
    <glyph glyph-name="uniFED7" unicode="&#x642;" horiz-adv-x="1171" arabic-form="initial" 
d="M489 1370q47 0 81 -33t34 -77q0 -47 -34 -80t-81 -33q-45 0 -77.5 33t-32.5 80q0 44 33 77t77 33zM807 1370q47 0 81 -33t34 -77q0 -47 -34 -80t-81 -33q-45 0 -78 33t-33 80q0 44 33.5 77t77.5 33zM596 963h442v-826q0 -57 -39 -97t-96 -40h-923v176h301
q-62 45 -99 119.5t-37 159.5v73q0 183 132.5 309t318.5 126zM864 209v588h-268q-116 0 -197.5 -82t-81.5 -199v-67q1 -114 83 -193.5t196 -79.5h235q13 0 23 10t10 23z" />
    <glyph glyph-name="uniFED8" unicode="&#x642;" horiz-adv-x="1236" arabic-form="medial" 
d="M453 1147q-45 0 -78 33t-33 80q0 44 33.5 77t77.5 33q47 0 80.5 -32.5t33.5 -77.5q0 -47 -33.5 -80t-80.5 -33zM770 1147q-45 0 -78 33t-33 80q0 44 33.5 77t77.5 33q47 0 81 -33t34 -77q0 -47 -34 -80t-81 -33zM1028 176h223v-176h-1265v176h303q-64 45 -100.5 116.5
t-36.5 156.5v73q0 184 132.5 313.5t317.5 131.5q183 0 312.5 -131t129.5 -314v-282q0 -32 -16 -64zM838 176q14 0 23 10t9 25v311q0 111 -78 190t-190 79q-116 0 -197 -82t-81 -199v-68q0 -113 81.5 -189.5t196.5 -76.5h236z" />
    <glyph glyph-name="uniFEDA" unicode="&#x643;" horiz-adv-x="1757" arabic-form="final" 
d="M1565 176h213v-176h-1221q-184 0 -314 129.5t-130 312.5v299h174v-299q0 -110 80 -189t190 -79h651v2h133q21 5 35.5 23t14.5 39v1189h174v-1251zM1040 946v-92h-389v92h70q-36 48 -33 98q6 74 57 123.5t123 49.5q65 0 113 -39t63 -99l-75 -47q-23 88 -101 88
q-37 0 -60.5 -24t-23.5 -62q0 -33 22 -60.5t62 -27.5h172z" />
    <glyph glyph-name="uniFEDB" unicode="&#x643;" horiz-adv-x="1386" arabic-form="initial" 
d="M748 965q137 0 253.5 -68t184 -185t67.5 -255v-332q0 -51 -36 -88t-87 -37h-1150v176h1054q19 0 32 13t13 32v223q0 142 -101.5 243t-242.5 101h-499l-127 195l417 580l144 -103l-361 -495h439z" />
    <glyph glyph-name="uniFEDC" unicode="&#x643;" horiz-adv-x="1406" arabic-form="medial" 
d="M1200 176h227l-2 -174l-1445 -2v176h1044v268q0 142 -101.5 243t-242.5 101h-492l-96 199l418 588l143 -102l-362 -508h401q138 0 255 -68t185 -185t68 -255v-281z" />
    <glyph glyph-name="uniFEDE" unicode="&#x644;" horiz-adv-x="1509" arabic-form="final" 
d="M1513 176q36 0 62.5 -26t26.5 -64q0 -35 -26.5 -60.5t-62.5 -25.5h-102q-50 0 -92.5 24.5t-63.5 63.5v-336q0 -63 -45.5 -108t-109.5 -45h-486q-139 0 -257 68t-186.5 186t-68.5 258v317h177v-317q0 -140 98 -238t237 -98h414q51 0 51 63v1589h176v-1083q0 -70 45.5 -119
t108.5 -49h104z" />
    <glyph glyph-name="uniFEDF" unicode="&#x644;" horiz-adv-x="602" arabic-form="initial" 
d="M-6 0q-35 0 -60.5 25.5t-25.5 62.5q0 35 25.5 61.5t60.5 26.5h125q51 0 88 36t37 87v1128h174v-1128q0 -124 -87 -211.5t-210 -87.5h-127z" />
    <glyph glyph-name="uniFEE0" unicode="&#x644;" horiz-adv-x="624" arabic-form="medial" 
d="M629 176q36 0 62 -25t26 -61q0 -38 -26.5 -64t-63.5 -26h-62q-76 0 -142 34.5t-108 92.5q-41 -58 -104.5 -92.5t-136.5 -34.5h-76q-38 0 -64 25t-26 63t26 63t64 25h57q66 0 114 48.5t48 115.5v1087h176v-1089q5 -68 55 -115t117 -47h64z" />
    <glyph glyph-name="uniFEE2" unicode="&#x645;" horiz-adv-x="1353" arabic-form="final" 
d="M1384 176v-176h-116q-89 0 -159.5 48.5t-98.5 125.5q-56 -81 -144.5 -127.5t-189.5 -46.5q-86 0 -158.5 32t-118.5 85l-2 -78q-6 -98 -41.5 -177t-92.5 -131.5t-125 -86t-148 -50.5l-33 173q270 59 270 323v873h449q122 0 225 -60.5t163 -165t60 -227.5v-195
q0 -58 42 -98.5t102 -40.5h116zM676 176q114 0 193.5 77t82.5 191v66q0 115 -80 194.5t-196 79.5h-275v-352q0 -120 81.5 -188t193.5 -68z" />
    <glyph glyph-name="uniFEE3" unicode="&#x645;" horiz-adv-x="1282" arabic-form="initial" 
d="M-16 176q-37 0 -62.5 -25.5t-25.5 -62.5q0 -35 25.5 -60.5t60.5 -27.5h73q93 0 172 50t117 132q55 -84 147.5 -133.5t198.5 -48.5q120 1 223 60t164 160t62 220v64q0 194 -130.5 326.5t-322.5 132.5h-459v-615q0 -75 -47.5 -123.5t-124.5 -48.5h-71zM686 176
q-116 -2 -198 73.5t-85 190.5v348h277q121 0 204 -80t83 -198v-61q-1 -114 -84 -193.5t-197 -79.5z" />
    <glyph glyph-name="uniFEE4" unicode="&#x645;" horiz-adv-x="1347" arabic-form="medial" 
d="M1362 176q37 0 62.5 -25.5t25.5 -62.5q0 -36 -26 -62t-62 -26h-76q-89 0 -159.5 49t-98.5 127q-55 -81 -143.5 -128.5t-190.5 -47.5q-112 0 -202 48t-148 134q-39 -83 -116 -132.5t-171 -49.5h-80q-37 2 -62.5 27.5t-25.5 60.5q0 36 26 62t62 26h80q74 0 123 48.5
t49 123.5v615h465q185 0 316.5 -128.5t134.5 -312.5v-205q0 -59 41.5 -100t99.5 -41h76zM969 453v67q-3 116 -84 192t-205 76h-272v-342q0 -114 80.5 -193t193.5 -77q126 0 206.5 80t80.5 197z" />
    <glyph glyph-name="uniFEE6" unicode="&#x646;" horiz-adv-x="1499" arabic-form="final" 
d="M672 965q46 0 79 -33.5t33 -77.5q0 -47 -33 -80t-79 -33t-79.5 33t-33.5 80q0 44 33.5 77.5t79.5 33.5zM1501 176q37 0 63.5 -26.5t26.5 -61.5q0 -37 -26.5 -62.5t-63.5 -25.5h-98q-49 0 -92.5 24.5t-63.5 63.5v-332q0 -63 -44.5 -108t-108.5 -45h-482q-212 0 -361 149
t-149 361v313h174v-313q0 -138 98.5 -237t237.5 -99h394q28 0 47.5 18.5t19.5 46.5v1092h174v-600q3 -66 48 -112t106 -46h100z" />
    <glyph glyph-name="uniFEE7" unicode="&#x646;" horiz-adv-x="583" arabic-form="initial" 
d="M348 1364q46 0 79.5 -32.5t33.5 -78.5t-33.5 -79t-79.5 -33t-79 33t-33 79t33 78.5t79 32.5zM133 0h-135q-37 0 -63.5 26.5t-26.5 61.5q0 38 26.5 63t63.5 25h135q57 0 95 37.5t38 93.5v647h174v-647q0 -126 -90 -216.5t-217 -90.5z" />
    <glyph glyph-name="uniFEE8" unicode="&#x646;" horiz-adv-x="657" arabic-form="medial" 
d="M319 1217q47 0 81 -32.5t34 -78.5t-34 -79.5t-81 -33.5q-44 0 -77 33.5t-33 79.5t32.5 78.5t77.5 32.5zM662 176q36 0 62 -25t26 -61q0 -38 -27 -64t-64 -26h-79q-76 0 -142 34.5t-108 92.5q-41 -58 -104.5 -92.5t-137.5 -34.5h-90q-38 0 -64 25t-26 63t26 63t64 25h72
q66 0 113.5 48.5t47.5 115.5v422h177v-424q5 -68 55 -115t117 -47h82z" />
    <glyph glyph-name="uniFEEA" unicode="&#x647;" horiz-adv-x="1284" arabic-form="final" 
d="M1288 176q36 0 61 -25.5t27 -62.5q0 -35 -25.5 -60.5t-62.5 -27.5h-102q-93 0 -170.5 50t-116.5 132q-55 -83 -146 -132.5t-196 -49.5q-187 0 -321 130t-134 312v76q0 194 130 319.5t325 125.5h457v-615q0 -75 47.5 -123.5t124.5 -48.5h102zM557 176q117 0 199 82.5
t82 200.5v329h-281q-116 0 -198.5 -76t-82.5 -194v-67q0 -115 82.5 -195t198.5 -80z" />
    <glyph glyph-name="uniFEEB" unicode="&#x647;" horiz-adv-x="1517" arabic-form="initial" 
d="M797 1153q258 -60 422.5 -269.5t164.5 -498.5v-192q0 -78 -55 -135.5t-133 -57.5h-1216v174h280q-59 43 -95 117t-36 155q0 169 125 282.5t301 113.5q183 0 308.5 -129.5t125.5 -315.5v-153q0 -42 -12 -70h190q20 0 32.5 13.5t12.5 33.5v164q0 222 -122.5 386.5
t-321.5 211.5q-158 41 -334 41l2 172q125 -3 192.5 -11.5t168.5 -31.5zM555 668q-101 0 -177.5 -69.5t-76.5 -174.5q0 -106 71 -178t165 -72h235q18 0 31.5 12.5t13.5 32.5v195q0 98 -76.5 176t-185.5 78z" />
    <glyph glyph-name="uniFEEC" unicode="&#x647;" horiz-adv-x="1323" arabic-form="medial" 
d="M1069 176h274v-176h-208v-37q0 -187 -129 -304.5t-340 -117.5q-183 0 -320 121t-160 301l-2 37h-204v174h198v281q0 97 36 187t96.5 156.5t144.5 108t176 45.5q200 9 350 -131q70 -67 108.5 -157t38.5 -187q-2 -207 -154.5 -342t-385.5 -135h-223l4 -33
q15 -108 99.5 -181t197.5 -73q128 0 212.5 82.5t84.5 202.5v70q0 45 32.5 76.5t73.5 31.5zM352 455v-281h236q64 0 127 19.5t117 55.5t88 96t34 134q0 134 -92 217q-86 86 -223 80q-118 -4 -202.5 -98.5t-84.5 -222.5z" />
    <glyph glyph-name="uniFEEE" unicode="&#x648;" horiz-adv-x="1157" arabic-form="final" 
d="M1178 176v-176h-181q0 -207 -141 -336q-103 -97 -241 -130.5t-386 -33.5v174h75t73 2t82 6t74 12.5t78 20.5t65.5 31.5t62.5 44.5q67 64 76 170l2 39h-250q-129 0 -236.5 65t-168 176t-60.5 242q0 202 134 341t331 139h430v-787h181zM821 176v610h-254
q-126 0 -208.5 -86.5t-82.5 -216.5q0 -129 83 -218t208 -89h254z" />
    <glyph glyph-name="uniFEF0" unicode="&#x649;" horiz-adv-x="1800" arabic-form="final" 
d="M1802 176q36 0 63 -24.5t27 -61.5q0 -36 -27 -63t-63 -27q-106 0 -225 25q59 -62 59 -156q0 -155 -109 -264t-263 -109h-637q-109 0 -208 42t-170.5 113.5t-114 170t-42.5 207.5v342h176v-342q0 -149 105.5 -254t253.5 -105h637q80 0 138 58.5t58 140.5q0 70 -40.5 127
t-108.5 80l-289 117l76 159q228 -96 235 -98q229 -78 469 -78z" />
    <glyph glyph-name="uniFEF2" unicode="&#x64a;" horiz-adv-x="1800" arabic-form="final" 
d="M1802 176q36 0 63 -24.5t27 -61.5q0 -36 -27 -63t-63 -27q-106 0 -225 25q59 -62 59 -156q0 -155 -109 -264t-263 -109h-637q-109 0 -208 42t-170.5 113.5t-114 170t-42.5 207.5v342h176v-342q0 -149 105.5 -254t253.5 -105h637q80 0 138 58.5t58 140.5q0 70 -40.5 127
t-108.5 80l-289 117l76 159q228 -96 235 -98q229 -78 469 -78zM754 -645q46 0 79 -33.5t33 -77.5q0 -47 -33 -79.5t-79 -32.5t-79.5 32.5t-33.5 79.5q0 44 33.5 77.5t79.5 33.5zM1073 -645q47 0 81 -33t34 -78q0 -47 -33.5 -79.5t-81.5 -32.5q-45 0 -77.5 32.5t-32.5 79.5
q0 44 33 77.5t77 33.5z" />
    <glyph glyph-name="uniFEF3" unicode="&#x64a;" horiz-adv-x="735" arabic-form="initial" 
d="M305 0h-307q-37 0 -63.5 26.5t-26.5 61.5q0 38 26.5 63t63.5 25h307q57 0 95 37.5t38 93.5v647h174v-647q0 -126 -90 -216.5t-217 -90.5zM178 -205q46 0 79.5 -32.5t33.5 -77.5q0 -46 -33.5 -79.5t-79.5 -33.5t-79 33.5t-33 79.5t33 78t79 32zM498 -205q47 0 80.5 -32
t33.5 -78t-33.5 -79.5t-80.5 -33.5q-44 0 -77.5 33.5t-33.5 79.5q0 45 33 77.5t78 32.5z" />
    <glyph glyph-name="uniFEF4" unicode="&#x64a;" horiz-adv-x="778" arabic-form="medial" 
d="M782 176q36 0 62 -25t26 -61q0 -38 -26.5 -64t-63.5 -26h-137q-76 0 -142 34.5t-108 92.5q-41 -58 -104.5 -92.5t-136.5 -34.5h-154q-38 0 -64 25t-26 63t26 63t64 25h135q66 0 114 48.5t48 115.5v442h176v-444q5 -68 55 -115t117 -47h139zM209 -205q46 0 79.5 -32.5
t33.5 -77.5q0 -46 -33.5 -79.5t-79.5 -33.5t-79.5 33.5t-33.5 79.5q0 45 33.5 77.5t79.5 32.5zM528 -205q47 0 81 -32t34 -78t-34 -79.5t-81 -33.5q-44 0 -77 33.5t-33 79.5q0 45 32.5 77.5t77.5 32.5z" />
    <glyph glyph-name=".notdef" horiz-adv-x="972" 
d="M799 1434v-1946h-619v1946h619zM647 1303h-319v-64h125v-72h-127v-63h321v63h-127v72h127v64zM520 1053h-194v-203h321v65h-127v138zM453 987v-72h-64v72h64zM647 797h-321v-64h127v-71h-127v-64h194v135h127v64zM647 680h-63v-127h-258v-68h321v195zM647 442h-194v-108
h67v45h64v-92h-195v155h-63v-219h321v219zM647 106h-321v-219h321v219zM584 43v-92h-195v92h195zM647 -158h-321v-63h135l-135 -92v-64h321v64h-198l137 92h61v63z" />
    <glyph glyph-name=".null" horiz-adv-x="614" 
 />
    <glyph glyph-name="nonmarkingreturn" horiz-adv-x="682" 
 />
    <glyph glyph-name="CR" unicode="&#xd;" horiz-adv-x="481" 
 />
    <glyph glyph-name="space" unicode=" " horiz-adv-x="460" 
 />
    <glyph glyph-name="exclam" unicode="!" horiz-adv-x="600" 
d="M199 1434h202l-14 -994h-172zM190 96q-9 51 15 86.5t74 44.5q53 9 87.5 -14t43.5 -74q9 -52 -13.5 -87t-74.5 -44q-50 -11 -86.5 13t-45.5 75z" />
    <glyph glyph-name="quotedbl" unicode="&#x22;" horiz-adv-x="800" 
d="M113 1460h196l-24 -561h-148zM492 1460h196l-24 -561h-148z" />
    <glyph glyph-name="numbersign" unicode="#" horiz-adv-x="1484" 
d="M1118 881l-65 -328h239v-139h-266l-76 -383h-157l75 383h-368l-76 -383h-158l76 383h-233v139h260l65 328h-239v139h266l76 383h157l-76 -383h369l76 383h158l-76 -383h233v-139h-260zM961 881h-369l-66 -328h369z" />
    <glyph glyph-name="dollar" unicode="$" horiz-adv-x="1214" 
d="M1122 426q0 -173 -122 -278.5t-336 -112.5v-137h-80v137q-176 9 -303 85.5t-189 209.5l129 100q107 -207 363 -225v446l-84 21q-190 44 -281.5 131.5t-91.5 224.5q0 164 122 265.5t335 107.5v135h80v-137q155 -9 266 -72t166 -170l-127 -100q-92 161 -305 176v-426
l104 -25q184 -45 269 -132.5t85 -223.5zM584 827v408q-129 -3 -199 -56t-70 -147q0 -80 58.5 -124t210.5 -81zM664 203q129 4 199.5 61.5t70.5 153.5q0 86 -59 131.5t-211 81.5v-428z" />
    <glyph glyph-name="percent" unicode="%" horiz-adv-x="1744" 
d="M426 752q-156 0 -257 99.5t-101 254.5q0 156 101 255t257 99t257 -99t101 -255q0 -155 -101 -254.5t-257 -99.5zM1288 1434h170l-1001 -1434h-170zM426 887q94 0 152.5 60.5t58.5 158.5t-58.5 158.5t-152.5 60.5q-95 0 -154 -60.5t-59 -158.5t59 -158.5t154 -60.5z
M1319 -27q-156 0 -257 100t-101 255q0 156 101 255t257 99t257 -99t101 -255q0 -155 -101 -255t-257 -100zM1319 109q95 0 154 60.5t59 158.5t-59 158.5t-154 60.5q-94 0 -152.5 -60.5t-58.5 -158.5t58.5 -158.5t152.5 -60.5z" />
    <glyph glyph-name="ampersand" unicode="&#x26;" horiz-adv-x="1406" 
d="M1143 0l-127 145q-163 -172 -420 -172q-212 0 -340.5 107.5t-128.5 279.5q0 123 76.5 220t249.5 198q-103 121 -144 199t-41 160q0 138 102.5 230.5t272.5 92.5q168 0 270.5 -89.5t102.5 -227.5q0 -113 -75.5 -205.5t-248.5 -192.5l305 -350q69 134 80 316h172
q-27 -275 -133 -449l227 -262h-200zM440 1126q0 -59 34 -115.5t124 -156.5q138 80 192 139.5t54 132.5q0 81 -57 131t-144 50q-89 0 -146 -50t-57 -131zM610 139q181 0 289 129l-346 396q-126 -74 -180 -141t-54 -150q0 -106 79 -170t212 -64z" />
    <glyph glyph-name="quotesingle" unicode="'" horiz-adv-x="421" 
d="M113 1460h196l-24 -561h-148z" />
    <glyph glyph-name="parenleft" unicode="(" horiz-adv-x="673" 
d="M467 -260q-154 181 -239 419.5t-85 479.5q0 242 86 480.5t238 418.5l147 -88q-132 -161 -206 -377.5t-74 -433.5q0 -218 73.5 -433.5t206.5 -377.5z" />
    <glyph glyph-name="parenright" unicode=")" horiz-adv-x="673" 
d="M530 639q0 -243 -85 -480.5t-238 -418.5l-148 88q133 162 207 379t74 432q0 216 -74.5 434t-206.5 377l148 88q152 -180 237.5 -419.5t85.5 -479.5z" />
    <glyph glyph-name="asterisk" unicode="*" horiz-adv-x="937" 
d="M567 1012l201 -258l-115 -82l-184 270l-186 -270l-113 82l201 260l-314 92l43 133l308 -109l-11 326h142l-11 -328l310 111l45 -135z" />
    <glyph glyph-name="plus" unicode="+" horiz-adv-x="1454" 
d="M1178 565h-361v-387h-178v387h-363v170h363v385h178v-385h361v-170z" />
    <glyph glyph-name="comma" unicode="," horiz-adv-x="466" 
d="M174 264h191l-138 -579h-155z" />
    <glyph glyph-name="hyphen" unicode="-" horiz-adv-x="788" 
d="M98 672h594v-164h-594v164z" />
    <glyph glyph-name="period" unicode="." horiz-adv-x="516" 
d="M150 96q-9 51 14 86.5t74 44.5t86.5 -14t44.5 -74t-14 -86.5t-74 -44.5q-51 -11 -86.5 13t-44.5 75z" />
    <glyph glyph-name="slash" unicode="/" horiz-adv-x="980" 
d="M778 1516h183l-758 -1709h-183z" />
    <glyph glyph-name="zero" unicode="0" horiz-adv-x="1427" 
d="M715 -27q-170 0 -300.5 93t-202 262t-71.5 389q0 334 158 538.5t416 204.5q170 0 300.5 -92.5t201.5 -261t71 -389.5q0 -220 -71 -389t-201.5 -262t-300.5 -93zM715 152q167 0 269.5 155t102.5 410t-102.5 411t-269.5 156q-169 0 -272 -156t-103 -411t103 -410t272 -155z
" />
    <glyph glyph-name="one" unicode="1" horiz-adv-x="860" 
d="M657 1434v-1434h-192v1233l-379 2v199h571z" />
    <glyph glyph-name="two" unicode="2" horiz-adv-x="1196" 
d="M1100 178v-178h-1012v143l559 523q128 119 181 206t53 170q0 112 -73 177t-192 65q-120 0 -217 -71.5t-159 -211.5l-156 89q71 180 210 275t320 95q205 0 334 -114t129 -293q0 -115 -60 -223t-194 -234l-448 -418h725z" />
    <glyph glyph-name="three" unicode="3" horiz-adv-x="1159" 
d="M770 729q147 -36 222 -124t75 -218q0 -184 -140.5 -299t-369.5 -115q-154 0 -283.5 56t-216.5 164l111 129q144 -172 381 -172q149 0 236 70t87 188q0 235 -385 235h-102v174h166q146 0 224.5 60.5t78.5 166.5q0 110 -76.5 176t-208.5 66q-113 0 -208.5 -51t-161.5 -145
l-129 118q82 121 212.5 186.5t292.5 65.5q218 0 346 -108.5t128 -286.5q0 -129 -72.5 -217t-206.5 -119z" />
    <glyph glyph-name="four" unicode="4" horiz-adv-x="1249" 
d="M268 477h559v510h189v-510h198v-160h-198v-317h-189v317h-753v160l753 957l125 -91z" />
    <glyph glyph-name="five" unicode="5" horiz-adv-x="1196" 
d="M651 903q211 0 338 -120.5t127 -327.5q0 -222 -144.5 -352t-391.5 -130q-296 0 -494 213l111 131q154 -167 381 -167q156 0 250 80t94 221q0 134 -85.5 212t-230.5 78q-165 0 -301 -108h-141v801h870v-170h-690v-455q140 94 307 94z" />
    <glyph glyph-name="six" unicode="6" horiz-adv-x="1218" 
d="M623 971q234 0 381 -134t147 -358q0 -230 -148.5 -366t-386.5 -136q-237 0 -385.5 136t-148.5 366q0 112 38.5 216t141.5 272l295 467h217l-344 -514q83 51 193 51zM616 133q154 0 248 92.5t94 249.5q0 158 -92.5 251t-244.5 93q-155 0 -250 -93t-95 -251
q0 -157 93.5 -249.5t246.5 -92.5z" />
    <glyph glyph-name="seven" unicode="7" horiz-adv-x="1075" 
d="M1030 1434v-158l-616 -1276h-215l618 1257h-772v177h985z" />
    <glyph glyph-name="eight" unicode="8" horiz-adv-x="1275" 
d="M864 737q140 -35 225 -133.5t85 -224.5q0 -183 -147 -294.5t-388 -111.5q-242 0 -389.5 111.5t-147.5 294.5q0 126 86 224.5t224 133.5q-120 35 -194.5 127t-74.5 207q0 175 136.5 282t359.5 107q221 0 357.5 -107t136.5 -282q0 -116 -74 -207.5t-195 -126.5zM332 1055
q0 -112 84.5 -180t222.5 -68t221.5 68t83.5 180q0 111 -84 179.5t-221 68.5q-138 0 -222.5 -68.5t-84.5 -179.5zM639 139q151 0 243.5 70.5t92.5 187.5t-92.5 188.5t-243.5 71.5q-152 0 -245 -71.5t-93 -188.5t93 -187.5t245 -70.5z" />
    <glyph glyph-name="nine" unicode="9" horiz-adv-x="1226" 
d="M598 469q-235 0 -382.5 132.5t-147.5 356.5q0 230 148.5 366t385.5 136q238 0 386.5 -136t148.5 -366q0 -107 -38.5 -218t-140.5 -267l-319 -469h-217l366 516q-76 -51 -190 -51zM602 1307q-154 0 -247 -93t-93 -251q0 -157 92.5 -249.5t243.5 -92.5q155 0 250.5 92.5
t95.5 249.5q0 158 -94 251t-248 93z" />
    <glyph glyph-name="colon" unicode=":" horiz-adv-x="526" 
d="M268 731q-59 0 -95 35.5t-36 95.5t36 95.5t95 35.5q61 0 96 -35.5t35 -95.5t-35 -95.5t-96 -35.5zM268 -14q-58 0 -94.5 36t-36.5 95q0 61 36 96t95 35q62 0 96.5 -35t34.5 -96q0 -59 -35 -95t-96 -36z" />
    <glyph glyph-name="semicolon" unicode=";" horiz-adv-x="495" 
d="M152 840q-9 52 14.5 87t73.5 44q53 9 87.5 -13.5t43.5 -74.5q9 -51 -14 -86.5t-74 -44.5q-50 -9 -86 15t-45 73zM174 264h191l-138 -579h-155z" />
    <glyph glyph-name="less" unicode="&#x3c;" horiz-adv-x="1454" 
d="M1178 909l-654 -260l654 -260v-178l-902 354v168l902 357v-181z" />
    <glyph glyph-name="equal" unicode="=" horiz-adv-x="1454" 
d="M276 961h902v-170h-902v170zM276 510h902v-170h-902v170z" />
    <glyph glyph-name="greater" unicode="&#x3e;" horiz-adv-x="1454" 
d="M1178 733v-168l-902 -354v178l656 260l-656 260v181z" />
    <glyph glyph-name="question" unicode="?" horiz-adv-x="944" 
d="M348 563q1 104 27 151.5t129 135.5l94 78q104 85 104 190q0 83 -56.5 129.5t-149.5 46.5q-98 0 -181 -54.5t-135 -156.5l-139 91q65 136 185 211t274 75q171 0 279 -92.5t108 -245.5q0 -86 -40 -159t-132 -150l-88 -74q-66 -55 -82.5 -87t-16.5 -101v-111h-180v123z
M328 96q-9 51 15 86.5t73 44.5q53 9 87.5 -14t43.5 -74q9 -52 -13.5 -87t-74.5 -44q-50 -11 -86 13t-45 75z" />
    <glyph glyph-name="at" unicode="@" horiz-adv-x="1970" 
d="M1016 1348q177 1 335 -58.5t273.5 -164.5t182 -258t65.5 -330q0 -229 -102 -368.5t-261 -139.5q-97 0 -169.5 55.5t-92.5 155.5q-40 -101 -122.5 -154t-198.5 -53q-187 0 -295.5 115.5t-108.5 310.5q0 187 112 307.5t296 120.5q103 0 185.5 -48.5t111.5 -129.5v153h145
v-522q3 -83 39 -126.5t96 -43.5q88 0 144.5 93.5t56.5 258.5q0 206 -92.5 359.5t-248 231t-351.5 77.5q-160 0 -297 -54.5t-233 -150.5t-150.5 -232t-54.5 -294q0 -320 206 -519.5t535 -199.5q237 0 391 88l70 -137q-86 -50 -207 -78.5t-256 -28.5q-260 -2 -467.5 109
t-323.5 311.5t-114 452.5q-1 152 43 290t126 247t193 189.5t249.5 123t289.5 41.5zM950 172q114 0 191.5 80.5t77.5 212.5q0 130 -78 210.5t-191 80.5q-117 0 -189.5 -83t-72.5 -208q0 -134 71.5 -213.5t190.5 -79.5z" />
    <glyph glyph-name="A" unicode="A" horiz-adv-x="1413" 
d="M1040 334l-667 2l-135 -336h-209l571 1434h203l581 -1434h-208zM979 506l-272 727l-273 -727h545z" />
    <glyph glyph-name="B" unicode="B" horiz-adv-x="1400" 
d="M1016 750q130 -34 204 -126.5t74 -224.5q0 -126 -67 -218.5t-173.5 -136.5t-236.5 -44h-620v1434h610q195 0 312.5 -97.5t117.5 -261.5q0 -116 -57.5 -200t-163.5 -125zM391 1268v-457h408q100 0 167.5 68t65.5 163q-2 94 -69.5 160t-163.5 66h-408zM821 166
q118 0 192 69t74 179q0 106 -74 173.5t-192 67.5h-432v-489h432z" />
    <glyph glyph-name="C" unicode="C" horiz-adv-x="1548" 
d="M856 -27q-134 0 -250.5 37t-204.5 104t-151 159.5t-95 205t-32 238.5q0 210 88.5 378t256.5 266.5t388 98.5q208 0 367.5 -96t249.5 -272l-162 -93q-62 125 -182 201t-273 76q-156 0 -277.5 -73.5t-186 -200.5t-64.5 -285q0 -159 63.5 -285.5t184.5 -200t280 -73.5
q156 0 275 72.5t182 203.5l160 -96q-85 -178 -245.5 -271.5t-371.5 -93.5z" />
    <glyph glyph-name="D" unicode="D" horiz-adv-x="1523" 
d="M709 1434q203 0 362 -93t246.5 -256.5t87.5 -367.5q0 -206 -87 -369.5t-246 -255.5t-363 -92h-512v1434h512zM686 182q233 0 373.5 149t140.5 386t-140.5 385.5t-373.5 148.5h-295v-1069h295z" />
    <glyph glyph-name="E" unicode="E" horiz-adv-x="1275" 
d="M1143 178v-178h-944v1434h923v-179h-729v-467h688v-174h-688v-436h750z" />
    <glyph glyph-name="F" unicode="F" horiz-adv-x="1208" 
d="M393 1255v-512h674v-180h-674v-563h-194v1434h901v-179h-707z" />
    <glyph glyph-name="G" unicode="G" horiz-adv-x="1607" 
d="M1475 770v-532q-236 -267 -621 -267q-224 3 -391.5 102t-253.5 265.5t-86 376.5t88 378t256 266.5t387 98.5q195 0 351.5 -85.5t248.5 -237.5l-162 -111q-65 121 -177.5 185.5t-260.5 64.5q-156 0 -277 -73t-186 -200t-65 -286q0 -158 63.5 -283.5t184 -199t280.5 -76.5
q278 0 440 159v291h-360v164h541z" />
    <glyph glyph-name="H" unicode="H" horiz-adv-x="1556" 
d="M1360 1434v-1434h-197v586h-770v-586h-194v1434h194v-666h770v666h197z" />
    <glyph glyph-name="I" unicode="I" horiz-adv-x="598" 
d="M203 1434h194v-1434h-194v1434z" />
    <glyph glyph-name="J" unicode="J" horiz-adv-x="1212" 
d="M545 -29q-128 0 -239.5 61.5t-179 166.5t-71.5 227l193 66v-33q0 -122 86.5 -208.5t210.5 -86.5q121 0 208 87t87 208v975h194v-971q0 -134 -65.5 -247t-178 -179t-245.5 -66z" />
    <glyph glyph-name="K" unicode="K" horiz-adv-x="1345" 
d="M1319 1434l-727 -725l723 -709h-246l-602 575l-74 -73v-502h-194v1434h194v-680l686 680h240z" />
    <glyph glyph-name="L" unicode="L" horiz-adv-x="1193" 
d="M1126 182v-182h-927v1434h194v-1252h733z" />
    <glyph glyph-name="M" unicode="M" horiz-adv-x="1916" 
d="M1720 1434v-1434h-194v1147l-498 -1147h-158l-479 1149v-1147h-192v1432h250l501 -1213l531 1213h239z" />
    <glyph glyph-name="N" unicode="N" horiz-adv-x="1599" 
d="M1403 1434v-1434h-184l-828 1112v-1112h-194v1434h184l827 -1112v1112h195z" />
    <glyph glyph-name="O" unicode="O" horiz-adv-x="1726" 
d="M864 -27q-211 0 -380.5 96t-265 266.5t-95.5 381.5t95.5 381t265 266t380.5 96q210 0 379.5 -96t265 -266t95.5 -381q0 -158 -56 -296.5t-154 -236.5t-235.5 -154.5t-294.5 -56.5zM864 158q113 0 212.5 43t170.5 117t112.5 178t41.5 221q0 118 -41.5 221.5t-112.5 177.5
t-170.5 117t-212.5 43q-230 0 -384 -160t-154 -399q0 -156 70 -284.5t193.5 -201.5t274.5 -73z" />
    <glyph glyph-name="P" unicode="P" horiz-adv-x="1355" 
d="M807 1434q197 0 327 -133t130 -336q0 -208 -129.5 -340.5t-327.5 -132.5h-414v-492h-194v1434h608zM782 670q120 0 199.5 81.5t79.5 213.5q0 124 -80 207t-199 83h-389v-585h389z" />
    <glyph glyph-name="Q" unicode="Q" horiz-adv-x="1726" 
d="M1606 717q0 -164 -68.5 -310t-189.5 -249l155 -195l-131 -102l-164 202q-161 -90 -346 -90q-165 0 -305 58.5t-234.5 159.5t-148 237t-53.5 289q0 205 92 374t262.5 269t386.5 100q202 0 373 -99t271 -270.5t100 -373.5zM862 158q116 0 221 59l-161 203l131 102l170 -209
q83 73 130.5 178.5t47.5 225.5q0 152 -72.5 281.5t-196.5 204.5t-270 75q-153 0 -276.5 -75.5t-191.5 -203.5t-68 -282q0 -153 67 -280.5t190.5 -203t278.5 -75.5z" />
    <glyph glyph-name="R" unicode="R" horiz-adv-x="1370" 
d="M641 541h-250v-535h-196v1428h634q183 0 314 -130.5t131 -314.5q0 -161 -102 -282t-254 -148l-62 -4l416 -543l-230 -12zM391 719h414q109 0 187.5 79t78.5 191q0 110 -78.5 188t-187.5 78h-414v-536z" />
    <glyph glyph-name="S" unicode="S" horiz-adv-x="1282" 
d="M653 -27q-208 0 -355 84t-218 240l137 104q134 -249 442 -249q158 0 248 64t90 175q0 85 -60 138t-206 87l-211 50q-205 51 -303 146t-98 243q0 184 137.5 294.5t378.5 110.5q188 0 327.5 -73t204.5 -201l-135 -107q-125 205 -397 205q-153 0 -235.5 -59.5t-82.5 -165.5
q0 -81 61.5 -132t215.5 -87l217 -54q201 -49 293 -143.5t92 -243.5q0 -193 -147.5 -309.5t-395.5 -116.5z" />
    <glyph glyph-name="T" unicode="T" horiz-adv-x="1253" 
d="M530 1251h-481v183h1155v-183h-477v-1251h-197v1251z" />
    <glyph glyph-name="U" unicode="U" horiz-adv-x="1527" 
d="M768 -25q-257 0 -419.5 159t-162.5 421v879h197v-889q0 -182 104.5 -283.5t280.5 -101.5q184 0 285.5 100.5t101.5 284.5v889h197v-879q0 -263 -160.5 -421.5t-423.5 -158.5z" />
    <glyph glyph-name="V" unicode="V" horiz-adv-x="1398" 
d="M1366 1434l-547 -1434h-233l-553 1434h211l458 -1207l453 1207h211z" />
    <glyph glyph-name="W" unicode="W" horiz-adv-x="2140" 
d="M1880 1434h209l-442 -1434h-224l-342 1057l-362 -1057h-219l-449 1434h207l360 -1164l410 1164h105l391 -1170z" />
    <glyph glyph-name="X" unicode="X" horiz-adv-x="1292" 
d="M1030 0l-375 567l-389 -567h-229l495 725l-462 709h223l364 -562l361 562h221l-461 -713l477 -721h-225z" />
    <glyph glyph-name="Y" unicode="Y" horiz-adv-x="1306" 
d="M1298 1434l-548 -850v-584h-199v584l-543 850h225l416 -662l424 662h225z" />
    <glyph glyph-name="Z" unicode="Z" horiz-adv-x="1241" 
d="M1151 178v-178h-1061v150l793 1107h-777v177h1035v-148l-793 -1108h803z" />
    <glyph glyph-name="bracketleft" unicode="[" horiz-adv-x="768" 
d="M383 1348v-1418h313v-168h-499v1754h499v-168h-313z" />
    <glyph glyph-name="backslash" unicode="\" horiz-adv-x="980" 
d="M778 -193l-758 1709h183l758 -1709h-183z" />
    <glyph glyph-name="bracketright" unicode="]" horiz-adv-x="768" 
d="M571 1516v-1754h-499v168h315v1418h-315v168h499z" />
    <glyph glyph-name="asciicircum" unicode="^" horiz-adv-x="1161" 
d="M895 723l-313 491l-316 -491h-205l435 661h172l432 -661h-205z" />
    <glyph glyph-name="underscore" unicode="_" horiz-adv-x="890" 
d="M0 -121h891v-141h-891v141z" />
    <glyph glyph-name="grave" unicode="`" horiz-adv-x="1269" 
d="M549 1194l-281 334h221l246 -334h-186z" />
    <glyph glyph-name="a" unicode="a" horiz-adv-x="1093" 
d="M995 0h-161v201q-37 -103 -135.5 -162t-237.5 -59q-174 0 -270.5 87.5t-96.5 233.5q0 132 92 211.5t251.5 98.5t373.5 -9l-2 76q0 109 -68 164t-180 55q-91 0 -169 -37.5t-132 -107.5l-104 106q157 191 419 191q189 0 304.5 -109.5t115.5 -288.5v-651zM811 489
q-244 39 -387 -7t-143 -171q0 -91 56.5 -140.5t168.5 -49.5q142 0 223.5 79.5t81.5 219.5v69z" />
    <glyph glyph-name="b" unicode="b" horiz-adv-x="1304" 
d="M741 1049q222 0 355 -147.5t133 -383.5q0 -247 -129 -394t-357 -147q-137 0 -248.5 68.5t-158.5 183.5v-227h-172v1432h186v-633q33 101 139 174.5t252 73.5zM692 145q154 0 249 103.5t95 269.5q0 164 -93.5 266.5t-244.5 102.5q-154 0 -251 -103t-97 -266
q0 -164 95.5 -268.5t246.5 -104.5z" />
    <glyph glyph-name="c" unicode="c" horiz-adv-x="1142" 
d="M627 -27q-234 0 -380.5 151.5t-146.5 393.5q0 239 147.5 392t379.5 153q151 0 268.5 -65t183.5 -185l-141 -96q-51 84 -130 129t-175 45q-152 0 -247 -103.5t-95 -269.5t95 -269.5t247 -103.5q96 0 175.5 47t129.5 132l141 -97q-66 -122 -183.5 -188t-268.5 -66z" />
    <glyph glyph-name="d" unicode="d" horiz-adv-x="1304" 
d="M1143 1434v-1432h-172v227q-45 -114 -157.5 -183t-248.5 -69q-228 0 -356.5 146.5t-128.5 394.5q0 236 132 383.5t355 147.5q139 0 248 -74t143 -174v633h185zM614 145q151 0 247.5 104.5t96.5 268.5q0 163 -97 266t-251 103q-151 0 -245.5 -102.5t-94.5 -266.5
q0 -166 95 -269.5t249 -103.5z" />
    <glyph glyph-name="e" unicode="e" horiz-adv-x="1218" 
d="M285 471q0 -149 101 -243.5t253 -94.5q109 0 202.5 44t145.5 120l109 -111q-66 -98 -190.5 -154.5t-274.5 -56.5q-239 0 -389 150t-150 389q0 235 150 384t383 149q248 0 382 -153t117 -423h-839zM625 903q-143 0 -239.5 -90t-102.5 -221h655q-3 139 -87 225t-226 86z
" />
    <glyph glyph-name="f" unicode="f" horiz-adv-x="800" 
d="M272 856h-231v170h231v156q0 120 78.5 186t190.5 66h229v-166h-217q-39 0 -65.5 -29.5t-26.5 -69.5v-143h303v-170h-303v-856h-189v856z" />
    <glyph glyph-name="g" unicode="g" horiz-adv-x="1327" 
d="M1165 1028v-944q0 -230 -149 -378t-381 -148q-160 0 -290.5 62t-203.5 165l90 131q64 -88 166 -140t226 -52q154 0 258 100t104 278v154q-46 -113 -146 -180.5t-237 -67.5q-230 0 -366 146t-136 383q0 228 131.5 370t354.5 142q87 0 161.5 -24.5t122 -63t77.5 -78.5
t44 -80v225h174zM631 164q152 0 250 99.5t98 258.5q0 169 -100.5 266t-243.5 97q-154 0 -249 -101t-95 -262q0 -158 93.5 -258t246.5 -100z" />
    <glyph glyph-name="h" unicode="h" horiz-adv-x="1239" 
d="M700 1044q166 0 275.5 -109t109.5 -273v-662h-188v616q0 116 -77 194.5t-191 78.5q-117 0 -197 -82t-80 -203v-604h-190v1434h190v-576q42 84 136 135t212 51z" />
    <glyph glyph-name="i" unicode="i" horiz-adv-x="518" 
d="M260 1247q-51 0 -87 36t-36 87q0 50 36 85.5t87 35.5q49 0 84 -35.5t35 -85.5q0 -51 -35 -87t-84 -36zM166 1024h188v-1024h-188v1024z" />
    <glyph glyph-name="j" unicode="j" horiz-adv-x="518" 
d="M258 1251q-56 0 -90.5 32.5t-34.5 86.5t34.5 86.5t90.5 32.5q57 0 91 -32.5t34 -86.5t-34 -86.5t-91 -32.5zM-78 -242h113q60 0 94.5 34t34.5 93v1139h190v-1171q0 -122 -74.5 -193.5t-203.5 -71.5h-154v170z" />
    <glyph glyph-name="k" unicode="k" horiz-adv-x="1087" 
d="M846 0l-445 426l-51 -57v-369h-188v1434h188v-846l488 436h223l-516 -475l524 -549h-223z" />
    <glyph glyph-name="l" unicode="l" horiz-adv-x="501" 
d="M154 0v1434h190v-1434h-190z" />
    <glyph glyph-name="m" unicode="m" horiz-adv-x="1880" 
d="M1364 1049q156 0 259 -110.5t103 -274.5v-662h-190v614q0 112 -71 187.5t-173 75.5q-107 0 -179.5 -77t-72.5 -186v-614h-188v614q0 111 -73 187t-177 76q-106 0 -177 -77t-71 -186v-614h-190v1022h186v-168q43 86 133 139.5t197 53.5q114 0 206 -63t126 -161
q39 98 136 161t216 63z" />
    <glyph glyph-name="n" unicode="n" horiz-adv-x="1232" 
d="M696 1049q160 0 272.5 -111.5t112.5 -269.5v-668h-190v608q0 111 -78.5 190.5t-191.5 80.5q-112 0 -190.5 -80t-78.5 -191v-608h-190v1024h186v-182q46 94 140.5 150.5t207.5 56.5z" />
    <glyph glyph-name="o" unicode="o" horiz-adv-x="1277" 
d="M639 -25q-241 0 -391 150.5t-150 392.5q0 233 153 382t392 149q238 0 388.5 -149t150.5 -382q0 -237 -153 -390t-390 -153zM639 141q155 0 253.5 105t98.5 268q0 164 -98 269.5t-250 105.5q-156 0 -254 -104.5t-98 -270.5t96.5 -269.5t251.5 -103.5z" />
    <glyph glyph-name="p" unicode="p" horiz-adv-x="1325" 
d="M741 1049q228 0 357 -147t129 -394q0 -236 -133 -384.5t-355 -148.5q-145 0 -251.5 74.5t-139.5 175.5v-604h-186v1403h172v-227q47 115 158.5 183.5t248.5 68.5zM696 139q150 0 244 102.5t94 266.5q0 166 -95 269.5t-249 103.5q-150 0 -246 -104.5t-96 -268.5
q0 -163 97 -266t251 -103z" />
    <glyph glyph-name="q" unicode="q" horiz-adv-x="1325" 
d="M1163 1024v-1430h-184v631q-35 -102 -140.5 -176t-250.5 -74q-223 0 -355.5 148.5t-132.5 384.5q0 247 129 394t357 147q136 0 248 -68.5t157 -183.5v227h172zM631 139q154 0 251 103t97 266q0 164 -96.5 268.5t-247.5 104.5q-154 0 -249 -103.5t-95 -269.5
q0 -164 94.5 -266.5t245.5 -102.5z" />
    <glyph glyph-name="r" unicode="r" horiz-adv-x="831" 
d="M682 1047q52 0 98 -15l-6 -178q-62 6 -125 6q-136 0 -217.5 -83.5t-81.5 -225.5v-551h-188v1024h184v-193q47 98 136.5 157t199.5 59z" />
    <glyph glyph-name="s" unicode="s" horiz-adv-x="1036" 
d="M530 -27q-149 0 -269.5 50.5t-186.5 140.5l88 125q61 -73 159 -115.5t211 -42.5q109 0 167.5 42t58.5 112q0 54 -39.5 87.5t-130.5 55.5l-201 49q-142 33 -207 101.5t-65 173.5q0 143 109.5 227t301.5 84q135 0 242.5 -42.5t167.5 -119.5l-90 -125q-126 129 -322 129
q-108 0 -164.5 -38.5t-56.5 -108.5q0 -53 38.5 -86t129.5 -54l199 -49q149 -36 214.5 -103t65.5 -173q0 -148 -111 -234t-309 -86z" />
    <glyph glyph-name="t" unicode="t" horiz-adv-x="837" 
d="M438 0q-76 0 -130 54.5t-54 131.5l2 670h-209v170h209v320h188v-320h316v-170h-316v-655q0 -12 8.5 -20.5t20.5 -8.5h289v-172h-324z" />
    <glyph glyph-name="u" unicode="u" horiz-adv-x="1228" 
d="M1067 1024v-1024h-184v182q-46 -94 -142 -151.5t-209 -57.5q-158 0 -270 112.5t-112 270.5v668h190v-606q0 -112 79 -191.5t189 -79.5q112 0 191.5 79.5t79.5 191.5v606h188z" />
    <glyph glyph-name="v" unicode="v" horiz-adv-x="1105" 
d="M1073 1024l-414 -1024h-206l-420 1024h203l319 -795l315 795h203z" />
    <glyph glyph-name="w" unicode="w" horiz-adv-x="1716" 
d="M1677 1036l-344 -1036h-211l-264 784l-266 -784h-209l-344 1036h194l263 -809l274 809h174l275 -809l264 809h194z" />
    <glyph glyph-name="x" unicode="x" horiz-adv-x="1079" 
d="M827 0l-288 401l-289 -401h-215l381 530l-359 494h209l273 -365l268 365h211l-359 -496l383 -528h-215z" />
    <glyph glyph-name="y" unicode="y" horiz-adv-x="1118" 
d="M1087 1036l-487 -1212q-89 -234 -358 -234h-197v170h166q171 0 219 129l47 115l-432 1032h203l323 -807l314 807h202z" />
    <glyph glyph-name="z" unicode="z" horiz-adv-x="1007" 
d="M915 162v-162h-827v127l576 747h-558v162h803v-125l-575 -749h581z" />
    <glyph glyph-name="braceleft" unicode="{" horiz-adv-x="755" 
d="M430 874q0 -103 -38.5 -159t-123.5 -76q85 -19 123.5 -75.5t38.5 -160.5v-303q0 -98 34 -134t124 -36h96v-168h-156q-156 0 -219 64t-63 223v354q0 81 -35 116.5t-115 35.5h-14v168h14q80 0 115 35t35 116v357q0 157 63 221t219 64h156v-168h-96q-90 0 -124 -36t-34 -132
v-306z" />
    <glyph glyph-name="bar" unicode="|" horiz-adv-x="636" 
d="M238 1567h161v-1772h-161v1772z" />
    <glyph glyph-name="braceright" unicode="}" horiz-adv-x="755" 
d="M674 723v-168h-15q-79 0 -113 -35t-34 -117v-354q0 -158 -64 -222.5t-219 -64.5h-157v168h98q88 0 122 36t34 134v303q0 104 39 160.5t122 75.5q-84 20 -122.5 76.5t-38.5 158.5v306q0 96 -34 132t-122 36h-98v168h157q155 0 219 -64t64 -221v-357q0 -82 33.5 -116.5
t113.5 -34.5h15z" />
    <glyph glyph-name="asciitilde" unicode="~" horiz-adv-x="1454" 
d="M524 621q-62 0 -119.5 -22.5t-128.5 -74.5v170q119 94 250 94q56 0 131 -27t149 -54t126 -27q125 0 246 94v-170q-121 -92 -246 -92q-57 0 -130 27t-146.5 54.5t-131.5 27.5z" />
    <glyph glyph-name="uni00A0" unicode="&#xa0;" horiz-adv-x="481" 
 />
    <glyph glyph-name="exclamdown" unicode="&#xa1;" horiz-adv-x="600" 
d="M410 942q9 -52 -13.5 -87t-74.5 -44q-50 -9 -86.5 14.5t-45.5 73.5q-9 51 15 86.5t74 44.5q53 9 87.5 -14t43.5 -74zM387 596l14 -993h-202l16 993h172z" />
    <glyph glyph-name="cent" unicode="&#xa2;" horiz-adv-x="1142" 
d="M676 147q83 11 151 56.5t111 120.5l141 -97q-60 -110 -165 -176t-238 -76v-233h-74v231q-224 9 -363 159.5t-139 385.5q0 232 139.5 384t362.5 161v188h74v-190q134 -11 238.5 -74.5t164.5 -173.5l-141 -96q-93 154 -262 172v-742zM291 518q0 -157 85.5 -258.5
t225.5 -112.5v742q-140 -11 -225.5 -112.5t-85.5 -258.5z" />
    <glyph glyph-name="sterling" unicode="&#xa3;" horiz-adv-x="1097" 
d="M414 172h624v-172h-977v172h160v465h-160v139h160v271q0 197 106.5 305t299.5 108q290 0 420 -241l-146 -99q-90 160 -262 160q-108 0 -166.5 -63t-58.5 -183v-258h491v-139h-491v-465z" />
    <glyph glyph-name="currency" unicode="&#xa4;" horiz-adv-x="1142" 
d="M991 711q0 -141 -76 -250l129 -129l-88 -90l-133 135q-104 -78 -252 -78q-145 0 -249 78l-136 -135l-88 90l129 129q-75 110 -75 250t75 247l-129 132l88 88l136 -136q107 80 249 80q145 0 252 -80l133 136l88 -88l-129 -132q76 -109 76 -247zM571 455q112 0 181 71
t69 185q0 113 -69 183.5t-181 70.5q-110 0 -179.5 -71t-69.5 -183q0 -114 69.5 -185t179.5 -71z" />
    <glyph glyph-name="yen" unicode="&#xa5;" horiz-adv-x="1183" 
d="M733 709h326v-117h-371v-199h371v-117h-371v-276h-192v276h-369v117h369v199h-369v117h324l-426 725h204l363 -629l362 629h205z" />
    <glyph glyph-name="brokenbar" unicode="&#xa6;" horiz-adv-x="636" 
d="M238 1567h161v-723h-161v723zM238 502h161v-707h-161v707z" />
    <glyph glyph-name="section" unicode="&#xa7;" horiz-adv-x="1122" 
d="M793 338q110 -38 162.5 -105t52.5 -167q0 -157 -112.5 -245.5t-320.5 -88.5q-155 0 -277.5 50t-188.5 140l88 127q59 -74 159.5 -116t223.5 -42q235 0 235 168q0 66 -42 104.5t-140 61.5l-199 49q-149 36 -223 108t-74 187q0 105 59 184t164 105q-109 38 -161 103.5
t-52 166.5q0 157 111.5 244.5t316.5 87.5q142 0 250.5 -42.5t167.5 -119.5l-90 -124q-123 126 -328 126q-235 0 -235 -165q0 -66 40.5 -103.5t135.5 -60.5l201 -47q153 -37 226 -109.5t73 -187.5q0 -106 -59 -184.5t-164 -104.5zM322 600q0 -75 45 -119t149 -69l62 -11
q121 -22 187 36.5t66 158.5q0 77 -46 120t-152 68l-60 13q-62 11 -111 -1t-79 -40.5t-45.5 -68.5t-15.5 -87z" />
    <glyph glyph-name="dieresis" unicode="&#xa8;" horiz-adv-x="1269" 
d="M403 1247q-55 0 -88.5 34t-33.5 87q0 54 33.5 87.5t88.5 33.5q54 0 88.5 -33.5t34.5 -87.5q0 -53 -34.5 -87t-88.5 -34zM868 1247q-55 0 -89 34t-34 87q0 54 34 87.5t89 33.5q54 0 88.5 -33.5t34.5 -87.5q0 -53 -34.5 -87t-88.5 -34z" />
    <glyph glyph-name="copyright" unicode="&#xa9;" horiz-adv-x="1720" 
d="M860 -27q-151 -1 -289.5 58t-237.5 159t-157 238.5t-57 288.5q-1 151 57 289t157 238t237 158.5t290 57.5q152 1 290.5 -57.5t237.5 -158.5t157 -238t57 -289q2 -201 -96.5 -373t-270.5 -272.5t-375 -98.5zM860 72q176 -2 323.5 85t231 236t82.5 324q1 131 -48.5 251
t-134 207t-203.5 138.5t-251 50.5q-132 1 -250.5 -50.5t-203 -138.5t-133.5 -207t-48 -251q-2 -175 81.5 -324t231 -236t322.5 -85zM881 295q-185 0 -298.5 117.5t-113.5 304.5q0 188 113.5 305t298.5 117q118 0 209.5 -49t140.5 -140l-115 -78q-35 61 -96 94t-135 33
q-116 0 -188 -76.5t-72 -205.5q0 -128 72.5 -204.5t187.5 -76.5q74 0 135 33t96 94l115 -78q-49 -92 -140.5 -141t-209.5 -49z" />
    <glyph glyph-name="guillemotleft" unicode="&#xab;" horiz-adv-x="1107" 
d="M264 518l305 -438h-200l-308 438l308 438h200zM725 518l307 -438h-201l-307 438l307 438h201z" />
    <glyph glyph-name="logicalnot" unicode="&#xac;" horiz-adv-x="1454" 
d="M1178 735v-387h-177v217h-725v170h902z" />
    <glyph glyph-name="registered" unicode="&#xae;" horiz-adv-x="1140" 
d="M569 1462q124 0 228.5 -60t164.5 -163.5t60 -226.5q0 -91 -35.5 -174.5t-96 -144t-144.5 -96.5t-177 -36q-187 0 -318.5 132.5t-131.5 318.5q0 188 131.5 319t318.5 131zM569 637q156 0 262.5 109.5t106.5 265.5q0 158 -106.5 267.5t-262.5 109.5t-261 -109.5
t-105 -267.5q0 -156 105 -265.5t261 -109.5zM768 1106q0 -63 -34.5 -100t-100.5 -43l145 -185h-88l-137 183h-76v-183h-78v475h201q83 0 125.5 -38t42.5 -109zM477 1024h119q92 0 92 82q0 80 -92 80h-119v-162z" />
    <glyph glyph-name="macron" unicode="&#xaf;" horiz-adv-x="1394" 
d="M375 1348h647v-152h-647v152z" />
    <glyph glyph-name="degree" unicode="&#xb0;" horiz-adv-x="768" 
d="M385 848q-136 0 -224.5 88t-88.5 219t88.5 218t224.5 87t223.5 -87t87.5 -218t-88 -219t-223 -88zM385 975q77 0 126.5 49.5t49.5 130.5q0 79 -49.5 128.5t-126.5 49.5q-78 0 -127 -49.5t-49 -128.5q0 -81 49 -130.5t127 -49.5z" />
    <glyph glyph-name="plusminus" unicode="&#xb1;" horiz-adv-x="1454" 
d="M1178 825v-170h-361v-340h-178v340h-363v170h363v340h178v-340h361zM276 170h902v-170h-902v170z" />
    <glyph glyph-name="acute" unicode="&#xb4;" horiz-adv-x="1269" 
d="M784 1528h222l-281 -334h-186z" />
    <glyph glyph-name="uni00B5" unicode="&#xb5;" horiz-adv-x="1245" 
d="M1083 1036v-1036h-168v188q-34 -101 -118 -158t-201 -57q-176 0 -244 133v-557h-190v1487h190v-610q0 -281 246 -281q138 0 217.5 83.5t79.5 240.5v567h188z" />
    <glyph glyph-name="paragraph" unicode="&#xb6;" horiz-adv-x="1331" 
d="M500 819h-33q-172 0 -268.5 85.5t-96.5 221.5q0 139 102 223.5t294 84.5h168v-1700h-166v1085zM928 1434h166v-1700h-166v1700z" />
    <glyph glyph-name="cedilla" unicode="&#xb8;" horiz-adv-x="1269" 
d="M569 18h162l-125 -424h-192z" />
    <glyph glyph-name="guillemotright" unicode="&#xbb;" horiz-adv-x="1107" 
d="M383 518l-305 438h201l307 -438l-307 -438h-201zM1047 518l-308 -438h-200l307 438l-307 438h200z" />
    <glyph glyph-name="questiondown" unicode="&#xbf;" horiz-adv-x="944" 
d="M616 942q9 -51 -14 -86.5t-74 -44.5t-86.5 14t-44.5 74t14 86.5t74 44.5t86.5 -14t44.5 -74zM596 475q-1 -105 -27 -152t-129 -135l-94 -79q-104 -85 -104 -191q0 -83 57 -129.5t150 -46.5q98 0 180.5 54.5t134.5 156.5l139 -90q-65 -136 -185 -211.5t-274 -75.5
q-171 0 -279 92.5t-108 245.5q0 87 40 160.5t132 150.5l88 74q65 53 82 85.5t17 100.5v111h180v-121z" />
    <glyph glyph-name="Agrave" unicode="&#xc0;" horiz-adv-x="1427" 
d="M608 1591l-221 334h191l215 -334h-185zM1040 334l-667 2l-135 -336h-209l571 1434h203l581 -1434h-208zM979 506l-272 727l-273 -727h545z" />
    <glyph glyph-name="Aacute" unicode="&#xc1;" horiz-adv-x="1427" 
d="M813 1591h-184l215 334h190zM1040 334l-667 2l-135 -336h-209l571 1434h203l581 -1434h-208zM979 506l-272 727l-273 -727h545z" />
    <glyph glyph-name="Acircumflex" unicode="&#xc2;" horiz-adv-x="1427" 
d="M530 1591h-192l293 334h188l291 -334h-190l-195 224zM1040 334l-667 2l-135 -336h-209l571 1434h203l581 -1434h-208zM979 506l-272 727l-273 -727h545z" />
    <glyph glyph-name="Atilde" unicode="&#xc3;" horiz-adv-x="1427" 
d="M713 1692q-62 53 -113 53q-78 0 -78 -117h-141q0 127 47.5 194.5t134.5 67.5q42 0 80.5 -16.5t91.5 -54.5q63 -54 115 -54q78 0 78 117h139q0 -128 -47 -195t-133 -67q-44 0 -83 16.5t-91 55.5zM1040 334l-667 2l-135 -336h-209l571 1434h203l581 -1434h-208zM979 506
l-272 727l-273 -727h545z" />
    <glyph glyph-name="Adieresis" unicode="&#xc4;" horiz-adv-x="1427" 
d="M494 1642q-52 0 -88.5 36t-36.5 87t36.5 87t88.5 36q50 0 85 -36t35 -87t-35 -87t-85 -36zM958 1642q-52 0 -88 36t-36 87t36 87t88 36q50 0 85.5 -36t35.5 -87t-35.5 -87t-85.5 -36zM1040 334l-667 2l-135 -336h-209l571 1434h203l581 -1434h-208zM979 506l-272 727
l-273 -727h545z" />
    <glyph glyph-name="Aring" unicode="&#xc5;" horiz-adv-x="1427" 
d="M567 1726q-44 60 -28.5 132.5t82.5 115.5q66 42 140.5 28.5t119.5 -73.5t29.5 -131.5t-81.5 -114.5q-68 -42 -142 -29.5t-120 72.5zM776 1913q-40 24 -77 14.5t-62 -47.5q-24 -39 -13.5 -75.5t50.5 -61.5q38 -23 75 -13.5t62 48.5q24 37 14 74t-49 61zM1040 334l-667 2
l-135 -336h-209l571 1434h203l581 -1434h-208zM979 506l-272 727l-273 -727h545z" />
    <glyph glyph-name="AE" unicode="&#xc6;" horiz-adv-x="2222" 
d="M2089 182v-182h-1004v346h-602l-227 -346h-236l951 1434h1097v-181h-786v-438h746v-180h-746v-453h807zM1085 510v758l-503 -758h503z" />
    <glyph glyph-name="Ccedilla" unicode="&#xc7;" horiz-adv-x="1552" 
d="M856 158q156 0 275 72.5t182 203.5l160 -96q-79 -167 -225.5 -259.5t-340.5 -103.5l-108 -381h-193l139 386q-191 24 -333 126.5t-215.5 260t-73.5 350.5q0 210 88.5 378t256.5 266.5t388 98.5q208 0 367.5 -96t249.5 -272l-162 -93q-62 131 -180.5 204t-274.5 73
t-277.5 -73.5t-186 -200.5t-64.5 -285q0 -159 63.5 -285.5t184.5 -200t280 -73.5z" />
    <glyph glyph-name="Egrave" unicode="&#xc8;" horiz-adv-x="1333" 
d="M651 1591l-221 334h193l215 -334h-187zM1192 178v-178h-993v1434h972v-179h-778v-479h740v-176h-740v-422h799z" />
    <glyph glyph-name="Eacute" unicode="&#xc9;" horiz-adv-x="1333" 
d="M727 1591h-186l215 334h192zM1200 178v-178h-1003v1434h983v-179h-787v-454h742v-176h-742v-447h807z" />
    <glyph glyph-name="Ecircumflex" unicode="&#xca;" horiz-adv-x="1333" 
d="M872 1591l-194 224l-195 -224h-192l293 334h188l291 -334h-191zM1192 178v-178h-993v1434h972v-179h-778v-479h740v-176h-740v-422h799z" />
    <glyph glyph-name="Edieresis" unicode="&#xcb;" horiz-adv-x="1333" 
d="M322 1767q0 51 35.5 87t86.5 36t87 -36t36 -87t-36 -86.5t-87 -35.5t-86.5 35.5t-35.5 86.5zM786 1767q0 51 36 87t87 36t87 -36t36 -87t-36 -86.5t-87 -35.5t-87 35.5t-36 86.5zM1192 178v-178h-993v1434h972v-179h-778v-479h740v-176h-740v-422h799z" />
    <glyph glyph-name="Igrave" unicode="&#xcc;" horiz-adv-x="598" 
d="M236 1591l-252 334h223l215 -334h-186zM201 1434h196v-1434h-196v1434z" />
    <glyph glyph-name="Iacute" unicode="&#xcd;" horiz-adv-x="598" 
d="M424 1917h221l-252 -334h-184zM201 1434h196v-1434h-196v1434z" />
    <glyph glyph-name="Icircumflex" unicode="&#xce;" horiz-adv-x="598" 
d="M686 1591h-192l-195 224l-195 -224h-192l293 334h188zM201 1434h196v-1434h-196v1434z" />
    <glyph glyph-name="Idieresis" unicode="&#xcf;" horiz-adv-x="598" 
d="M68 1645q-55 0 -90 33.5t-35 86.5q0 54 34.5 87.5t90.5 33.5q54 0 88 -33.5t34 -87.5q0 -53 -34 -86.5t-88 -33.5zM532 1645q-55 0 -88.5 33.5t-33.5 86.5q0 54 33.5 87.5t88.5 33.5q54 0 88.5 -33.5t34.5 -87.5q0 -53 -34.5 -86.5t-88.5 -33.5zM201 1434h196v-1434h-196
v1434z" />
    <glyph glyph-name="Eth" unicode="&#xd0;" horiz-adv-x="1579" 
d="M1460 717q0 -224 -90.5 -387.5t-251 -246.5t-373.5 -83h-503v639h-205v158h205v637h503q213 0 373.5 -83t251 -246.5t90.5 -387.5zM1253 717q0 261 -134.5 397.5t-373.5 136.5h-307v-454h373v-158h-373v-457h307q239 0 373.5 137t134.5 398z" />
    <glyph glyph-name="Eth" unicode="&#xf0;" horiz-adv-x="1579" 
d="M1460 717q0 -224 -90.5 -387.5t-251 -246.5t-373.5 -83h-503v639h-205v158h205v637h503q213 0 373.5 -83t251 -246.5t90.5 -387.5zM1253 717q0 261 -134.5 397.5t-373.5 136.5h-307v-454h373v-158h-373v-457h307q239 0 373.5 137t134.5 398z" />
    <glyph glyph-name="Ntilde" unicode="&#xd1;" horiz-adv-x="1609" 
d="M680 1745q-78 0 -78 -117h-139q0 126 47.5 194t132.5 68q43 0 82 -16.5t90 -54.5q66 -54 115 -54q78 0 78 117h141q0 -128 -47.5 -195t-134.5 -67q-76 0 -172 72q-65 53 -115 53zM1413 1434v-1434h-184l-838 1112v-1112h-194v1434h184l838 -1112v1112h194z" />
    <glyph glyph-name="Ograve" unicode="&#xd2;" horiz-adv-x="1714" 
d="M809 1591l-221 334h190l215 -334h-184zM864 -27q-211 0 -380.5 96t-265 266.5t-95.5 381.5t95.5 381t265 266t380.5 96q210 0 379.5 -96t265 -266t95.5 -381q0 -158 -56 -296.5t-154 -236.5t-235.5 -154.5t-294.5 -56.5zM864 158q113 0 212.5 43t170.5 117t112.5 178
t41.5 221q0 118 -41.5 221.5t-112.5 177.5t-170.5 117t-212.5 43q-230 0 -384 -160t-154 -399q0 -156 70 -284.5t193.5 -201.5t274.5 -73z" />
    <glyph glyph-name="Oacute" unicode="&#xd3;" horiz-adv-x="1714" 
d="M922 1591h-185l215 334h191zM864 -27q-211 0 -380.5 96t-265 266.5t-95.5 381.5t95.5 381t265 266t380.5 96q210 0 379.5 -96t265 -266t95.5 -381q0 -158 -56 -296.5t-154 -236.5t-235.5 -154.5t-294.5 -56.5zM864 158q113 0 212.5 43t170.5 117t112.5 178t41.5 221
q0 118 -41.5 221.5t-112.5 177.5t-170.5 117t-212.5 43q-230 0 -384 -160t-154 -399q0 -156 70 -284.5t193.5 -201.5t274.5 -73z" />
    <glyph glyph-name="Ocircumflex" unicode="&#xd4;" horiz-adv-x="1714" 
d="M664 1591h-193l293 334h188l291 -334h-190l-195 224zM864 -27q-211 0 -380.5 96t-265 266.5t-95.5 381.5t95.5 381t265 266t380.5 96q210 0 379.5 -96t265 -266t95.5 -381q0 -158 -56 -296.5t-154 -236.5t-235.5 -154.5t-294.5 -56.5zM864 158q113 0 212.5 43t170.5 117
t112.5 178t41.5 221q0 118 -41.5 221.5t-112.5 177.5t-170.5 117t-212.5 43q-230 0 -384 -160t-154 -399q0 -156 70 -284.5t193.5 -201.5t274.5 -73z" />
    <glyph glyph-name="Otilde" unicode="&#xd5;" horiz-adv-x="1714" 
d="M1020 1620q-44 0 -83 16.5t-91 55.5q-62 53 -113 53q-78 0 -78 -117h-141q0 127 47.5 194.5t134.5 67.5q42 0 80.5 -16.5t91.5 -54.5q63 -54 115 -54q78 0 78 117h139q0 -128 -47 -195t-133 -67zM858 -27q-156 -1 -294 56t-235.5 156t-154 237.5t-55.5 294.5
q-1 156 55.5 294.5t154 237.5t235.5 155.5t294 55.5q156 1 293.5 -55.5t235 -155.5t153.5 -237.5t55 -294.5q1 -156 -55 -294.5t-153.5 -237.5t-235 -156t-293.5 -56zM858 160q231 0 382 156.5t151 400.5q0 160 -69 288t-190.5 199.5t-273.5 71.5q-232 0 -382 -158
t-150 -401q0 -244 150 -400.5t382 -156.5z" />
    <glyph glyph-name="Odieresis" unicode="&#xd6;" horiz-adv-x="1714" 
d="M625 1645q-51 0 -87 35.5t-36 86.5t36 87t87 36t87 -36t36 -87t-36 -86.5t-87 -35.5zM1090 1645q-51 0 -87 35.5t-36 86.5t36 87t87 36t86.5 -36t35.5 -87t-35.5 -86.5t-86.5 -35.5zM864 -27q-211 0 -380.5 96t-265 266.5t-95.5 381.5t95.5 381t265 266t380.5 96
q210 0 379.5 -96t265 -266t95.5 -381q0 -158 -56 -296.5t-154 -236.5t-235.5 -154.5t-294.5 -56.5zM864 158q113 0 212.5 43t170.5 117t112.5 178t41.5 221q0 118 -41.5 221.5t-112.5 177.5t-170.5 117t-212.5 43q-230 0 -384 -160t-154 -399q0 -156 70 -284.5t193.5 -201.5
t274.5 -73z" />
    <glyph glyph-name="multiply" unicode="&#xd7;" horiz-adv-x="1454" 
d="M844 649l303 -301l-117 -117l-303 301l-301 -301l-117 117l301 301l-301 303l117 117l301 -303l303 303l117 -117z" />
    <glyph glyph-name="Oslash" unicode="&#xd8;" horiz-adv-x="1714" 
d="M1595 717q1 -156 -55 -294.5t-153.5 -237.5t-235 -156t-293.5 -56q-277 0 -473 168l-154 -155l-102 106l152 152q-162 198 -162 473q-1 156 55.5 294.5t154 237.5t235.5 155.5t294 55.5q274 0 473 -166l154 154l104 -102l-153 -154q159 -204 159 -475zM326 717
q0 -189 100 -332l768 768q-139 123 -336 123q-232 0 -382 -158t-150 -401zM1391 717q0 190 -103 330l-766 -766q137 -121 336 -121q231 0 382 156.5t151 400.5z" />
    <glyph glyph-name="Ugrave" unicode="&#xd9;" horiz-adv-x="1523" 
d="M686 1591l-221 334h192l215 -334h-186zM768 -27q-257 0 -419.5 160t-162.5 422v879h197v-889q0 -182 104.5 -283.5t280.5 -101.5q184 0 285.5 100.5t101.5 284.5v889h197v-879q0 -263 -160.5 -422.5t-423.5 -159.5z" />
    <glyph glyph-name="Uacute" unicode="&#xda;" horiz-adv-x="1523" 
d="M815 1591h-184l215 334h190zM768 -27q-257 0 -419.5 160t-162.5 422v879h197v-889q0 -182 104.5 -283.5t280.5 -101.5q184 0 285.5 100.5t101.5 284.5v889h197v-879q0 -263 -160.5 -422.5t-423.5 -159.5z" />
    <glyph glyph-name="Ucircumflex" unicode="&#xdb;" horiz-adv-x="1523" 
d="M956 1591l-194 224l-195 -224h-190l291 334h188l293 -334h-193zM768 -27q-257 0 -419.5 160t-162.5 422v879h197v-889q0 -182 104.5 -283.5t280.5 -101.5q184 0 285.5 100.5t101.5 284.5v889h197v-879q0 -263 -160.5 -422.5t-423.5 -159.5z" />
    <glyph glyph-name="Udieresis" unicode="&#xdc;" horiz-adv-x="1523" 
d="M530 1645q-52 0 -88 35.5t-36 86.5t36 87t88 36q50 0 85.5 -36t35.5 -87t-35.5 -86.5t-85.5 -35.5zM995 1645q-52 0 -88.5 35.5t-36.5 86.5t36.5 87t88.5 36q50 0 85.5 -36t35.5 -87t-35.5 -86.5t-85.5 -35.5zM768 -27q-257 0 -419.5 160t-162.5 422v879h197v-889
q0 -182 104.5 -283.5t280.5 -101.5q184 0 285.5 100.5t101.5 284.5v889h197v-879q0 -263 -160.5 -422.5t-423.5 -159.5z" />
    <glyph glyph-name="Yacute" unicode="&#xdd;" horiz-adv-x="1302" 
d="M711 1591h-185l215 334h191zM1315 1434l-557 -850v-584h-199v584l-551 850h225l424 -662l433 662h225z" />
    <glyph glyph-name="Thorn" unicode="&#xde;" horiz-adv-x="1374" 
d="M1284 733q0 -223 -132 -340t-384 -117h-375v-276h-196v1434h196v-246h375q252 0 384 -116t132 -339zM1079 733q0 136 -81 205.5t-238 69.5h-367v-553h367q157 0 238 70t81 208z" />
    <glyph glyph-name="germandbls" unicode="&#xdf;" horiz-adv-x="1280" 
d="M838 764q170 -12 263 -107.5t93 -255.5q0 -187 -123.5 -294t-343.5 -107h-172v166h141q151 0 228 65t77 189q0 246 -307 246h-141v170h65q144 0 222 65t78 191q0 123 -72.5 188.5t-206.5 65.5q-142 0 -214.5 -73.5t-72.5 -215.5v-1057h-190v1063q0 218 124 335.5
t351 117.5q218 0 342.5 -108t124.5 -294q0 -137 -69 -228t-197 -122z" />
    <glyph glyph-name="agrave" unicode="&#xe0;" horiz-adv-x="1097" 
d="M543 1194l-252 334h223l215 -334h-186zM995 0h-161v201q-37 -103 -135.5 -162t-237.5 -59q-167 0 -267 88.5t-100 232.5q0 99 54 169.5t150 105t227 43t286 -16.5l-2 84q0 102 -63 156.5t-171 54.5q-92 0 -171.5 -37.5t-133.5 -107.5l-104 106q61 85 179.5 137t244.5 52
q189 0 297 -104t108 -284v-659zM811 489q-244 39 -387 -7t-143 -171q0 -89 59.5 -139.5t165.5 -50.5q142 0 223.5 79.5t81.5 219.5v69z" />
    <glyph glyph-name="aacute" unicode="&#xe1;" horiz-adv-x="1124" 
d="M729 1194h-186l215 334h186zM1010 0h-162v201q-39 -103 -136.5 -162t-236.5 -59q-170 0 -275.5 89t-105.5 232q0 99 56 169.5t154 105t231 43t288 -16.5v84q0 102 -62 156.5t-165 54.5q-97 0 -178 -37.5t-133 -107.5l-105 106q60 85 177.5 137t238.5 52
q201 0 307.5 -102.5t106.5 -285.5v-659zM825 489q-162 24 -283 14.5t-191 -59.5t-70 -133q0 -88 66 -139t173 -51q141 0 223 79.5t82 219.5v69z" />
    <glyph glyph-name="acircumflex" unicode="&#xe2;" horiz-adv-x="1112" 
d="M809 1194l-195 223l-194 -223h-191l291 334h189l292 -334h-192zM995 0h-161v201q-37 -103 -135.5 -162t-237.5 -59q-167 0 -267 88.5t-100 232.5q0 99 54 169.5t150 105t227 43t286 -16.5l-2 84q0 102 -63 156.5t-171 54.5q-92 0 -171.5 -37.5t-133.5 -107.5l-104 106
q61 85 179.5 137t244.5 52q189 0 297 -104t108 -284v-659zM811 489q-244 39 -387 -7t-143 -171q0 -89 59.5 -139.5t165.5 -50.5q142 0 223.5 79.5t81.5 219.5v69z" />
    <glyph glyph-name="atilde" unicode="&#xe3;" horiz-adv-x="1089" 
d="M651 1294q-66 54 -114 54q-78 0 -78 -117h-140q0 126 47.5 194t133.5 68q79 0 172 -72q64 -53 114 -53q78 0 78 117h142q0 -128 -48 -195t-135 -67q-84 0 -172 71zM995 0h-161v201q-37 -103 -135.5 -162t-237.5 -59q-167 0 -267 88.5t-100 232.5q0 99 54 169.5t150 105
t227 43t286 -16.5l-2 84q0 102 -63 156.5t-171 54.5q-92 0 -171.5 -37.5t-133.5 -107.5l-104 106q61 85 179.5 137t244.5 52q189 0 297 -104t108 -284v-659zM811 489q-244 39 -387 -7t-143 -171q0 -89 59.5 -139.5t165.5 -50.5q142 0 223.5 79.5t81.5 219.5v69z" />
    <glyph glyph-name="adieresis" unicode="&#xe4;" horiz-adv-x="1146" 
d="M428 1247q-52 0 -88.5 36t-36.5 87t36.5 87t88.5 36q50 0 85.5 -36t35.5 -87t-35.5 -87t-85.5 -36zM893 1247q-52 0 -88.5 36t-36.5 87t36.5 87t88.5 36q50 0 85.5 -36t35.5 -87t-35.5 -87t-85.5 -36zM995 0h-161v201q-37 -103 -135.5 -162t-237.5 -59q-167 0 -267 88.5
t-100 232.5q0 99 54 169.5t150 105t227 43t286 -16.5l-2 84q0 102 -63 156.5t-171 54.5q-92 0 -171.5 -37.5t-133.5 -107.5l-104 106q61 85 179.5 137t244.5 52q189 0 297 -104t108 -284v-659zM811 489q-244 39 -387 -7t-143 -171q0 -89 59.5 -139.5t165.5 -50.5
q142 0 223.5 79.5t81.5 219.5v69z" />
    <glyph glyph-name="aring" unicode="&#xe5;" horiz-adv-x="1159" 
d="M629 1184q-111 0 -185.5 72t-74.5 176t74 174.5t186 70.5t187 -71t75 -174q0 -104 -75 -176t-187 -72zM629 1567q-63 0 -100 -36.5t-37 -98.5t37 -100t100 -38q64 0 101.5 38t37.5 100t-37.5 98.5t-101.5 36.5zM995 0h-161v201q-37 -103 -135.5 -162t-237.5 -59
q-167 0 -267 88.5t-100 232.5q0 99 54 169.5t150 105t227 43t286 -16.5l-2 84q0 102 -63 156.5t-171 54.5q-92 0 -171.5 -37.5t-133.5 -107.5l-104 106q61 85 179.5 137t244.5 52q189 0 297 -104t108 -284v-659zM811 489q-244 39 -387 -7t-143 -171q0 -89 59.5 -139.5
t165.5 -50.5q142 0 223.5 79.5t81.5 219.5v69z" />
    <glyph glyph-name="ae" unicode="&#xe6;" horiz-adv-x="1916" 
d="M1323 1047q248 0 382.5 -153t117.5 -423h-840q0 -149 101 -243.5t253 -94.5q109 0 203 44t146 120l108 -111q-66 -98 -190.5 -154.5t-274.5 -56.5q-148 0 -265 60t-187 168q-74 -113 -189.5 -168t-247.5 -55q-167 0 -266.5 88.5t-99.5 232.5q0 99 54 169.5t150 105
t227 43t286 -16.5l-3 84q0 102 -62.5 156.5t-170.5 54.5q-92 0 -171.5 -37.5t-133.5 -107.5l-105 106q61 85 179.5 137t244.5 52q248 0 351 -170q73 81 176.5 125.5t226.5 44.5zM981 592h655q-3 139 -87 225t-226 86q-143 0 -239.5 -90t-102.5 -221zM791 408v81
q-244 39 -387.5 -7t-143.5 -171q0 -89 59.5 -139.5t165.5 -50.5q149 0 227.5 77.5t78.5 209.5z" />
    <glyph glyph-name="ccedilla" unicode="&#xe7;" horiz-adv-x="1142" 
d="M633 145q96 0 175.5 47t129.5 132l141 -97q-57 -104 -153 -168.5t-219 -81.5l-113 -383h-193l142 386q-200 28 -321.5 174.5t-121.5 363.5q0 239 147.5 392t379.5 153q151 0 268.5 -65t183.5 -185l-141 -96q-51 84 -130 129t-175 45q-152 0 -247 -103.5t-95 -269.5
t95 -269.5t247 -103.5z" />
    <glyph glyph-name="egrave" unicode="&#xe8;" horiz-adv-x="1218" 
d="M553 1194l-252 334h221l215 -334h-184zM285 471q0 -149 101 -243.5t253 -94.5q109 0 202.5 44t145.5 120l109 -111q-66 -98 -190.5 -154.5t-274.5 -56.5q-239 0 -389 150t-150 389q0 235 150 384t383 149q248 0 382 -153t117 -423h-839zM625 903q-143 0 -239.5 -90
t-102.5 -221h655q-3 139 -87 225t-226 86z" />
    <glyph glyph-name="eacute" unicode="&#xe9;" horiz-adv-x="1226" 
d="M692 1194h-186l215 334h192zM285 471q0 -149 101 -243.5t253 -94.5q109 0 202.5 44t145.5 120l109 -111q-66 -98 -190.5 -154.5t-274.5 -56.5q-239 0 -389 150t-150 389q0 235 150 384t383 149q248 0 382 -153t117 -423h-839zM625 903q-143 0 -239.5 -90t-102.5 -221h655
q-3 139 -87 225t-226 86z" />
    <glyph glyph-name="ecircumflex" unicode="&#xea;" horiz-adv-x="1218" 
d="M815 1194l-194 223l-195 -223h-190l290 334h189l293 -334h-193zM285 471q0 -149 101 -243.5t253 -94.5q109 0 202.5 44t145.5 120l109 -111q-66 -98 -190.5 -154.5t-274.5 -56.5q-239 0 -389 150t-150 389q0 235 150 384t383 149q248 0 382 -153t117 -423h-839zM625 903
q-143 0 -239.5 -90t-102.5 -221h655q-3 139 -87 225t-226 86z" />
    <glyph glyph-name="edieresis" unicode="&#xeb;" horiz-adv-x="1218" 
d="M377 1247q-52 0 -88.5 36t-36.5 87t36.5 87t88.5 36q50 0 85.5 -36t35.5 -87t-35.5 -87t-85.5 -36zM842 1247q-52 0 -88.5 36t-36.5 87t36.5 87t88.5 36q50 0 85.5 -36t35.5 -87t-35.5 -87t-85.5 -36zM285 471q0 -149 101 -243.5t253 -94.5q109 0 202.5 44t145.5 120
l109 -111q-66 -98 -190.5 -154.5t-274.5 -56.5q-239 0 -389 150t-150 389q0 235 150 384t383 149q248 0 382 -153t117 -423h-839zM625 903q-143 0 -239.5 -90t-102.5 -221h655q-3 139 -87 225t-226 86z" />
    <glyph glyph-name="igrave" unicode="&#xec;" horiz-adv-x="518" 
d="M-74 1528h193l229 -334h-186zM164 1024h190v-1024h-190v1024z" />
    <glyph glyph-name="iacute" unicode="&#xed;" horiz-adv-x="518" 
d="M346 1194h-186l215 334h192zM164 1024h190v-1024h-190v1024z" />
    <glyph glyph-name="icircumflex" unicode="&#xee;" horiz-adv-x="518" 
d="M592 1194h-172l-160 225l-160 -225h-174l244 334h178zM164 1024h190v-1024h-190v1024z" />
    <glyph glyph-name="idieresis" unicode="&#xef;" horiz-adv-x="518" 
d="M68 1257q-47 0 -77 30.5t-30 80.5q0 51 30 81t77 30q48 0 77 -29.5t29 -81.5q0 -51 -29 -81t-77 -30zM451 1257q-46 0 -75.5 30.5t-29.5 80.5q0 52 29 81.5t76 29.5q48 0 77 -29.5t29 -81.5q0 -50 -30 -80.5t-76 -30.5zM164 1024h190v-1024h-190v1024z" />
    <glyph glyph-name="ntilde" unicode="&#xf1;" horiz-adv-x="1232" 
d="M612 1294q-66 54 -114 54q-78 0 -78 -117h-139q0 126 47.5 194t132.5 68q43 0 81.5 -17t90.5 -55q64 -53 115 -53q77 0 77 117h142q0 -128 -48 -195t-135 -67q-42 0 -81.5 16t-90.5 55zM696 1051q160 0 272.5 -112.5t112.5 -270.5v-668h-190v608q0 111 -78.5 190.5
t-191.5 80.5q-112 0 -190.5 -80t-78.5 -191v-608h-190v1024h186v-182q46 94 140.5 151.5t207.5 57.5z" />
    <glyph glyph-name="ograve" unicode="&#xf2;" horiz-adv-x="1280" 
d="M614 1194l-221 334h193l215 -334h-187zM639 -27q-159 0 -283 71.5t-191 195.5t-67 278q0 153 67.5 277t192.5 196t285 72q161 0 285 -72.5t189 -195.5t65 -277q0 -151 -66.5 -275t-191.5 -197t-285 -73zM639 145q157 0 254.5 106t97.5 267q0 163 -95.5 269t-252.5 106
q-158 0 -255 -106t-97 -269q0 -164 94.5 -268.5t253.5 -104.5z" />
    <glyph glyph-name="oacute" unicode="&#xf3;" horiz-adv-x="1280" 
d="M707 1194h-187l215 334h193zM639 -27q-159 0 -283 71.5t-191 195.5t-67 278q0 153 67.5 277t192.5 196t285 72q161 0 285 -72.5t189 -195.5t65 -277q0 -151 -66.5 -275t-191.5 -197t-285 -73zM639 145q157 0 254.5 106t97.5 267q0 163 -95.5 269t-252.5 106
q-158 0 -255 -106t-97 -269q0 -164 94.5 -268.5t253.5 -104.5z" />
    <glyph glyph-name="ocircumflex" unicode="&#xf4;" horiz-adv-x="1280" 
d="M836 1194l-195 223l-195 -223h-192l293 334h188l291 -334h-190zM639 -27q-159 0 -283 71.5t-191 195.5t-67 278q0 153 67.5 277t192.5 196t285 72q161 0 285 -72.5t189 -195.5t65 -277q0 -151 -66.5 -275t-191.5 -197t-285 -73zM639 145q157 0 254.5 106t97.5 267
q0 163 -95.5 269t-252.5 106q-158 0 -255 -106t-97 -269q0 -164 94.5 -268.5t253.5 -104.5z" />
    <glyph glyph-name="otilde" unicode="&#xf5;" horiz-adv-x="1280" 
d="M803 1223q-44 0 -83.5 16t-90.5 55q-63 54 -113 54q-78 0 -78 -117h-141q0 127 47.5 194.5t134.5 67.5q41 0 80 -17t92 -55q62 -53 115 -53q78 0 78 117h139q0 -128 -47 -195t-133 -67zM641 -27q-243 0 -393 153.5t-150 391.5q0 157 66.5 280.5t191 194t285.5 70.5
q242 0 391.5 -153t149.5 -392q0 -156 -66.5 -279.5t-190.5 -194.5t-284 -71zM641 143q157 0 252.5 103t95.5 272q0 170 -95.5 272.5t-252.5 102.5t-253.5 -102.5t-96.5 -272.5q0 -169 96.5 -272t253.5 -103z" />
    <glyph glyph-name="odieresis" unicode="&#xf6;" horiz-adv-x="1280" 
d="M285 1370q0 51 36 87t87 36t86.5 -36t35.5 -87t-35.5 -87t-86.5 -36t-87 36t-36 87zM750 1370q0 51 35.5 87t86.5 36t87 -36t36 -87t-36 -87t-87 -36t-86.5 36t-35.5 87zM639 -27q-159 0 -283 71.5t-191 195.5t-67 278q0 153 67.5 277t192.5 196t285 72q161 0 285 -72.5
t189 -195.5t65 -277q0 -151 -66.5 -275t-191.5 -197t-285 -73zM639 145q157 0 254.5 106t97.5 267q0 163 -95.5 269t-252.5 106q-158 0 -255 -106t-97 -269q0 -164 94.5 -268.5t253.5 -104.5z" />
    <glyph glyph-name="divide" unicode="&#xf7;" horiz-adv-x="1454" 
d="M731 922q-51 0 -85 34t-34 84q0 51 34 86t85 35q50 0 84.5 -35t34.5 -86q0 -49 -34.5 -83.5t-84.5 -34.5zM276 735h902v-170h-902v170zM731 141q-51 0 -85 34t-34 85q0 50 34 84.5t85 34.5q49 0 84 -34.5t35 -84.5q0 -51 -34.5 -85t-84.5 -34z" />
    <glyph glyph-name="oslash" unicode="&#xf8;" horiz-adv-x="1288" 
d="M1079 862q107 -141 107 -344q0 -156 -66.5 -279.5t-190.5 -194.5t-284 -71q-200 0 -344 113l-127 -127l-88 90l125 125q-109 142 -109 344q0 157 66.5 280.5t191 194t285.5 70.5q202 0 342 -113l127 127l90 -90zM645 903q-162 0 -260 -105.5t-98 -279.5q0 -133 63 -221
l524 524q-88 82 -229 82zM645 133q161 0 260 106t99 279q0 127 -62 221l-526 -524q91 -82 229 -82z" />
    <glyph glyph-name="ugrave" unicode="&#xf9;" horiz-adv-x="1224" 
d="M582 1194l-222 334h193l215 -334h-186zM1067 1024v-1024h-184v199q-40 -102 -140.5 -164t-230.5 -62q-166 0 -264 104.5t-98 284.5v662h190v-598q0 -136 66 -207.5t182 -73.5q126 0 208.5 80.5t82.5 210.5v588h188z" />
    <glyph glyph-name="uacute" unicode="&#xfa;" horiz-adv-x="1224" 
d="M639 1194h-184l215 334h190zM1067 1024v-1024h-184v182q-46 -94 -142 -151.5t-209 -57.5q-158 0 -270 112.5t-112 270.5v668h190v-606q0 -112 79 -191.5t189 -79.5q112 0 191.5 79.5t79.5 191.5v606h188z" />
    <glyph glyph-name="ucircumflex" unicode="&#xfb;" horiz-adv-x="1224" 
d="M416 1194h-193l293 334h189l290 -334h-190l-195 223zM1067 1024v-1024h-184v182q-46 -94 -142 -151.5t-209 -57.5q-158 0 -270 112.5t-112 270.5v668h190v-606q0 -112 79 -191.5t189 -79.5q112 0 191.5 79.5t79.5 191.5v606h188z" />
    <glyph glyph-name="udieresis" unicode="&#xfc;" horiz-adv-x="1224" 
d="M254 1370q0 51 36 87t87 36t87 -36t36 -87t-36 -87t-87 -36t-87 36t-36 87zM719 1370q0 51 36 87t87 36t87 -36t36 -87t-36 -87t-87 -36t-87 36t-36 87zM1067 1024v-1024h-184v182q-46 -94 -142 -151.5t-209 -57.5q-158 0 -270 112.5t-112 270.5v668h190v-606
q0 -112 79 -191.5t189 -79.5q112 0 191.5 79.5t79.5 191.5v606h188z" />
    <glyph glyph-name="yacute" unicode="&#xfd;" horiz-adv-x="1107" 
d="M586 1194h-187l215 334h193zM1077 1024l-479 -1180q-58 -143 -141.5 -198.5t-237.5 -55.5h-174v170h143q105 0 154.5 30t81.5 114l43 100l-432 1020h205l323 -799l309 799h205z" />
    <glyph glyph-name="thorn" unicode="&#xfe;" horiz-adv-x="1325" 
d="M741 1049q228 0 357 -147t129 -394q0 -236 -133 -384.5t-355 -148.5q-145 0 -251.5 74.5t-139.5 175.5v-604h-186v1813h172v-637q47 115 158.5 183.5t248.5 68.5zM696 139q150 0 244 102.5t94 266.5q0 166 -95 269.5t-249 103.5q-150 0 -246 -104.5t-96 -268.5
q0 -163 97 -266t251 -103z" />
    <glyph glyph-name="ydieresis" unicode="&#xff;" horiz-adv-x="1107" 
d="M324 1247q-52 0 -88.5 36t-36.5 87t36.5 87t88.5 36q50 0 85 -36t35 -87t-35 -87t-85 -36zM788 1247q-52 0 -88 36t-36 87t36 87t88 36q50 0 85.5 -36t35.5 -87t-35.5 -87t-85.5 -36zM1077 1036l-479 -1192q-56 -143 -140.5 -198.5t-238.5 -55.5h-174v170h143
q105 0 154.5 30t81.5 114l43 100l-432 1032h205l323 -811l309 811h205z" />
    <glyph glyph-name="Amacron" unicode="&#x100;" horiz-adv-x="1427" 
d="M1049 1651h-648v151h648v-151zM1040 334l-667 2l-135 -336h-209l571 1434h203l581 -1434h-208zM979 506l-272 727l-273 -727h545z" />
    <glyph glyph-name="amacron" unicode="&#x101;" horiz-adv-x="1077" 
d="M958 1253h-647v152h647v-152zM995 0h-161v201q-37 -103 -135.5 -162t-237.5 -59q-167 0 -267 88.5t-100 232.5q0 99 54 169.5t150 105t227 43t286 -16.5l-2 84q0 102 -63 156.5t-171 54.5q-92 0 -171.5 -37.5t-133.5 -107.5l-104 106q61 85 179.5 137t244.5 52
q189 0 297 -104t108 -284v-659zM811 489q-244 39 -387 -7t-143 -171q0 -89 59.5 -139.5t165.5 -50.5q142 0 223.5 79.5t81.5 219.5v69z" />
    <glyph glyph-name="Abreve" unicode="&#x102;" horiz-adv-x="1427" 
d="M725 1591q-145 0 -233.5 78.5t-88.5 206.5v12h152q0 -78 47 -126t123 -48q75 0 121.5 48t46.5 126h151v-12q0 -128 -87.5 -206.5t-231.5 -78.5zM1040 334l-667 2l-135 -336h-209l571 1434h203l581 -1434h-208zM979 506l-272 727l-273 -727h545z" />
    <glyph glyph-name="abreve" unicode="&#x103;" horiz-adv-x="1150" 
d="M649 1194q-144 0 -231.5 78.5t-87.5 206.5v12h151q0 -78 46.5 -126t121.5 -48q76 0 123 48t47 126h152v-12q0 -128 -88.5 -206.5t-233.5 -78.5zM995 0h-161v201q-37 -103 -135.5 -162t-237.5 -59q-167 0 -267 88.5t-100 232.5q0 99 54 169.5t150 105t227 43t286 -16.5
l-2 84q0 102 -63 156.5t-171 54.5q-92 0 -171.5 -37.5t-133.5 -107.5l-104 106q61 85 179.5 137t244.5 52q189 0 297 -104t108 -284v-659zM811 489q-244 39 -387 -7t-143 -171q0 -89 59.5 -139.5t165.5 -50.5q142 0 223.5 79.5t81.5 219.5v69z" />
    <glyph glyph-name="Aogonek" unicode="&#x104;" horiz-adv-x="1427" 
d="M1198 -209q0 -90 148 -90h36v-137h-71q-131 0 -200 49t-69 137q0 150 164 250h-30l-136 334l-667 2l-135 -336h-209l571 1434h203l581 -1434h-12q-95 -60 -134.5 -109t-39.5 -100zM434 506h545l-272 727z" />
    <glyph glyph-name="aogonek" unicode="&#x105;" horiz-adv-x="1101" 
d="M815 -209q0 -90 146 -90h38v-137h-71q-133 0 -202 49t-69 137q0 138 177 252v199q-37 -103 -135.5 -162t-237.5 -59q-167 0 -267 88.5t-100 232.5q0 99 54 169.5t150 105t227 43t286 -16.5l-2 84q0 102 -63 156.5t-171 54.5q-92 0 -171.5 -37.5t-133.5 -107.5l-104 106
q61 85 179.5 137t244.5 52q189 0 297 -104t108 -284v-659h4q-98 -61 -141 -110t-43 -99zM811 420v69q-244 39 -387 -7t-143 -171q0 -89 59.5 -139.5t165.5 -50.5q142 0 223.5 79.5t81.5 219.5z" />
    <glyph glyph-name="Cacute" unicode="&#x106;" horiz-adv-x="1552" 
d="M924 1591h-185l215 334h191zM856 -27q-134 0 -250.5 37t-204.5 104t-151 159.5t-95 205t-32 238.5q0 210 88.5 378t256.5 266.5t388 98.5q208 0 367.5 -96t249.5 -272l-162 -93q-62 131 -180.5 204t-274.5 73t-277.5 -73.5t-186 -200.5t-64.5 -285q0 -159 63.5 -285.5
t184.5 -200t280 -73.5q156 0 275 72.5t182 203.5l160 -96q-85 -178 -245.5 -271.5t-371.5 -93.5z" />
    <glyph glyph-name="cacute" unicode="&#x107;" horiz-adv-x="1142" 
d="M674 1194h-185l216 334h190zM627 -27q-234 0 -380.5 151.5t-146.5 393.5q0 239 147.5 392t379.5 153q151 0 268.5 -65t183.5 -185l-141 -96q-51 84 -130 129t-175 45q-152 0 -247 -103.5t-95 -269.5t95 -269.5t247 -103.5q96 0 175.5 47t129.5 132l141 -97
q-66 -122 -183.5 -188t-268.5 -66z" />
    <glyph glyph-name="Ccircumflex" unicode="&#x108;" horiz-adv-x="1552" 
d="M649 1591h-190l291 334h188l293 -334h-193l-194 224zM856 -27q-134 0 -250.5 37t-204.5 104t-151 159.5t-95 205t-32 238.5q0 210 88.5 378t256.5 266.5t388 98.5q208 0 367.5 -96t249.5 -272l-162 -93q-62 131 -180.5 204t-274.5 73t-277.5 -73.5t-186 -200.5
t-64.5 -285q0 -159 63.5 -285.5t184.5 -200t280 -73.5q156 0 275 72.5t182 203.5l160 -96q-85 -178 -245.5 -271.5t-371.5 -93.5z" />
    <glyph glyph-name="ccircumflex" unicode="&#x109;" horiz-adv-x="1142" 
d="M432 1194h-192l292 334h189l291 -334h-191l-194 223zM627 -27q-234 0 -380.5 151.5t-146.5 393.5q0 239 147.5 392t379.5 153q151 0 268.5 -65t183.5 -185l-141 -96q-51 84 -130 129t-175 45q-152 0 -247 -103.5t-95 -269.5t95 -269.5t247 -103.5q96 0 175.5 47
t129.5 132l141 -97q-66 -122 -183.5 -188t-268.5 -66z" />
    <glyph glyph-name="Cdotaccent" unicode="&#x10a;" horiz-adv-x="1552" 
d="M844 1645q-51 0 -87 35.5t-36 86.5t36 87t87 36t87 -36t36 -87t-36 -86.5t-87 -35.5zM856 -27q-134 0 -250.5 37t-204.5 104t-151 159.5t-95 205t-32 238.5q0 210 88.5 378t256.5 266.5t388 98.5q208 0 367.5 -96t249.5 -272l-162 -93q-62 131 -180.5 204t-274.5 73
t-277.5 -73.5t-186 -200.5t-64.5 -285q0 -159 63.5 -285.5t184.5 -200t280 -73.5q156 0 275 72.5t182 203.5l160 -96q-85 -178 -245.5 -271.5t-371.5 -93.5z" />
    <glyph glyph-name="cdotaccent" unicode="&#x10b;" horiz-adv-x="1142" 
d="M627 1247q-52 0 -88.5 36t-36.5 87t36.5 87t88.5 36q50 0 85.5 -36t35.5 -87t-35.5 -87t-85.5 -36zM627 -27q-234 0 -380.5 151.5t-146.5 393.5q0 239 147.5 392t379.5 153q151 0 268.5 -65t183.5 -185l-141 -96q-51 84 -130 129t-175 45q-152 0 -247 -103.5t-95 -269.5
t95 -269.5t247 -103.5q96 0 175.5 47t129.5 132l141 -97q-66 -122 -183.5 -188t-268.5 -66z" />
    <glyph glyph-name="Ccaron" unicode="&#x10c;" horiz-adv-x="1552" 
d="M750 1591l-291 334h190l195 -225l194 225h193l-293 -334h-188zM856 -27q-134 0 -250.5 37t-204.5 104t-151 159.5t-95 205t-32 238.5q0 210 88.5 378t256.5 266.5t388 98.5q208 0 367.5 -96t249.5 -272l-162 -93q-62 131 -180.5 204t-274.5 73t-277.5 -73.5t-186 -200.5
t-64.5 -285q0 -159 63.5 -285.5t184.5 -200t280 -73.5q156 0 275 72.5t182 203.5l160 -96q-85 -178 -245.5 -271.5t-371.5 -93.5z" />
    <glyph glyph-name="ccaron" unicode="&#x10d;" horiz-adv-x="1142" 
d="M532 1194l-292 334h192l195 -225l194 225h191l-291 -334h-189zM627 -27q-234 0 -380.5 151.5t-146.5 393.5q0 239 147.5 392t379.5 153q151 0 268.5 -65t183.5 -185l-141 -96q-51 84 -130 129t-175 45q-152 0 -247 -103.5t-95 -269.5t95 -269.5t247 -103.5q96 0 175.5 47
t129.5 132l141 -97q-66 -122 -183.5 -188t-268.5 -66z" />
    <glyph glyph-name="Dcaron" unicode="&#x10e;" horiz-adv-x="1533" 
d="M596 1591l-291 334h191l194 -225l195 225h192l-293 -334h-188zM719 1434q203 0 362 -93t246.5 -256.5t87.5 -367.5q0 -206 -87 -369.5t-246 -255.5t-363 -92h-522v1434h522zM696 182q233 0 373.5 149t140.5 386t-140.5 385.5t-373.5 148.5h-305v-1069h305z" />
    <glyph glyph-name="dcaron" unicode="&#x10f;" horiz-adv-x="1466" 
d="M1479 1499v-412h-150v412h150zM1143 1495v-1493h-172v227q-46 -117 -148 -184.5t-237 -67.5q-230 0 -368 147.5t-138 389.5q0 237 137.5 386t360.5 149q141 0 243 -73t137 -175v694h185zM614 145q151 0 247.5 104.5t96.5 268.5q0 165 -96.5 270t-247.5 105
q-153 0 -248.5 -104t-95.5 -271q0 -166 96 -269.5t248 -103.5z" />
    <glyph glyph-name="Dcroat" unicode="&#x110;" horiz-adv-x="1583" 
d="M745 1434q213 0 373.5 -83t251 -246.5t90.5 -387.5t-90.5 -387.5t-251 -246.5t-373.5 -83h-503v639h-205v158h205v637h503zM745 182q239 0 373.5 137t134.5 398t-134.5 397.5t-373.5 136.5h-307v-454h373v-158h-373v-457h307z" />
    <glyph glyph-name="dcroat" unicode="&#x111;" horiz-adv-x="1304" 
d="M1382 1348v-152h-239v-1194h-172v227q-46 -117 -148 -184.5t-237 -67.5q-230 0 -368 147.5t-138 389.5q0 237 137.5 386t360.5 149q141 0 243 -73t137 -175v395h-223v152h223v147h185v-147h239zM614 145q151 0 247.5 104.5t96.5 268.5q0 165 -96.5 270t-247.5 105
q-153 0 -248.5 -104t-95.5 -271q0 -166 96 -269.5t248 -103.5z" />
    <glyph glyph-name="Emacron" unicode="&#x112;" horiz-adv-x="1333" 
d="M354 1802h647v-151h-647v151zM1192 178v-178h-993v1434h972v-179h-778v-479h740v-176h-740v-422h799z" />
    <glyph glyph-name="emacron" unicode="&#x113;" horiz-adv-x="1218" 
d="M297 1405h647v-152h-647v152zM285 471q0 -149 101 -243.5t253 -94.5q109 0 202.5 44t145.5 120l109 -111q-66 -98 -190.5 -154.5t-274.5 -56.5q-239 0 -389 150t-150 389q0 235 150 384t383 149q248 0 382 -153t117 -423h-839zM625 903q-143 0 -239.5 -90t-102.5 -221
h655q-3 139 -87 225t-226 86z" />
    <glyph glyph-name="Ebreve" unicode="&#x114;" horiz-adv-x="1333" 
d="M356 1888h152q0 -78 47 -126t123 -48q75 0 121.5 48t46.5 126h151q0 -134 -87.5 -215.5t-231.5 -81.5q-145 0 -233.5 81.5t-88.5 215.5zM1192 178v-178h-993v1434h972v-179h-778v-479h740v-176h-740v-422h799z" />
    <glyph glyph-name="ebreve" unicode="&#x115;" horiz-adv-x="1218" 
d="M301 1491h152q0 -78 46.5 -126t121.5 -48q76 0 123 48t47 126h151q0 -134 -88 -215.5t-233 -81.5t-232.5 81.5t-87.5 215.5zM285 471q0 -149 101 -243.5t253 -94.5q109 0 202.5 44t145.5 120l109 -111q-66 -98 -190.5 -154.5t-274.5 -56.5q-239 0 -389 150t-150 389
q0 235 150 384t383 149q248 0 382 -153t117 -423h-839zM625 903q-143 0 -239.5 -90t-102.5 -221h655q-3 139 -87 225t-226 86z" />
    <glyph glyph-name="Edotaccent" unicode="&#x116;" horiz-adv-x="1333" 
d="M551 1765q0 55 35 88t92 33q56 0 90.5 -33t34.5 -88q0 -54 -34.5 -87t-90.5 -33q-57 0 -92 33t-35 87zM1192 178v-178h-993v1434h972v-179h-778v-479h740v-176h-740v-422h799z" />
    <glyph glyph-name="edotaccent" unicode="&#x117;" horiz-adv-x="1218" 
d="M496 1368q0 55 34.5 88t90.5 33q57 0 92 -33t35 -88q0 -54 -35 -87.5t-92 -33.5q-56 0 -90.5 33.5t-34.5 87.5zM285 471q0 -149 101 -243.5t253 -94.5q109 0 202.5 44t145.5 120l109 -111q-66 -98 -190.5 -154.5t-274.5 -56.5q-239 0 -389 150t-150 389q0 235 150 384
t383 149q248 0 382 -153t117 -423h-839zM625 903q-143 0 -239.5 -90t-102.5 -221h655q-3 139 -87 225t-226 86z" />
    <glyph glyph-name="Eogonek" unicode="&#x118;" horiz-adv-x="1333" 
d="M393 178h799v-178h-2q-98 -61 -141 -110t-43 -99q0 -52 43.5 -71t140.5 -19v-137q-180 0 -260 42.5t-80 143.5q0 145 168 250h-819v1434h972v-179h-778v-479h740v-176h-740v-422z" />
    <glyph glyph-name="eogonek" unicode="&#x119;" horiz-adv-x="1204" 
d="M639 133q109 0 202.5 44t145.5 120l109 -111q-88 -126 -262 -180q-84 -69 -84 -147q0 -90 147 -90h37v-138h-72q-131 0 -199.5 49.5t-68.5 137.5t61 168q-48 -7 -90 -4q-213 19 -343 164.5t-130 367.5q0 235 150 384t383 149q248 0 382 -153t117 -423h-839
q0 -149 101 -243.5t253 -94.5zM625 903q-143 0 -239.5 -90t-102.5 -221h655q-3 139 -87 225t-226 86z" />
    <glyph glyph-name="Ecaron" unicode="&#x11a;" horiz-adv-x="1333" 
d="M1063 1925l-291 -334h-188l-293 334h192l195 -225l194 225h191zM1192 178v-178h-993v1434h972v-179h-778v-479h740v-176h-740v-422h799z" />
    <glyph glyph-name="ecaron" unicode="&#x11b;" horiz-adv-x="1218" 
d="M1008 1528l-293 -334h-189l-290 334h190l195 -225l194 225h193zM285 471q0 -149 101 -243.5t253 -94.5q109 0 202.5 44t145.5 120l109 -111q-66 -98 -190.5 -154.5t-274.5 -56.5q-239 0 -389 150t-150 389q0 235 150 384t383 149q248 0 382 -153t117 -423h-839zM625 903
q-143 0 -239.5 -90t-102.5 -221h655q-3 139 -87 225t-226 86z" />
    <glyph glyph-name="Gcircumflex" unicode="&#x11c;" horiz-adv-x="1597" 
d="M647 1591h-190l291 334h188l293 -334h-193l-194 224zM1475 770v-532q-236 -267 -621 -267q-224 3 -391.5 102t-253.5 265.5t-86 376.5t88 378t256 266.5t387 98.5q195 0 351.5 -85.5t248.5 -237.5l-162 -111q-65 121 -177.5 185.5t-260.5 64.5q-156 0 -277 -73t-186 -200
t-65 -286q0 -158 63.5 -283.5t184 -199t280.5 -76.5q278 0 440 159v291h-360v164h541z" />
    <glyph glyph-name="gcircumflex" unicode="&#x11d;" horiz-adv-x="1327" 
d="M469 1194h-190l290 334h189l293 -334h-193l-194 223zM1165 1024v-918q0 -249 -150 -395.5t-405 -146.5q-146 0 -273.5 48.5t-203.5 131.5l86 135q69 -69 170.5 -109t208.5 -40q175 0 281 99t106 296v131q-42 -113 -152.5 -179.5t-248.5 -66.5q-217 0 -351.5 147
t-134.5 380q0 227 134 368.5t352 141.5q139 0 244.5 -61.5t146.5 -164.5v203h190zM637 174q151 0 247.5 101.5t96.5 261.5q0 161 -96.5 262.5t-247.5 101.5q-152 0 -249 -101.5t-97 -262.5q0 -160 97 -261.5t249 -101.5z" />
    <glyph glyph-name="Gbreve" unicode="&#x11e;" horiz-adv-x="1597" 
d="M842 1591q-144 0 -232 78.5t-88 206.5v12h152q0 -78 46.5 -126t121.5 -48q76 0 123 48t47 126h151v-12q0 -128 -88.5 -206.5t-232.5 -78.5zM1475 770v-532q-236 -267 -621 -267q-224 3 -391.5 102t-253.5 265.5t-86 376.5t88 378t256 266.5t387 98.5q195 0 351.5 -85.5
t248.5 -237.5l-162 -111q-65 121 -177.5 185.5t-260.5 64.5q-156 0 -277 -73t-186 -200t-65 -286q0 -158 63.5 -283.5t184 -199t280.5 -76.5q278 0 440 159v291h-360v164h541z" />
    <glyph glyph-name="gbreve" unicode="&#x11f;" horiz-adv-x="1327" 
d="M344 1491h152q0 -78 46.5 -126t121.5 -48q76 0 123 48t47 126h151v-12q0 -128 -88.5 -206.5t-232.5 -78.5t-232 78.5t-88 206.5v12zM1165 1028v-944q0 -230 -149 -378t-381 -148q-144 0 -278 63.5t-205 163.5l88 131q61 -85 168.5 -138.5t214.5 -53.5q154 0 258 100
t104 278v146q-44 -107 -155.5 -173.5t-245.5 -66.5q-216 0 -350 147t-134 382q0 225 134.5 367.5t349.5 142.5q137 0 242.5 -60.5t148.5 -161.5v203h190zM637 174q151 0 247.5 101.5t96.5 261.5q0 158 -96.5 260t-247.5 102q-153 0 -249.5 -101t-96.5 -261q0 -162 96 -262.5
t250 -100.5z" />
    <glyph glyph-name="Gdotaccent" unicode="&#x120;" horiz-adv-x="1597" 
d="M842 1645q-56 0 -90.5 33t-34.5 87q0 55 34.5 88t90.5 33q57 0 92 -33t35 -88q0 -54 -35 -87t-92 -33zM1475 770v-532q-236 -267 -621 -267q-224 3 -391.5 102t-253.5 265.5t-86 376.5t88 378t256 266.5t387 98.5q195 0 351.5 -85.5t248.5 -237.5l-162 -111
q-65 121 -177.5 185.5t-260.5 64.5q-156 0 -277 -73t-186 -200t-65 -286q0 -158 63.5 -283.5t184 -199t280.5 -76.5q278 0 440 159v291h-360v164h541z" />
    <glyph glyph-name="gdotaccent" unicode="&#x121;" horiz-adv-x="1327" 
d="M541 1370q0 51 36 87t87 36t86.5 -36t35.5 -87t-35.5 -87t-86.5 -36t-87 36t-36 87zM1165 1028v-944q0 -230 -149 -378t-381 -148q-144 0 -278 63.5t-205 163.5l88 131q61 -85 168.5 -138.5t214.5 -53.5q154 0 258 100t104 278v146q-44 -107 -155.5 -173.5t-245.5 -66.5
q-216 0 -350 147t-134 382q0 225 134.5 367.5t349.5 142.5q137 0 242.5 -60.5t148.5 -161.5v203h190zM637 174q151 0 247.5 101.5t96.5 261.5q0 158 -96.5 260t-247.5 102q-153 0 -249.5 -101t-96.5 -261q0 -162 96 -262.5t250 -100.5z" />
    <glyph glyph-name="uni0122" unicode="&#x122;" horiz-adv-x="1597" 
d="M1475 770v-532q-236 -267 -621 -267q-224 3 -391.5 102t-253.5 265.5t-86 376.5t88 378t256 266.5t387 98.5q195 0 351.5 -85.5t248.5 -237.5l-162 -111q-65 121 -177.5 185.5t-260.5 64.5q-156 0 -277 -73t-186 -200t-65 -286q0 -158 63.5 -283.5t184 -199t280.5 -76.5
q278 0 440 159v291h-360v164h541zM774 -184h189l-121 -365h-150z" />
    <glyph glyph-name="uni0123" unicode="&#x123;" horiz-adv-x="1327" 
d="M741 1194h-186l215 334h193zM1165 1028v-944q0 -230 -149 -378t-381 -148q-144 0 -278 63.5t-205 163.5l88 131q61 -85 168.5 -138.5t214.5 -53.5q154 0 258 100t104 278v146q-44 -107 -155.5 -173.5t-245.5 -66.5q-216 0 -350 147t-134 382q0 225 134.5 367.5
t349.5 142.5q137 0 242.5 -60.5t148.5 -161.5v203h190zM637 174q151 0 247.5 101.5t96.5 261.5q0 158 -96.5 260t-247.5 102q-153 0 -249.5 -101t-96.5 -261q0 -162 96 -262.5t250 -100.5z" />
    <glyph glyph-name="Hcircumflex" unicode="&#x124;" horiz-adv-x="1570" 
d="M981 1591l-195 224l-194 -224h-193l293 334h189l290 -334h-190zM1374 1434v-1434h-194v586h-787v-586h-194v1434h194v-666h787v666h194z" />
    <glyph glyph-name="hcircumflex" unicode="&#x125;" horiz-adv-x="1236" 
d="M453 1657l-195 223l-195 -223h-192l293 334h188l291 -334h-190zM700 1049q166 0 275.5 -109.5t109.5 -273.5v-666h-188v621q0 115 -77 192.5t-191 77.5q-117 0 -197 -81.5t-80 -201.5v-608h-190v1497h190v-635q42 84 136.5 135.5t211.5 51.5z" />
    <glyph glyph-name="Hbar" unicode="&#x126;" horiz-adv-x="1640" 
d="M1552 1057h-143v-1057h-197v645h-784v-645h-197v1057h-143v139h143v238h197v-238h784v238h197v-238h143v-139zM1212 1057h-784v-230h784v230z" />
    <glyph glyph-name="hbar" unicode="&#x127;" horiz-adv-x="1236" 
d="M719 1044q176 0 270 -104t94 -301v-639h-188v594q0 278 -248 278q-136 0 -215.5 -79t-79.5 -222v-571h-190v1204h-166v127h166v168h190v-168h381v-127h-381v-379q40 102 136.5 160.5t230.5 58.5z" />
    <glyph glyph-name="Itilde" unicode="&#x128;" horiz-adv-x="598" 
d="M461 1620q-76 0 -172 72q-65 53 -115 53q-78 0 -78 -117h-141q0 126 48 194t134 68q43 0 82 -16.5t90 -54.5q66 -54 115 -54q78 0 78 117h141q0 -128 -47.5 -195t-134.5 -67zM201 1434h196v-1434h-196v1434z" />
    <glyph glyph-name="itilde" unicode="&#x129;" horiz-adv-x="518" 
d="M248 1294q-63 54 -111 54q-30 0 -43.5 -27t-13.5 -90h-125q0 262 145 262q40 0 78.5 -17t91.5 -55q62 -53 111 -53q31 0 44 26.5t13 90.5h125q0 -262 -145 -262q-75 0 -170 71zM164 1024h190v-1024h-190v1024z" />
    <glyph glyph-name="Imacron" unicode="&#x12a;" horiz-adv-x="598" 
d="M-25 1802h648v-151h-648v151zM201 1434h196v-1434h-196v1434z" />
    <glyph glyph-name="imacron" unicode="&#x12b;" horiz-adv-x="518" 
d="M-10 1405h538v-152h-538v152zM164 1024h190v-1024h-190v1024z" />
    <glyph glyph-name="Ibreve" unicode="&#x12c;" horiz-adv-x="598" 
d="M299 1591q-155 0 -238.5 74t-83.5 211v12h154q0 -89 41 -131.5t127 -42.5t128 42.5t42 131.5h152v-12q0 -137 -83.5 -211t-238.5 -74zM201 1434h196v-1434h-196v1434z" />
    <glyph glyph-name="ibreve" unicode="&#x12d;" horiz-adv-x="518" 
d="M260 1194q-141 0 -219 75t-78 210v12h143q0 -89 37.5 -131.5t116.5 -42.5q78 0 115 42.5t37 131.5h143v-12q0 -135 -77.5 -210t-217.5 -75zM164 1024h190v-1024h-190v1024z" />
    <glyph glyph-name="Iogonek" unicode="&#x12e;" horiz-adv-x="598" 
d="M397 0q-98 -61 -141 -110t-43 -99q0 -46 35 -67t106 -23h43v-137h-75q-129 1 -197 50t-68 136q0 149 174 254l-30 8v1422h196v-1434z" />
    <glyph glyph-name="iogonek" unicode="&#x12f;" horiz-adv-x="518" 
d="M260 1489q56 0 90.5 -33t34.5 -88q0 -54 -34.5 -87.5t-90.5 -33.5q-57 0 -92 33.5t-35 87.5q0 55 35 88t92 33zM164 1024h190v-1024q-98 -61 -141 -110t-43 -99q0 -90 145 -90h39v-137h-71q-133 0 -202 49t-69 137q0 148 176 254l-24 4v1016z" />
    <glyph glyph-name="Idotaccent" unicode="&#x130;" horiz-adv-x="598" 
d="M291 1645q-54 0 -88.5 33.5t-34.5 86.5q0 54 34.5 87.5t88.5 33.5q55 0 89 -33.5t34 -87.5q0 -53 -34 -86.5t-89 -33.5zM201 1434h196v-1434h-196v1434z" />
    <glyph glyph-name="dotlessi" unicode="&#x131;" horiz-adv-x="518" 
d="M164 1024h190v-1024h-190v1024z" />
    <glyph glyph-name="ij" unicode="&#x133;" horiz-adv-x="1034" 
d="M258 1247q-56 0 -90.5 33.5t-34.5 87.5q0 55 34.5 88t90.5 33q57 0 92 -33t35 -88q0 -54 -35 -87.5t-92 -33.5zM776 1247q-57 0 -92 33.5t-35 87.5q0 55 35 88t92 33q56 0 90.5 -33t34.5 -88q0 -54 -34.5 -87.5t-90.5 -33.5zM164 1024h190v-1024h-190v1024zM440 -242h107
q135 0 135 140v1126h188v-1159q0 -135 -72.5 -205t-211.5 -70h-146v168z" />
    <glyph glyph-name="Jcircumflex" unicode="&#x134;" horiz-adv-x="1187" 
d="M1108 1591l-195 224l-194 -224h-193l293 334h189l290 -334h-190zM545 -29q-128 0 -239.5 61.5t-179 166.5t-71.5 227l193 66v-33q0 -122 86.5 -208.5t210.5 -86.5q121 0 208 87t87 208v975h194v-971q0 -134 -65.5 -247t-178 -179t-245.5 -66z" />
    <glyph glyph-name="jcircumflex" unicode="&#x135;" horiz-adv-x="518" 
d="M592 1194h-172l-160 225l-160 -225h-174l244 334h178zM164 1024h190v-1159q0 -135 -72.5 -205t-211.5 -70h-148v168h107q135 0 135 140v1126z" />
    <glyph glyph-name="uni0136" unicode="&#x136;" horiz-adv-x="1366" 
d="M1335 1434l-733 -725l727 -709h-244l-618 575l-74 -73v-502h-194v1434h194v-680l701 680h241zM627 -184h188l-121 -365h-149z" />
    <glyph glyph-name="uni0137" unicode="&#x137;" horiz-adv-x="1087" 
d="M846 0l-445 426l-51 -57v-369h-188v1499h188v-911l488 436h223l-516 -475l524 -549h-223zM492 -184h188l-121 -365h-149z" />
    <glyph glyph-name="Lacute" unicode="&#x139;" horiz-adv-x="1208" 
d="M360 1591h-184l215 334h191zM1143 182v-182h-944v1434h194v-1252h750z" />
    <glyph glyph-name="lacute" unicode="&#x13a;" horiz-adv-x="501" 
d="M334 1657h-187l215 334h193zM154 0v1499h190v-1499h-190z" />
    <glyph glyph-name="uni013B" unicode="&#x13b;" horiz-adv-x="1208" 
d="M1143 182v-182h-946v1434h196v-1252h750zM555 -184h188l-122 -365h-148z" />
    <glyph glyph-name="uni013C" unicode="&#x13c;" horiz-adv-x="501" 
d="M154 0v1499h190v-1499h-190zM190 -184h189l-121 -365h-149z" />
    <glyph glyph-name="Lcaron" unicode="&#x13d;" horiz-adv-x="1208" 
d="M668 1460h186l-39 -411h-147v411zM1143 182v-182h-946v1434h196v-1252h750z" />
    <glyph glyph-name="lcaron" unicode="&#x13e;" horiz-adv-x="501" 
d="M154 0v1499h190v-1499h-190zM428 1499h150l2 -412h-152v412z" />
    <glyph glyph-name="Ldot" unicode="&#x13f;" horiz-adv-x="1220" 
d="M1143 182v-182h-946v1434h196v-1252h750zM819 606q-59 0 -95 36t-36 95t36 95t95 36t95 -36t36 -95t-36 -95t-95 -36z" />
    <glyph glyph-name="ldot" unicode="&#x140;" horiz-adv-x="501" 
d="M154 0v1499h190v-1499h-190zM602 608q-51 0 -87 35.5t-36 87.5q0 51 36 87t87 36t87 -36t36 -87q0 -52 -36 -87.5t-87 -35.5z" />
    <glyph glyph-name="Lslash" unicode="&#x141;" horiz-adv-x="1255" 
d="M1190 182v-182h-946v518l-232 -121v172l232 121v744h196v-641l516 266v-172l-516 -266v-439h750z" />
    <glyph glyph-name="lslash" unicode="&#x142;" horiz-adv-x="706" 
d="M418 752v-752h-189v647l-202 -108v163l202 109v688h189v-584l244 132v-164z" />
    <glyph glyph-name="Nacute" unicode="&#x143;" horiz-adv-x="1609" 
d="M834 1591h-185l215 334h191zM1413 1434v-1434h-184l-838 1112v-1112h-194v1434h184l838 -1112v1112h194z" />
    <glyph glyph-name="nacute" unicode="&#x144;" horiz-adv-x="1236" 
d="M672 1194h-185l215 334h191zM696 1051q160 0 272.5 -112.5t112.5 -270.5v-668h-190v608q0 111 -78.5 190.5t-191.5 80.5q-112 0 -190.5 -80t-78.5 -191v-608h-190v1024h186v-182q46 94 140.5 151.5t207.5 57.5z" />
    <glyph glyph-name="uni0145" unicode="&#x145;" horiz-adv-x="1609" 
d="M1413 1434v-1434h-188l-834 1116v-1116h-194v1434h188l834 -1117v1117h194zM711 -184h188l-121 -365h-149z" />
    <glyph glyph-name="uni0146" unicode="&#x146;" horiz-adv-x="1236" 
d="M696 1051q160 0 272.5 -112.5t112.5 -270.5v-668h-190v608q0 111 -78.5 190.5t-191.5 80.5q-112 0 -190.5 -80t-78.5 -191v-608h-190v1024h186v-182q46 94 140.5 151.5t207.5 57.5zM524 -184h189l-121 -365h-150z" />
    <glyph glyph-name="Ncaron" unicode="&#x147;" horiz-adv-x="1609" 
d="M711 1591l-291 334h190l195 -225l194 225h193l-293 -334h-188zM1413 1434v-1434h-184l-838 1112v-1112h-194v1434h184l838 -1112v1112h194z" />
    <glyph glyph-name="ncaron" unicode="&#x148;" horiz-adv-x="1236" 
d="M1010 1528l-293 -334h-189l-290 334h190l195 -225l194 225h193zM696 1051q160 0 272.5 -112.5t112.5 -270.5v-668h-190v608q0 111 -78.5 190.5t-191.5 80.5q-112 0 -190.5 -80t-78.5 -191v-608h-190v1024h186v-182q46 94 140.5 151.5t207.5 57.5z" />
    <glyph glyph-name="Eng" unicode="&#x14a;" horiz-adv-x="1609" 
d="M1413 1434v-1518q0 -135 -72.5 -204.5t-212.5 -69.5h-147v168h106q63 0 98 31.5t36 92.5l2 72l-832 1106v-1112h-194v1434h184l838 -1112v1112h194z" />
    <glyph glyph-name="eng" unicode="&#x14b;" horiz-adv-x="1236" 
d="M696 1051q160 0 272.5 -112.5t112.5 -270.5v-777q-4 -122 -77.5 -185.5t-206.5 -63.5h-148v168h107q135 0 135 127v671q0 111 -78.5 190.5t-191.5 80.5q-112 0 -190.5 -80t-78.5 -191v-608h-190v1024h186v-182q46 94 140.5 151.5t207.5 57.5z" />
    <glyph glyph-name="Omacron" unicode="&#x14c;" horiz-adv-x="1714" 
d="M535 1802h647v-151h-647v151zM119 717q-1 156 55.5 294.5t154 237.5t235.5 155.5t294 55.5q156 1 293.5 -55.5t235 -155.5t153.5 -237.5t55 -294.5q1 -156 -55 -294.5t-153.5 -237.5t-235 -156t-293.5 -56q-156 -1 -294 56t-235.5 156t-154 237.5t-55.5 294.5zM1391 717
q0 160 -69 288t-190.5 199.5t-273.5 71.5q-232 0 -382 -158t-150 -401q0 -244 150 -400.5t382 -156.5q231 0 382 156.5t151 400.5z" />
    <glyph glyph-name="omacron" unicode="&#x14d;" horiz-adv-x="1280" 
d="M317 1405h648v-152h-648v152zM639 -27q-159 0 -283 71.5t-191 195.5t-67 278q0 153 67.5 277t192.5 196t285 72q161 0 285 -72.5t189 -195.5t65 -277q0 -151 -66.5 -275t-191.5 -197t-285 -73zM639 145q157 0 254.5 106t97.5 267q0 163 -95.5 269t-252.5 106
q-158 0 -255 -106t-97 -269q0 -164 94.5 -268.5t253.5 -104.5z" />
    <glyph glyph-name="Obreve" unicode="&#x14e;" horiz-adv-x="1714" 
d="M858 1591q-144 0 -232.5 78.5t-88.5 206.5v12h151q0 -78 47 -126t123 -48q75 0 121.5 48t46.5 126h152v-12q0 -128 -88 -206.5t-232 -78.5zM864 -27q-211 0 -380.5 96t-265 266.5t-95.5 381.5t95.5 381t265 266t380.5 96q210 0 379.5 -96t265 -266t95.5 -381
q0 -158 -56 -296.5t-154 -236.5t-235.5 -154.5t-294.5 -56.5zM864 158q113 0 212.5 43t170.5 117t112.5 178t41.5 221q0 118 -41.5 221.5t-112.5 177.5t-170.5 117t-212.5 43q-230 0 -384 -160t-154 -399q0 -156 70 -284.5t193.5 -201.5t274.5 -73z" />
    <glyph glyph-name="obreve" unicode="&#x14f;" horiz-adv-x="1280" 
d="M319 1491h152q0 -78 47 -126t123 -48q75 0 121.5 48t46.5 126h152q0 -134 -87.5 -215.5t-232.5 -81.5t-233.5 81.5t-88.5 215.5zM639 -27q-159 0 -283 71.5t-191 195.5t-67 278q0 153 67.5 277t192.5 196t285 72q161 0 285 -72.5t189 -195.5t65 -277q0 -151 -66.5 -275
t-191.5 -197t-285 -73zM639 145q157 0 254.5 106t97.5 267q0 163 -95.5 269t-252.5 106q-158 0 -255 -106t-97 -269q0 -164 94.5 -268.5t253.5 -104.5z" />
    <glyph glyph-name="Ohungarumlaut" unicode="&#x150;" horiz-adv-x="1714" 
d="M750 1925h190l-248 -334h-186zM1153 1925h190l-249 -334h-187zM119 717q-1 156 55.5 294.5t154 237.5t235.5 155.5t294 55.5q156 1 293.5 -55.5t235 -155.5t153.5 -237.5t55 -294.5q1 -156 -55 -294.5t-153.5 -237.5t-235 -156t-293.5 -56q-156 -1 -294 56t-235.5 156
t-154 237.5t-55.5 294.5zM1391 717q0 160 -69 288t-190.5 199.5t-273.5 71.5q-232 0 -382 -158t-150 -401q0 -244 150 -400.5t382 -156.5q231 0 382 156.5t151 400.5z" />
    <glyph glyph-name="ohungarumlaut" unicode="&#x151;" horiz-adv-x="1280" 
d="M475 1194h-186l215 334h192zM870 1194h-184l215 334h191zM639 -27q-159 0 -283 71.5t-191 195.5t-67 278q0 153 67.5 277t192.5 196t285 72q161 0 285 -72.5t189 -195.5t65 -277q0 -151 -66.5 -275t-191.5 -197t-285 -73zM639 145q157 0 254.5 106t97.5 267
q0 163 -95.5 269t-252.5 106q-158 0 -255 -106t-97 -269q0 -164 94.5 -268.5t253.5 -104.5z" />
    <glyph glyph-name="OE" unicode="&#x152;" horiz-adv-x="2254" 
d="M2122 178v-178h-1264q-214 0 -382.5 90t-262.5 253.5t-94 373.5q-1 157 54.5 291t153.5 227.5t235 146.5t296 52h1243v-179h-786v-442h741v-176h-741v-459h807zM1120 182v1069h-262q-235 0 -383.5 -146.5t-148.5 -387.5t148.5 -388t383.5 -147h262z" />
    <glyph glyph-name="oe" unicode="&#x153;" horiz-adv-x="2115" 
d="M1522 1047q248 0 382 -153t117 -423h-839q0 -149 101 -243.5t253 -94.5q109 0 202.5 44t145.5 120l109 -111q-66 -98 -190.5 -154.5t-274.5 -56.5q-144 0 -259.5 57.5t-185.5 160.5q-73 -103 -187 -161.5t-257 -58.5q-159 0 -283 71.5t-191 195.5t-67 278q0 153 67.5 277
t192.5 196t285 72q146 0 261 -59t186 -164q71 98 183.5 152.5t248.5 54.5zM1180 592h655q-3 139 -87 225t-226 86q-143 0 -239.5 -90t-102.5 -221zM639 145q148 0 243.5 94.5t106.5 243.5v31v37q-9 151 -103 246.5t-243 95.5q-158 0 -255 -106t-97 -269q0 -164 94.5 -268.5
t253.5 -104.5z" />
    <glyph glyph-name="Racute" unicode="&#x154;" horiz-adv-x="1417" 
d="M719 1591h-187l216 334h192zM645 541h-254v-535h-196v1428h639q184 0 314 -130t130 -315q0 -162 -101.5 -283t-254.5 -147l-60 -4l441 -543l-230 -12zM391 719h418q110 0 188 79t78 191q0 110 -78 188t-188 78h-418v-536z" />
    <glyph glyph-name="racute" unicode="&#x155;" horiz-adv-x="811" 
d="M512 1194h-186l215 334h192zM682 1047q52 0 98 -15l-6 -178q-62 6 -125 6q-136 0 -217.5 -83.5t-81.5 -225.5v-551h-188v1024h184v-193q47 98 136.5 157t199.5 59z" />
    <glyph glyph-name="uni0156" unicode="&#x156;" horiz-adv-x="1417" 
d="M645 541h-254v-535h-196v1428h639q184 0 314 -130t130 -315q0 -162 -101.5 -283t-254.5 -147l-60 -4l441 -543l-230 -12zM391 719h418q110 0 188 79t78 191q0 110 -78 188t-188 78h-418v-536zM621 -184h188l-121 -365h-149z" />
    <glyph glyph-name="uni0157" unicode="&#x157;" horiz-adv-x="811" 
d="M682 1047q52 0 98 -15l-6 -178q-62 6 -125 6q-136 0 -217.5 -83.5t-81.5 -225.5v-551h-188v1024h184v-193q47 98 136.5 157t199.5 59zM164 -184h188l-123 -365h-147z" />
    <glyph glyph-name="Rcaron" unicode="&#x158;" horiz-adv-x="1417" 
d="M596 1591l-293 334h193l194 -225l195 225h190l-291 -334h-188zM645 541h-254v-535h-196v1428h639q184 0 314 -130t130 -315q0 -162 -101.5 -283t-254.5 -147l-60 -4l441 -543l-230 -12zM391 719h418q110 0 188 79t78 191q0 110 -78 188t-188 78h-418v-536z" />
    <glyph glyph-name="rcaron" unicode="&#x159;" horiz-adv-x="811" 
d="M809 1528l-291 -334h-188l-293 334h192l195 -225l194 225h191zM682 1047q52 0 98 -15l-6 -178q-62 6 -125 6q-136 0 -217.5 -83.5t-81.5 -225.5v-551h-188v1024h184v-193q47 98 136.5 157t199.5 59z" />
    <glyph glyph-name="Sacute" unicode="&#x15a;" horiz-adv-x="1282" 
d="M719 1591h-187l216 334h192zM666 -27q-210 0 -362.5 85t-223.5 239l137 104q66 -123 182 -186t273 -63q156 0 240.5 63.5t84.5 175.5q0 85 -60 138t-206 87l-211 50q-205 51 -303 146t-98 243q0 184 137.5 294.5t378.5 110.5q190 0 328.5 -70t203.5 -196l-135 -107
q-118 197 -397 197q-153 0 -235.5 -59.5t-82.5 -165.5q0 -81 61.5 -132t215.5 -87l217 -54q201 -49 293 -143.5t92 -243.5q0 -194 -141.5 -310t-388.5 -116z" />
    <glyph glyph-name="sacute" unicode="&#x15b;" horiz-adv-x="1036" 
d="M600 1194h-184l215 334h190zM530 -27q-149 0 -269.5 50.5t-186.5 140.5l88 125q61 -73 159 -115.5t211 -42.5q109 0 167.5 42t58.5 112q0 54 -39.5 87.5t-130.5 55.5l-201 49q-142 33 -207 101.5t-65 173.5q0 143 109.5 227t301.5 84q135 0 242.5 -42.5t167.5 -119.5
l-90 -125q-126 129 -322 129q-108 0 -164.5 -38.5t-56.5 -108.5q0 -53 38.5 -86t129.5 -54l199 -49q149 -36 214.5 -103t65.5 -173q0 -148 -111 -234t-309 -86z" />
    <glyph glyph-name="Scircumflex" unicode="&#x15c;" horiz-adv-x="1282" 
d="M446 1591h-190l291 334h188l293 -334h-192l-195 224zM811 786q201 -49 293 -143.5t92 -243.5q0 -194 -141.5 -310t-388.5 -116q-210 0 -362.5 85t-223.5 239l137 104q66 -123 182 -186t273 -63q156 0 240.5 63.5t84.5 175.5q0 85 -60 138t-206 87l-211 50
q-205 51 -303 146t-98 243q0 184 137.5 294.5t378.5 110.5q190 0 328.5 -70t203.5 -196l-135 -107q-118 197 -397 197q-153 0 -235.5 -59.5t-82.5 -165.5q0 -81 61.5 -132t215.5 -87z" />
    <glyph glyph-name="scircumflex" unicode="&#x15d;" horiz-adv-x="1036" 
d="M328 1194h-193l293 334h188l291 -334h-190l-195 223zM670 569q149 -36 214.5 -103t65.5 -173q0 -148 -111 -234t-309 -86q-149 0 -269.5 50.5t-186.5 140.5l88 125q61 -73 159 -115.5t211 -42.5q109 0 167.5 42t58.5 112q0 54 -39.5 87.5t-130.5 55.5l-201 49
q-142 33 -207 101.5t-65 173.5q0 143 109.5 227t301.5 84q135 0 242.5 -42.5t167.5 -119.5l-90 -125q-126 129 -322 129q-108 0 -164.5 -38.5t-56.5 -108.5q0 -53 38.5 -86t129.5 -54z" />
    <glyph glyph-name="Scedilla" unicode="&#x15e;" horiz-adv-x="1282" 
d="M750 -20l-113 -386h-193l140 383q-180 13 -310 97t-194 223l137 104q66 -123 182 -186t273 -63q156 0 240.5 63.5t84.5 175.5q0 85 -60 138t-206 87l-211 50q-205 51 -303 146t-98 243q0 184 137.5 294.5t378.5 110.5q190 0 328.5 -70t203.5 -196l-135 -107
q-118 197 -397 197q-153 0 -235.5 -59.5t-82.5 -165.5q0 -81 61.5 -132t215.5 -87l217 -54q201 -49 293 -143.5t92 -243.5q0 -178 -118 -289t-328 -130z" />
    <glyph glyph-name="scedilla" unicode="&#x15f;" horiz-adv-x="1036" 
d="M950 293q0 -130 -88.5 -213t-251.5 -100l-114 -386h-193l141 386q-122 10 -219 58.5t-151 125.5l88 125q61 -73 159 -115.5t211 -42.5q109 0 167.5 42t58.5 112q0 54 -39.5 87.5t-130.5 55.5l-201 49q-142 33 -207 101.5t-65 173.5q0 143 109.5 227t301.5 84
q135 0 242.5 -42.5t167.5 -119.5l-90 -125q-126 129 -322 129q-108 0 -164.5 -38.5t-56.5 -108.5q0 -53 38.5 -86t129.5 -54l199 -49q149 -36 214.5 -103t65.5 -173z" />
    <glyph glyph-name="Scaron" unicode="&#x160;" horiz-adv-x="1282" 
d="M547 1591l-291 334h190l195 -225l195 225h192l-293 -334h-188zM811 786q201 -49 293 -143.5t92 -243.5q0 -194 -141.5 -310t-388.5 -116q-210 0 -362.5 85t-223.5 239l137 104q66 -123 182 -186t273 -63q156 0 240.5 63.5t84.5 175.5q0 85 -60 138t-206 87l-211 50
q-205 51 -303 146t-98 243q0 184 137.5 294.5t378.5 110.5q190 0 328.5 -70t203.5 -196l-135 -107q-118 197 -397 197q-153 0 -235.5 -59.5t-82.5 -165.5q0 -81 61.5 -132t215.5 -87z" />
    <glyph glyph-name="scaron" unicode="&#x161;" horiz-adv-x="1036" 
d="M428 1194l-293 334h193l194 -225l195 225h190l-291 -334h-188zM670 569q149 -36 214.5 -103t65.5 -173q0 -148 -111 -234t-309 -86q-149 0 -269.5 50.5t-186.5 140.5l88 125q61 -73 159 -115.5t211 -42.5q109 0 167.5 42t58.5 112q0 54 -39.5 87.5t-130.5 55.5l-201 49
q-142 33 -207 101.5t-65 173.5q0 143 109.5 227t301.5 84q135 0 242.5 -42.5t167.5 -119.5l-90 -125q-126 129 -322 129q-108 0 -164.5 -38.5t-56.5 -108.5q0 -53 38.5 -86t129.5 -54z" />
    <glyph glyph-name="uni0162" unicode="&#x162;" horiz-adv-x="1241" 
d="M1192 1434v-183h-473v-1251h-17l-120 -406h-193l148 406l-15 6v1245h-473v183h1143z" />
    <glyph glyph-name="uni0163" unicode="&#x163;" horiz-adv-x="837" 
d="M762 172v-172h-172l-111 -406h-172l131 412q-80 19 -132 84.5t-52 149.5l2 616h-209v170h209v320h188v-320h316v-170h-316v-592q0 -38 27.5 -65t67.5 -27h223z" />
    <glyph glyph-name="Tcaron" unicode="&#x164;" horiz-adv-x="1241" 
d="M526 1591l-290 334h190l195 -225l194 225h193l-293 -334h-189zM1192 1434v-183h-473v-1251h-197v1251h-473v183h1143z" />
    <glyph glyph-name="tcaron" unicode="&#x165;" horiz-adv-x="837" 
d="M610 1595h150l2 -411h-152v411zM438 0q-76 0 -130 54.5t-54 131.5l2 670h-209v170h209v320h188v-320h316v-170h-316v-655q0 -12 8.5 -20.5t20.5 -8.5h289v-172h-324z" />
    <glyph glyph-name="Tbar" unicode="&#x166;" horiz-adv-x="1241" 
d="M719 1251v-438h289v-158h-289v-655h-197v655h-289v158h289v438h-473v183h1143v-183h-473z" />
    <glyph glyph-name="tbar" unicode="&#x167;" horiz-adv-x="837" 
d="M764 469h-320v-205q0 -38 27.5 -65t67.5 -27h223v-172h-268q-99 0 -169.5 70.5t-70.5 169.5v229h-207v168h209v219h-209v170h209v320h188v-320h316v-170h-316v-219h320v-168z" />
    <glyph glyph-name="Utilde" unicode="&#x168;" horiz-adv-x="1523" 
d="M924 1620q-76 0 -172 72q-65 53 -115 53q-78 0 -78 -117h-139q0 126 47.5 194t132.5 68q43 0 82 -16.5t90 -54.5q66 -54 115 -54q78 0 78 117h141q0 -128 -47.5 -195t-134.5 -67zM768 -27q-257 0 -419.5 160t-162.5 422v879h197v-889q0 -182 104.5 -283.5t280.5 -101.5
q184 0 285.5 100.5t101.5 284.5v889h197v-879q0 -263 -160.5 -422.5t-423.5 -159.5z" />
    <glyph glyph-name="utilde" unicode="&#x169;" horiz-adv-x="1224" 
d="M598 1294q-63 54 -113 54q-77 0 -77 -117h-142q0 127 48 194.5t135 67.5q41 0 80 -17t92 -55q62 -53 114 -53q78 0 78 117h139q0 -128 -47 -195t-133 -67q-44 0 -83.5 16t-90.5 55zM1067 1024v-1024h-184v182q-46 -94 -142 -151.5t-209 -57.5q-158 0 -270 112.5
t-112 270.5v668h190v-606q0 -112 79 -191.5t189 -79.5q112 0 191.5 79.5t79.5 191.5v606h188z" />
    <glyph glyph-name="Umacron" unicode="&#x16a;" horiz-adv-x="1523" 
d="M438 1802h647v-151h-647v151zM768 -27q-257 0 -419.5 160t-162.5 422v879h197v-889q0 -182 104.5 -283.5t280.5 -101.5q184 0 285.5 100.5t101.5 284.5v889h197v-879q0 -263 -160.5 -422.5t-423.5 -159.5z" />
    <glyph glyph-name="umacron" unicode="&#x16b;" horiz-adv-x="1224" 
d="M287 1405h647v-152h-647v152zM1067 1024v-1024h-184v182q-46 -94 -142 -151.5t-209 -57.5q-158 0 -270 112.5t-112 270.5v668h190v-606q0 -112 79 -191.5t189 -79.5q112 0 191.5 79.5t79.5 191.5v606h188z" />
    <glyph glyph-name="Ubreve" unicode="&#x16c;" horiz-adv-x="1523" 
d="M762 1591q-144 0 -232 78.5t-88 206.5v12h152q0 -78 46.5 -126t121.5 -48q76 0 123 48t47 126h151v-12q0 -128 -88.5 -206.5t-232.5 -78.5zM768 -27q-257 0 -419.5 160t-162.5 422v879h197v-889q0 -182 104.5 -283.5t280.5 -101.5q184 0 285.5 100.5t101.5 284.5v889h197
v-879q0 -263 -160.5 -422.5t-423.5 -159.5z" />
    <glyph glyph-name="ubreve" unicode="&#x16d;" horiz-adv-x="1224" 
d="M289 1491h151q0 -78 47 -126t123 -48q75 0 121.5 48t46.5 126h152v-12q0 -128 -88 -206.5t-232 -78.5t-232.5 78.5t-88.5 206.5v12zM1067 1024v-1024h-184v182q-46 -94 -142 -151.5t-209 -57.5q-158 0 -270 112.5t-112 270.5v668h190v-606q0 -112 79 -191.5t189 -79.5
q112 0 191.5 79.5t79.5 191.5v606h188z" />
    <glyph glyph-name="Uring" unicode="&#x16e;" horiz-adv-x="1523" 
d="M762 1581q-111 0 -185.5 72t-74.5 176t74 175t186 71t187 -71.5t75 -174.5q0 -104 -75 -176t-187 -72zM762 1692q64 0 101.5 37.5t37.5 99.5t-37.5 98.5t-101.5 36.5q-63 0 -100 -36.5t-37 -98.5t37 -99.5t100 -37.5zM768 -27q-257 0 -419.5 160t-162.5 422v879h197v-889
q0 -182 104.5 -283.5t280.5 -101.5q184 0 285.5 100.5t101.5 284.5v889h197v-879q0 -263 -160.5 -422.5t-423.5 -159.5z" />
    <glyph glyph-name="uring" unicode="&#x16f;" horiz-adv-x="1224" 
d="M348 1432q0 103 75 174t187 71t186 -70.5t74 -174.5t-74.5 -176t-185.5 -72q-112 0 -187 72t-75 176zM748 1432q0 62 -37.5 98.5t-100.5 36.5q-64 0 -101.5 -36.5t-37.5 -98.5t37.5 -100t101.5 -38q63 0 100.5 38t37.5 100zM1067 1024v-1024h-184v182
q-46 -94 -142 -151.5t-209 -57.5q-158 0 -270 112.5t-112 270.5v668h190v-606q0 -112 79 -191.5t189 -79.5q112 0 191.5 79.5t79.5 191.5v606h188z" />
    <glyph glyph-name="Uhungarumlaut" unicode="&#x170;" horiz-adv-x="1523" 
d="M655 1925h191l-250 -334h-186zM1057 1925h190l-248 -334h-186zM768 -27q-257 0 -419.5 160t-162.5 422v879h197v-889q0 -182 104.5 -283.5t280.5 -101.5q184 0 285.5 100.5t101.5 284.5v889h197v-879q0 -263 -160.5 -422.5t-423.5 -159.5z" />
    <glyph glyph-name="uhungarumlaut" unicode="&#x171;" horiz-adv-x="1224" 
d="M444 1194h-186l215 334h193zM872 1194h-186l215 334h193zM1067 1024v-1024h-184v182q-46 -94 -142 -151.5t-209 -57.5q-158 0 -270 112.5t-112 270.5v668h190v-606q0 -112 79 -191.5t189 -79.5q112 0 191.5 79.5t79.5 191.5v606h188z" />
    <glyph glyph-name="Uogonek" unicode="&#x172;" horiz-adv-x="1523" 
d="M1155 1434h197v-879q0 -200 -95.5 -343t-263.5 -202h4q-184 -115 -184 -209q0 -92 145 -92h39v-137h-71q-132 0 -201.5 50t-69.5 138q0 120 119 213h-6q-257 0 -419.5 160t-162.5 422v879h197v-889q0 -182 104.5 -283.5t280.5 -101.5q184 0 285.5 100.5t101.5 284.5v889z
" />
    <glyph glyph-name="uogonek" unicode="&#x173;" horiz-adv-x="1224" 
d="M879 1024h188v-1016l-12 -8q-96 -60 -136 -109t-40 -100q0 -90 147 -90h37v-137h-72q-131 0 -199.5 49t-68.5 137q0 148 176 254l-16 8v170q-46 -94 -142 -151.5t-209 -57.5q-158 0 -270 112.5t-112 270.5v668h190v-606q0 -112 79 -191.5t189 -79.5q112 0 191.5 79.5
t79.5 191.5v606z" />
    <glyph glyph-name="Wcircumflex" unicode="&#x174;" horiz-adv-x="2131" 
d="M872 1591h-192l293 334h188l291 -334h-190l-195 224zM1880 1434h209l-442 -1434h-224l-352 1057l-352 -1057h-219l-449 1434h207l360 -1164l402 1164h102l402 -1170z" />
    <glyph glyph-name="wcircumflex" unicode="&#x175;" horiz-adv-x="1718" 
d="M666 1194h-193l293 334h188l291 -334h-190l-195 223zM1677 1024l-344 -1024h-211l-264 784l-266 -784h-209l-344 1024h194l263 -797l274 797h174l275 -797l264 797h194z" />
    <glyph glyph-name="Ycircumflex" unicode="&#x176;" horiz-adv-x="1302" 
d="M457 1591h-191l291 334h188l293 -334h-192l-195 224zM1315 1434l-557 -850v-584h-199v584l-551 850h225l424 -662l433 662h225z" />
    <glyph glyph-name="ycircumflex" unicode="&#x177;" horiz-adv-x="1107" 
d="M360 1194h-190l291 334h188l293 -334h-192l-195 223zM1077 1036l-479 -1192q-56 -143 -140.5 -198.5t-238.5 -55.5h-174v170h143q105 0 154.5 30t81.5 114l43 100l-432 1032h205l323 -811l309 811h205z" />
    <glyph glyph-name="Ydieresis" unicode="&#x178;" horiz-adv-x="1302" 
d="M420 1645q-55 0 -89 33.5t-34 86.5q0 54 34 87.5t89 33.5q54 0 88.5 -33.5t34.5 -87.5q0 -53 -34.5 -86.5t-88.5 -33.5zM885 1645q-55 0 -89 33.5t-34 86.5q0 54 34 87.5t89 33.5q54 0 88.5 -33.5t34.5 -87.5q0 -53 -34.5 -86.5t-88.5 -33.5zM1315 1434l-557 -850v-584
h-199v584l-551 850h225l424 -662l433 662h225z" />
    <glyph glyph-name="Zacute" unicode="&#x179;" horiz-adv-x="1241" 
d="M653 1591h-184l244 334h223zM1151 178v-178h-1061v150l793 1107h-777v177h1035v-148l-793 -1108h803z" />
    <glyph glyph-name="zacute" unicode="&#x17a;" horiz-adv-x="1007" 
d="M575 1194h-184l215 334h191zM915 162v-162h-827v127l576 747h-558v162h803v-125l-575 -749h581z" />
    <glyph glyph-name="Zdotaccent" unicode="&#x17b;" horiz-adv-x="1241" 
d="M625 1645q-56 0 -90.5 33t-34.5 87t34.5 87.5t90.5 33.5q57 0 92 -33.5t35 -87.5t-35 -87t-92 -33zM1151 178v-178h-1061v150l793 1107h-777v177h1035v-148l-793 -1108h803z" />
    <glyph glyph-name="zdotaccent" unicode="&#x17c;" horiz-adv-x="1007" 
d="M506 1247q-51 0 -87 36t-36 87t36 87t87 36t87 -36t36 -87t-36 -87t-87 -36zM915 162v-162h-827v127l576 747h-558v162h803v-125l-575 -749h581z" />
    <glyph glyph-name="Zcaron" unicode="&#x17d;" horiz-adv-x="1241" 
d="M530 1591l-290 334h190l195 -225l194 225h193l-293 -334h-189zM1151 178v-178h-1061v150l793 1107h-777v177h1035v-148l-793 -1108h803z" />
    <glyph glyph-name="zcaron" unicode="&#x17e;" horiz-adv-x="1007" 
d="M893 1528l-293 -334h-188l-291 334h190l195 -225l194 225h193zM915 162v-162h-827v127l576 747h-558v162h803v-125l-575 -749h581z" />
    <glyph glyph-name="uni01CD" unicode="&#x1cd;" horiz-adv-x="1427" 
d="M631 1591l-293 334h192l195 -225l195 225h190l-291 -334h-188zM1040 334l-667 2l-135 -336h-209l571 1434h203l581 -1434h-208zM979 506l-272 727l-273 -727h545z" />
    <glyph glyph-name="uni01CE" unicode="&#x1ce;" horiz-adv-x="1120" 
d="M539 1194l-293 334h192l195 -225l194 225h191l-291 -334h-188zM995 0h-161v201q-37 -103 -135.5 -162t-237.5 -59q-167 0 -267 88.5t-100 232.5q0 99 54 169.5t150 105t227 43t286 -16.5l-2 84q0 102 -63 156.5t-171 54.5q-92 0 -171.5 -37.5t-133.5 -107.5l-104 106
q61 85 179.5 137t244.5 52q189 0 297 -104t108 -284v-659zM811 489q-244 39 -387 -7t-143 -171q0 -89 59.5 -139.5t165.5 -50.5q142 0 223.5 79.5t81.5 219.5v69z" />
    <glyph glyph-name="uni01E2" unicode="&#x1e2;" horiz-adv-x="2222" 
d="M1782 1651h-647v151h647v-151zM2089 182v-182h-1004v346h-602l-227 -346h-236l951 1434h1097v-181h-786v-438h746v-180h-746v-453h807zM1085 510v758l-503 -758h503z" />
    <glyph glyph-name="uni01E3" unicode="&#x1e3;" horiz-adv-x="1937" 
d="M1315 1405v-152h-647v152h647zM1343 1047q248 0 382.5 -153t117.5 -423h-839q0 -149 101 -243.5t253 -94.5q109 0 202.5 44t145.5 120l109 -111q-66 -98 -190.5 -154.5t-274.5 -56.5q-148 0 -265.5 60t-187.5 168q-75 -113 -189.5 -168t-246.5 -55q-167 0 -267 88.5
t-100 232.5q0 99 54 169.5t150 105t227 43t286 -16.5l-2 84q0 102 -63 156.5t-171 54.5q-92 0 -171.5 -37.5t-133.5 -107.5l-104 106q61 85 179.5 137t244.5 52q247 0 350 -170q73 81 176.5 125.5t226.5 44.5zM1001 592h656q-3 139 -87.5 225t-226.5 86q-143 0 -239.5 -90
t-102.5 -221zM811 408v81q-244 39 -387 -7t-143 -171q0 -89 59.5 -139.5t165.5 -50.5q149 0 227 77t78 210z" />
    <glyph glyph-name="Gcaron" unicode="&#x1e6;" horiz-adv-x="1597" 
d="M748 1591l-291 334h190l195 -225l194 225h193l-293 -334h-188zM1475 770v-532q-236 -267 -621 -267q-224 3 -391.5 102t-253.5 265.5t-86 376.5t88 378t256 266.5t387 98.5q195 0 351.5 -85.5t248.5 -237.5l-162 -111q-65 121 -177.5 185.5t-260.5 64.5q-156 0 -277 -73
t-186 -200t-65 -286q0 -158 63.5 -283.5t184 -199t280.5 -76.5q278 0 440 159v291h-360v164h541z" />
    <glyph glyph-name="gcaron" unicode="&#x1e7;" horiz-adv-x="1327" 
d="M1051 1528l-293 -334h-189l-290 334h190l195 -225l194 225h193zM1165 1028v-944q0 -230 -149 -378t-381 -148q-144 0 -278 63.5t-205 163.5l88 131q61 -85 168.5 -138.5t214.5 -53.5q154 0 258 100t104 278v146q-44 -107 -155.5 -173.5t-245.5 -66.5q-216 0 -350 147
t-134 382q0 225 134.5 367.5t349.5 142.5q137 0 242.5 -60.5t148.5 -161.5v203h190zM637 174q151 0 247.5 101.5t96.5 261.5q0 158 -96.5 260t-247.5 102q-153 0 -249.5 -101t-96.5 -261q0 -162 96 -262.5t250 -100.5z" />
    <glyph glyph-name="uni01E8" unicode="&#x1e8;" horiz-adv-x="1366" 
d="M1122 1925l-291 -334h-188l-293 334h193l194 -225l195 225h190zM1335 1434l-733 -725l727 -709h-244l-618 575l-74 -73v-502h-194v1434h194v-680l701 680h241z" />
    <glyph glyph-name="uni01E9" unicode="&#x1e9;" horiz-adv-x="1085" 
d="M162 1657l-293 334h192l195 -226l195 226h192l-293 -334h-188zM846 0l-445 426l-51 -57v-369h-188v1499h188v-911l488 436h223l-516 -475l524 -549h-223z" />
    <glyph glyph-name="AEacute" unicode="&#x1fc;" horiz-adv-x="2222" 
d="M1487 1591h-184l215 334h190zM2089 182v-182h-1004v346h-602l-227 -346h-236l951 1434h1097v-181h-786v-438h746v-180h-746v-453h807zM1085 510v758l-503 -758h503z" />
    <glyph glyph-name="aeacute" unicode="&#x1fd;" horiz-adv-x="1937" 
d="M1382 1528l-221 -334h-186l215 334h192zM1343 1047q248 0 382.5 -153t117.5 -423h-839q0 -149 101 -243.5t253 -94.5q109 0 202.5 44t145.5 120l109 -111q-66 -98 -190.5 -154.5t-274.5 -56.5q-148 0 -265.5 60t-187.5 168q-75 -113 -189.5 -168t-246.5 -55
q-167 0 -267 88.5t-100 232.5q0 99 54 169.5t150 105t227 43t286 -16.5l-2 84q0 102 -63 156.5t-171 54.5q-92 0 -171.5 -37.5t-133.5 -107.5l-104 106q61 85 179.5 137t244.5 52q247 0 350 -170q73 81 176.5 125.5t226.5 44.5zM1001 592h656q-3 139 -87.5 225t-226.5 86
q-143 0 -239.5 -90t-102.5 -221zM811 408v81q-244 39 -387 -7t-143 -171q0 -89 59.5 -139.5t165.5 -50.5q149 0 227 77t78 210z" />
    <glyph glyph-name="Oslashacute" unicode="&#x1fe;" horiz-adv-x="1714" 
d="M920 1591h-187l215 334h193zM1595 717q1 -156 -55 -294.5t-153.5 -237.5t-235 -156t-293.5 -56q-277 0 -473 168l-154 -155l-102 106l152 152q-162 198 -162 473q-1 156 55.5 294.5t154 237.5t235.5 155.5t294 55.5q274 0 473 -166l154 154l104 -102l-153 -154
q159 -204 159 -475zM326 717q0 -189 100 -332l768 768q-139 123 -336 123q-232 0 -382 -158t-150 -401zM1391 717q0 190 -103 330l-766 -766q137 -121 336 -121q231 0 382 156.5t151 400.5z" />
    <glyph glyph-name="oslashacute" unicode="&#x1ff;" horiz-adv-x="1288" 
d="M670 1194h-187l246 334h221zM1079 862q107 -141 107 -344q0 -156 -66.5 -279.5t-190.5 -194.5t-284 -71q-200 0 -344 113l-127 -127l-88 90l125 125q-109 142 -109 344q0 157 66.5 280.5t191 194t285.5 70.5q202 0 342 -113l127 127l90 -90zM645 903q-162 0 -260 -105.5
t-98 -279.5q0 -133 63 -221l524 524q-88 82 -229 82zM645 133q161 0 260 106t99 279q0 127 -62 221l-526 -524q91 -82 229 -82z" />
    <glyph glyph-name="uni0218" unicode="&#x218;" horiz-adv-x="1282" 
d="M666 -27q-210 0 -362.5 85t-223.5 239l137 104q66 -123 182 -186t273 -63q156 0 240.5 63.5t84.5 175.5q0 85 -60 138t-206 87l-211 50q-205 51 -303 146t-98 243q0 184 137.5 294.5t378.5 110.5q190 0 328.5 -70t203.5 -196l-135 -107q-118 197 -397 197
q-153 0 -235.5 -59.5t-82.5 -165.5q0 -81 61.5 -132t215.5 -87l217 -54q201 -49 293 -143.5t92 -243.5q0 -194 -141.5 -310t-388.5 -116zM569 -184h189l-123 -365h-148z" />
    <glyph glyph-name="uni0219" unicode="&#x219;" horiz-adv-x="1036" 
d="M530 -27q-149 0 -269.5 50.5t-186.5 140.5l88 125q61 -73 159 -115.5t211 -42.5q109 0 167.5 42t58.5 112q0 54 -39.5 87.5t-130.5 55.5l-201 49q-142 33 -207 101.5t-65 173.5q0 143 109.5 227t301.5 84q135 0 242.5 -42.5t167.5 -119.5l-90 -125q-126 129 -322 129
q-108 0 -164.5 -38.5t-56.5 -108.5q0 -53 38.5 -86t129.5 -54l199 -49q149 -36 214.5 -103t65.5 -173q0 -148 -111 -234t-309 -86zM428 -184h188l-120 -365h-150z" />
    <glyph glyph-name="uni021A" unicode="&#x21a;" horiz-adv-x="1241" 
d="M522 1251h-473v183h1143v-183h-473v-1251h-197v1251zM514 -184h188l-120 -365h-150z" />
    <glyph glyph-name="uni021B" unicode="&#x21b;" horiz-adv-x="837" 
d="M256 868h-211v168h211v310h188v-310h316v-168h-316v-557q0 -73 35.5 -107t112.5 -34h172v-170h-221q-148 0 -217.5 66.5t-69.5 212.5v589zM412 -184h145l-80 -365h-147z" />
    <glyph glyph-name="uni0237" unicode="&#x237;" horiz-adv-x="518" 
d="M-78 -242h107q135 0 135 140v1126h190v-1159q0 -135 -72.5 -205t-211.5 -70h-148v168z" />
    <glyph glyph-name="circumflex" unicode="&#x2c6;" horiz-adv-x="1269" 
d="M829 1194l-194 223l-195 -223h-190l291 334h188l293 -334h-193z" />
    <glyph glyph-name="caron" unicode="&#x2c7;" horiz-adv-x="1269" 
d="M1022 1528l-293 -334h-188l-291 334h190l195 -225l194 225h193z" />
    <glyph glyph-name="breve" unicode="&#x2d8;" horiz-adv-x="1269" 
d="M635 1194q-155 0 -237.5 74t-82.5 211v12h152q0 -89 41 -131.5t127 -42.5t128 42.5t42 131.5h151v-12q0 -137 -83 -211t-238 -74z" />
    <glyph glyph-name="dotaccent" unicode="&#x2d9;" horiz-adv-x="1269" 
d="M635 1247q-56 0 -90.5 33.5t-34.5 87.5q0 55 34.5 88t90.5 33q57 0 92 -33t35 -88q0 -54 -35 -87.5t-92 -33.5z" />
    <glyph glyph-name="ring" unicode="&#x2da;" horiz-adv-x="1269" 
d="M635 1184q-111 0 -185.5 72t-74.5 176t74 174.5t186 70.5t187 -71t75 -174q0 -104 -75 -176t-187 -72zM635 1294q64 0 101.5 38t37.5 100t-37.5 98.5t-101.5 36.5q-63 0 -100 -36.5t-37 -98.5t37 -100t100 -38z" />
    <glyph glyph-name="ogonek" unicode="&#x2db;" horiz-adv-x="1269" 
d="M743 -436h-71q-131 0 -200 49t-69 137q0 89 68.5 166.5t192.5 126.5l79 -43q-98 -61 -141 -110t-43 -99q0 -90 148 -90h36v-137z" />
    <glyph glyph-name="tilde" unicode="&#x2dc;" horiz-adv-x="1269" 
d="M797 1223q-42 0 -81.5 16t-90.5 55q-66 54 -115 54q-78 0 -78 -117h-139q0 126 47.5 194t132.5 68q43 0 81.5 -17t90.5 -55q64 -53 115 -53q78 0 78 117h141q0 -128 -47.5 -195t-134.5 -67z" />
    <glyph glyph-name="hungarumlaut" unicode="&#x2dd;" horiz-adv-x="1269" 
d="M582 1528h190l-250 -334h-186zM983 1528h191l-248 -334h-187z" />
    <glyph glyph-name="gravecomb" unicode="&#x300;" 
d="M-721 1194l-283 334h224l243 -334h-184z" />
    <glyph glyph-name="acutecomb" unicode="&#x301;" 
d="M-487 1528h223l-283 -334h-184z" />
    <glyph glyph-name="uni0302" unicode="&#x302;" 
d="M-440 1194l-195 223l-194 -223h-193l293 334h188l291 -334h-190z" />
    <glyph glyph-name="tildecomb" unicode="&#x303;" 
d="M-473 1223q-44 0 -83.5 16t-90.5 55q-63 54 -113 54q-78 0 -78 -117h-141q0 127 47.5 194.5t134.5 67.5q41 0 80 -17t92 -55q62 -53 115 -53q78 0 78 117h139q0 -128 -47 -195t-133 -67z" />
    <glyph glyph-name="uni0304" unicode="&#x304;" 
d="M-958 1405h647v-152h-647v152z" />
    <glyph glyph-name="uni0306" unicode="&#x306;" 
d="M-635 1194q-155 0 -238 74t-83 211v12h151q0 -89 42 -131.5t128 -42.5t127 42.5t41 131.5h152v-12q0 -137 -82.5 -211t-237.5 -74z" />
    <glyph glyph-name="uni0307" unicode="&#x307;" 
d="M-635 1247q-57 0 -92 33.5t-35 87.5q0 55 35 88t92 33q56 0 90.5 -33t34.5 -88q0 -54 -34.5 -87.5t-90.5 -33.5z" />
    <glyph glyph-name="uni0308" unicode="&#x308;" 
d="M-868 1247q-54 0 -88.5 34t-34.5 87q0 54 34.5 87.5t88.5 33.5q55 0 89 -33.5t34 -87.5q0 -53 -34 -87t-89 -34zM-403 1247q-54 0 -88.5 34t-34.5 87q0 54 34.5 87.5t88.5 33.5q55 0 88.5 -33.5t33.5 -87.5q0 -53 -33.5 -87t-88.5 -34z" />
    <glyph glyph-name="uni030A" unicode="&#x30a;" 
d="M-635 1184q-112 0 -187 72t-75 176q0 103 75 174t187 71t186 -70.5t74 -174.5t-74.5 -176t-185.5 -72zM-635 1294q63 0 100 38t37 100t-37 98.5t-100 36.5q-64 0 -101.5 -36.5t-37.5 -98.5t37.5 -100t101.5 -38z" />
    <glyph glyph-name="uni030B" unicode="&#x30b;" 
d="M-690 1528h190l-248 -334h-186zM-287 1528h191l-250 -334h-186z" />
    <glyph glyph-name="uni030C" unicode="&#x30c;" 
d="M-250 1528l-291 -334h-188l-293 334h193l194 -225l195 225h190z" />
    <glyph glyph-name="uni0312" unicode="&#x312;" 
 />
    <glyph glyph-name="uni0315" unicode="&#x315;" 
d="M-729 1559h186l-39 -412h-147v412z" />
    <glyph glyph-name="uni0326" unicode="&#x326;" 
d="M-729 -184h188l-123 -365h-147z" />
    <glyph glyph-name="uni0327" unicode="&#x327;" 
d="M-702 18h163l-125 -424h-192z" />
    <glyph glyph-name="uni0328" unicode="&#x328;" 
d="M-526 -436h-72q-133 0 -201.5 49t-68.5 137q0 89 68.5 166t191.5 127l82 -43q-98 -62 -141.5 -111t-43.5 -98q0 -46 33.5 -68t106.5 -22h45v-137z" />
    <glyph glyph-name="uni060C" unicode="&#x60c;" horiz-adv-x="466" 
d="M262 -4h-190l137 582h156z" />
    <glyph glyph-name="uni0615" unicode="&#x615;" 
d="M637 1737q145 0 145 -172v-121h-438v84h72v334h82v-199q71 74 139 74zM700 1528v43q0 82 -71 82q-63 0 -129 -78v-47h200z" />
    <glyph glyph-name="uni061B" unicode="&#x61b;" horiz-adv-x="495" 
d="M326 727h-191l137 580h156zM344 152q9 -52 -14.5 -87.5t-73.5 -44.5q-53 -9 -87.5 14t-43.5 75q-9 51 14 86.5t74 44.5q50 9 86 -15t45 -73z" />
    <glyph glyph-name="uni061F" unicode="&#x61f;" horiz-adv-x="944" 
d="M582 563v-123h-181v111q0 69 -16.5 100.5t-81.5 87.5l-88 74q-94 77 -134 150t-40 159q0 154 108.5 246t280.5 92q153 0 273.5 -75.5t183.5 -210.5l-137 -91q-54 102 -136.5 156.5t-181.5 54.5q-93 0 -150 -46.5t-57 -129.5q0 -102 105 -190l94 -78q103 -87 129 -134.5
t29 -152.5zM600 96q-9 -51 -44.5 -75t-86.5 -13q-51 9 -74 44.5t-14 86.5t44.5 74t86.5 14t74 -44.5t14 -86.5z" />
    <glyph glyph-name="uni0621" unicode="&#x621;" horiz-adv-x="1228" 
d="M1075 176v-176h-983v174h242q-62 47 -97.5 114.5t-35.5 147.5v64q0 118 60.5 217.5t162.5 157t219 57.5q178 0 305 -133q74 -77 101 -172l-152 -86q-9 65 -51 116q-77 99 -203 99q-108 0 -186 -75.5t-78 -184.5v-58q0 -110 79.5 -186t190.5 -76h426z" />
    <glyph glyph-name="uni0622" unicode="&#x622;" horiz-adv-x="544" 
d="M35 1659l-55 61l133 92q10 8 25.5 6t25.5 -12q60 -63 186 -63q31 0 82.5 16t89.5 33l39 -90q-42 -24 -106.5 -43t-104.5 -19q-117 0 -207 74q-12 9 -28 0zM182 0v1434h176v-1434h-176z" />
    <glyph glyph-name="uni0623" unicode="&#x623;" horiz-adv-x="503" 
d="M451 1645v-95h-390v95h70q-33 49 -33 96q6 73 58 122.5t123 49.5q65 0 113.5 -38.5t62.5 -96.5l-76 -47q-9 40 -35 64t-65 24q-35 0 -59.5 -24.5t-24.5 -61.5q0 -33 22 -60.5t62 -27.5h172zM164 8v1426h176v-1426h-176z" />
    <glyph glyph-name="uni0624" unicode="&#x624;" horiz-adv-x="1130" 
d="M879 1231v-94h-390v94h70q-35 53 -33 96q6 73 58 122.5t123 49.5q65 0 113.5 -38.5t62.5 -96.5l-76 -47q-9 40 -35 64t-65 24q-35 0 -59.5 -24.5t-24.5 -61.5q0 -33 22 -60.5t62 -27.5h172zM997 963v-959q0 -211 -141 -340q-103 -97 -241 -130.5t-386 -33.5v174h75t73 2
t82 6t74 12.5t78 20.5t65.5 31.5t62.5 44.5q67 64 76 170l2 39h-250q-129 0 -236.5 65t-168 176t-60.5 242q0 202 134 341t331 139h430zM567 176h254v610h-254q-126 0 -208.5 -86.5t-82.5 -216.5q0 -129 83 -218t208 -89z" />
    <glyph glyph-name="uni0625" unicode="&#x625;" horiz-adv-x="503" 
d="M164 8v1419h176v-1419h-176zM451 -416v-92h-390v92h70q-35 53 -33 99q6 73 58 122.5t123 49.5q65 0 113.5 -39t62.5 -99l-76 -47q-9 41 -35 64.5t-65 23.5q-36 0 -60 -24t-24 -62q0 -33 22 -60.5t62 -27.5h172z" />
    <glyph glyph-name="uni0626" unicode="&#x626;" horiz-adv-x="2056" 
d="M1933 963l-2 -961h-176l4 786h-344q-52 0 -88.5 -36.5t-36.5 -87.5v-912q0 -65 -46.5 -111.5t-110.5 -46.5h-517q-138 0 -256.5 69t-188 188.5t-69.5 259.5v329h179v-329q0 -141 98.5 -240.5t236.5 -99.5h426q28 0 48 19t20 48v828q0 123 89.5 210t215.5 87h518zM397 662
v-93h-389v93h70q-36 48 -33 98q6 74 57 123t123 49q65 0 113 -38.5t63 -98.5l-75 -47q-23 88 -101 88q-37 0 -60.5 -24t-23.5 -62q0 -33 22 -60.5t62 -27.5h172z" />
    <glyph glyph-name="uni0627" unicode="&#x627;" horiz-adv-x="544" 
d="M184 0v1434h176v-1434h-176z" />
    <glyph glyph-name="uni0628" unicode="&#x628;" horiz-adv-x="1734" 
d="M1602 952v-790q0 -72 -52.5 -124t-124.5 -52h-929q-166 0 -285 117.5t-119 281.5v352h180v-352q0 -94 65 -158.5t159 -64.5h884q19 0 31 12t12 31v747h179zM756 -315q0 45 32.5 77.5t77.5 32.5q47 0 81 -32t34 -78t-34 -79.5t-81 -33.5q-44 0 -77 33.5t-33 79.5z" />
    <glyph glyph-name="uni0629" unicode="&#x629;" horiz-adv-x="1089" 
d="M403 1358q46 0 79.5 -32.5t33.5 -78.5t-33.5 -79t-79.5 -33t-79 33t-33 79t33 78.5t79 32.5zM717 1358q46 0 79 -32.5t33 -78.5t-33 -79t-79 -33t-79.5 33t-33.5 79t33.5 78.5t79.5 32.5zM104 963l453 2q185 0 312.5 -127.5t127.5 -311.5v-82q0 -121 -58 -223t-159 -161
t-223 -60q-190 -2 -321.5 121.5t-131.5 306.5v535zM557 176q116 0 192 77t76 193v72q0 112 -78.5 191t-189.5 79h-278v-354q0 -120 82.5 -189t195.5 -69z" />
    <glyph glyph-name="uni062A" unicode="&#x62a;" horiz-adv-x="1734" 
d="M692 1176q46 0 79.5 -32.5t33.5 -78.5t-33.5 -79.5t-79.5 -33.5t-79 33.5t-33 79.5t33 78.5t79 32.5zM1006 1176q46 0 79 -32.5t33 -78.5t-33 -79.5t-79 -33.5t-79.5 33.5t-33.5 79.5t33.5 78.5t79.5 32.5zM1602 952v-776q0 -73 -52.5 -124.5t-124.5 -51.5h-929
q-166 0 -285 117.5t-119 281.5v338h180v-338q0 -94 65 -158.5t159 -64.5h884q19 0 31 12t12 31v733h179z" />
    <glyph glyph-name="uni062B" unicode="&#x62b;" horiz-adv-x="1724" 
d="M829 1464q46 0 79.5 -32.5t33.5 -77.5q0 -46 -33.5 -79.5t-79.5 -33.5t-79 33.5t-33 79.5t33 78t79 32zM674 1176q47 0 80.5 -32.5t33.5 -78.5t-33.5 -79.5t-80.5 -33.5q-44 0 -77.5 33.5t-33.5 79.5q0 45 33 78t78 33zM987 1176q47 0 81 -32.5t34 -78.5t-34 -79.5
t-81 -33.5q-44 0 -77 33.5t-33 79.5q0 45 32.5 78t77.5 33zM1602 952v-776q0 -73 -52.5 -124.5t-124.5 -51.5h-929q-166 0 -285 117.5t-119 281.5v338h180v-338q0 -94 65 -158.5t159 -64.5h884q19 0 31 12t12 31v733h179z" />
    <glyph glyph-name="uni062C" unicode="&#x62c;" horiz-adv-x="1505" 
d="M494 0q-100 0 -170 -71t-70 -171q0 -101 70 -171t170 -70h421v-176h-421q-173 0 -295.5 122t-122.5 295q0 172 122.5 295t295.5 123h641q-27 15 -47.5 52.5t-20.5 80.5v82q0 212 -129 309q-58 46 -139.5 67.5t-161 19t-143.5 -13.5t-113 -28l-74 158q76 28 162.5 44
t188.5 18.5t204.5 -28t181.5 -93.5q197 -159 197 -449v-88q0 -51 31.5 -91t81.5 -40h20v-176h-880zM557 -147q44 0 75.5 -30.5t31.5 -72.5q0 -44 -31.5 -75t-75.5 -31q-42 0 -73 31t-31 75q0 41 31.5 72t72.5 31z" />
    <glyph glyph-name="uni062D" unicode="&#x62d;" horiz-adv-x="1505" 
d="M475 0q-86 0 -145.5 -59.5t-59.5 -145.5q0 -85 59.5 -145t145.5 -60h483v-176h-483q-159 0 -271 111t-112 270t112 270t271 111h662q-31 18 -50.5 51.5t-19.5 73.5v88q0 217 -133 320q-59 46 -152 65.5t-179 14.5t-150 -15.5t-88 -21.5l-43 170q29 8 72.5 17.5
t131.5 18.5t170.5 6t178.5 -31t167 -81q199 -157 199 -461v-84q0 -57 38 -94t95 -37h21v-176h-920z" />
    <glyph glyph-name="uni062E" unicode="&#x62e;" horiz-adv-x="1505" 
d="M705 1364q47 0 80.5 -32.5t33.5 -78.5t-33.5 -79t-80.5 -33q-45 0 -78 33.5t-33 78.5t33 78t78 33zM475 0q-86 0 -145.5 -59.5t-59.5 -145.5q0 -85 59.5 -145t145.5 -60h483v-176h-483q-159 0 -271 111t-112 270t112 270t271 111h662q-31 18 -50.5 51.5t-19.5 73.5v86
q0 216 -133 322q-59 46 -152 65.5t-179 14t-150 -16.5t-88 -22l-43 172q25 6 45 11t77.5 14.5t106 13.5t119.5 3t130.5 -11.5t125 -36.5t116.5 -66q199 -153 199 -461v-82q0 -57 38 -94t95 -37h21v-176h-920z" />
    <glyph glyph-name="uni062F" unicode="&#x62f;" horiz-adv-x="1073" 
d="M618 0h-524v176h524q77 0 123 60q48 59 31 133l-156 589l168 48l156 -592q39 -162 -63 -289q-46 -59 -114.5 -92t-144.5 -33z" />
    <glyph glyph-name="uni0630" unicode="&#x630;" horiz-adv-x="1073" 
d="M555 1276q9 36 42.5 55t70.5 10q36 -9 55 -41.5t10 -68.5q-9 -37 -42 -56.5t-70 -9.5q-37 9 -56 41.5t-10 69.5zM618 0h-524v176h524q77 0 123 60q48 59 31 133l-156 589l168 48l156 -592q39 -162 -63 -289q-46 -59 -114.5 -92t-144.5 -33z" />
    <glyph glyph-name="uni0631" unicode="&#x631;" horiz-adv-x="628" 
d="M496 20q0 -117 -34.5 -210t-97 -153t-143.5 -94.5t-178 -43.5l-63 168q83 10 142.5 30t106.5 57t70 98.5t23 147.5v934h174v-934z" />
    <glyph glyph-name="uni0632" unicode="&#x632;" horiz-adv-x="649" 
d="M401 1364q47 0 81 -32.5t34 -78.5t-34 -79t-81 -33q-44 0 -77 33t-33 79q0 45 32.5 78t77.5 33zM496 20q0 -117 -34.5 -210t-97 -153t-143.5 -94.5t-178 -43.5l-63 168q83 10 142.5 30t106.5 57t70 98.5t23 147.5v934h174v-934z" />
    <glyph glyph-name="uni0633" unicode="&#x633;" horiz-adv-x="2574" 
d="M2050 0q-94 0 -173.5 43.5t-127.5 118.5q-45 -74 -122.5 -117.5t-172.5 -44.5q-137 0 -223 96v-303q0 -85 -59 -145t-144 -60h-424q-136 0 -251.5 67.5t-183 183t-67.5 251.5v330h179v-330q0 -135 94 -230.5t229 -95.5h387q28 0 48 19.5t20 48.5v932h172v-385
q0 -87 61 -145t154 -58q95 0 157 60.5t62 148.5v373h176v-379q0 -90 61.5 -146.5t153.5 -56.5q87 0 148 61t61 148v571h176v-573q-3 -165 -115 -274t-276 -109z" />
    <glyph glyph-name="uni0634" unicode="&#x634;" horiz-adv-x="2564" 
d="M1704 1477q47 0 81 -32.5t34 -78.5t-34 -79.5t-81 -33.5q-44 0 -77.5 33.5t-33.5 79.5q0 45 33 78t78 33zM1538 1176q47 0 81 -32.5t34 -78.5t-34 -79.5t-81 -33.5q-44 0 -77.5 33.5t-33.5 79.5q0 45 33 78t78 33zM1876 1176q47 0 81 -32.5t34 -78.5t-34 -79.5t-81 -33.5
q-44 0 -77.5 33.5t-33.5 79.5q0 45 33 78t78 33zM2050 0q-94 0 -173.5 43.5t-127.5 118.5q-45 -74 -122.5 -117.5t-172.5 -44.5q-137 0 -223 96v-303q0 -85 -59 -145t-144 -60h-424q-136 0 -251.5 67.5t-183 183t-67.5 251.5v330h179v-330q0 -135 94 -230.5t229 -95.5h387
q28 0 48 19.5t20 48.5v932h172v-385q0 -87 61 -145t154 -58q95 0 157 60.5t62 148.5v373h176v-379q0 -90 61.5 -146.5t153.5 -56.5q87 0 148 61t61 148v571h176v-573q-3 -165 -115 -274t-276 -109z" />
    <glyph glyph-name="uni0635" unicode="&#x635;" horiz-adv-x="2594" 
d="M2392 719q70 -116 70 -258v-301q0 -67 -46.5 -113.5t-111.5 -46.5h-1051v-229q0 -78 -57 -135.5t-135 -57.5h-447q-139 0 -257 68.5t-186.5 186t-68.5 255.5v307h174v-307q0 -138 100 -237t238 -99h408q23 0 40 17.5t17 40.5v1146h174v-192l551 168q170 52 336.5 -8
t251.5 -205zM2288 219v242q0 97 -47 170q-52 93 -160 130.5t-223 4.5l-605 -184v-406h992q19 0 31 12t12 31z" />
    <glyph glyph-name="uni0636" unicode="&#x636;" horiz-adv-x="2584" 
d="M1833 1364q46 0 79.5 -32.5t33.5 -78.5t-33.5 -79t-79.5 -33t-79.5 33t-33.5 79t33.5 78.5t79.5 32.5zM2392 719q70 -116 70 -258v-301q0 -67 -46.5 -113.5t-111.5 -46.5h-1051v-229q0 -78 -57 -135.5t-135 -57.5h-447q-139 0 -257 68.5t-186.5 186t-68.5 255.5v338h174
v-338q0 -138 100 -237t238 -99h408q23 0 40 17.5t17 40.5v1146h174v-192l551 168q170 52 336.5 -8t251.5 -205zM2288 219v242q0 97 -47 170q-52 93 -160 130.5t-223 4.5l-605 -184v-406h992q19 0 31 12t12 31z" />
    <glyph glyph-name="uni0637" unicode="&#x637;" horiz-adv-x="1832" 
d="M1640 723q70 -118 70 -258v-305q0 -65 -47 -112.5t-111 -47.5h-1441v176h208v1251h175v-659l557 170q170 53 336.5 -8t252.5 -207zM1536 221v244q0 95 -47 172q-55 94 -163 131.5t-224 3.5l-608 -184v-412h999q18 0 30.5 12.5t12.5 32.5z" />
    <glyph glyph-name="uni0638" unicode="&#x638;" horiz-adv-x="1792" 
d="M1640 723q70 -118 70 -258v-305q0 -65 -47 -112.5t-111 -47.5h-1441v176h208v1251h175v-659l557 170q170 53 336.5 -8t252.5 -207zM1047 1364q47 0 80.5 -32.5t33.5 -78.5t-33.5 -79t-80.5 -33q-45 0 -78 33.5t-33 78.5t33 78t78 33zM1536 221v244q0 95 -47 172
q-55 94 -163 131.5t-224 3.5l-608 -184v-412h999q18 0 30.5 12.5t12.5 32.5z" />
    <glyph glyph-name="uni0639" unicode="&#x639;" horiz-adv-x="1249" 
d="M1110 176v-176h-635q-83 0 -141 -58.5t-58 -140.5t58 -139t141 -57h473v-172h-473q-155 0 -264 107t-109 261q0 114 65.5 205t166.5 119l31 4q-158 119 -158 301v92q0 184 130 312.5t312 128.5q165 0 280.5 -93t147.5 -249l-129 -78q-15 105 -99.5 176.5t-199.5 71.5
q-109 0 -189 -78.5t-81 -188.5v-92q0 -111 79 -183.5t191 -72.5h461z" />
    <glyph glyph-name="uni063A" unicode="&#x63a;" horiz-adv-x="1239" 
d="M633 1364q47 0 81 -32.5t34 -78.5t-34 -79t-81 -33q-45 0 -78 33.5t-33 78.5t33 78t78 33zM1110 176v-176h-635q-83 0 -141 -58.5t-58 -140.5t58 -139t141 -57h479v-172h-479q-155 0 -264 107t-109 261q0 114 65.5 205t166.5 119l31 4q-72 40 -115 122t-43 179v92
q0 184 130 312.5t312 128.5q165 0 280.5 -93t147.5 -249l-129 -78q-15 105 -99.5 176.5t-199.5 71.5q-109 0 -189 -78.5t-81 -188.5v-92q0 -111 79 -183.5t191 -72.5h461z" />
    <glyph glyph-name="uni0640" unicode="&#x640;" horiz-adv-x="552" 
d="M-20 176h593v-176h-593v176z" />
    <glyph glyph-name="uni0641" unicode="&#x641;" horiz-adv-x="2023" 
d="M1563 1370q46 0 79 -33t33 -77q0 -47 -33 -80t-79 -33t-79.5 33t-33.5 80q0 44 33.5 77t79.5 33zM1890 963v-779q0 -78 -53 -131t-131 -53h-1145q-189 0 -324 135.5t-135 325.5v256h177v-258q0 -118 82.5 -200.5t199.5 -82.5h594q-73 46 -118.5 130.5t-45.5 178.5
q0 128 65.5 238t178 175t244.5 65h411zM1642 176q29 0 50.5 20.5t21.5 49.5v542h-235q-130 -1 -222 -92.5t-92 -216.5q0 -121 91.5 -212t203.5 -91h182z" />
    <glyph glyph-name="uni0642" unicode="&#x642;" horiz-adv-x="1507" 
d="M748 1370q47 0 80.5 -32.5t33.5 -77.5q0 -47 -33.5 -80t-80.5 -33q-45 0 -78 33t-33 80q0 44 33.5 77t77.5 33zM1065 1370q47 0 81 -33t34 -77q0 -47 -34 -80t-81 -33q-45 0 -78 33t-33 80q0 44 33.5 77t77.5 33zM938 963h436v-1174q0 -89 -63 -152t-152 -63h-541
q-215 0 -365.5 150.5t-150.5 365.5v334h177v-332q0 -141 99.5 -240.5t239.5 -99.5h519q27 0 44 17.5t17 44.5v186h-260q-186 0 -318.5 128.5t-132.5 311.5v86q0 186 130.5 311.5t320.5 125.5zM938 176h260v629h-260q-116 0 -196 -81.5t-80 -197.5v-84q0 -109 81 -187.5
t195 -78.5z" />
    <glyph glyph-name="uni0643" unicode="&#x643;" horiz-adv-x="1738" 
d="M1565 1427v-1253q0 -71 -51 -122.5t-123 -51.5h-834q-184 0 -314 129.5t-130 312.5v299h174v-299q0 -110 80 -189t190 -79h770q26 0 46 19t20 45v1189h172zM1040 946v-92h-389v92h70q-36 48 -33 98q6 74 57 123.5t123 49.5q65 0 113 -39t63 -99l-75 -47q-23 88 -101 88
q-37 0 -60.5 -24t-23.5 -62q0 -33 22 -60.5t62 -27.5h172z" />
    <glyph glyph-name="uni0644" unicode="&#x644;" horiz-adv-x="1409" 
d="M1036 -401h-422q-139 0 -257 68t-186.5 186t-68.5 258v317h177v-317q0 -140 98 -238t237 -98h392q31 0 52 21t21 52v1579l176 -2v-1607q0 -91 -64 -155t-155 -64z" />
    <glyph glyph-name="uni0645" unicode="&#x645;" horiz-adv-x="1257" 
d="M676 0q-86 0 -158.5 32t-118.5 85v-76q-7 -98 -42.5 -177t-93 -132t-125.5 -87t-148 -51l-33 173q270 59 270 323v873h449q122 0 225 -60.5t163 -165t60 -227.5v-64q-1 -122 -61 -224.5t-163 -162t-224 -59.5zM676 176q114 0 193.5 77t82.5 191v66q0 115 -80 194.5
t-194 79.5h-277v-352q3 -120 83.5 -188t191.5 -68z" />
    <glyph glyph-name="uni0646" unicode="&#x646;" horiz-adv-x="1400" 
d="M672 965q46 0 79 -33.5t33 -77.5q0 -47 -33 -80t-79 -33t-79.5 33t-33.5 80q0 44 33.5 77.5t79.5 33.5zM1094 -397h-482q-212 0 -361 149t-149 361v313h174v-313q0 -138 98.5 -237t237.5 -99h394q28 0 47.5 18.5t19.5 46.5v1092h174v-1178q0 -63 -44.5 -108t-108.5 -45z
" />
    <glyph glyph-name="uni0647" unicode="&#x647;" horiz-adv-x="1089" 
d="M104 963l453 2q185 0 312.5 -127.5t127.5 -311.5v-82q0 -121 -58 -223t-159 -161t-223 -60q-190 -2 -321.5 121.5t-131.5 306.5v535zM557 176q116 0 192 77t76 193v72q0 112 -78.5 191t-189.5 79h-278v-354q0 -120 82.5 -189t195.5 -69z" />
    <glyph glyph-name="uni0648" unicode="&#x648;" horiz-adv-x="1130" 
d="M997 963v-959q0 -211 -141 -340q-103 -97 -241 -130.5t-386 -33.5v174h75t73 2t82 6t74 12.5t78 20.5t65.5 31.5t62.5 44.5q67 64 76 170l2 39h-250q-129 0 -236.5 65t-168 176t-60.5 242q0 202 134 341t331 139h430zM567 176h254v610h-254q-126 0 -208.5 -86.5
t-82.5 -216.5q0 -129 83 -218t208 -89z" />
    <glyph glyph-name="uni0649" unicode="&#x649;" horiz-adv-x="2066" 
d="M1933 963l-2 -961h-176l4 786h-344q-52 0 -88.5 -36.5t-36.5 -87.5v-912q0 -65 -46.5 -111.5t-110.5 -46.5h-517q-138 0 -256.5 69t-188 188.5t-69.5 259.5v329h179v-329q0 -141 98.5 -240.5t236.5 -99.5h426q28 0 48 19t20 48v828q0 123 89.5 210t215.5 87h518z" />
    <glyph glyph-name="uni064A" unicode="&#x64a;" horiz-adv-x="2066" 
d="M1933 963l-2 -961h-176l4 786h-344q-52 0 -88.5 -36.5t-36.5 -87.5v-912q0 -65 -46.5 -111.5t-110.5 -46.5h-517q-138 0 -256.5 69t-188 188.5t-69.5 259.5v329h179v-329q0 -141 98.5 -240.5t236.5 -99.5h426q28 0 48 19t20 48v828q0 123 89.5 210t215.5 87h518z
M672 -549q46 0 79 -32t33 -78t-33 -79.5t-79 -33.5t-79.5 33.5t-33.5 79.5q0 45 33.5 77.5t79.5 32.5zM991 -549q47 0 81 -32t34 -78t-34 -79.5t-81 -33.5q-44 0 -77 33.5t-33 79.5q0 45 32.5 77.5t77.5 32.5z" />
    <glyph glyph-name="uni064B" unicode="&#x64b;" 
d="M16 1845l351 113l4 -64l-348 -122zM16 1681l351 127l4 -75l-348 -123z" />
    <glyph glyph-name="uni064C" unicode="&#x64c;" 
d="M467 1645q0 -51 -32 -88t-83 -48l-258 -79l-10 61q-6 75 -55 78l-21 -6l-14 57l18 8q51 17 82.5 -4.5t40.5 -77.5l4 -24l97 30q-43 34 -43 93q0 57 40 97t97 40t97 -40t40 -97zM332 1575q28 0 46 18t19 49q2 30 -16 51t-47 21q-30 0 -49 -19.5t-19 -47.5q0 -32 18.5 -52
t47.5 -20z" />
    <glyph glyph-name="uni064D" unicode="&#x64d;" 
d="M14 -227l351 112l6 -63l-351 -123zM14 -391l351 127l6 -76l-351 -123z" />
    <glyph glyph-name="uni064E" unicode="&#x64e;" 
d="M72 1692l350 112l4 -63l-348 -123z" />
    <glyph glyph-name="uni064F" unicode="&#x64f;" 
d="M217 1952q56 0 95.5 -40t39.5 -97q0 -99 -112 -138l-224 -73l-24 71l133 45q-45 33 -45 95q0 57 40 97t97 40zM215 1747q29 0 49.5 22t20.5 54q0 29 -20.5 49t-49.5 20q-31 0 -51.5 -20t-20.5 -49q0 -32 20.5 -54t51.5 -22z" />
    <glyph glyph-name="uni0650" unicode="&#x650;" 
d="M70 -582l350 127l4 -75l-348 -123z" />
    <glyph glyph-name="uni0651" unicode="&#x651;" 
d="M383 1745h86v-133q0 -75 -36.5 -118.5t-98.5 -43.5q-61 0 -92 45q-13 -36 -42.5 -56t-62.5 -20q-59 0 -98 39.5t-39 106.5v82h86v-82q0 -58 51 -58q49 0 49 70v115h86v-105q0 -23 14 -35t36 -12q61 0 61 72v133z" />
    <glyph glyph-name="uni0652" unicode="&#x652;" 
d="M182 1649q-60 0 -102.5 43t-42.5 104q0 60 42.5 103t102.5 43t103 -43t43 -103q0 -61 -43 -104t-103 -43zM182 1722q30 0 49 20t19 52q0 29 -19.5 48.5t-48.5 19.5t-48 -19.5t-19 -48.5q0 -32 19 -52t48 -20z" />
    <glyph glyph-name="uni0653" unicode="&#x653;" 
d="M61 1962l-53 61l131 93q10 8 25.5 5.5t25.5 -12.5q60 -63 187 -63q31 0 82.5 16t89.5 33l39 -90q-42 -24 -106 -42.5t-105 -18.5q-118 0 -207 73q-13 10 -29 0z" />
    <glyph glyph-name="uni0658" unicode="&#x658;" 
 />
    <glyph glyph-name="uni0660" unicode="&#x660;" horiz-adv-x="516" 
d="M127 117q0 61 36 96t95 35q62 0 96.5 -35t34.5 -96q0 -59 -35 -95t-96 -36q-58 0 -94.5 36t-36.5 95z" />
    <glyph glyph-name="uni0661" unicode="&#x661;" horiz-adv-x="497" 
d="M346 1434v-1434h-192v1434h192z" />
    <glyph glyph-name="uni0662" unicode="&#x662;" horiz-adv-x="1212" 
d="M1038 1434v-191l-393 -2q-114 0 -194 -88t-80 -205v-948h-197v942q0 131 62.5 244.5t171 180.5t235.5 67h395z" />
    <glyph glyph-name="uni0663" unicode="&#x663;" horiz-adv-x="1648" 
d="M1124 578q-95 0 -174 43t-127 118q-45 -74 -123 -117.5t-172 -43.5q-136 0 -223 94v-674h-172v1436h172v-478q0 -88 61 -146t154 -58q95 0 157 61t62 148v473h176v-478q0 -91 61.5 -147.5t153.5 -56.5q87 0 148 61t61 148v473h177v-476q-3 -165 -115.5 -272.5
t-276.5 -107.5z" />
    <glyph glyph-name="uni0664" unicode="&#x664;" horiz-adv-x="1191" 
d="M1053 694v-172h-592q-74 0 -126 -51.5t-52 -124.5t52 -124.5t126 -51.5h442v-170h-442q-145 0 -246.5 102.5t-101.5 243.5q0 105 60 187.5t153 107.5l30 6q-68 51 -106.5 126.5t-38.5 164.5v94q0 170 122.5 290t289.5 120q159 0 266 -90t137 -240l-129 -80
q-18 106 -92.5 174t-181.5 68q-98 0 -170.5 -71t-73.5 -171v-92q0 -100 72 -173t172 -73h430z" />
    <glyph glyph-name="uni0665" unicode="&#x665;" horiz-adv-x="1427" 
d="M715 -27q-170 0 -300.5 93t-202 262t-71.5 389q0 334 158 538.5t416 204.5q170 0 300.5 -92.5t201.5 -261t71 -389.5q0 -220 -71 -389t-201.5 -262t-300.5 -93zM715 152q167 0 269.5 155t102.5 410t-102.5 411t-269.5 156q-169 0 -272 -156t-103 -411t103 -410t272 -155z
" />
    <glyph glyph-name="uni0666" unicode="&#x666;" horiz-adv-x="1212" 
d="M174 1434h395q127 0 235.5 -67t171 -180.5t62.5 -244.5v-942h-196v948q0 117 -80.5 205t-194.5 88l-393 2v191z" />
    <glyph glyph-name="uni0667" unicode="&#x667;" horiz-adv-x="1398" 
d="M1366 1434l-547 -1434h-233l-553 1434h211l458 -1207l453 1207h211z" />
    <glyph glyph-name="uni0668" unicode="&#x668;" horiz-adv-x="1419" 
d="M1386 0h-210l-463 1206l-469 -1206h-211l563 1434h233z" />
    <glyph glyph-name="uni0669" unicode="&#x669;" horiz-adv-x="1159" 
d="M582 1434q184 1 314 -129t130 -314v-991h-180v463h-225q-224 0 -357 127.5t-133 327.5v73q0 183 133.5 313t317.5 130zM852 637v354q0 110 -79 189.5t-189 79.5q-116 0 -198.5 -82t-82.5 -199v-68q0 -113 83 -193.5t198 -80.5h268z" />
    <glyph glyph-name="uni066A" unicode="&#x66a;" horiz-adv-x="1523" 
d="M1202 1434h172l-1001 -1434h-172zM307 1137q-60 0 -100.5 39.5t-40.5 99.5q0 61 40.5 101t100.5 40q62 0 103 -40t41 -101q0 -60 -41 -99.5t-103 -39.5zM1221 -14q-60 0 -101 39.5t-41 99.5q0 61 41 101t101 40q62 0 102.5 -40t40.5 -101q0 -60 -40.5 -99.5t-102.5 -39.5
z" />
    <glyph glyph-name="uni066B" unicode="&#x66b;" horiz-adv-x="466" 
d="M174 264h191l-138 -579h-155z" />
    <glyph glyph-name="uni066C" unicode="&#x66c;" horiz-adv-x="466" 
d="M174 264h191l-138 -579h-155z" />
    <glyph glyph-name="uni066D" unicode="&#x66d;" horiz-adv-x="937" 
d="M567 342l201 -258l-115 -82l-184 270l-186 -270l-113 82l201 260l-314 92l43 133l308 -108l-11 325h142l-11 -327l310 110l45 -135z" />
    <glyph glyph-name="uni066E" unicode="&#x66e;" horiz-adv-x="1724" 
d="M1602 952v-776q0 -73 -52.5 -124.5t-124.5 -51.5h-929q-166 0 -285 117.5t-119 281.5v349h180v-349q0 -94 65 -158.5t159 -64.5h884q19 0 31 12t12 31v733h179z" />
    <glyph glyph-name="uni066F" unicode="&#x66f;" horiz-adv-x="1507" 
d="M938 979q179 0 307.5 -128.5t128.5 -309.5v-752q0 -89 -63 -152t-152 -63h-541q-215 0 -365.5 150.5t-150.5 365.5v334h177v-332q0 -141 99.5 -240.5t239.5 -99.5h519q27 0 44 17.5t17 44.5v186h-260q-186 0 -318.5 128.5t-132.5 311.5v86q0 188 131.5 320.5t319.5 132.5
zM938 176h260v365q0 108 -77 186t-183 78q-116 0 -196 -81.5t-80 -197.5v-84q0 -109 81 -187.5t195 -78.5z" />
    <glyph glyph-name="uni0671" unicode="&#x671;" horiz-adv-x="503" 
d="M164 0v1434h176v-1434h-176z" />
    <glyph glyph-name="uni0679" unicode="&#x679;" horiz-adv-x="1724" 
d="M653 1081v84h72v334h82v-199q71 74 139 74q146 0 146 -172v-121h-439zM809 1212v-47h201v43q0 82 -72 82q-63 0 -129 -78zM1423 952h179v-776q0 -73 -52.5 -124.5t-124.5 -51.5h-929q-166 0 -285 117.5t-119 281.5v349h180v-349q0 -94 65 -158.5t159 -64.5h884
q19 0 31 12t12 31v733z" />
    <glyph glyph-name="uni067E" unicode="&#x67e;" horiz-adv-x="1724" 
d="M1602 952v-776q0 -73 -52.5 -124.5t-124.5 -51.5h-929q-166 0 -285 117.5t-119 281.5v349h180v-349q0 -94 65 -158.5t159 -64.5h884q19 0 31 12t12 31v733h179zM702 -393q-45 0 -77.5 32.5t-32.5 77.5q0 46 33 79.5t77 33.5q47 0 81 -33.5t34 -79.5t-34 -78t-81 -32z
M1016 -393q-45 0 -78 32.5t-33 77.5q0 46 33.5 79.5t77.5 33.5q47 0 80.5 -33.5t33.5 -79.5t-33.5 -78t-80.5 -32zM858 -682q-46 0 -79.5 32.5t-33.5 78.5t33.5 79t79.5 33t79.5 -33t33.5 -79t-33.5 -78.5t-79.5 -32.5z" />
    <glyph glyph-name="uni0686" unicode="&#x686;" horiz-adv-x="1505" 
d="M494 0q-100 0 -170 -71t-70 -171q0 -101 70 -171t170 -70h421v-176h-421q-173 0 -295.5 122t-122.5 295q0 172 122.5 295t295.5 123h641q-27 15 -47.5 52.5t-20.5 80.5v82q0 213 -129 307q-58 46 -139 67.5t-161 19t-144 -13t-113 -26.5l-74 156q75 28 162.5 44.5
t189 18.5t204 -28.5t181.5 -93.5q87 -69 142 -182t55 -271v-82q0 -51 31.5 -91t81.5 -40h20v-176h-880zM492 -244q-25 0 -42.5 17.5t-17.5 42.5q0 26 17.5 43.5t42.5 17.5t43 -17.5t18 -43.5q0 -25 -18 -42.5t-43 -17.5zM674 -244q-24 0 -42 18t-18 42q0 26 18 43.5t42 17.5
q26 0 43.5 -17.5t17.5 -43.5q0 -25 -17.5 -42.5t-43.5 -17.5zM582 -412q-24 0 -42 18t-18 42t18 41.5t42 17.5q26 0 43.5 -17t17.5 -42t-17.5 -42.5t-43.5 -17.5z" />
    <glyph glyph-name="uni0688" unicode="&#x688;" horiz-adv-x="1073" 
d="M465 1137v84h72v333h81v-198q71 74 140 74q145 0 145 -173v-120h-438zM621 1268v-47h200v43q0 82 -71 82q-63 0 -129 -78zM938 414q39 -161 -64 -289q-46 -59 -114 -92t-144 -33h-524v176h524q77 0 123 60q48 59 31 133l-156 589l168 48z" />
    <glyph glyph-name="uni0691" unicode="&#x691;" horiz-adv-x="628" 
d="M487 1411q146 0 146 -172v-121h-438v84h71v334h82v-199q71 74 139 74zM551 1202v43q0 82 -72 82q-63 0 -129 -78v-47h201zM322 20v934h174v-934q0 -117 -34.5 -210t-97 -153t-143.5 -94.5t-178 -43.5l-63 168q83 10 142.5 30t106.5 57t70 98.5t23 147.5z" />
    <glyph glyph-name="uni0698" unicode="&#x698;" horiz-adv-x="628" 
d="M395 1626q46 0 79.5 -33t33.5 -77q0 -47 -33.5 -80t-79.5 -33t-79 33t-33 80q0 44 33 77t79 33zM240 1337q47 0 80.5 -32.5t33.5 -77.5q0 -47 -33.5 -80t-80.5 -33q-45 0 -78 33t-33 80q0 44 33.5 77t77.5 33zM553 1337q47 0 81 -33t34 -77q0 -47 -34 -80t-81 -33
q-45 0 -78 33t-33 80q0 44 33.5 77t77.5 33zM496 20q0 -117 -34.5 -210t-97 -153t-143.5 -94.5t-178 -43.5l-63 168q83 10 142.5 30t106.5 57t70 98.5t23 147.5v934h174v-934z" />
    <glyph glyph-name="uni06A1" unicode="&#x6a1;" horiz-adv-x="2023" 
d="M1890 963v-779q0 -78 -53 -131t-131 -53h-1145q-189 0 -324 135.5t-135 325.5v256h177v-258q0 -118 82.5 -200.5t199.5 -82.5h594q-73 46 -118.5 130.5t-45.5 178.5q0 128 65.5 238t178 175t244.5 65h411zM1642 176q29 0 50.5 20.5t21.5 49.5v542h-235
q-130 -1 -222 -92.5t-92 -216.5q0 -121 91.5 -212t203.5 -91h182z" />
    <glyph glyph-name="uni06A4" unicode="&#x6a4;" horiz-adv-x="2023" 
d="M1556 1608q47 0 81 -33t34 -78q0 -47 -34 -80t-81 -33q-45 0 -77.5 33t-32.5 80q0 44 33 77.5t77 33.5zM1403 1319q46 0 79.5 -33.5t33.5 -77.5q0 -47 -33.5 -79.5t-79.5 -32.5t-79.5 32.5t-33.5 79.5q0 44 33.5 77.5t79.5 33.5zM1716 1319q46 0 79.5 -33.5t33.5 -77.5
q0 -47 -33.5 -79.5t-79.5 -32.5t-79 32.5t-33 79.5q0 44 33 77.5t79 33.5zM1890 963v-779q0 -78 -53 -131t-131 -53h-1145q-189 0 -324 135.5t-135 325.5v256h177v-258q0 -118 82.5 -200.5t199.5 -82.5h594q-73 46 -118.5 130.5t-45.5 178.5q0 128 65.5 238t178 175
t244.5 65h411zM1642 176q29 0 50.5 20.5t21.5 49.5v542h-235q-130 -1 -222 -92.5t-92 -216.5q0 -121 91.5 -212t203.5 -91h182z" />
    <glyph glyph-name="uni06A9" unicode="&#x6a9;" horiz-adv-x="2062" 
d="M1423 965q137 0 253.5 -68t184.5 -185t68 -255v-457h-1403q-166 0 -284.5 117.5t-118.5 281.5v349h180v-349q0 -94 64.5 -158.5t158.5 -64.5h1229v268q0 142 -101.5 243t-242.5 101h-500l-127 195l418 580l144 -103l-361 -495h438z" />
    <glyph glyph-name="uni06AF" unicode="&#x6af;" horiz-adv-x="2062" 
d="M1090 1599l-392 -536l-61 55l389 531zM1423 965q137 0 253.5 -68t184.5 -185t68 -255v-457h-1403q-166 0 -284.5 117.5t-118.5 281.5v349h180v-349q0 -94 64.5 -158.5t158.5 -64.5h1229v268q0 142 -101.5 243t-242.5 101h-500l-127 195l418 580l144 -103l-361 -495h438z
" />
    <glyph glyph-name="uni06BA" unicode="&#x6ba;" horiz-adv-x="1390" 
d="M1094 -397h-482q-212 0 -361 149t-149 361v313h174v-313q0 -138 98.5 -237t237.5 -99h394q28 0 47.5 18.5t19.5 46.5v1092h174v-1178q0 -63 -44.5 -108t-108.5 -45z" />
    <glyph glyph-name="uni06BE" unicode="&#x6be;" horiz-adv-x="1517" 
d="M797 1153q258 -60 422.5 -269.5t164.5 -498.5v-192q0 -78 -55 -135.5t-133 -57.5h-1216v174h280q-59 43 -95 117t-36 155q0 169 125 282.5t301 113.5q183 0 308.5 -129.5t125.5 -315.5v-153q0 -42 -12 -70h190q20 0 32.5 13.5t12.5 33.5v164q0 222 -122.5 386.5
t-321.5 211.5q-158 41 -334 41l2 172q125 -3 192.5 -11.5t168.5 -31.5zM555 668q-101 0 -177.5 -69.5t-76.5 -174.5q0 -106 71 -178t165 -72h235q18 0 31.5 12.5t13.5 32.5v195q0 98 -76.5 176t-185.5 78z" />
    <glyph glyph-name="uni06C1" unicode="&#x6c1;" horiz-adv-x="1089" 
d="M104 963l453 2q185 0 312.5 -127.5t127.5 -311.5v-82q0 -121 -58 -223t-159 -161t-223 -60q-190 -2 -321.5 121.5t-131.5 306.5v535zM557 176q116 0 192 77t76 193v72q0 112 -78.5 191t-189.5 79h-278v-354q0 -120 82.5 -189t195.5 -69z" />
    <glyph glyph-name="uni06C2" unicode="&#x6c2;" horiz-adv-x="1089" 
d="M668 1192v-92h-389v92h69q-35 53 -33 98q6 73 58 122.5t123 49.5q65 0 113.5 -39t62.5 -98l-76 -47q-9 41 -35 64.5t-65 23.5q-36 0 -60 -24t-24 -62q0 -33 22 -60.5t62 -27.5h172zM104 963l453 2q185 0 312.5 -127.5t127.5 -311.5v-82q0 -121 -58 -223t-159 -161
t-223 -60q-190 -2 -321.5 121.5t-131.5 306.5v535zM557 176q116 0 192 77t76 193v72q0 112 -78.5 191t-189.5 79h-278v-354q0 -120 82.5 -189t195.5 -69z" />
    <glyph glyph-name="uni06C3" unicode="&#x6c3;" horiz-adv-x="1089" 
d="M403 1358q46 0 79.5 -32.5t33.5 -78.5t-33.5 -79t-79.5 -33t-79 33t-33 79t33 78.5t79 32.5zM717 1358q46 0 79 -32.5t33 -78.5t-33 -79t-79 -33t-79.5 33t-33.5 79t33.5 78.5t79.5 32.5zM104 963l453 2q185 0 312.5 -127.5t127.5 -311.5v-82q0 -121 -58 -223t-159 -161
t-223 -60q-190 -2 -321.5 121.5t-131.5 306.5v535zM557 176q116 0 192 77t76 193v72q0 112 -78.5 191t-189.5 79h-278v-354q0 -120 82.5 -189t195.5 -69z" />
    <glyph glyph-name="uni06CC" unicode="&#x6cc;" horiz-adv-x="2066" 
d="M1933 963l-2 -961h-176l4 786h-344q-52 0 -88.5 -36.5t-36.5 -87.5v-912q0 -65 -46.5 -111.5t-110.5 -46.5h-517q-138 0 -256.5 69t-188 188.5t-69.5 259.5v329h179v-329q0 -141 98.5 -240.5t236.5 -99.5h426q28 0 48 19t20 48v828q0 123 89.5 210t215.5 87h518z" />
    <glyph glyph-name="uni06D2" unicode="&#x6d2;" horiz-adv-x="1282" 
d="M455 0q-76 0 -144 33t-114 92q-103 128 -64 289l94 360l168 -49l-94 -356q-17 -74 31 -133q46 -60 123 -60h848v-176h-848z" />
    <glyph glyph-name="uni06D3" unicode="&#x6d3;" horiz-adv-x="1282" 
d="M520 975v-92h-389v92h70q-35 53 -33 98q6 73 57.5 122.5t122.5 49.5q65 0 113.5 -39t62.5 -98l-75 -47q-9 41 -35.5 64.5t-65.5 23.5q-36 0 -60 -24t-24 -62q0 -33 22 -60.5t62 -27.5h172zM455 0q-76 0 -144 33t-114 92q-103 128 -64 289l94 360l168 -49l-94 -356
q-17 -74 31 -133q46 -60 123 -60h848v-176h-848z" />
    <glyph glyph-name="uni06D4" unicode="&#x6d4;" horiz-adv-x="1228" 
 />
    <glyph glyph-name="uni06F0" unicode="&#x6f0;" horiz-adv-x="516" 
d="M127 117q0 61 36 96t95 35q62 0 96.5 -35t34.5 -96q0 -59 -35 -95t-96 -36q-58 0 -94.5 36t-36.5 95z" />
    <glyph glyph-name="uni06F1" unicode="&#x6f1;" horiz-adv-x="497" 
d="M346 1434v-1434h-192v1434h192z" />
    <glyph glyph-name="uni06F2" unicode="&#x6f2;" horiz-adv-x="1212" 
d="M1038 1434v-191l-393 -2q-114 0 -194 -88t-80 -205v-948h-197v942q0 131 62.5 244.5t171 180.5t235.5 67h395z" />
    <glyph glyph-name="uni06F3" unicode="&#x6f3;" horiz-adv-x="1648" 
d="M1124 578q-95 0 -174 43t-127 118q-45 -74 -123 -117.5t-172 -43.5q-136 0 -223 94v-674h-172v1436h172v-478q0 -88 61 -146t154 -58q95 0 157 61t62 148v473h176v-478q0 -91 61.5 -147.5t153.5 -56.5q87 0 148 61t61 148v473h177v-476q-3 -165 -115.5 -272.5
t-276.5 -107.5z" />
    <glyph glyph-name="uni06F4" unicode="&#x6f4;" horiz-adv-x="1515" 
d="M1376 629v-176h-1040v-453h-193v1434h193v-807h295q-158 82 -158 272v92q0 184 130 312.5t312 128.5q165 0 280 -93t146 -249l-127 -78q-18 105 -101 176.5t-198 71.5q-110 0 -189 -78.5t-81 -188.5v-92q0 -112 79.5 -192t190.5 -80h461z" />
    <glyph glyph-name="uni06F5" unicode="&#x6f5;" horiz-adv-x="1533" 
d="M1012 -27q-162 0 -234 140q-33 -67 -94 -103.5t-143 -36.5q-97 0 -178.5 52t-133.5 149q-90 162 -90 412q0 154 37.5 302t106.5 265q85 144 205.5 219.5t267.5 75.5q148 0 272 -79.5t215 -231.5q72 -123 112 -278t40 -312q0 -235 -86 -387q-48 -88 -124.5 -137.5
t-172.5 -49.5zM862 360q0 -36 6 -69.5t21.5 -69t48.5 -57.5t80 -23q89 0 145 107q62 109 62 299q0 132 -35 265.5t-96 236.5q-23 41 -52.5 78t-71.5 72.5t-97.5 57t-116.5 21.5q-198 0 -322 -205q-59 -99 -92 -227.5t-33 -259.5q0 -96 20.5 -190.5t61.5 -153.5
q59 -99 150 -99q151 0 151 213v172h170v-168z" />
    <glyph glyph-name="uni06F6" unicode="&#x6f6;" horiz-adv-x="1249" 
d="M1110 631v-176h-635q-75 0 -130 -48t-66 -120l-3 -287h-174l2 289q9 105 72 185t158 106l31 4q-73 55 -115.5 138.5t-42.5 178.5v92q0 184 130 312.5t312 128.5q165 0 280.5 -93t147.5 -249l-129 -78q-15 105 -99.5 176.5t-199.5 71.5q-109 0 -189 -78.5t-81 -188.5v-92
q0 -112 79.5 -192t190.5 -80h461z" />
    <glyph glyph-name="uni06F7" unicode="&#x6f7;" horiz-adv-x="1398" 
d="M1366 1434l-547 -1434h-233l-553 1434h211l458 -1207l453 1207h211z" />
    <glyph glyph-name="uni06F8" unicode="&#x6f8;" horiz-adv-x="1419" 
d="M1386 0h-210l-463 1206l-469 -1206h-211l563 1434h233z" />
    <glyph glyph-name="uni06F9" unicode="&#x6f9;" horiz-adv-x="1159" 
d="M582 1434q184 1 314 -129t130 -314v-991h-180v463h-225q-224 0 -357 127.5t-133 327.5v73q0 183 133.5 313t317.5 130zM852 637v354q0 110 -79 189.5t-189 79.5q-116 0 -198.5 -82t-82.5 -199v-68q0 -113 83 -193.5t198 -80.5h268z" />
    <glyph glyph-name="uni1E20" unicode="&#x1e20;" horiz-adv-x="1597" 
d="M1165 1651h-647v151h647v-151zM1475 770v-532q-236 -267 -621 -267q-224 3 -391.5 102t-253.5 265.5t-86 376.5t88 378t256 266.5t387 98.5q195 0 351.5 -85.5t248.5 -237.5l-162 -111q-65 121 -177.5 185.5t-260.5 64.5q-156 0 -277 -73t-186 -200t-65 -286
q0 -158 63.5 -283.5t184 -199t280.5 -76.5q278 0 440 159v291h-360v164h541z" />
    <glyph glyph-name="uni1E21" unicode="&#x1e21;" horiz-adv-x="1327" 
d="M340 1405h647v-152h-647v152zM1165 1028v-944q0 -230 -149 -378t-381 -148q-144 0 -278 63.5t-205 163.5l88 131q61 -85 168.5 -138.5t214.5 -53.5q154 0 258 100t104 278v146q-44 -107 -155.5 -173.5t-245.5 -66.5q-216 0 -350 147t-134 382q0 225 134.5 367.5
t349.5 142.5q137 0 242.5 -60.5t148.5 -161.5v203h190zM637 174q151 0 247.5 101.5t96.5 261.5q0 158 -96.5 260t-247.5 102q-153 0 -249.5 -101t-96.5 -261q0 -162 96 -262.5t250 -100.5z" />
    <glyph glyph-name="uni1E30" unicode="&#x1e30;" horiz-adv-x="1366" 
d="M766 1591h-186l215 334h192zM1335 1434l-733 -725l727 -709h-244l-618 575l-74 -73v-502h-194v1434h194v-680l701 680h241z" />
    <glyph glyph-name="uni1E31" unicode="&#x1e31;" horiz-adv-x="1085" 
d="M352 1657h-184l215 334h190zM846 0l-445 426l-51 -57v-369h-188v1499h188v-911l488 436h223l-516 -475l524 -549h-223z" />
    <glyph glyph-name="uni1E3E" unicode="&#x1e3e;" horiz-adv-x="1916" 
d="M981 1591h-184l215 334h190zM1720 1434v-1434h-194v1147l-498 -1147h-158l-479 1149v-1147h-192v1432h250l501 -1213l531 1213h239z" />
    <glyph glyph-name="uni1E3F" unicode="&#x1e3f;" horiz-adv-x="1875" 
d="M926 1194h-185l215 334h191zM1364 1047q157 0 259.5 -107t102.5 -270v-668h-190v625q0 107 -71 179.5t-173 72.5q-109 0 -180.5 -75.5t-71.5 -189.5v-612h-188v625q0 106 -73 179t-177 73q-107 0 -177.5 -75.5t-70.5 -189.5v-612h-190v1022h186v-168q43 86 132.5 138.5
t197.5 52.5q114 0 206 -62t126 -160q39 98 136 160t216 62z" />
    <glyph glyph-name="uni1E40" unicode="&#x1e40;" horiz-adv-x="1916" 
d="M958 1645q-51 0 -86.5 35.5t-35.5 86.5t35.5 87t86.5 36t87 -36t36 -87t-36 -86.5t-87 -35.5zM1720 1434v-1434h-194v1147l-498 -1147h-158l-479 1149v-1147h-192v1432h250l501 -1213l531 1213h239z" />
    <glyph glyph-name="uni1E41" unicode="&#x1e41;" horiz-adv-x="1875" 
d="M827 1368q0 55 34.5 88t90.5 33q57 0 92 -33t35 -88q0 -54 -35 -87.5t-92 -33.5q-56 0 -90.5 33.5t-34.5 87.5zM1364 1047q157 0 259.5 -107t102.5 -270v-668h-190v625q0 107 -71 179.5t-173 72.5q-109 0 -180.5 -75.5t-71.5 -189.5v-612h-188v625q0 106 -73 179t-177 73
q-107 0 -177.5 -75.5t-70.5 -189.5v-612h-190v1022h186v-168q43 86 132.5 138.5t197.5 52.5q114 0 206 -62t126 -160q39 98 136 160t216 62z" />
    <glyph glyph-name="uni1E44" unicode="&#x1e44;" horiz-adv-x="1609" 
d="M805 1645q-51 0 -87 35.5t-36 86.5t36 87t87 36t87 -36t36 -87t-36 -86.5t-87 -35.5zM1413 1434v-1434h-188l-834 1116v-1116h-194v1434h188l834 -1117v1117h194z" />
    <glyph glyph-name="uni1E45" unicode="&#x1e45;" horiz-adv-x="1236" 
d="M498 1368q0 55 34.5 88t90.5 33q57 0 92 -33t35 -88q0 -54 -35 -87.5t-92 -33.5q-56 0 -90.5 33.5t-34.5 87.5zM696 1051q160 0 272.5 -112.5t112.5 -270.5v-668h-190v608q0 111 -78.5 190.5t-191.5 80.5q-112 0 -190.5 -80t-78.5 -191v-608h-190v1024h186v-182
q46 94 140.5 151.5t207.5 57.5z" />
    <glyph glyph-name="Wgrave" unicode="&#x1e80;" horiz-adv-x="2131" 
d="M1004 1591l-222 334h191l215 -334h-184zM1880 1434h209l-442 -1434h-224l-352 1057l-352 -1057h-219l-449 1434h207l360 -1164l402 1164h102l402 -1170z" />
    <glyph glyph-name="wgrave" unicode="&#x1e81;" horiz-adv-x="1718" 
d="M752 1194l-222 334h193l215 -334h-186zM1677 1024l-344 -1024h-211l-264 784l-266 -784h-209l-344 1024h194l263 -797l274 797h174l275 -797l264 797h194z" />
    <glyph glyph-name="Wacute" unicode="&#x1e82;" horiz-adv-x="2131" 
d="M1167 1591h-186l215 334h193zM1880 1434h209l-442 -1434h-224l-352 1057l-352 -1057h-219l-449 1434h207l360 -1164l402 1164h102l402 -1170z" />
    <glyph glyph-name="wacute" unicode="&#x1e83;" horiz-adv-x="1718" 
d="M961 1194h-185l215 334h189zM1679 1024l-346 -1024h-211l-264 784l-266 -784h-209l-340 1024h193l260 -797l278 797h174l271 -797l266 797h194z" />
    <glyph glyph-name="Wdieresis" unicode="&#x1e84;" horiz-adv-x="2131" 
d="M834 1645q-51 0 -87 35.5t-36 86.5t36 87t87 36t86.5 -36t35.5 -87t-35.5 -86.5t-86.5 -35.5zM1298 1645q-51 0 -86.5 35.5t-35.5 86.5t35.5 87t86.5 36t87 -36t36 -87t-36 -86.5t-87 -35.5zM1880 1434h209l-442 -1434h-224l-352 1057l-352 -1057h-219l-449 1434h207
l360 -1164l402 1164h102l402 -1170z" />
    <glyph glyph-name="wdieresis" unicode="&#x1e85;" horiz-adv-x="1718" 
d="M504 1370q0 51 36 87t87 36t87 -36t36 -87t-36 -87t-87 -36t-87 36t-36 87zM969 1370q0 51 36 87t87 36t86.5 -36t35.5 -87t-35.5 -87t-86.5 -36t-87 36t-36 87zM1677 1036l-344 -1036h-211l-264 784l-266 -784h-209l-344 1036h194l263 -809l274 809h174l275 -809
l264 809h194z" />
    <glyph glyph-name="uni1E90" unicode="&#x1e90;" horiz-adv-x="1241" 
d="M430 1591h-190l290 334h189l293 -334h-193l-194 224zM1151 178v-178h-1061v150l793 1107h-777v177h1035v-148l-793 -1108h803z" />
    <glyph glyph-name="uni1E91" unicode="&#x1e91;" horiz-adv-x="1007" 
d="M700 1194l-194 223l-195 -223h-190l291 334h188l293 -334h-193zM915 162v-162h-827v127l576 747h-558v162h803v-125l-575 -749h581z" />
    <glyph glyph-name="Ygrave" unicode="&#x1ef2;" horiz-adv-x="1302" 
d="M606 1591l-221 334h190l216 -334h-185zM1315 1434l-557 -850v-584h-199v584l-551 850h225l424 -662l433 662h225z" />
    <glyph glyph-name="ygrave" unicode="&#x1ef3;" horiz-adv-x="1107" 
d="M530 1194l-221 334h191l215 -334h-185zM1077 1036l-479 -1192q-56 -143 -140.5 -198.5t-238.5 -55.5h-174v170h143q105 0 154.5 30t81.5 114l43 100l-432 1032h205l323 -811l309 811h205z" />
    <glyph glyph-name="uni2000" unicode="&#x2000;" horiz-adv-x="1024" 
 />
    <glyph glyph-name="uni2001" unicode="&#x2001;" horiz-adv-x="2048" 
 />
    <glyph glyph-name="uni2002" unicode="&#x2002;" horiz-adv-x="1024" 
 />
    <glyph glyph-name="uni2003" unicode="&#x2003;" horiz-adv-x="2048" 
 />
    <glyph glyph-name="uni2009" unicode="&#x2009;" horiz-adv-x="440" 
 />
    <glyph glyph-name="uni200A" unicode="&#x200a;" horiz-adv-x="122" 
 />
    <glyph glyph-name="uni200B" unicode="&#x200b;" 
 />
    <glyph glyph-name="endash" unicode="&#x2013;" horiz-adv-x="1218" 
d="M98 668h1024v-160h-1024v160z" />
    <glyph glyph-name="emdash" unicode="&#x2014;" horiz-adv-x="2244" 
d="M98 668h2048v-160h-2048v160z" />
    <glyph glyph-name="quoteleft" unicode="&#x2018;" horiz-adv-x="464" 
d="M225 1460h164l-119 -518h-192z" />
    <glyph glyph-name="quoteright" unicode="&#x2019;" horiz-adv-x="464" 
d="M242 942h-164l119 518h192z" />
    <glyph glyph-name="quotesinglbase" unicode="&#x201a;" horiz-adv-x="454" 
d="M221 -295h-164l119 518h193z" />
    <glyph glyph-name="quotedblleft" unicode="&#x201c;" horiz-adv-x="841" 
d="M225 1460h164l-119 -518h-192zM602 1460h164l-119 -518h-192z" />
    <glyph glyph-name="quotedblright" unicode="&#x201d;" horiz-adv-x="841" 
d="M242 942h-164l119 518h192zM618 942h-163l118 518h193z" />
    <glyph glyph-name="quotedblbase" unicode="&#x201e;" horiz-adv-x="831" 
d="M221 -295h-164l119 518h193zM598 -295h-164l119 518h192z" />
    <glyph glyph-name="dagger" unicode="&#x2020;" horiz-adv-x="1071" 
d="M985 852h-358v-1118h-181v1118h-358v168h358v496h181v-496h358v-168z" />
    <glyph glyph-name="daggerdbl" unicode="&#x2021;" horiz-adv-x="1112" 
d="M647 852v-444h318v-168h-318v-506h-180v506h-317v168h317v444h-358v168h358v496h180v-496h359v-168h-359z" />
    <glyph glyph-name="bullet" unicode="&#x2022;" horiz-adv-x="991" 
d="M317 643q-39 75 -13.5 152.5t102.5 117.5q75 38 152.5 12.5t117.5 -100.5q38 -75 12.5 -153.5t-100.5 -116.5q-77 -39 -154.5 -13.5t-116.5 101.5z" />
    <glyph glyph-name="ellipsis" unicode="&#x2026;" horiz-adv-x="1521" 
d="M150 96q-9 51 14 86.5t74 44.5t86.5 -14t44.5 -74t-14 -86.5t-74 -44.5q-51 -11 -86.5 13t-44.5 75zM651 96q-9 51 15 86.5t73 44.5q53 9 87.5 -14t43.5 -74q9 -52 -13.5 -87t-74.5 -44q-50 -11 -86 13t-45 75zM1153 96q-9 51 15 86.5t73 44.5q53 9 87.5 -14t43.5 -74
q9 -52 -13.5 -87t-74.5 -44q-50 -11 -86 13t-45 75z" />
    </font>
</defs>
</svg>
