<?xml version="1.0" standalone="no"?>
<!DOCTYPE svg PUBLIC "-//W3C//DTD SVG 1.1//EN" "http://www.w3.org/Graphics/SVG/1.1/DTD/svg11.dtd" >
<svg xmlns="http://www.w3.org/2000/svg" xmlns:xlink="http://www.w3.org/1999/xlink" version="1.1">
<metadata>
Created by FontForge 20201107 at Tue Jun 24 15:05:59 2025
 By 
Copyright (c) 2021 by __Designer__. All rights reserved.
</metadata>
<defs>
<font id="LamaSans-SemiBold" horiz-adv-x="0" >
  <font-face 
    font-family="Lama Sans SemiBold"
    font-weight="600"
    font-stretch="normal"
    units-per-em="2048"
    panose-1="0 0 2 0 0 0 0 0 0 0"
    ascent="1638"
    descent="-410"
    x-height="1024"
    cap-height="1434"
    bbox="-1042 -891 2916 2269"
    underline-thickness="102"
    underline-position="-245"
    unicode-range="U+000D-FEFC"
  />
<missing-glyph horiz-adv-x="972" 
d="M799 1434v-1946h-619v1946h619zM647 1303h-319v-64h125v-72h-127v-63h321v63h-127v72h127v64zM520 1053h-194v-203h321v65h-127v138zM453 987v-72h-64v72h64zM647 797h-321v-64h127v-71h-127v-64h194v135h127v64zM647 680h-63v-127h-258v-68h321v195zM647 442h-194v-108
h67v45h64v-92h-195v155h-63v-219h321v219zM647 106h-321v-219h321v219zM584 43v-92h-195v92h195zM647 -158h-321v-63h135l-135 -92v-64h321v64h-198l137 92h61v63z" />
    <glyph glyph-name="uniFDF2" unicode="&#x627;&#xfedf;&#xfee0;&#xfeea;" horiz-adv-x="3094" arabic-form="isolated" 
d="M1604 2116v-252h-97v219zM1466 1518q-63 0 -104 40.5t-41 108.5v86h100v-86q0 -49 43 -49t43 57v117h101v-102q0 -21 11.5 -32t29.5 -11q25 0 39 16t14 45v139h100v-139q0 -74 -37 -119t-100 -45q-58 0 -94 45q-35 -71 -105 -71zM2705 1434h211v-1434h-211v1434z
M2136 317v1110h211v-1110q0 -132 -92 -224.5t-223 -92.5h-166q-77 0 -144 32t-112 87q-45 -55 -110 -87t-138 -32h-176q-88 0 -164 44.5t-119 119.5q-58 -75 -146.5 -119.5t-189.5 -44.5q-125 0 -233 60.5t-172 166.5t-64 230v63q0 201 133.5 330t335.5 129h473l2 -625
q0 -64 38 -103.5t106 -39.5h153q62 0 107 45.5t45 108.5v1062h211v-1065q6 -63 53.5 -107t110.5 -44h162q44 0 76 31t32 75zM829 475v291h-262q-106 0 -184 -68t-78 -178v-55q0 -105 77.5 -179.5t184.5 -74.5q109 0 185.5 77.5t76.5 186.5z" />
    <glyph glyph-name="uniFEF5" unicode="&#xfedf;&#xfe82;" horiz-adv-x="1273" arabic-form="isolated" 
d="M238 1315l-60 71l137 95q12 9 29 7.5t29 -13.5q61 -64 192 -64q60 0 172 47l41 -106q-43 -22 -108 -41t-105 -19q-124 0 -217 78q-13 10 -29 0zM922 1427h213v-1110q0 -132 -93.5 -224.5t-224.5 -92.5h-723v211h314l-2 917h212v-917h197q44 0 75.5 31t31.5 75v1110z" />
    <glyph glyph-name="uniFEF6" unicode="&#xfee0;&#xfe82;" horiz-adv-x="1374" arabic-form="final" 
d="M231 1309l-61 71l139 93q12 10 29 8.5t29 -13.5q62 -65 192 -65q46 0 172 47l41 -104q-43 -22 -108 -41t-105 -19q-124 0 -217 78q-13 10 -29 0zM1378 211q43 0 75 -30.5t32 -74.5t-32 -75t-77 -31h-78q-76 0 -143.5 32t-114.5 87q-44 -55 -108 -87t-137 -32h-701v211
h314v913h210v-913h154q61 0 105.5 45.5t44.5 108.5v1062h213v-1065q6 -63 53 -107t110 -44h80z" />
    <glyph glyph-name="uniFEF7" unicode="&#xfedf;&#xfe84;" horiz-adv-x="1273" arabic-form="isolated" 
d="M709 1378v-108h-414v108h70q-30 50 -27 95q8 74 62 125t128 51q65 0 115.5 -37.5t67.5 -98.5l-86 -59q-26 82 -97 82q-32 0 -54.5 -22t-22.5 -54q0 -30 20 -56t57 -26h181zM922 1427h213v-1110q0 -132 -93.5 -224.5t-224.5 -92.5h-723v211h314l-2 917h212v-917h197
q44 0 75.5 31t31.5 75v1110z" />
    <glyph glyph-name="uniFEF8" unicode="&#xfee0;&#xfe84;" horiz-adv-x="1374" arabic-form="final" 
d="M711 1378v-108h-412v108h70q-30 50 -27 95q8 74 61 125t127 51q66 0 116 -37.5t69 -98.5l-88 -59q-26 82 -97 82q-32 0 -53.5 -22t-21.5 -54q0 -30 19 -56t56 -26h181zM1378 211q43 0 75 -30.5t32 -74.5t-32 -75t-77 -31h-78q-76 0 -143.5 32t-114.5 87q-44 -55 -108 -87
t-137 -32h-594q-47 0 -79 30t-32 74q0 46 32 76.5t79 30.5h207v913h210v-913h154q61 0 105.5 45.5t44.5 108.5v1062h213v-1065q6 -63 53 -107t110 -44h80z" />
    <glyph glyph-name="uniFEF9" unicode="&#xfedf;&#xfe88;" horiz-adv-x="1273" arabic-form="isolated" 
d="M922 1427h213v-1110q0 -132 -93.5 -224.5t-224.5 -92.5h-723v211h314l-2 917h212v-917h197q44 0 75.5 31t31.5 75v1110zM498 -268q-33 0 -54.5 -21.5t-21.5 -54.5q0 -30 19 -55t57 -25h180v-111h-412v111h70q-30 50 -27 92q8 75 61 125.5t128 50.5q66 0 115.5 -37
t68.5 -98l-88 -57q-26 80 -96 80z" />
    <glyph glyph-name="uniFEFA" unicode="&#xfee0;&#xfe88;" horiz-adv-x="1374" arabic-form="final" 
d="M1378 211q43 0 75 -30.5t32 -74.5t-32 -75t-77 -31h-78q-76 0 -143.5 32t-114.5 87q-44 -55 -108 -87t-137 -32h-701v211h314v913h210v-913h154q61 0 105.5 45.5t44.5 108.5v1062h213v-1065q6 -63 53 -107t110 -44h80zM506 -266q-32 0 -54 -22t-22 -54q0 -30 19.5 -56
t56.5 -26h180v-108h-412v108h70q-30 50 -27 92q8 75 62 125.5t127 50.5q66 0 115.5 -36.5t68.5 -96.5l-88 -59q-26 82 -96 82z" />
    <glyph glyph-name="uniFEFB" unicode="&#xfedf;&#xfe8e;" horiz-adv-x="1273" arabic-form="isolated" 
d="M922 1427h213v-1110q0 -132 -93.5 -224.5t-224.5 -92.5h-723v211h314l-2 917h212v-917h197q44 0 75.5 31t31.5 75v1110z" />
    <glyph glyph-name="uniFEFC" unicode="&#xfee0;&#xfe8e;" horiz-adv-x="1374" arabic-form="final" 
d="M1378 211q43 0 75 -30.5t32 -74.5t-32 -75t-77 -31h-78q-76 0 -143.5 32t-114.5 87q-44 -55 -108 -87t-137 -32h-701v211h314v913h210v-913h154q61 0 105.5 45.5t44.5 108.5v1062h213v-1065q6 -63 53 -107t110 -44h80z" />
    <glyph glyph-name="uniFEDFFB51" unicode="&#xfedf;&#xfb51;" horiz-adv-x="1273" 
d="M922 1427h213v-1110q0 -132 -93.5 -224.5t-224.5 -92.5h-723v211h314l-2 917h212v-917h197q44 0 75.5 31t31.5 75v1110z" />
    <glyph glyph-name="uniFEE0FB51" unicode="&#xfee0;&#xfb51;" horiz-adv-x="1374" 
d="M1378 211q43 0 75 -30.5t32 -74.5t-32 -75t-77 -31h-78q-76 0 -143.5 32t-114.5 87q-44 -55 -108 -87t-137 -32h-701v211h314v913h210v-913h154q61 0 105.5 45.5t44.5 108.5v1062h213v-1065q6 -63 53 -107t110 -44h80z" />
    <glyph glyph-name="uni066E.init" unicode="&#x66e;" horiz-adv-x="579" 
d="M141 0h-143q-44 0 -76.5 31.5t-32.5 74.5q0 45 32 75t77 30h143q49 0 81 33t32 80v649h213v-649q0 -133 -96 -228.5t-230 -95.5z" />
    <glyph glyph-name="uni066E.medi" unicode="&#x66e;" horiz-adv-x="708" 
d="M713 211q43 0 73.5 -30.5t30.5 -74.5t-31.5 -75t-74.5 -31h-78q-76 0 -143.5 32t-114.5 87q-44 -55 -108 -87t-138 -32h-129q-47 0 -79 30t-32 74q0 46 32 76.5t79 30.5h104q63 0 107.5 45.5t44.5 108.5v411h213v-414q6 -63 53.5 -107t110.5 -44h80z" />
    <glyph glyph-name="uni066E.fina" unicode="&#x66e;" horiz-adv-x="1863" 
d="M1868 211q44 0 75 -30.5t31 -74.5t-31.5 -75t-74.5 -31h-72q-76 0 -143.5 32t-114.5 87q-44 -55 -109 -87t-139 -32h-786q-173 0 -296.5 123t-123.5 295v348h215v-348q0 -86 60 -146.5t145 -60.5h764q62 0 106.5 45.5t44.5 108.5v606h213v-609q5 -63 52.5 -107t111.5 -44
h72z" />
    <glyph glyph-name="uni066F.fina" unicode="&#x66f;" horiz-adv-x="1619" 
d="M1640 211v-211h-213v-180q0 -103 -72 -175.5t-175 -72.5h-547q-146 0 -269 71t-194.5 193.5t-71.5 267.5v291h211v-286q0 -133 95.5 -228.5t228.5 -95.5h518q28 0 47 18.5t19 46.5v150h-240q-127 0 -235 61t-171 166t-63 228v71q0 197 136 335t333 138q184 0 317 -134
t133 -322v-332h213zM1217 211v332q0 100 -71 170.5t-169 70.5q-110 0 -185 -75t-75 -183v-67q0 -101 77 -174.5t183 -73.5h240z" />
    <glyph glyph-name="uni06A1.init" unicode="&#x6a1;" horiz-adv-x="1169" 
d="M586 979h456v-823q0 -65 -44.5 -110.5t-108.5 -45.5h-909v211h251q-52 45 -81 114t-29 146v61q0 124 63.5 227t170 161t231.5 59zM834 246v532h-246q-107 0 -183.5 -76.5t-76.5 -183.5v-55q3 -104 79.5 -178t180.5 -74h213q13 0 23 10.5t10 24.5z" />
    <glyph glyph-name="uni06A1.medi" unicode="&#x6a1;" horiz-adv-x="1239" 
d="M1047 211h206v-211h-1267v211h268q-53 46 -82 114t-29 146v61q0 124 63.5 229.5t170.5 166.5t231 61q188 1 322.5 -134t134.5 -323v-249q0 -36 -18 -72zM823 211q13 0 23 10.5t10 24.5v286q0 100 -72.5 173t-173.5 73q-107 0 -183.5 -76.5t-76.5 -185.5v-53
q3 -105 79 -178.5t181 -73.5h213z" />
    <glyph glyph-name="uni06A1.fina" unicode="&#x6a1;" horiz-adv-x="2148" 
d="M2163 211v-211h-1606q-189 0 -324 135.5t-135 325.5v254h209v-254q0 -104 73.5 -176t176.5 -72h580q-60 45 -93.5 120.5t-33.5 160.5v38q0 189 137.5 323t327.5 134q189 1 322.5 -133.5t133.5 -323.5v-321h232zM1722 211v321q0 100 -72 173t-173 73q-106 0 -183 -76.5
t-77 -183.5v-31q0 -111 79 -190t189 -84z" />
    <glyph glyph-name="uni06C2.fina" unicode="&#x6c2;" horiz-adv-x="1286" 
d="M915 1227v-109h-411v109h69q-29 48 -26 92q8 76 61 126t127 50q66 0 116 -36.5t69 -96.5l-89 -59q-25 81 -96 81q-32 0 -54 -21.5t-22 -53.5q0 -30 19.5 -56t56.5 -26h180zM717 37q-67 -37 -150 -37q-125 0 -233 60.5t-172 166.5t-64 230v63q0 201 133.5 330t335.5 129
h473l2 -625q0 -64 38 -103.5t106 -39.5h104q44 0 74.5 -31t32.5 -74q0 -42 -31 -73t-74 -33h-106q-352 0 -352 307l-5 459h-262q-106 0 -184 -68t-78 -178v-55q0 -105 77.5 -179.5t184.5 -74.5q79 0 135 43z" />
    <glyph glyph-name="uni06C3.fina" unicode="&#x6c3;" horiz-adv-x="1286" 
d="M717 37q-67 -37 -150 -37q-125 0 -233 60.5t-172 166.5t-64 230v63q0 201 133.5 330t335.5 129h473l2 -625q0 -64 38 -103.5t106 -39.5h104q44 0 74.5 -31t32.5 -74q0 -42 -31 -73t-74 -33h-106q-352 0 -352 307l-5 459h-262q-106 0 -184 -68t-78 -178v-55
q0 -105 77.5 -179.5t184.5 -74.5q79 0 135 43z" />
    <glyph glyph-name="uniFB51" unicode="&#x671;" horiz-adv-x="548" arabic-form="final" 
d="M569 0h-94q-131 0 -223 92.5t-92 224.5v1117h211v-1117q0 -44 31 -75t75 -31h92v-211z" />
    <glyph glyph-name="uniFB57" unicode="&#x67e;" horiz-adv-x="1863" arabic-form="final" 
d="M1868 211q44 0 75 -30.5t31 -74.5t-31.5 -75t-74.5 -31h-72q-76 0 -143.5 32t-114.5 87q-44 -55 -109 -87t-139 -32h-786q-173 0 -296.5 123t-123.5 295v348h215v-348q0 -86 60 -146.5t145 -60.5h764q62 0 106.5 45.5t44.5 108.5v606h213v-609q5 -63 52.5 -107t111.5 -44
h72zM743 -426q-53 0 -91 37.5t-38 89.5q0 54 38 91.5t91 37.5q54 0 91.5 -37.5t37.5 -91.5q0 -53 -37.5 -90t-91.5 -37zM1090 -426q-53 0 -91 37.5t-38 89.5q0 54 38 91.5t91 37.5q54 0 91.5 -37.5t37.5 -91.5q0 -53 -37.5 -90t-91.5 -37zM913 -745q-53 0 -91 37.5t-38 89.5
q0 54 38 91.5t91 37.5q54 0 91.5 -37.5t37.5 -91.5q0 -53 -37.5 -90t-91.5 -37z" />
    <glyph glyph-name="uniFB58" unicode="&#x67e;" horiz-adv-x="718" arabic-form="initial" 
d="M281 0h-283q-44 0 -76.5 31.5t-32.5 74.5q0 45 32 75t77 30h285q49 0 80.5 33t31.5 80v649h211v-649q0 -134 -95 -229t-230 -95zM139 -426q-53 0 -90 37t-37 90q0 54 37 91.5t90 37.5q54 0 92.5 -37.5t38.5 -91.5q0 -52 -38.5 -89.5t-92.5 -37.5zM485 -426
q-53 0 -91 37.5t-38 89.5q0 54 38 91.5t91 37.5q54 0 91.5 -37.5t37.5 -91.5q0 -53 -37.5 -90t-91.5 -37zM309 -745q-53 0 -90 37.5t-37 89.5q0 54 37 91.5t90 37.5q54 0 92.5 -37.5t38.5 -91.5q0 -52 -38.5 -89.5t-92.5 -37.5z" />
    <glyph glyph-name="uniFB59" unicode="&#x67e;" horiz-adv-x="708" arabic-form="medial" 
d="M713 211q43 0 73.5 -30.5t30.5 -74.5t-31.5 -75t-74.5 -31h-78q-76 0 -143.5 32t-114.5 87q-44 -55 -108 -87t-138 -32h-129q-47 0 -79 30t-32 74q0 46 32 76.5t79 30.5h104q63 0 107.5 45.5t44.5 108.5v411h213v-414q6 -63 53.5 -107t110.5 -44h80zM170 -426
q-52 0 -89.5 37t-37.5 90q0 54 37 91.5t90 37.5q54 0 92.5 -37.5t38.5 -91.5q0 -52 -38.5 -89.5t-92.5 -37.5zM516 -426q-52 0 -89.5 37t-37.5 90q0 54 37 91.5t90 37.5q54 0 92.5 -37.5t38.5 -91.5q0 -52 -38.5 -89.5t-92.5 -37.5zM342 -745q-54 0 -91.5 37t-37.5 90
q0 54 37.5 91.5t91.5 37.5q53 0 91 -37.5t38 -91.5q0 -52 -38 -89.5t-91 -37.5z" />
    <glyph glyph-name="uniFB67" unicode="&#x679;" horiz-adv-x="1863" arabic-form="final" 
d="M610 1026v96h78v344h96v-204q71 71 144 71q75 0 114 -46.5t39 -137.5v-123h-471zM915 1237q-62 0 -131 -78v-37h203v31q0 40 -19 62t-53 22zM1868 211q44 0 75 -30.5t31 -74.5t-31.5 -75t-74.5 -31h-72q-76 0 -143.5 32t-114.5 87q-44 -55 -109 -87t-139 -32h-786
q-173 0 -296.5 123t-123.5 295v348h215v-348q0 -86 60 -146.5t145 -60.5h764q62 0 106.5 45.5t44.5 108.5v606h213v-609q5 -63 52.5 -107t111.5 -44h72z" />
    <glyph glyph-name="uniFB68" unicode="&#x679;" horiz-adv-x="579" arabic-form="initial" 
d="M434 1460q75 0 114.5 -47t39.5 -137v-123h-471v96h78v344h96v-204q71 71 143 71zM494 1249v31q0 40 -19 62t-53 22q-62 0 -131 -78v-37h203zM252 324v649h213v-649q0 -133 -96 -228.5t-230 -95.5h-143q-44 0 -76.5 31.5t-32.5 74.5q0 45 32 75t77 30h143q49 0 81 33
t32 80z" />
    <glyph glyph-name="uniFB69" unicode="&#x679;" horiz-adv-x="708" arabic-form="medial" 
d="M135 1057v96h78v344h96v-205q72 72 144 72q75 0 114 -46.5t39 -137.5v-123h-471zM440 1268q-62 0 -131 -78v-37h203v31q0 40 -19 62t-53 22zM711 211q43 0 73.5 -30.5t30.5 -74.5t-31.5 -75t-74.5 -31h-78q-76 0 -143.5 32t-114.5 87q-44 -55 -108 -87t-138 -32h-129
q-47 0 -79 30t-32 74q0 46 32 76.5t79 30.5h104q63 0 107.5 45.5t44.5 108.5v411h213v-414q6 -63 53.5 -107t110.5 -44h80z" />
    <glyph glyph-name="uniFB6B" unicode="&#x6a4;" horiz-adv-x="2097" arabic-form="final" 
d="M1495 1683q54 0 92.5 -37.5t38.5 -89.5q0 -53 -38.5 -91t-92.5 -38q-52 0 -89.5 38t-37.5 91q0 52 37 89.5t90 37.5zM1325 1366q54 0 91.5 -37t37.5 -90q0 -54 -37.5 -91.5t-91.5 -37.5q-53 0 -91 37.5t-38 91.5q0 52 38 89.5t91 37.5zM1671 1366q54 0 91.5 -37t37.5 -90
q0 -54 -37.5 -91.5t-91.5 -37.5q-53 0 -91 37.5t-38 91.5q0 52 38 89.5t91 37.5zM2111 211v-211h-1554q-189 0 -324 135.5t-135 325.5v305h209v-305q0 -104 73.5 -176t176.5 -72h580q-61 46 -94 116t-33 154v39q0 189 137.5 323t327.5 134q189 1 322.5 -133.5t133.5 -323.5
v-311h180zM1722 211v311q0 100 -72 173t-173 73q-106 0 -183 -76.5t-77 -183.5v-31q0 -110 78.5 -184.5t189.5 -79.5z" />
    <glyph glyph-name="uniFB6C" unicode="&#x6a4;" horiz-adv-x="1169" arabic-form="initial" 
d="M694 1683q53 0 91 -37.5t38 -89.5t-38.5 -90.5t-90.5 -38.5q-54 0 -91.5 38t-37.5 91t37.5 90t91.5 37zM522 1366q54 0 92.5 -37.5t38.5 -89.5q0 -54 -38.5 -91.5t-92.5 -37.5q-53 0 -90 37.5t-37 91.5q0 53 37.5 90t89.5 37zM868 1366q54 0 92.5 -37.5t38.5 -89.5
q0 -54 -38.5 -91.5t-92.5 -37.5q-53 0 -90 37.5t-37 91.5q0 53 37.5 90t89.5 37zM586 979h456v-823q0 -65 -44.5 -110.5t-108.5 -45.5h-909v211h251q-52 45 -81 114t-29 146v61q0 124 63.5 227t170 161t231.5 59zM834 246v532h-246q-107 0 -183.5 -76.5t-76.5 -183.5v-55
q3 -104 79.5 -178t180.5 -74h213q13 0 23 10.5t10 24.5z" />
    <glyph glyph-name="uniFB6D" unicode="&#x6a4;" horiz-adv-x="1239" arabic-form="medial" 
d="M627 1683q54 0 92.5 -37.5t38.5 -89.5q0 -53 -38.5 -91t-92.5 -38q-52 0 -89.5 38t-37.5 91q0 52 37 89.5t90 37.5zM457 1366q54 0 91.5 -37t37.5 -90q0 -54 -37.5 -91.5t-91.5 -37.5q-53 0 -91 37.5t-38 91.5q0 52 38 89.5t91 37.5zM803 1366q54 0 91.5 -37t37.5 -90
q0 -54 -37.5 -91.5t-91.5 -37.5q-53 0 -91 37.5t-38 91.5q0 52 38 89.5t91 37.5zM1047 211h206v-211h-1267v211h268q-111 97 -111 248v61q0 189 137.5 323t327.5 136q189 0 323 -135t134 -324v-237q0 -36 -18 -72zM823 211q13 0 23 10.5t10 24.5v274q0 101 -72.5 173.5
t-173.5 72.5q-107 0 -183.5 -76.5t-76.5 -183.5v-53q0 -104 76 -173t184 -69h213z" />
    <glyph glyph-name="uniFB7B" unicode="&#x686;" horiz-adv-x="1490" arabic-form="final" 
d="M543 0q-95 0 -163.5 -68t-68.5 -165t68.5 -165.5t163.5 -68.5h418v-211h-420q-183 0 -313 130.5t-130 314.5t130 314t313 130h598q-20 11 -38 45.5t-18 71.5v67q-3 202 -122 289q-71 56 -178 73t-196 5t-169 -39l-90 188q88 33 182 50t196 18t202.5 -29.5t181.5 -91.5
q194 -156 202 -465v-67q0 -43 25.5 -79t68.5 -36h195v-211h-1038zM541 -233q-25 0 -43.5 17.5t-18.5 43.5q0 27 18.5 46.5t43.5 19.5q28 0 46.5 -19t18.5 -47q0 -26 -18.5 -43.5t-46.5 -17.5zM725 -233q-26 0 -44.5 17.5t-18.5 43.5q0 28 18.5 47t44.5 19t44.5 -19t18.5 -47
q0 -26 -18.5 -43.5t-44.5 -17.5zM633 -403q-26 0 -45 18.5t-19 44.5t19 45t45 19t44.5 -19t18.5 -45t-18.5 -44.5t-44.5 -18.5z" />
    <glyph glyph-name="uniFB7C" unicode="&#x686;" horiz-adv-x="1296" arabic-form="initial" 
d="M1190 0h-1192q-45 0 -77 31t-32 75q0 43 32.5 74t76.5 31h909q-61 40 -61 115v59q0 209 -127 303q-57 44 -132 64.5t-151.5 17t-142 -15.5t-125.5 -33l-84 190q119 45 244.5 62t268 -10.5t249.5 -108.5q90 -66 147.5 -179.5t57.5 -277.5v-69q0 -52 29 -84.5t75 -32.5h35
v-211zM406 -426q-54 0 -92 37t-38 90q0 54 38 91.5t92 37.5q53 0 91 -37.5t38 -91.5q0 -52 -38 -89.5t-91 -37.5zM750 -426q-52 0 -89.5 37t-37.5 90q0 54 37 91.5t90 37.5q54 0 92.5 -37.5t38.5 -91.5q0 -52 -38.5 -89.5t-92.5 -37.5zM575 -745q-53 0 -91 37.5t-38 89.5
q0 54 38 91.5t91 37.5q54 0 92 -37.5t38 -91.5q0 -53 -38 -90t-92 -37z" />
    <glyph glyph-name="uniFB7D" unicode="&#x686;" horiz-adv-x="1267" arabic-form="medial" 
d="M1305 0h-1307q-45 0 -77 31t-32 75q0 43 32.5 74t76.5 31h895q-64 40 -64 115v59q0 206 -124 301q-73 57 -182 73t-196 3t-165 -39l-74 190q106 45 231.5 60.5t266 -12.5t245.5 -107q89 -67 147 -180.5t58 -278.5v-67q0 -53 29 -85t76 -32h164v-211zM428 -426
q-53 0 -91 37.5t-38 89.5q0 54 38 91.5t91 37.5q54 0 91.5 -37.5t37.5 -91.5q0 -53 -37.5 -90t-91.5 -37zM774 -426q-54 0 -91.5 37t-37.5 90q0 54 37.5 91.5t91.5 37.5q53 0 91 -37.5t38 -91.5q0 -52 -38 -89.5t-91 -37.5zM598 -745q-53 0 -91 37.5t-38 89.5q0 54 38 91.5
t91 37.5q54 0 91.5 -37.5t37.5 -91.5q0 -53 -37.5 -90t-91.5 -37z" />
    <glyph glyph-name="uniFB89" unicode="&#x688;" horiz-adv-x="1267" arabic-form="final" 
d="M453 1174v96h77v344h97v-205q72 72 143 72q75 0 114.5 -47t39.5 -138v-122h-471zM758 1384q-63 0 -131 -77v-37h202v30q0 40 -18.5 62t-52.5 22zM1272 211q45 0 74.5 -31.5t29.5 -75.5q0 -43 -29.5 -73.5t-74.5 -30.5h-49q-191 0 -324 127q-52 -59 -124 -93t-150 -34
h-541v211h541q74 0 108 51q43 46 31 111l-160 604l201 55l170 -626q22 -87 90 -141t158 -54h49z" />
    <glyph glyph-name="uniFB8B" unicode="&#x698;" horiz-adv-x="761" arabic-form="final" 
d="M408 1710q54 0 92.5 -37.5t38.5 -89.5q0 -54 -38.5 -91.5t-92.5 -37.5q-53 0 -90 37.5t-37 91.5q0 53 37.5 90t89.5 37zM238 1391q54 0 91.5 -37t37.5 -90t-37.5 -91t-91.5 -38q-52 0 -90.5 38.5t-38.5 90.5t38 89.5t91 37.5zM584 1391q54 0 91.5 -37t37.5 -90t-37.5 -91
t-91.5 -38q-52 0 -90.5 38.5t-38.5 90.5t38 89.5t91 37.5zM766 211q43 0 73.5 -31t30.5 -76q0 -44 -30.5 -74t-73.5 -30h-66q-56 0 -106.5 21t-83.5 57l-2 -90q-11 -200 -134.5 -317.5t-320.5 -155.5l-76 200q73 14 126.5 35t100.5 57t71 93t24 135v938h211v-572
q0 -78 56 -134t134 -56h66z" />
    <glyph glyph-name="uniFB8D" unicode="&#x691;" horiz-adv-x="761" arabic-form="final" 
d="M180 1169v97h78v344h96v-205q72 72 144 72q75 0 114 -47t39 -138v-123h-471zM485 1380q-63 0 -131 -77v-37h203v30q0 40 -19 62t-53 22zM766 211q43 0 73.5 -31t30.5 -76q0 -44 -30.5 -74t-73.5 -30h-66q-56 0 -106.5 21t-83.5 57l-2 -90q-11 -200 -134.5 -317.5
t-320.5 -155.5l-76 200q73 14 126.5 35t100.5 57t71 93t24 135v938h211v-572q0 -78 56 -134t134 -56h66z" />
    <glyph glyph-name="uniFB8F" unicode="&#x6a9;" horiz-adv-x="2093" arabic-form="final" 
d="M1888 211h226l-3 -209l-866 -2h-731q-173 0 -296.5 122t-123.5 294v348h215v-348q0 -86 59.5 -145.5t145.5 -59.5h1161v233q0 135 -94.5 229.5t-228.5 94.5h-482l-116 238l422 587l172 -123l-351 -489h369q142 0 262.5 -70t190 -190.5t69.5 -263.5v-246z" />
    <glyph glyph-name="uniFB90" unicode="&#x6a9;" horiz-adv-x="1413" arabic-form="initial" 
d="M766 981q142 0 262.5 -70t190 -190.5t69.5 -263.5v-316q0 -59 -40.5 -100t-98.5 -41h-1169v211h1048q20 0 34.5 14.5t14.5 34.5v184q0 135 -94.5 229.5t-228.5 94.5h-488l-153 233l413 578l174 -123l-344 -475h410z" />
    <glyph glyph-name="uniFB91" unicode="&#x6a9;" horiz-adv-x="1425" arabic-form="medial" 
d="M1221 211h225v-209l-1466 -2v211h1028v233q0 135 -95 229.5t-229 94.5h-481l-117 238l422 587l172 -123l-350 -489h368q142 0 262.5 -70t190.5 -190.5t70 -263.5v-246z" />
    <glyph glyph-name="uniFB93" unicode="&#x6af;" horiz-adv-x="2093" arabic-form="final" 
d="M1065 1642l-403 -546l-72 65l399 539zM1888 211h226l-3 -209l-866 -2h-731q-173 0 -296.5 122t-123.5 294v348h215v-348q0 -86 59.5 -145.5t145.5 -59.5h1161v233q0 135 -94.5 229.5t-228.5 94.5h-482l-116 238l422 587l172 -123l-351 -489h369q142 0 262.5 -70
t190 -190.5t69.5 -263.5v-246z" />
    <glyph glyph-name="uniFB94" unicode="&#x6af;" horiz-adv-x="1413" arabic-form="initial" 
d="M-47 1137l399 538l76 -57l-403 -545zM766 981q142 0 262.5 -70t190 -190.5t69.5 -263.5v-457h-1308v211h1097v233q0 135 -94.5 229.5t-228.5 94.5h-488l-153 233l413 578l174 -123l-344 -475h410z" />
    <glyph glyph-name="uniFB95" unicode="&#x6af;" horiz-adv-x="1425" arabic-form="medial" 
d="M408 1628l-402 -545l-72 64l400 539zM1221 211h225v-209l-1466 -2v211h1028v233q0 135 -95 229.5t-229 94.5h-481l-117 238l422 587l172 -123l-350 -489h368q142 0 262.5 -70t190.5 -190.5t70 -263.5v-246z" />
    <glyph glyph-name="uniFB9F" unicode="&#x6ba;" horiz-adv-x="1505" arabic-form="final" 
d="M1509 211q44 0 75.5 -31.5t31.5 -75.5t-31 -74t-76 -30h-106q-40 0 -75 18.5t-54 49.5v-291q0 -72 -50 -123t-122 -51h-477q-144 0 -265.5 71t-191.5 192.5t-70 264.5v332h209v-332q0 -131 93 -224t225 -93h366q31 0 52.5 20t21.5 49v1073h209v-618q3 -53 40 -90t89 -37
h106z" />
    <glyph glyph-name="uniFBA7" unicode="&#x6c1;" horiz-adv-x="1286" arabic-form="final" 
d="M717 37q-67 -37 -150 -37q-125 0 -233 60.5t-172 166.5t-64 230v63q0 201 133.5 330t335.5 129h473l2 -625q0 -64 38 -103.5t106 -39.5h104q44 0 74.5 -31t32.5 -74q0 -42 -31 -73t-74 -33h-106q-352 0 -352 307l-5 459h-262q-106 0 -184 -68t-78 -178v-55
q0 -105 77.5 -179.5t184.5 -74.5q79 0 135 43z" />
    <glyph glyph-name="uniFBA8" unicode="&#x6c1;" horiz-adv-x="579" arabic-form="initial" 
d="M141 0h-143q-44 0 -76.5 31.5t-32.5 74.5q0 45 32 75t77 30h143q49 0 81 33t32 80v649h213v-649q0 -133 -96 -228.5t-230 -95.5z" />
    <glyph glyph-name="uniFBA9" unicode="&#x6c1;" horiz-adv-x="1343" arabic-form="medial" 
d="M1085 211h279v-211h-199v-33q0 -192 -130.5 -308t-350.5 -116q-188 0 -328 121.5t-168 302.5l-2 33h-206v211h196v246q0 134 63 250.5t171.5 187.5t236.5 76q209 9 363 -135q73 -68 112 -162t39 -195q0 -152 -86 -268h10zM387 457v-246h217q58 0 116.5 15t112.5 45.5
t87.5 85t33.5 124.5q0 127 -88 203q-79 79 -209 76q-110 -5 -190 -94t-80 -209zM956 12v70q0 10 2 16q-146 -98 -354 -98h-201l5 -27q19 -96 96.5 -158.5t179.5 -62.5q119 0 195.5 75t76.5 185z" />
    <glyph glyph-name="uniFBAB" unicode="&#x6be;" horiz-adv-x="1476" arabic-form="final" 
d="M1219 211h278v-211h-199v-33q0 -192 -130.5 -308t-350.5 -116q-187 0 -327 121t-168 303l-3 33h-206v211h196v246q0 134 63 250.5t171.5 187.5t236.5 76q209 9 363 -135q73 -68 112 -162t39 -195q0 -152 -86 -268h11zM520 457v-246h217q58 0 116.5 15t112.5 45.5t87.5 85
t33.5 124.5q0 127 -88 203q-79 79 -208 76q-111 -5 -191 -94t-80 -209zM1090 12v70q0 10 2 16q-146 -98 -355 -98h-200l4 -27q19 -96 96.5 -158.5t179.5 -62.5q119 0 196 75t77 185z" />
    <glyph glyph-name="uniFBAC" unicode="&#x6be;" horiz-adv-x="1546" arabic-form="initial" 
d="M791 1200q180 -39 322.5 -150t225 -283.5t82.5 -377.5v-170q0 -91 -63 -155t-152 -64h-1226v211h262q-50 43 -80.5 112.5t-30.5 143.5q0 174 129.5 288.5t314.5 114.5q191 0 321 -135.5t130 -328.5v-117q0 -48 -12 -78h155q19 0 31 12t12 31v135q0 229 -125.5 394.5
t-330.5 209.5q-152 35 -326 35l2 207q135 -1 197 -7.5t162 -27.5zM575 659q-91 0 -162 -62.5t-71 -158.5q0 -97 64.5 -162t146.5 -65h217q20 0 34.5 13t14.5 34v166q0 88 -71.5 161t-172.5 74z" />
    <glyph glyph-name="uniFBAD" unicode="&#x6be;" horiz-adv-x="1343" arabic-form="medial" 
d="M1085 211h279v-211h-199v-33q0 -192 -130.5 -308t-350.5 -116q-188 0 -328 121.5t-168 302.5l-2 33h-206v211h196v246q0 134 63 250.5t171.5 187.5t236.5 76q209 9 363 -135q73 -68 112 -162t39 -195q0 -152 -86 -268h10zM387 457v-246h217q58 0 116.5 15t112.5 45.5
t87.5 85t33.5 124.5q0 127 -88 203q-79 79 -209 76q-110 -5 -190 -94t-80 -209zM956 12v70q0 10 2 16q-146 -98 -354 -98h-201l5 -27q19 -96 96.5 -158.5t179.5 -62.5q119 0 195.5 75t76.5 185z" />
    <glyph glyph-name="uniFBAF" unicode="&#x6d2;" horiz-adv-x="1308" arabic-form="final" 
d="M463 201h866v-211h-866q-68 0 -111 -53q-39 -57 -26 -117l98 -361l-203 -57l-98 362q-39 174 65 306q109 131 275 131z" />
    <glyph glyph-name="uniFBB1" unicode="&#x6d3;" horiz-adv-x="1308" arabic-form="final" 
d="M655 449v-109h-411v109h69q-29 48 -26 94q8 74 61.5 125t126.5 51q66 0 115.5 -37t68.5 -98l-88 -60q-26 82 -96 82q-32 0 -54 -22t-22 -54q0 -30 19.5 -55.5t56.5 -25.5h180zM463 201h866v-211h-866q-68 0 -111 -53q-39 -57 -26 -117l98 -361l-203 -57l-98 362
q-39 174 65 306q109 131 275 131z" />
    <glyph glyph-name="uniFBFD" unicode="&#x6cc;" horiz-adv-x="1800" arabic-form="final" 
d="M1800 211q45 0 77 -29t32 -73t-32.5 -76.5t-76.5 -32.5q-94 0 -188 20q47 -53 47 -131q0 -161 -115.5 -275t-275.5 -114h-631q-148 0 -274 73.5t-199.5 199.5t-73.5 274v359h211v-359q0 -138 99 -237t237 -99h631q72 0 125 53t53 125q0 64 -37.5 115.5t-99.5 71.5
l-305 123l92 194q223 -96 247 -104q222 -78 457 -78z" />
    <glyph glyph-name="uniFBFE" unicode="&#x6cc;" horiz-adv-x="763" arabic-form="initial" 
d="M326 0h-328q-44 0 -76.5 31.5t-32.5 74.5q0 45 32 75t77 30h330q47 0 79.5 33.5t32.5 79.5v649h211v-649q0 -134 -95 -229t-230 -95zM170 -186q54 0 91.5 -38t37.5 -89q0 -54 -37.5 -91.5t-91.5 -37.5q-53 0 -91 37.5t-38 91.5q0 51 38.5 89t90.5 38zM520 -186
q54 0 91.5 -38t37.5 -89q0 -54 -37.5 -91.5t-91.5 -37.5q-53 0 -91 37.5t-38 91.5q0 51 38.5 89t90.5 38z" />
    <glyph glyph-name="uniFBFF" unicode="&#x6cc;" horiz-adv-x="813" arabic-form="medial" 
d="M817 211q44 0 75.5 -30.5t31.5 -74.5t-32 -75t-75 -31h-147q-76 0 -143.5 32t-114.5 87q-44 -55 -108 -87t-138 -32h-166q-47 0 -79 30t-32 76q0 44 32 74.5t79 30.5h143q61 0 105.5 45.5t44.5 108.5v436h213v-439q6 -63 53.5 -107t110.5 -44h147zM211 -186q53 0 91 -38
t38 -89q0 -54 -37.5 -91.5t-91.5 -37.5q-53 0 -91 37.5t-38 91.5q0 51 38.5 89t90.5 38zM561 -186q54 0 92.5 -38t38.5 -89q0 -54 -38.5 -91.5t-92.5 -37.5q-53 0 -90 37.5t-37 91.5q0 51 37.5 89t89.5 38z" />
    <glyph glyph-name="uniFE82" unicode="&#x622;" horiz-adv-x="569" arabic-form="final" 
d="M49 1647l-61 71l139 94q12 9 28.5 7.5t28.5 -13.5q60 -63 193 -63q60 0 172 47l41 -107q-44 -22 -109 -40.5t-104 -18.5q-124 0 -217 78q-13 13 -29 0zM590 0h-94q-131 0 -223.5 92.5t-92.5 224.5v1115h211v-1115q0 -44 31.5 -75t75.5 -31h92v-211z" />
    <glyph glyph-name="uniFE84" unicode="&#x623;" horiz-adv-x="555" arabic-form="final" 
d="M477 1659v-111h-411v111h67q-27 45 -24 92q6 75 59.5 125.5t128.5 50.5q65 0 115 -37t69 -98l-88 -57q-26 80 -96 80q-33 0 -54.5 -21.5t-21.5 -54.5q0 -30 19 -55t57 -25h180zM569 0h-94q-131 0 -223 92.5t-92 224.5v1117h211v-1117q0 -44 31 -75t75 -31h92v-211z" />
    <glyph glyph-name="uniFE86" unicode="&#x624;" horiz-adv-x="1212" arabic-form="final" 
d="M854 1264v-111h-414v111h70q-30 50 -27 92q8 74 62.5 125t128.5 51q65 0 115 -37t67 -98l-86 -60q-26 82 -96 82q-33 0 -55.5 -21.5t-22.5 -54.5q0 -29 20 -54t58 -25h180zM1200 211v-211h-178q-9 -200 -148 -330q-108 -102 -248.5 -135t-408.5 -33l2 211h119.5t114.5 6
t106 16.5t94.5 33t81.5 55.5q54 51 66 143l2 33h-228q-133 0 -242.5 66t-172 179.5t-62.5 248.5q0 203 137.5 344t339.5 141h447v-768h178zM809 211v555h-234q-115 0 -191.5 -78t-76.5 -194q0 -119 76.5 -201t191.5 -82h234z" />
    <glyph glyph-name="uniFE88" unicode="&#x625;" horiz-adv-x="565" arabic-form="final" 
d="M569 0h-94q-131 0 -223 92.5t-92 224.5v1110h211v-1110q0 -44 31 -75t75 -31h92q43 0 74 -31.5t31 -75.5q0 -43 -31 -73.5t-74 -30.5zM487 -410v-110h-411v110h69q-29 48 -26 93q8 76 61 126t127 50q66 0 116 -36.5t69 -96.5l-89 -60q-27 82 -96 82q-32 0 -54 -22
t-22 -54q0 -30 19.5 -56t56.5 -26h180z" />
    <glyph glyph-name="uniFE8A" unicode="&#x626;" horiz-adv-x="1800" arabic-form="final" 
d="M403 641v-111h-413v111h69q-29 48 -26 92q8 75 61.5 125.5t128.5 50.5q66 0 116 -37.5t67 -97.5l-87 -57q-26 80 -96 80q-33 0 -55.5 -21.5t-22.5 -54.5q0 -29 20 -54.5t58 -25.5h180zM1800 211q45 0 77 -29t32 -73t-32.5 -76.5t-76.5 -32.5q-94 0 -188 20
q47 -53 47 -131q0 -161 -115.5 -275t-275.5 -114h-631q-148 0 -274 73.5t-199.5 199.5t-73.5 274v359h211v-359q0 -138 99 -237t237 -99h631q72 0 125 53t53 125q0 64 -37.5 115.5t-99.5 71.5l-305 123l92 194q223 -96 247 -104q222 -78 457 -78z" />
    <glyph glyph-name="uniFE8B" unicode="&#x626;" horiz-adv-x="645" arabic-form="initial" 
d="M608 1237v-111h-413v111h69q-29 48 -26 92q8 74 62 125t128 51q65 0 114 -37t68 -98l-86 -59q-29 82 -96 82q-34 0 -56 -21t-22 -55q0 -29 20 -54.5t58 -25.5h180zM178 0h-180q-44 0 -76.5 31.5t-32.5 74.5q0 45 32 75t77 30h182q49 0 81 33t32 80v649h211v-649
q0 -134 -95.5 -229t-230.5 -95z" />
    <glyph glyph-name="uniFE8C" unicode="&#x626;" horiz-adv-x="708" arabic-form="medial" 
d="M573 1087v-108h-411v108h69q-29 48 -26 93q8 75 61.5 125.5t126.5 50.5q66 0 116 -36.5t69 -96.5l-89 -60q-26 82 -96 82q-32 0 -54 -22t-22 -54q0 -30 19.5 -56t56.5 -26h180zM713 211q43 0 73.5 -30.5t30.5 -74.5t-31.5 -75t-74.5 -31h-78q-76 0 -143.5 32t-114.5 87
q-44 -55 -108 -87t-138 -32h-129q-47 0 -79 30t-32 76q0 44 32 74.5t79 30.5h104q63 0 107.5 45.5t44.5 108.5v436h213v-439q6 -63 53.5 -107t110.5 -44h80z" />
    <glyph glyph-name="uniFE8E" unicode="&#x627;" horiz-adv-x="569" arabic-form="final" 
d="M590 0h-94q-131 0 -223.5 92.5t-92.5 224.5v1115h211v-1115q0 -44 31.5 -75t75.5 -31h92v-211z" />
    <glyph glyph-name="uniFE90" unicode="&#x628;" horiz-adv-x="1875" arabic-form="final" 
d="M1880 211q43 0 75 -30.5t32 -74.5t-32 -75t-77 -31h-82q-76 0 -143.5 32t-114.5 87q-44 -55 -109 -87t-139 -32h-786q-173 0 -296.5 123t-123.5 295v362h215v-362q0 -86 60 -146.5t145 -60.5h764q62 0 106.5 45.5t44.5 108.5v614h213v-617q5 -63 52.5 -107t111.5 -44h84z
M907 -186q54 0 92.5 -38t38.5 -89q0 -54 -38.5 -91.5t-92.5 -37.5q-53 0 -90 37.5t-37 91.5q0 51 37.5 89t89.5 38z" />
    <glyph glyph-name="uniFE91" unicode="&#x628;" horiz-adv-x="610" arabic-form="initial" 
d="M178 0h-180q-44 0 -76.5 31.5t-32.5 74.5q0 45 32 75t77 30h182q49 0 81 33t32 80v655h211v-655q0 -134 -95.5 -229t-230.5 -95zM111 -313q0 51 38.5 89t90.5 38q54 0 91.5 -38t37.5 -89q0 -54 -37.5 -91.5t-91.5 -37.5q-53 0 -91 37.5t-38 91.5z" />
    <glyph glyph-name="uniFE92" unicode="&#x628;" horiz-adv-x="667" arabic-form="medial" 
d="M672 211q44 0 75 -30.5t31 -74.5t-31.5 -75t-74.5 -31h-70q-76 0 -143.5 32t-114.5 87q-44 -55 -108 -87t-138 -32h-98q-47 0 -79 30t-32 74q0 46 32 76.5t79 30.5h74q63 0 107 45.5t44 108.5v415h213v-418q6 -63 53.5 -107t110.5 -44h70zM199 -313q0 51 38.5 89t90.5 38
q54 0 91.5 -38t37.5 -89q0 -54 -37.5 -91.5t-91.5 -37.5q-53 0 -91 37.5t-38 91.5z" />
    <glyph glyph-name="uniFE94" unicode="&#x629;" horiz-adv-x="1277" arabic-form="final" 
d="M487 1407q54 0 91.5 -37t37.5 -90q0 -54 -37.5 -91.5t-91.5 -37.5q-53 0 -91 37.5t-38 91.5q0 52 38 89.5t91 37.5zM831 1407q54 0 93 -37.5t39 -89.5q0 -54 -39 -91.5t-93 -37.5q-53 0 -89.5 37.5t-36.5 91.5q0 53 37 90t89 37zM1290 211q44 0 74.5 -31t32.5 -74
q0 -42 -31 -73t-74 -33h-106q-88 0 -164 44.5t-119 119.5q-58 -75 -146.5 -119.5t-189.5 -44.5q-125 0 -233 60.5t-172 166.5t-64 230v63q0 201 133.5 330t335.5 129h473l2 -625q0 -64 38 -103.5t106 -39.5h104zM567 211q109 0 185.5 77.5t76.5 186.5v289l-262 2
q-106 2 -184 -67t-78 -179v-55q0 -105 77.5 -179.5t184.5 -74.5z" />
    <glyph glyph-name="uniFE96" unicode="&#x62a;" horiz-adv-x="1863" arabic-form="final" 
d="M686 1233q54 0 92.5 -37.5t38.5 -89.5q0 -54 -38.5 -91.5t-92.5 -37.5q-53 0 -90 37.5t-37 91.5q0 52 37.5 89.5t89.5 37.5zM1032 1233q54 0 92.5 -37.5t38.5 -89.5q0 -54 -38.5 -91.5t-92.5 -37.5q-53 0 -90 37.5t-37 91.5q0 52 37.5 89.5t89.5 37.5zM1868 211
q43 0 73.5 -30.5t30.5 -74.5t-31.5 -75t-74.5 -31h-70q-76 0 -143.5 32t-114.5 87q-44 -55 -109 -87t-139 -32h-786q-173 0 -296.5 123t-123.5 295v362h215v-362q0 -86 60 -146.5t145 -60.5h764q62 0 106.5 45.5t44.5 108.5v614h213v-617q5 -63 52.5 -107t111.5 -44h72z" />
    <glyph glyph-name="uniFE97" unicode="&#x62a;" horiz-adv-x="804" arabic-form="initial" 
d="M231 1413q52 0 90.5 -38t38.5 -89q0 -54 -38 -91.5t-91 -37.5q-54 0 -91.5 37.5t-37.5 91.5q0 52 38 89.5t91 37.5zM575 1413q54 0 93 -38t39 -89q0 -54 -39 -91.5t-93 -37.5q-53 0 -89.5 37.5t-36.5 91.5q0 51 37 89t89 38zM233 0h-235q-44 0 -76.5 31.5t-32.5 74.5
q0 45 32 75t77 30h238q49 0 80.5 33t31.5 80v655h211v-655q0 -134 -95.5 -229t-230.5 -95z" />
    <glyph glyph-name="uniFE98" unicode="&#x62a;" horiz-adv-x="749" arabic-form="medial" 
d="M205 1249q54 0 91.5 -37t37.5 -90t-37.5 -91t-91.5 -38q-53 0 -91 38.5t-38 90.5t38 89.5t91 37.5zM551 1249q53 0 91 -37.5t38 -89.5t-38 -90.5t-91 -38.5q-54 0 -91.5 38t-37.5 91t37.5 90t91.5 37zM754 211q44 0 75 -30.5t31 -74.5t-31.5 -75t-74.5 -31h-99
q-76 0 -143.5 32t-114.5 87q-44 -55 -108 -87t-137 -32h-152q-47 0 -79 30t-32 74q0 46 32 76.5t79 30.5h129q61 0 105.5 45.5t44.5 108.5v415h213v-418q6 -63 53 -107t110 -44h99z" />
    <glyph glyph-name="uniFE9A" unicode="&#x62b;" horiz-adv-x="1882" arabic-form="final" 
d="M834 1552q54 0 92.5 -38t38.5 -89q0 -54 -38.5 -91.5t-92.5 -37.5q-53 0 -90 37.5t-37 91.5q0 51 37.5 89t89.5 38zM664 1233q54 0 91.5 -37t37.5 -90q0 -54 -37.5 -91.5t-91.5 -37.5q-53 0 -91 37.5t-38 91.5q0 52 38 89.5t91 37.5zM1010 1233q54 0 91.5 -37t37.5 -90
q0 -54 -37.5 -91.5t-91.5 -37.5q-53 0 -91 37.5t-38 91.5q0 52 38 89.5t91 37.5zM1894 211q43 0 75 -30.5t32 -74.5t-32 -75t-77 -31h-96q-76 0 -143.5 32t-114.5 87q-44 -55 -109 -87t-139 -32h-786q-173 0 -296.5 123t-123.5 295v344h215v-344q0 -86 60 -146.5t145 -60.5
h764q62 0 106.5 45.5t44.5 108.5v608h213v-611q5 -63 52.5 -107t111.5 -44h98z" />
    <glyph glyph-name="uniFE9B" unicode="&#x62b;" horiz-adv-x="796" arabic-form="initial" 
d="M391 1726q54 0 92.5 -37.5t38.5 -89.5q0 -54 -38.5 -91.5t-92.5 -37.5q-53 0 -90 37.5t-37 91.5q0 53 37 90t90 37zM221 1407q54 0 92.5 -37.5t38.5 -89.5q0 -54 -38.5 -91.5t-92.5 -37.5q-53 0 -90 37.5t-37 91.5q0 52 37 89.5t90 37.5zM567 1407q54 0 91.5 -37
t37.5 -90q0 -54 -37.5 -91.5t-91.5 -37.5q-53 0 -91 37.5t-38 91.5q0 52 38 89.5t91 37.5zM219 0h-221q-44 0 -76.5 31.5t-32.5 74.5q0 45 32 75t77 30h223q49 0 81 33t32 80v655h211v-655q0 -134 -95.5 -229t-230.5 -95z" />
    <glyph glyph-name="uniFE9C" unicode="&#x62b;" horiz-adv-x="772" arabic-form="medial" 
d="M381 1567q54 0 91.5 -37t37.5 -90t-37.5 -91t-91.5 -38q-53 0 -91 38.5t-38 90.5t38 89.5t91 37.5zM211 1249q53 0 91 -37.5t38 -89.5q0 -54 -38 -91.5t-91 -37.5q-54 0 -91.5 37.5t-37.5 91.5q0 53 37.5 90t91.5 37zM555 1249q54 0 92.5 -37.5t38.5 -89.5
q0 -54 -38.5 -91.5t-92.5 -37.5q-53 0 -90 37.5t-37 91.5q0 52 37 89.5t90 37.5zM776 211q44 0 75.5 -30.5t31.5 -74.5t-32 -75t-75 -31h-98q-76 0 -143.5 32t-114.5 87q-44 -55 -109 -87t-139 -32h-172q-47 0 -79 30t-32 74q0 46 32 76.5t79 30.5h150q62 0 106.5 45.5
t44.5 108.5v415h213v-418q5 -63 52.5 -107t111.5 -44h98z" />
    <glyph glyph-name="uniFE9E" unicode="&#x62c;" horiz-adv-x="1490" arabic-form="final" 
d="M543 0q-95 0 -163.5 -68t-68.5 -165t68.5 -165.5t163.5 -68.5h418v-211h-420q-183 0 -313 130.5t-130 314.5t130 314t313 130h598q-20 11 -38 45.5t-18 71.5v65q-3 204 -122 291q-54 42 -128 62.5t-149.5 18.5t-142 -13.5t-123.5 -30.5l-90 188q88 33 182 50.5t196 18.5
t202.5 -29.5t181.5 -92.5q194 -156 202 -463v-67q0 -43 25.5 -79t68.5 -36h195v-211h-1038zM606 -123q51 0 86 -34.5t35 -82.5q0 -51 -35 -85.5t-86 -34.5q-48 0 -83.5 35t-35.5 85q0 47 36 82t83 35z" />
    <glyph glyph-name="uniFE9F" unicode="&#x62c;" horiz-adv-x="1296" arabic-form="initial" 
d="M1190 0h-1192q-45 0 -77 31t-32 75q0 43 32.5 74t76.5 31h909q-61 40 -61 115v57q0 209 -127 303q-57 44 -132 64.5t-151.5 17t-142 -16.5t-125.5 -34l-84 192q119 45 244.5 62t268 -10.5t249.5 -108.5q90 -66 147.5 -179.5t57.5 -277.5v-67q0 -52 29 -84.5t75 -32.5h35
v-211zM563 -178q54 0 91.5 -37t37.5 -90t-37.5 -91t-91.5 -38q-53 0 -91 38t-38 91q0 52 38 89.5t91 37.5z" />
    <glyph glyph-name="uniFEA0" unicode="&#x62c;" horiz-adv-x="1267" arabic-form="medial" 
d="M1305 0h-1307q-45 0 -77 31t-32 75q0 43 32.5 74t76.5 31h895q-64 40 -64 115v57q0 206 -124 301q-73 57 -182 73t-196 3t-165 -39l-74 190q106 45 232 60.5t266 -13t245 -106.5q89 -67 147 -181.5t58 -277.5v-65q0 -53 29 -85t76 -32h164v-211zM631 -178q53 0 91 -37.5
t38 -89.5q0 -53 -38 -91t-91 -38q-54 0 -91.5 38t-37.5 91t37.5 90t91.5 37z" />
    <glyph glyph-name="uniFEA2" unicode="&#x62d;" horiz-adv-x="1546" arabic-form="final" 
d="M494 0q-76 0 -130.5 -54.5t-54.5 -131.5t54.5 -132t130.5 -55h469v-211h-469q-163 0 -279.5 116.5t-116.5 281.5t116.5 281t279.5 116h645q-20 11 -38 45.5t-18 71.5v65q-3 196 -122 289q-54 43 -128 63.5t-149.5 19t-142 -13.5t-123.5 -32l-90 190q89 33 183 51
t196.5 19.5t203 -29.5t179.5 -94q194 -156 202 -465v-65q0 -43 25.5 -79t68.5 -36h195v-211h-1087z" />
    <glyph glyph-name="uniFEA3" unicode="&#x62d;" horiz-adv-x="1296" arabic-form="initial" 
d="M1190 0h-1192q-45 0 -77 31t-32 75q0 43 32.5 74t76.5 31h909q-61 40 -61 115v59q0 209 -127 303q-57 44 -132 64.5t-151.5 17t-142 -15.5t-125.5 -33l-84 190q119 45 244.5 62t268 -10.5t249.5 -108.5q90 -66 147.5 -179.5t57.5 -277.5v-69q0 -52 29 -84.5t75 -32.5h35
v-211z" />
    <glyph glyph-name="uniFEA4" unicode="&#x62d;" horiz-adv-x="1267" arabic-form="medial" 
d="M1305 0h-1307q-45 0 -77 31t-32 75q0 43 32.5 74t76.5 31h895q-64 40 -64 115v61q0 208 -124 303q-56 43 -131.5 63t-151 17t-140 -14.5t-120.5 -30.5l-74 190q107 46 233 62t266.5 -12.5t243.5 -108.5q89 -67 147 -180.5t58 -276.5v-71q0 -53 29 -85t76 -32h164v-211z
" />
    <glyph glyph-name="uniFEA6" unicode="&#x62e;" horiz-adv-x="1544" arabic-form="final" 
d="M758 1413q54 0 91.5 -37.5t37.5 -89.5q0 -54 -37.5 -91.5t-91.5 -37.5q-53 0 -91 37.5t-38 91.5q0 51 38.5 89t90.5 38zM494 0q-76 0 -130.5 -54.5t-54.5 -131.5t54.5 -132t130.5 -55h469v-211h-469q-163 0 -279.5 116.5t-116.5 281.5t116.5 281t279.5 116h645
q-20 11 -38 45.5t-18 71.5v63q-3 196 -122 289q-71 56 -178 73t-196 5t-169 -39l-90 188q89 33 183 51t196.5 19.5t203 -29.5t179.5 -94q194 -156 202 -465v-63q0 -43 25.5 -79t68.5 -36h195v-211h-1087z" />
    <glyph glyph-name="uniFEA7" unicode="&#x62e;" horiz-adv-x="1296" arabic-form="initial" 
d="M391 1286q0 51 38.5 89t90.5 38q54 0 91.5 -37.5t37.5 -89.5q0 -54 -37.5 -91.5t-91.5 -37.5q-53 0 -91 37.5t-38 91.5zM1190 0h-1192q-45 0 -77 31t-32 75q0 43 32.5 74t76.5 31h909q-61 40 -61 115v59q0 209 -127 303q-57 44 -132 64.5t-151.5 17t-142 -15.5
t-125.5 -33l-84 190q119 45 244.5 62t268 -10.5t249.5 -108.5q90 -66 147.5 -179.5t57.5 -277.5v-69q0 -52 29 -84.5t75 -32.5h35v-211z" />
    <glyph glyph-name="uniFEA8" unicode="&#x62e;" horiz-adv-x="1269" arabic-form="medial" 
d="M377 1286q0 51 37.5 89t89.5 38q54 0 92.5 -38t38.5 -89q0 -54 -38.5 -91.5t-92.5 -37.5q-53 0 -90 37.5t-37 91.5zM1305 0h-1307q-45 0 -77 31t-32 75q0 43 32.5 74t76.5 31h895q-64 40 -64 115v59q0 208 -124 303q-73 57 -182 73t-196 3t-165 -39l-74 190
q106 45 232 60t266 -13.5t245 -107.5q89 -67 147 -180.5t58 -276.5v-69q0 -53 29 -85t76 -32h164v-211z" />
    <glyph glyph-name="uniFEAA" unicode="&#x62f;" horiz-adv-x="1267" arabic-form="final" 
d="M1272 211q45 0 74.5 -31.5t29.5 -75.5q0 -43 -29.5 -73.5t-74.5 -30.5h-49q-191 0 -324 127q-52 -59 -124 -93t-150 -34h-541v211h541q74 0 108 51q43 46 31 111l-160 604l201 55l170 -626q22 -87 90 -141t158 -54h49z" />
    <glyph glyph-name="uniFEAC" unicode="&#x630;" horiz-adv-x="1286" arabic-form="final" 
d="M645 1133q-53 0 -90 37.5t-37 91.5q0 52 37 89.5t90 37.5q54 0 92.5 -37.5t38.5 -89.5q0 -54 -38.5 -91.5t-92.5 -37.5zM1294 211q46 0 76.5 -31.5t30.5 -75.5t-30.5 -74t-76.5 -30h-71q-191 0 -324 127q-52 -59 -124 -93t-150 -34h-541v211h541q74 0 108 51
q46 50 29 121l-158 594l201 55l170 -626q22 -87 90 -141t158 -54h71z" />
    <glyph glyph-name="uniFEAE" unicode="&#x631;" horiz-adv-x="761" arabic-form="final" 
d="M766 211q43 0 73.5 -31t30.5 -76q0 -44 -30.5 -74t-73.5 -30h-66q-56 0 -106.5 21t-83.5 57l-2 -90q-11 -200 -134.5 -317.5t-320.5 -155.5l-76 200q73 14 126.5 35t100.5 57t71 93t24 135v938h211v-572q0 -78 56 -134t134 -56h66z" />
    <glyph glyph-name="uniFEB0" unicode="&#x632;" horiz-adv-x="763" arabic-form="final" 
d="M403 1413q52 0 90.5 -38t38.5 -89q0 -54 -38 -91.5t-91 -37.5q-54 0 -91.5 37.5t-37.5 91.5q0 52 38 89.5t91 37.5zM762 211q44 0 75 -30.5t31 -76.5q0 -44 -31 -74t-75 -30h-62q-57 0 -107.5 20.5t-82.5 57.5l-2 -90q-11 -200 -134.5 -317.5t-320.5 -155.5l-76 200
q169 33 245.5 100.5t76.5 219.5v938h211v-572q0 -78 56 -134t134 -56h62z" />
    <glyph glyph-name="uniFEB2" unicode="&#x633;" horiz-adv-x="2660" arabic-form="final" 
d="M2666 211q43 0 74 -31.5t31 -75.5q0 -42 -32 -73t-75 -31h-69q-72 0 -134 34t-98 91q-109 -125 -284 -125q-93 0 -172.5 39.5t-132.5 110.5q-48 -69 -126.5 -109.5t-170.5 -40.5q-129 0 -213 78v-258q0 -98 -68.5 -167t-165.5 -69h-409q-142 0 -262.5 69.5t-190.5 189.5
t-70 261v355h213v-355q0 -128 90.5 -218.5t219.5 -90.5h360q31 0 52.5 21.5t21.5 52.5v905h209v-375q0 -81 56 -134.5t144 -53.5q92 0 149.5 56.5t57.5 138.5v362h211v-369q0 -85 58.5 -136.5t146.5 -51.5q79 0 135.5 57.5t56.5 137.5v567h213v-658q0 -43 30 -73.5t73 -30.5
h71z" />
    <glyph glyph-name="uniFEB3" unicode="&#x633;" horiz-adv-x="1812" arabic-form="initial" 
d="M1686 973v-567q0 -172 -122 -289t-294 -117q-102 0 -180.5 41t-124.5 111q-122 -152 -326 -152q-164 0 -270 125q-38 -57 -99 -91t-133 -34h-141q-44 0 -75.5 30.5t-31.5 73.5t31.5 75t75.5 32h141q43 0 74 30t31 72v463h209v-377q0 -82 57 -135t143 -53q94 0 151.5 55
t57.5 140v370h209v-377q0 -82 56 -135t145 -53q94 0 150.5 55t56.5 140v567h209z" />
    <glyph glyph-name="uniFEB4" unicode="&#x633;" horiz-adv-x="1927" arabic-form="medial" 
d="M1931 211q41 0 74 -32t33 -73q0 -43 -32.5 -74.5t-74.5 -31.5h-127q-75 0 -139 35.5t-100 95.5q-52 -61 -128.5 -96t-164.5 -35q-103 0 -183 42.5t-126 113.5q-122 -156 -330 -156q-76 0 -151.5 31t-127.5 96q-38 -58 -99.5 -92.5t-133.5 -34.5h-125q-43 0 -75 31t-32 75
q0 41 32 73t75 32h125q43 0 74.5 31t31.5 75v459h209v-370q0 -85 59 -140t150 -55q94 0 152.5 57.5t58.5 143.5v364h211v-370q0 -85 56.5 -140t148.5 -55q95 0 154 57.5t59 143.5v561h209l2 -656q0 -44 31 -75t77 -31h127z" />
    <glyph glyph-name="uniFEB6" unicode="&#x634;" horiz-adv-x="2674" arabic-form="final" 
d="M1747 1546q54 0 92.5 -38t38.5 -89q0 -54 -38.5 -91.5t-92.5 -37.5q-53 0 -90 37.5t-37 91.5q0 51 37.5 89t89.5 38zM1569 1217q54 0 92.5 -37.5t38.5 -89.5q0 -54 -38.5 -91.5t-92.5 -37.5q-53 0 -90 37.5t-37 91.5q0 52 37 89.5t90 37.5zM1933 1217q54 0 91.5 -37
t37.5 -90q0 -54 -37.5 -91.5t-91.5 -37.5q-53 0 -91 37.5t-38 91.5q0 52 38 89.5t91 37.5zM2681 211q42 0 73 -31.5t31 -75.5q0 -43 -31.5 -73.5t-74.5 -30.5h-84q-72 0 -134 34t-98 91q-109 -125 -284 -125q-93 0 -172.5 39.5t-132.5 110.5q-48 -69 -126.5 -109.5
t-170.5 -40.5q-129 0 -213 78v-258q0 -98 -68.5 -167t-165.5 -69h-409q-142 0 -262.5 69.5t-190.5 189.5t-70 261v355h213v-355q0 -128 90.5 -218.5t219.5 -90.5h360q31 0 52.5 21.5t21.5 52.5v911h209v-381q0 -81 56 -134.5t144 -53.5q92 0 149.5 56.5t57.5 138.5v366h211
v-373q0 -85 58.5 -136.5t146.5 -51.5q79 0 135.5 57.5t56.5 137.5v567h213v-658q0 -43 30 -73.5t73 -30.5h86z" />
    <glyph glyph-name="uniFEB7" unicode="&#x634;" horiz-adv-x="1818" arabic-form="initial" 
d="M922 1561q54 0 91.5 -37t37.5 -90q0 -54 -37.5 -91.5t-91.5 -37.5q-53 0 -91 37.5t-38 91.5q0 52 38 89.5t91 37.5zM743 1233q54 0 91.5 -37t37.5 -90q0 -54 -37.5 -91.5t-91.5 -37.5q-53 0 -91 37.5t-38 91.5q0 52 38 89.5t91 37.5zM1108 1233q53 0 91 -37.5t38 -89.5
q0 -54 -38 -91.5t-91 -37.5q-54 0 -91.5 37.5t-37.5 91.5q0 53 37.5 90t91.5 37zM1694 973v-567q0 -171 -122.5 -288.5t-293.5 -117.5q-204 0 -307 152q-122 -152 -324 -152q-166 0 -272 125q-38 -57 -99 -91t-133 -34h-147q-44 0 -75.5 30.5t-31.5 73.5t31.5 75t75.5 32
h147q43 0 74 30t31 74v461h209v-377q0 -82 57 -135t143 -53q94 0 151.5 55t57.5 140v370h209v-377q0 -82 56.5 -135t146.5 -53q92 0 148.5 55t56.5 140v567h211z" />
    <glyph glyph-name="uniFEB8" unicode="&#x634;" horiz-adv-x="1888" arabic-form="medial" 
d="M901 1561q54 0 91.5 -37t37.5 -90q0 -54 -37.5 -91.5t-91.5 -37.5q-53 0 -91 37.5t-38 91.5q0 52 38 89.5t91 37.5zM723 1233q53 0 91 -37.5t38 -89.5q0 -54 -38 -91.5t-91 -37.5q-54 0 -91.5 37.5t-37.5 91.5q0 53 37.5 90t91.5 37zM1085 1233q54 0 93 -37.5t39 -89.5
q0 -54 -39 -91.5t-93 -37.5q-53 0 -90 37.5t-37 91.5q0 52 37 89.5t90 37.5zM1892 211q41 0 74 -32t33 -73q0 -43 -32.5 -74.5t-74.5 -31.5h-112q-74 0 -138 36t-100 95q-52 -61 -128.5 -96t-164.5 -35q-103 0 -183 42.5t-128 113.5q-119 -156 -328 -156q-76 0 -151 30.5
t-127 96.5q-38 -58 -100 -92.5t-136 -34.5h-100q-43 0 -75 31t-32 75q0 41 32 73t75 32h100q45 0 77 31t32 75v459h209v-370q0 -85 59 -140t148 -55q95 0 154 57.5t59 143.5v364h210v-370q0 -85 56.5 -140t148.5 -55q95 0 154 57.5t59 143.5v561h209l2 -656
q0 -45 30.5 -75.5t76.5 -30.5h112z" />
    <glyph glyph-name="uniFEBA" unicode="&#x635;" horiz-adv-x="2742" arabic-form="final" 
d="M2488 211h275v-211h-1485v-205q0 -89 -65 -154t-156 -65h-430q-144 0 -266 70.5t-192.5 192t-70.5 265.5v293h209v-293q0 -131 94.5 -224t225.5 -93h383q23 0 41 17t18 40v1129h209v-187l530 160q175 55 347.5 -7.5t261.5 -213.5q71 -121 71 -266v-248zM2234 211
q19 0 31 13.5t12 33.5v201q0 89 -43 162q-51 88 -152.5 123t-211.5 4l-592 -181v-356h956z" />
    <glyph glyph-name="uniFEBB" unicode="&#x635;" horiz-adv-x="1789" arabic-form="initial" 
d="M1606 725q71 -121 71 -266v-277q0 -75 -53 -128.5t-127 -53.5h-1517v211h278v762h209v-187l530 160q177 55 349 -7.5t260 -213.5zM1466 258v201q0 94 -43 162q-51 88 -152.5 123t-211.5 4l-592 -181v-356h956q19 0 31 13.5t12 33.5z" />
    <glyph glyph-name="uniFEBC" unicode="&#x635;" horiz-adv-x="1849" arabic-form="medial" 
d="M1636 211h234v-211h-1890v211h237v762h209v-187l530 160q177 55 349 -7.5t260 -213.5q71 -121 71 -266v-248zM1382 211q19 0 31 13.5t12 33.5v201q0 94 -43 162q-51 88 -152.5 123t-211.5 4l-592 -181v-356h956z" />
    <glyph glyph-name="uniFEBE" unicode="&#x636;" horiz-adv-x="2742" arabic-form="final" 
d="M1858 1157q-54 0 -91.5 37.5t-37.5 91.5q0 52 37.5 89.5t91.5 37.5q52 0 90.5 -38t38.5 -89q0 -54 -38 -91.5t-91 -37.5zM2488 211h275v-211h-1485v-205q0 -89 -65 -154t-156 -65h-430q-144 0 -266 70.5t-192.5 192t-70.5 265.5v359h209v-359q0 -131 94.5 -224t225.5 -93
h383q23 0 41 17t18 40v1129h209v-187l530 160q175 55 347.5 -7.5t261.5 -213.5q71 -121 71 -266v-248zM2234 211q19 0 31 13.5t12 33.5v201q0 89 -43 162q-51 88 -152.5 123t-211.5 4l-592 -181v-356h956z" />
    <glyph glyph-name="uniFEBF" unicode="&#x636;" horiz-adv-x="1751" arabic-form="initial" 
d="M950 1413q54 0 91.5 -37.5t37.5 -89.5q0 -54 -37.5 -91.5t-91.5 -37.5q-53 0 -91 37.5t-38 91.5q0 51 38.5 89t90.5 38zM1567 725q71 -121 71 -266v-277q0 -75 -53 -128.5t-127 -53.5h-1478v211h239v762h209v-187l528 160q177 55 349.5 -7.5t261.5 -213.5zM1427 258v201
q0 89 -43 162q-51 88 -152.5 123t-211.5 4l-592 -181v-356h954q20 0 32.5 13.5t12.5 33.5z" />
    <glyph glyph-name="uniFEC0" unicode="&#x636;" horiz-adv-x="1882" arabic-form="medial" 
d="M997 1157q-53 0 -90 37.5t-37 91.5q0 51 37.5 89t89.5 38q54 0 92.5 -38t38.5 -89q0 -54 -38.5 -91.5t-92.5 -37.5zM1657 211h246v-211h-1923v211h258v762h208v-187l531 160q177 55 348.5 -7.5t259.5 -213.5q72 -123 72 -266v-248zM1403 211q19 0 31 13.5t12 33.5v201
q0 94 -43 162q-51 88 -153 123t-212 4l-592 -181v-356h957z" />
    <glyph glyph-name="uniFEC2" unicode="&#x637;" horiz-adv-x="2029" arabic-form="final" 
d="M1776 211h274v-211h-1935v223h241v1204h211v-636l529 161q177 54 348.5 -8t259.5 -213q72 -118 72 -266v-254zM1522 211q19 0 32 13.5t13 33.5v207q0 91 -45 162q-49 87 -151.5 122t-211.5 5l-592 -181v-362h955z" />
    <glyph glyph-name="uniFEC3" unicode="&#x637;" horiz-adv-x="1773" arabic-form="initial" 
d="M1589 731q72 -123 72 -266v-283q0 -75 -53 -128.5t-127 -53.5h-1501v211h262v1216h209v-636l530 161q175 54 347.5 -8.5t260.5 -212.5zM1450 258v207q0 94 -43 162q-51 87 -153 122t-212 5l-591 -181v-362h956q19 0 31 13.5t12 33.5z" />
    <glyph glyph-name="uniFEC4" unicode="&#x637;" horiz-adv-x="1888" arabic-form="medial" 
d="M1661 211h248v-211h-1929v211h264v1216h209v-636l528 161q122 34 237 19t214.5 -78.5t158.5 -161.5q70 -122 70 -266v-254zM1407 211q19 0 32 13.5t13 33.5v207q0 90 -43 160q-51 88 -153 123t-212 4l-591 -181v-360h954z" />
    <glyph glyph-name="uniFEC6" unicode="&#x638;" horiz-adv-x="2007" arabic-form="final" 
d="M1753 211h275v-211h-1926v223h234v1204h209v-636l528 161q177 54 349 -8t261 -213q70 -119 70 -266v-254zM1137 1157q-53 0 -90 37.5t-37 91.5q0 51 37.5 89t89.5 38q54 0 92.5 -38t38.5 -89q0 -54 -38.5 -91.5t-92.5 -37.5zM1499 211q19 0 32 13.5t13 33.5v207
q0 89 -43 162q-51 87 -152.5 122t-211.5 5l-592 -181v-362h954z" />
    <glyph glyph-name="uniFEC7" unicode="&#x638;" horiz-adv-x="1765" arabic-form="initial" 
d="M1589 731q72 -123 72 -266v-283q0 -75 -53 -128.5t-127 -53.5h-1501v211h262v1216h209v-636l530 161q175 54 347.5 -8.5t260.5 -212.5zM1024 1413q54 0 91.5 -37.5t37.5 -89.5q0 -54 -37.5 -91.5t-91.5 -37.5q-53 0 -91 37.5t-38 91.5q0 51 38.5 89t90.5 38zM1450 258
v207q0 94 -43 162q-51 87 -153 122t-212 5l-591 -181v-362h956q19 0 31 13.5t12 33.5z" />
    <glyph glyph-name="uniFEC8" unicode="&#x638;" horiz-adv-x="1894" arabic-form="medial" 
d="M1669 211h246v-211h-1935v211h270v1216h211v-636l528 161q177 54 348.5 -8.5t259.5 -212.5q72 -120 72 -266v-254zM1049 1157q-53 0 -90 37.5t-37 91.5q0 51 37.5 89t89.5 38q54 0 92.5 -38t38.5 -89q0 -54 -38.5 -91.5t-92.5 -37.5zM1415 211q19 0 32 13.5t13 33.5v207
q0 92 -45 160q-49 88 -150.5 123t-211.5 4l-592 -181v-360h954z" />
    <glyph glyph-name="uniFECA" unicode="&#x639;" horiz-adv-x="1384" arabic-form="final" 
d="M1413 211v-211h-893q-83 0 -140.5 -58.5t-57.5 -140.5q0 -80 58 -139t140 -59h502v-211h-502q-170 0 -289.5 119.5t-119.5 289.5q0 91 29 167t77.5 126.5t108.5 79.5t125 33l63 2l-203 473l60 172q142 84 290.5 116.5t280.5 6.5q154 -31 249.5 -157t78.5 -279
q-10 -95 -54 -185t-126 -145h323zM557 711l-14 -47l205 -441q69 12 124.5 44t88 70t55 84t31.5 79.5t12 62.5q7 72 -38.5 131.5t-117.5 73.5q-136 29 -346 -57z" />
    <glyph glyph-name="uniFECB" unicode="&#x639;" horiz-adv-x="1187" arabic-form="initial" 
d="M1059 211v-211h-1079v211h237q-52 34 -81.5 94.5t-29.5 134.5l3 90q8 186 143 317.5t321 131.5q141 0 262 -83.5t154 -209.5l-155 -133q-20 89 -90 151t-171 62t-174.5 -69.5t-79.5 -170.5v-84q0 -102 73 -166.5t181 -64.5h486z" />
    <glyph glyph-name="uniFECC" unicode="&#x639;" horiz-adv-x="1171" arabic-form="medial" 
d="M-12 0v211h313l-207 471l62 172q143 84 290 116.5t279 6.5q155 -31 250 -156.5t80 -279.5q-10 -94 -55.5 -184.5t-127.5 -145.5l308 2v-213h-1192zM328 664l202 -441q69 12 125 44t89 70t55.5 83.5t31.5 80t11 62.5q9 72 -36.5 131.5t-119.5 73.5q-136 29 -346 -57z" />
    <glyph glyph-name="uniFECE" unicode="&#x63a;" horiz-adv-x="1384" arabic-form="final" 
d="M760 1157q-53 0 -90 37.5t-37 91.5q0 51 37.5 89t89.5 38q54 0 92.5 -38t38.5 -89q0 -54 -38.5 -91.5t-92.5 -37.5zM1413 211v-211h-893q-83 0 -140.5 -58.5t-57.5 -140.5q0 -80 58 -139t140 -59h502v-211h-502q-170 0 -289.5 119.5t-119.5 289.5q0 91 29 167t77.5 126.5
t108.5 79.5t125 33l63 2l-203 473l60 172q142 84 290.5 116.5t280.5 6.5q154 -31 249.5 -157t78.5 -279q-10 -95 -54 -185t-126 -145h323zM557 711l-14 -47l205 -441q69 12 124.5 44t88 70t55 84t31.5 79.5t12 62.5q7 72 -38.5 131.5t-117.5 73.5q-136 29 -346 -57z" />
    <glyph glyph-name="uniFECF" unicode="&#x63a;" horiz-adv-x="1187" arabic-form="initial" 
d="M559 1413q54 0 92.5 -38t38.5 -89q0 -54 -38.5 -91.5t-92.5 -37.5q-53 0 -90 37.5t-37 91.5q0 51 37.5 89t89.5 38zM1063 211v-211h-1083v211h237q-111 100 -111 244l3 77q5 123 68.5 226.5t168.5 163t227 59.5q142 0 262.5 -82.5t153.5 -208.5l-155 -135q-20 89 -90 151
t-171 62t-174.5 -69.5t-79.5 -170.5v-71q0 -104 74 -175t180 -71h490z" />
    <glyph glyph-name="uniFED0" unicode="&#x63a;" horiz-adv-x="1177" arabic-form="medial" 
d="M588 1413q54 0 91.5 -37.5t37.5 -89.5q0 -54 -37.5 -91.5t-91.5 -37.5q-53 0 -91 37.5t-38 91.5q0 51 38.5 89t90.5 38zM-12 0v211h313l-207 471l62 172q143 84 290 116.5t279 6.5q155 -31 250 -156.5t80 -279.5q-10 -94 -55.5 -184.5t-127.5 -145.5l308 2v-213h-1192z
M328 664l202 -441q69 12 125 44t89 70t55.5 83.5t31.5 80t11 62.5q9 72 -36.5 131.5t-119.5 73.5q-136 29 -346 -57z" />
    <glyph glyph-name="uniFED2" unicode="&#x641;" horiz-adv-x="2105" arabic-form="final" 
d="M1489 1415q54 0 91.5 -37t37.5 -90t-37.5 -91t-91.5 -38q-53 0 -91 38.5t-38 90.5t38 89.5t91 37.5zM2120 211v-211h-1563q-189 0 -324 135.5t-135 325.5v305h209v-305q0 -104 73.5 -176t176.5 -72h580q-127 97 -127 266v41q0 189 137.5 323t327.5 136q124 0 229 -62
t166 -167.5t61 -229.5v-309h189zM1722 211v309q0 101 -72 173.5t-173 72.5q-106 0 -183 -76.5t-77 -183.5v-27q0 -109 79 -185t189 -81z" />
    <glyph glyph-name="uniFED3" unicode="&#x641;" horiz-adv-x="1169" arabic-form="initial" 
d="M602 1415q54 0 92.5 -37.5t38.5 -89.5q0 -53 -38.5 -91t-92.5 -38q-52 0 -89.5 38t-37.5 91q0 52 37.5 89.5t89.5 37.5zM586 979h456v-823q0 -65 -44.5 -110.5t-108.5 -45.5h-909v211h251q-52 45 -81 114t-29 146v61q0 124 63.5 227t170 161t231.5 59zM834 246v532h-246
q-107 0 -183.5 -76.5t-76.5 -183.5v-55q3 -104 79.5 -178t180.5 -74h213q13 0 23 10.5t10 24.5z" />
    <glyph glyph-name="uniFED4" unicode="&#x641;" horiz-adv-x="1243" arabic-form="medial" 
d="M612 1159q-52 0 -89.5 38t-37.5 91q0 52 37.5 89.5t89.5 37.5q54 0 92.5 -37.5t38.5 -89.5q0 -53 -38.5 -91t-92.5 -38zM1040 211h217v-211h-1271v211h262q-111 100 -111 256v55q0 189 137.5 323t327.5 136q190 0 324.5 -135t134.5 -324v-254q0 -19 -6 -36.5t-15 -20.5z
M817 211q14 0 23.5 10t9.5 25v276q0 101 -72.5 173.5t-173.5 72.5q-107 0 -183.5 -74t-76.5 -182v-53q0 -103 77.5 -175.5t182.5 -72.5h213z" />
    <glyph glyph-name="uniFED6" unicode="&#x642;" horiz-adv-x="1587" arabic-form="final" 
d="M815 1415q54 0 92.5 -37.5t38.5 -89.5q0 -53 -38.5 -91t-92.5 -38q-52 0 -89.5 38t-37.5 91q0 52 37 89.5t90 37.5zM1165 1415q53 0 91 -37.5t38 -89.5t-38 -90.5t-91 -38.5q-54 0 -91.5 38t-37.5 91t37.5 90t91.5 37zM1608 211v-211h-181v-180q0 -103 -72 -175.5
t-175 -72.5h-547q-146 0 -269 71t-194.5 193.5t-71.5 267.5v357h211v-352q0 -133 95.5 -228.5t228.5 -95.5h518q28 0 47 18.5t19 46.5v150h-240q-195 0 -332 128t-137 314v68q0 196 136 333.5t333 137.5q184 0 317 -133.5t133 -321.5v-315h181zM1217 211v315
q0 101 -71.5 172.5t-168.5 71.5q-110 0 -185 -76t-75 -184v-64q0 -100 76.5 -167.5t183.5 -67.5h240z" />
    <glyph glyph-name="uniFED7" unicode="&#x642;" horiz-adv-x="1185" arabic-form="initial" 
d="M492 1415q54 0 91.5 -37t37.5 -90t-37.5 -91t-91.5 -38q-53 0 -91.5 38.5t-38.5 90.5t38.5 89.5t91.5 37.5zM840 1415q54 0 91.5 -37t37.5 -90t-37.5 -91t-91.5 -38q-52 0 -90.5 38.5t-38.5 90.5t38 89.5t91 37.5zM602 979h459v-823q0 -64 -45.5 -110t-110.5 -46h-925
v211h268q-52 46 -81.5 114.5t-29.5 145.5v61q0 124 63.5 227t170 161t231.5 59zM850 246v532h-246q-106 0 -183 -76.5t-77 -183.5v-55q3 -104 79.5 -178t180.5 -74h213q13 0 23 10.5t10 24.5z" />
    <glyph glyph-name="uniFED8" unicode="&#x642;" horiz-adv-x="1239" arabic-form="medial" 
d="M444 1159q-54 0 -91.5 38t-37.5 91t37.5 90t91.5 37q53 0 91 -37.5t38 -89.5t-38.5 -90.5t-90.5 -38.5zM793 1159q-53 0 -91 38.5t-38 90.5t38 89.5t91 37.5q54 0 91.5 -37t37.5 -90t-37.5 -91t-91.5 -38zM1047 211h206v-211h-1267v211h268q-111 97 -111 252v61
q0 189 137.5 323t327.5 134q188 1 322.5 -134t134.5 -323v-241q0 -36 -18 -72zM823 211q13 0 23 10.5t10 24.5v278q0 101 -72.5 173.5t-173.5 72.5q-107 0 -183.5 -76.5t-76.5 -185.5v-51q0 -104 76.5 -175t183.5 -71h213z" />
    <glyph glyph-name="uniFEDA" unicode="&#x643;" horiz-adv-x="1804" arabic-form="final" 
d="M1606 211h219v-211h-1266q-186 0 -317 131.5t-131 317.5v311h208v-311q0 -99 70.5 -168.5t169.5 -69.5h766q28 0 49 19t21 46v1151h211v-1216zM1069 975v-109h-412v109h70q-30 50 -27 92q8 75 62 125.5t127 50.5q66 0 115.5 -36.5t68.5 -96.5l-88 -59q-26 82 -96 82
q-32 0 -54 -22t-22 -54q0 -30 19.5 -56t56.5 -26h180z" />
    <glyph glyph-name="uniFEDB" unicode="&#x643;" horiz-adv-x="1413" arabic-form="initial" 
d="M766 981q142 0 262.5 -70t190 -190.5t69.5 -263.5v-316q0 -59 -40.5 -100t-98.5 -41h-1169v211h1048q20 0 34.5 14.5t14.5 34.5v184q0 135 -94.5 229.5t-228.5 94.5h-488l-153 233l413 578l174 -123l-344 -475h410z" />
    <glyph glyph-name="uniFEDC" unicode="&#x643;" horiz-adv-x="1425" arabic-form="medial" 
d="M1221 211h225v-209l-1466 -2v211h1028v233q0 135 -95 229.5t-229 94.5h-481l-117 238l422 587l172 -123l-350 -489h368q142 0 262.5 -70t190.5 -190.5t70 -263.5v-246z" />
    <glyph glyph-name="uniFEDE" unicode="&#x644;" horiz-adv-x="1517" arabic-form="final" 
d="M1522 211q43 0 73.5 -31t30.5 -76q0 -43 -30.5 -73.5t-73.5 -30.5h-111q-40 0 -76 18.5t-53 49.5v-295q0 -72 -51 -122t-123 -50h-481q-143 0 -265 70.5t-193 192t-71 265.5v334h211v-334q0 -132 93.5 -224.5t224.5 -92.5h393q51 0 51 67v1548h211v-1075q0 -58 38 -99.5
t91 -41.5h111z" />
    <glyph glyph-name="uniFEDF" unicode="&#x644;" horiz-adv-x="608" arabic-form="initial" 
d="M-4 0q-44 0 -75.5 30.5t-31.5 73.5q0 44 31.5 75.5t75.5 31.5h115q43 0 74.5 31t31.5 75v1110h211v-1110q0 -132 -92 -224.5t-223 -92.5h-117z" />
    <glyph glyph-name="uniFEE0" unicode="&#x644;" horiz-adv-x="632" arabic-form="medial" 
d="M637 211q43 0 73.5 -30.5t30.5 -74.5t-31.5 -75t-74.5 -31h-55q-76 0 -143.5 32t-114.5 87q-44 -55 -108 -87t-138 -32h-76q-47 0 -79 30t-32 76q0 44 32 74.5t79 30.5h53q61 0 105.5 45.5t44.5 108.5v1062h213v-1065q6 -63 53.5 -107t110.5 -44h57z" />
    <glyph glyph-name="uniFEE2" unicode="&#x645;" horiz-adv-x="1359" arabic-form="final" 
d="M1389 211v-211h-125q-84 0 -153.5 43.5t-102.5 112.5q-61 -73 -146.5 -114.5t-183.5 -41.5q-75 0 -142 26.5t-112 69.5l-4 -65q-14 -186 -129.5 -298t-290.5 -147l-41 205q256 54 256 305v883h463q127 0 234 -63.5t169 -171.5t62 -234v-182q0 -48 35 -82.5t86 -34.5h125z
M678 211q105 0 179 71.5t77 174.5v53q0 106 -74.5 180t-181.5 74h-252v-315q0 -109 74.5 -173.5t177.5 -64.5z" />
    <glyph glyph-name="uniFEE3" unicode="&#x645;" horiz-adv-x="1273" arabic-form="initial" 
d="M-16 211q-44 0 -74.5 -31t-32.5 -74q0 -42 31 -73t74 -33h69q88 0 164 44.5t119 119.5q59 -76 148.5 -120.5t191.5 -43.5q188 2 325 134t140 317v51q0 202 -134.5 339.5t-334.5 137.5h-475v-625q0 -64 -38 -103.5t-106 -39.5h-67zM670 211q-107 0 -184 69t-78 173v315
h256q113 0 189.5 -74t76.5 -184v-49q-1 -102 -77.5 -175t-182.5 -75z" />
    <glyph glyph-name="uniFEE4" unicode="&#x645;" horiz-adv-x="1316" arabic-form="medial" 
d="M1335 211q44 0 75.5 -31.5t31.5 -75.5q0 -43 -31.5 -73.5t-75.5 -30.5h-71q-85 0 -155 44t-103 114q-58 -73 -144 -115.5t-184 -42.5q-216 0 -346 162q-42 -73 -117.5 -117.5t-163.5 -44.5h-78q-43 2 -73.5 32.5t-30.5 73.5t30.5 74t73.5 31h78q63 0 103.5 40t40.5 103
v625h483q189 0 325.5 -132.5t141.5 -320.5v-194q0 -51 34.5 -86t84.5 -35h71zM932 467v55q-3 106 -78.5 175t-191.5 69h-254v-307q0 -102 75.5 -175t178.5 -73q120 1 195 74.5t75 181.5z" />
    <glyph glyph-name="uniFEE6" unicode="&#x646;" horiz-adv-x="1505" arabic-form="final" 
d="M670 971q54 0 92.5 -37.5t38.5 -89.5q0 -54 -38.5 -91.5t-92.5 -37.5q-53 0 -90 37.5t-37 91.5q0 52 37.5 89.5t89.5 37.5zM1509 211q44 0 75.5 -31.5t31.5 -75.5t-31 -74t-76 -30h-106q-40 0 -75 18.5t-54 49.5v-291q0 -72 -50 -123t-122 -51h-477q-144 0 -265.5 71
t-191.5 192.5t-70 264.5v332h209v-332q0 -131 93 -224t225 -93h366q31 0 52.5 20t21.5 49v1073h209v-618q3 -53 40 -90t89 -37h106z" />
    <glyph glyph-name="uniFEE7" unicode="&#x646;" horiz-adv-x="591" arabic-form="initial" 
d="M348 1413q54 0 92.5 -38t38.5 -89q0 -54 -38.5 -91.5t-92.5 -37.5q-53 0 -90 37.5t-37 91.5q0 51 37.5 89t89.5 38zM135 0h-137q-44 0 -76.5 31.5t-32.5 74.5q0 45 32 75t77 30h139q47 0 80 33.5t33 79.5v649h211v-649q0 -134 -95.5 -229t-230.5 -95z" />
    <glyph glyph-name="uniFEE8" unicode="&#x646;" horiz-adv-x="673" arabic-form="medial" 
d="M330 1257q54 0 91.5 -37t37.5 -90q0 -54 -37.5 -91.5t-91.5 -37.5q-53 0 -91 37.5t-38 91.5q0 52 38 89.5t91 37.5zM678 211q43 0 73.5 -30.5t30.5 -74.5t-31.5 -75t-74.5 -31h-78q-76 0 -143.5 32t-114.5 87q-44 -55 -108 -87t-138 -32h-94q-47 0 -79 30t-32 74
q0 46 32 76.5t79 30.5h70q63 0 107 45.5t44 108.5v411h213v-414q6 -63 53.5 -107t110.5 -44h80z" />
    <glyph glyph-name="uniFEEA" unicode="&#x647;" horiz-adv-x="1286" arabic-form="final" 
d="M1290 211q44 0 74.5 -31t32.5 -74q0 -42 -31 -73t-74 -33h-106q-88 0 -164 44.5t-119 119.5q-58 -75 -146.5 -119.5t-189.5 -44.5q-125 0 -233 60.5t-172 166.5t-64 230v63q0 201 133.5 330t335.5 129h473l2 -625q0 -64 38 -103.5t106 -39.5h104zM567 211
q109 0 185.5 77.5t76.5 186.5v291h-262q-106 0 -184 -68t-78 -178v-55q0 -105 77.5 -179.5t184.5 -74.5z" />
    <glyph glyph-name="uniFEEB" unicode="&#x647;" horiz-adv-x="1546" arabic-form="initial" 
d="M791 1200q180 -39 322.5 -150t225 -283.5t82.5 -377.5v-170q0 -91 -63 -155t-152 -64h-1226v211h262q-50 43 -80.5 112.5t-30.5 143.5q0 174 129.5 288.5t314.5 114.5q191 0 321 -135.5t130 -328.5v-117q0 -48 -12 -78h155q19 0 31 12t12 31v135q0 229 -125.5 394.5
t-330.5 209.5q-152 35 -326 35l2 207q135 -1 197 -7.5t162 -27.5zM575 659q-91 0 -162 -62.5t-71 -158.5q0 -97 64.5 -162t146.5 -65h217q20 0 34.5 13t14.5 34v166q0 88 -71.5 161t-172.5 74z" />
    <glyph glyph-name="uniFEEC" unicode="&#x647;" horiz-adv-x="1343" arabic-form="medial" 
d="M1085 211h279v-211h-199v-33q0 -192 -130.5 -308t-350.5 -116q-188 0 -328 121.5t-168 302.5l-2 33h-206v211h196v246q0 134 63 250.5t171.5 187.5t236.5 76q209 9 363 -135q73 -68 112 -162t39 -195q0 -152 -86 -268h10zM387 457v-246h217q58 0 116.5 15t112.5 45.5
t87.5 85t33.5 124.5q0 127 -88 203q-79 79 -209 76q-110 -5 -190 -94t-80 -209zM956 12v70q0 10 2 16q-146 -98 -354 -98h-201l5 -27q19 -96 96.5 -158.5t179.5 -62.5q119 0 195.5 75t76.5 185z" />
    <glyph glyph-name="uniFEEE" unicode="&#x648;" horiz-adv-x="1179" arabic-form="final" 
d="M1200 211v-211h-178q-9 -200 -148 -330q-108 -102 -248.5 -135t-408.5 -33l2 211h119.5t114.5 6t106 16.5t94.5 33t81.5 55.5q54 51 66 143l2 33h-228q-133 0 -242.5 66t-172 179.5t-62.5 248.5q0 203 137.5 344t339.5 141h447v-768h178zM809 211v555h-234
q-115 0 -191.5 -78t-76.5 -194q0 -119 76.5 -201t191.5 -82h234z" />
    <glyph glyph-name="uniFEF0" unicode="&#x649;" horiz-adv-x="1800" arabic-form="final" 
d="M1800 211q45 0 77 -29t32 -73t-32.5 -76.5t-76.5 -32.5q-94 0 -188 20q47 -53 47 -131q0 -161 -115.5 -275t-275.5 -114h-631q-148 0 -274 73.5t-199.5 199.5t-73.5 274v359h211v-359q0 -138 99 -237t237 -99h631q72 0 125 53t53 125q0 64 -37.5 115.5t-99.5 71.5
l-305 123l92 194q223 -96 247 -104q222 -78 457 -78z" />
    <glyph glyph-name="uniFEF2" unicode="&#x64a;" horiz-adv-x="1800" arabic-form="final" 
d="M1800 211q45 0 77 -29t32 -73t-32.5 -76.5t-76.5 -32.5q-94 0 -188 20q47 -53 47 -131q0 -161 -115.5 -275t-275.5 -114h-631q-148 0 -274 73.5t-199.5 199.5t-73.5 274v359h211v-359q0 -138 99 -237t237 -99h631q72 0 125 53t53 125q0 64 -37.5 115.5t-99.5 71.5
l-305 123l92 194q223 -96 247 -104q222 -78 457 -78zM750 -635q54 0 92.5 -37.5t38.5 -89.5q0 -54 -38.5 -91.5t-92.5 -37.5q-53 0 -90 37.5t-37 91.5q0 52 37.5 89.5t89.5 37.5zM1102 -635q53 0 91 -37.5t38 -89.5q0 -54 -38 -91.5t-91 -37.5q-54 0 -91.5 37.5t-37.5 91.5
q0 53 37.5 90t91.5 37z" />
    <glyph glyph-name="uniFEF3" unicode="&#x64a;" horiz-adv-x="763" arabic-form="initial" 
d="M326 0h-328q-44 0 -76.5 31.5t-32.5 74.5q0 45 32 75t77 30h330q47 0 79.5 33.5t32.5 79.5v649h211v-649q0 -134 -95 -229t-230 -95zM170 -186q54 0 91.5 -38t37.5 -89q0 -54 -37.5 -91.5t-91.5 -37.5q-53 0 -91 37.5t-38 91.5q0 51 38.5 89t90.5 38zM520 -186
q54 0 91.5 -38t37.5 -89q0 -54 -37.5 -91.5t-91.5 -37.5q-53 0 -91 37.5t-38 91.5q0 51 38.5 89t90.5 38z" />
    <glyph glyph-name="uniFEF4" unicode="&#x64a;" horiz-adv-x="813" arabic-form="medial" 
d="M817 211q44 0 75.5 -30.5t31.5 -74.5t-32 -75t-75 -31h-147q-76 0 -143.5 32t-114.5 87q-44 -55 -108 -87t-138 -32h-166q-47 0 -79 30t-32 76q0 44 32 74.5t79 30.5h143q61 0 105.5 45.5t44.5 108.5v436h213v-439q6 -63 53.5 -107t110.5 -44h147zM211 -186q53 0 91 -38
t38 -89q0 -54 -37.5 -91.5t-91.5 -37.5q-53 0 -91 37.5t-38 91.5q0 51 38.5 89t90.5 38zM561 -186q54 0 92.5 -38t38.5 -89q0 -54 -38.5 -91.5t-92.5 -37.5q-53 0 -90 37.5t-37 91.5q0 51 37.5 89t89.5 38z" />
    <glyph glyph-name=".notdef" horiz-adv-x="972" 
d="M799 1434v-1946h-619v1946h619zM647 1303h-319v-64h125v-72h-127v-63h321v63h-127v72h127v64zM520 1053h-194v-203h321v65h-127v138zM453 987v-72h-64v72h64zM647 797h-321v-64h127v-71h-127v-64h194v135h127v64zM647 680h-63v-127h-258v-68h321v195zM647 442h-194v-108
h67v45h64v-92h-195v155h-63v-219h321v219zM647 106h-321v-219h321v219zM584 43v-92h-195v92h195zM647 -158h-321v-63h135l-135 -92v-64h321v64h-198l137 92h61v63z" />
    <glyph glyph-name=".null" horiz-adv-x="768" 
 />
    <glyph glyph-name="nonmarkingreturn" horiz-adv-x="682" 
 />
    <glyph glyph-name="CR" unicode="&#xd;" horiz-adv-x="473" 
 />
    <glyph glyph-name="space" unicode=" " horiz-adv-x="448" 
 />
    <glyph glyph-name="exclam" unicode="!" horiz-adv-x="616" 
d="M186 1434h244l-18 -975h-207zM172 119q-7 64 25.5 104.5t95.5 48.5q64 6 104.5 -25t46.5 -95q8 -64 -24 -105.5t-96 -48.5q-62 -6 -104 27t-48 94z" />
    <glyph glyph-name="quotedbl" unicode="&#x22;" horiz-adv-x="845" 
d="M104 1460h238l-31 -569h-176zM504 1460h237l-30 -569h-176z" />
    <glyph glyph-name="numbersign" unicode="#" horiz-adv-x="1478" 
d="M1126 868l-59 -301h227v-166h-260l-73 -370h-187l72 370h-338l-72 -370h-188l74 370h-224v166h254l62 301h-230v166h260l74 369h189l-74 -369h338l73 369h187l-72 -369h221v-166h-254zM938 868h-338l-59 -301h338z" />
    <glyph glyph-name="dollar" unicode="$" horiz-adv-x="1220" 
d="M1137 434q0 -174 -124 -282.5t-341 -118.5v-135h-92v135q-175 10 -304 87t-192 208l154 121q106 -190 342 -211v397l-88 20q-189 46 -281 136.5t-92 230.5q0 166 123 269t338 110v135h92v-137q155 -10 267.5 -73.5t168.5 -168.5l-152 -121q-91 147 -284 162v-375l108 -26
q184 -44 270.5 -133.5t86.5 -229.5zM580 846v356q-113 -4 -173.5 -50t-60.5 -126q0 -69 50.5 -107.5t183.5 -72.5zM672 236q116 4 177.5 54t61.5 134q0 76 -52.5 116.5t-186.5 71.5v-376z" />
    <glyph glyph-name="percent" unicode="%" horiz-adv-x="1777" 
d="M428 737q-160 0 -264.5 102t-104.5 261q0 158 104.5 259t264.5 101q159 0 263 -101t104 -259q0 -159 -104 -261t-263 -102zM1282 1434h203l-989 -1434h-203zM428 897q86 0 139.5 56t53.5 147q0 89 -53.5 144.5t-139.5 55.5t-139 -55.5t-53 -144.5q0 -91 53 -147t139 -56z
M1350 -27q-160 0 -264.5 102t-104.5 261q0 158 104.5 259t264.5 101q159 0 262.5 -101t103.5 -259q0 -159 -103.5 -261t-262.5 -102zM1350 133q86 0 139 56t53 147q0 89 -53 145t-139 56t-140.5 -56t-54.5 -145q0 -91 54.5 -147t140.5 -56z" />
    <glyph glyph-name="ampersand" unicode="&#x26;" horiz-adv-x="1421" 
d="M1128 0l-116 133q-163 -160 -416 -160q-217 0 -348 109.5t-131 282.5q0 123 74.5 221t238.5 196q-93 108 -132.5 187.5t-39.5 158.5q0 142 105.5 237t281.5 95q172 0 276.5 -90.5t104.5 -232.5q0 -114 -72.5 -207.5t-236.5 -188.5l274 -311q58 123 70 283h205
q-27 -269 -133 -443l235 -270h-240zM465 1118q0 -54 30.5 -105.5t108.5 -140.5q119 70 168 124t49 120q0 71 -50.5 116.5t-127.5 45.5t-127.5 -45t-50.5 -115zM612 172q159 0 260 107l-321 364q-107 -63 -155 -125t-48 -137q0 -95 71 -152t193 -57z" />
    <glyph glyph-name="quotesingle" unicode="'" horiz-adv-x="446" 
d="M104 1460h238l-31 -569h-176z" />
    <glyph glyph-name="parenleft" unicode="(" horiz-adv-x="690" 
d="M459 -260q-153 182 -238.5 421t-85.5 478q0 240 86 480t238 419l178 -104q-130 -160 -202.5 -371.5t-72.5 -423.5t72.5 -423.5t202.5 -371.5z" />
    <glyph glyph-name="parenright" unicode=")" horiz-adv-x="690" 
d="M555 639q0 -241 -86 -479t-238 -420l-178 104q129 159 202 373t73 422q0 209 -73.5 423.5t-201.5 371.5l178 104q152 -180 238 -420.5t86 -478.5z" />
    <glyph glyph-name="asterisk" unicode="*" horiz-adv-x="944" 
d="M588 1001l196 -247l-135 -99l-178 263l-178 -263l-135 99l196 250l-305 88l51 157l297 -106l-10 315h168l-12 -317l301 108l51 -159z" />
    <glyph glyph-name="plus" unicode="+" horiz-adv-x="1454" 
d="M1184 547h-348v-373h-215v373h-349v205h349v372h215v-372h348v-205z" />
    <glyph glyph-name="comma" unicode="," horiz-adv-x="493" 
d="M168 274h229l-147 -591h-187z" />
    <glyph glyph-name="hyphen" unicode="-" horiz-adv-x="776" 
d="M88 686h600v-197h-600v197z" />
    <glyph glyph-name="period" unicode="." horiz-adv-x="538" 
d="M131 119q-6 64 26.5 104.5t94.5 48.5q66 6 107 -25t47 -95q8 -63 -24.5 -105t-96.5 -49q-62 -6 -104.5 27t-49.5 94z" />
    <glyph glyph-name="slash" unicode="/" horiz-adv-x="1007" 
d="M774 1516h217l-758 -1709h-217z" />
    <glyph glyph-name="zero" unicode="0" horiz-adv-x="1427" 
d="M715 -27q-173 0 -306 92.5t-205.5 261.5t-72.5 390t72.5 389.5t205.5 261t306 92.5q261 0 421 -204.5t160 -538.5t-160 -539t-421 -205zM715 186q154 0 248 146t94 385t-94 384.5t-248 145.5q-155 0 -248.5 -145t-93.5 -385t93.5 -385.5t248.5 -145.5z" />
    <glyph glyph-name="one" unicode="1" horiz-adv-x="862" 
d="M676 1434v-1434h-232v1192l-364 2v240h596z" />
    <glyph glyph-name="two" unicode="2" horiz-adv-x="1196" 
d="M1108 213v-213h-1026v172l545 510q125 114 175 194.5t50 157.5q0 99 -65.5 156t-172.5 57q-111 0 -202.5 -67t-151.5 -199l-186 109q71 179 213 274.5t327 95.5q211 0 342 -116t131 -297q0 -114 -58 -219.5t-187 -227.5l-416 -387h682z" />
    <glyph glyph-name="three" unicode="3" horiz-adv-x="1161" 
d="M791 729q140 -38 213 -126t73 -216q0 -183 -141.5 -298.5t-374.5 -115.5q-159 0 -289.5 55.5t-220.5 164.5l131 153q147 -164 367 -164q136 0 215.5 63.5t79.5 168.5q0 103 -88.5 157t-266.5 54h-106v206h162q135 0 207.5 54.5t72.5 150.5q0 98 -69 156.5t-189 58.5
q-104 0 -194 -47.5t-156 -138.5l-156 145q85 121 217 185.5t297 64.5q223 0 353.5 -108.5t130.5 -288.5q0 -128 -69 -215t-199 -119z" />
    <glyph glyph-name="four" unicode="4" horiz-adv-x="1253" 
d="M299 498h506v475h225v-475h191v-193h-191v-305h-225v305h-735v193l737 936l147 -107z" />
    <glyph glyph-name="five" unicode="5" horiz-adv-x="1200" 
d="M662 909q212 0 338 -120.5t126 -329.5q0 -226 -146 -356t-398 -130q-305 0 -504 213l131 158q152 -162 369 -162q143 0 229 72.5t86 198.5q0 122 -78 193t-211 71q-151 0 -278 -101h-168v818h884v-205h-669v-402q128 82 289 82z" />
    <glyph glyph-name="six" unicode="6" horiz-adv-x="1218" 
d="M621 975q239 0 388.5 -134.5t149.5 -357.5q0 -231 -151.5 -368.5t-393.5 -137.5t-392 137.5t-150 368.5q0 110 38.5 218.5t141.5 279.5l285 453h260l-334 -498q68 39 158 39zM614 162q141 0 226.5 86t85.5 231q0 144 -84.5 230t-220.5 86q-142 0 -230 -86t-88 -230
q0 -145 86 -231t225 -86z" />
    <glyph glyph-name="seven" unicode="7" horiz-adv-x="1081" 
d="M1040 1434v-191l-600 -1243h-258l600 1221h-741v213h999z" />
    <glyph glyph-name="eight" unicode="8" horiz-adv-x="1273" 
d="M885 737q134 -37 215.5 -134t81.5 -220q0 -185 -149.5 -297.5t-395.5 -112.5t-395.5 112.5t-149.5 297.5q0 123 82 220t217 134q-117 35 -187.5 126t-70.5 204q0 177 139 285t365 108t365 -108t139 -285q0 -113 -70.5 -204t-185.5 -126zM360 1044q0 -101 76 -162t201 -61
q126 0 202 61t76 162q0 103 -76 165.5t-202 62.5q-125 0 -201 -62.5t-76 -165.5zM637 170q138 0 222.5 65t84.5 171t-84.5 170.5t-222.5 64.5q-137 0 -221 -64.5t-84 -170.5t84 -171t221 -65z" />
    <glyph glyph-name="nine" unicode="9" horiz-adv-x="1228" 
d="M598 465q-239 0 -388 134t-149 357q0 231 150.5 367.5t392.5 136.5t392.5 -136.5t150.5 -367.5q0 -109 -38 -222t-142 -275l-301 -453h-260l352 498q-63 -39 -160 -39zM604 1276q-140 0 -225.5 -85t-85.5 -230t84.5 -230.5t222.5 -85.5q141 0 228 85.5t87 230.5t-85 230
t-226 85z" />
    <glyph glyph-name="colon" unicode=":" horiz-adv-x="548" 
d="M279 702q-69 0 -110.5 42.5t-41.5 111.5q0 72 41.5 113t110.5 41q72 0 112.5 -41t40.5 -113q0 -70 -41 -112t-112 -42zM279 -18q-69 0 -110.5 42t-41.5 111q0 70 41.5 112t110.5 42q72 0 112.5 -41.5t40.5 -112.5q0 -70 -41 -111.5t-112 -41.5z" />
    <glyph glyph-name="semicolon" unicode=";" horiz-adv-x="524" 
d="M137 840q-6 64 26.5 105.5t94.5 47.5q65 8 106.5 -24.5t47.5 -96.5q8 -63 -24.5 -104.5t-96.5 -48.5q-63 -6 -105 27t-49 94zM168 274h229l-147 -591h-187z" />
    <glyph glyph-name="less" unicode="&#x3c;" horiz-adv-x="1454" 
d="M1184 887l-613 -238l613 -237v-215l-912 352v201l912 352v-215z" />
    <glyph glyph-name="equal" unicode="=" horiz-adv-x="1454" 
d="M272 977h912v-205h-912v205zM272 526h912v-204h-912v204z" />
    <glyph glyph-name="greater" unicode="&#x3e;" horiz-adv-x="1454" 
d="M1184 750v-201l-912 -352v215l611 237l-611 238v215z" />
    <glyph glyph-name="question" unicode="?" horiz-adv-x="950" 
d="M334 573q2 77 13 115.5t41 74.5t104 99l92 78q96 81 96 168q0 72 -50.5 113t-131.5 41q-91 0 -168 -51.5t-129 -149.5l-164 110q65 136 186.5 212.5t278.5 76.5q176 0 287.5 -94t111.5 -250q0 -86 -40 -159.5t-134 -151.5l-86 -72q-61 -51 -76.5 -80t-15.5 -94v-100h-215
v114zM305 119q-7 64 25.5 104.5t95.5 48.5q64 6 105 -25.5t47 -94.5q8 -63 -24.5 -105t-96.5 -49q-62 -6 -104 27t-48 94z" />
    <glyph glyph-name="at" unicode="@" horiz-adv-x="1980" 
d="M1020 1356q179 1 340 -58.5t278 -165.5t185 -259t67 -330q0 -231 -106.5 -374.5t-272.5 -143.5q-99 0 -175 54.5t-99 149.5q-80 -198 -311 -198q-190 0 -300 116.5t-110 313.5q0 189 113.5 309.5t298.5 120.5q99 0 177.5 -45.5t106.5 -118.5v141h174v-524
q3 -72 36 -111.5t87 -39.5q81 0 134 88t53 243q0 199 -90 347t-242 223t-344 75q-208 0 -371.5 -90t-253.5 -251.5t-90 -368.5q0 -206 90.5 -364.5t254.5 -245.5t376 -87q230 0 383 86l84 -163q-87 -51 -209.5 -80t-259.5 -29q-197 -1 -368 64.5t-292.5 181.5t-190 280.5
t-67.5 354.5q-1 191 69.5 360t193 287.5t292 186t359.5 65.5zM954 197q106 0 177 74t71 196q0 120 -71.5 195t-176.5 75q-107 0 -174 -76.5t-67 -193.5q0 -124 66 -197t175 -73z" />
    <glyph glyph-name="A" unicode="A" horiz-adv-x="1429" 
d="M1032 307h-637l-119 -307h-251l561 1434h245l574 -1434h-252zM958 512l-243 686l-244 -686h487z" />
    <glyph glyph-name="B" unicode="B" horiz-adv-x="1396" 
d="M1024 752q132 -36 204 -125t72 -221q0 -100 -41 -178.5t-111 -127.5t-159.5 -74.5t-191.5 -25.5h-615v1434h613q208 0 328 -96t120 -265q0 -117 -56.5 -199t-162.5 -122zM416 1235v-408l370 -2q91 0 151.5 62t57.5 147q-2 84 -62 142.5t-147 58.5h-370zM803 199
q114 0 181 60.5t67 162.5q0 99 -68 159t-180 60h-387v-442h387z" />
    <glyph glyph-name="C" unicode="C" horiz-adv-x="1533" 
d="M852 -27q-171 0 -311.5 57.5t-233.5 157.5t-143.5 235.5t-50.5 291.5t51.5 292.5t145 237t234 158t308.5 57.5q204 0 364.5 -96t251.5 -270l-194 -113q-58 116 -170 186t-252 70q-222 0 -358 -147.5t-136 -374.5t134.5 -374.5t359.5 -147.5q144 0 254.5 68.5t169.5 191.5
l192 -119q-87 -178 -246.5 -269.5t-369.5 -91.5z" />
    <glyph glyph-name="D" unicode="D" horiz-adv-x="1511" 
d="M713 1434q200 0 358.5 -94t245 -257.5t86.5 -365.5q0 -152 -50.5 -284.5t-140 -228t-219 -150t-280.5 -54.5h-531v1434h531zM684 219q214 0 343.5 139.5t129.5 358.5t-129.5 358t-343.5 139h-266v-995h266z" />
    <glyph glyph-name="E" unicode="E" horiz-adv-x="1271" 
d="M1147 215v-215h-965v1434h944v-213h-708v-408h665v-211h-665v-387h729z" />
    <glyph glyph-name="F" unicode="F" horiz-adv-x="1198" 
d="M420 1221v-461h643v-217h-643v-543h-238v1434h918v-213h-680z" />
    <glyph glyph-name="G" unicode="G" horiz-adv-x="1593" 
d="M1473 786l-3 -536q-232 -279 -620 -279q-173 1 -313.5 59t-232.5 158t-141.5 234.5t-49.5 290.5q0 157 51 293.5t144.5 236.5t233.5 157.5t308 57.5q189 0 345 -82.5t251 -228.5l-193 -133q-64 107 -167.5 165t-235.5 58q-222 0 -358 -148.5t-136 -375.5
q0 -224 134 -370.5t360 -149.5q261 0 403 151v248h-340v194h560z" />
    <glyph glyph-name="H" unicode="H" horiz-adv-x="1548" 
d="M1366 1434v-1434h-236v569h-710v-569h-238v1434h238v-646h710v646h236z" />
    <glyph glyph-name="I" unicode="I" horiz-adv-x="610" 
d="M186 1434h238v-1434h-238v1434z" />
    <glyph glyph-name="J" unicode="J" horiz-adv-x="1214" 
d="M549 -31q-129 0 -242 62.5t-182.5 168.5t-75.5 228l234 76v-37q0 -109 78 -187.5t188 -78.5t188 78.5t78 187.5v967h236v-961q0 -137 -67.5 -253t-183 -183.5t-251.5 -67.5z" />
    <glyph glyph-name="K" unicode="K" horiz-adv-x="1366" 
d="M1346 1434l-691 -723l686 -711h-292l-543 551l-86 -90v-461h-238v1434h238v-672l639 672h287z" />
    <glyph glyph-name="L" unicode="L" horiz-adv-x="1189" 
d="M1126 219v-219h-944v1434h238v-1215h706z" />
    <glyph glyph-name="M" unicode="M" horiz-adv-x="1914" 
d="M1733 1434v-1434h-234v1096l-459 -1096h-184l-440 1096v-1096h-234v1434h303l463 -1166l492 1166h293z" />
    <glyph glyph-name="N" unicode="N" horiz-adv-x="1593" 
d="M1411 1434v-1434h-221l-774 1047v-1047h-234v1434h221l775 -1049v1049h233z" />
    <glyph glyph-name="O" unicode="O" horiz-adv-x="1714" 
d="M858 -27q-214 0 -384.5 95.5t-265.5 265.5t-95 383q0 160 56 298t153.5 236t236.5 153.5t299 55.5q213 0 383 -95t265.5 -265t95.5 -383t-95.5 -383t-265.5 -265.5t-383 -95.5zM858 195q215 0 357.5 148t142.5 374t-142.5 374t-357.5 148q-217 0 -359.5 -148t-142.5 -374
t142.5 -374t359.5 -148z" />
    <glyph glyph-name="P" unicode="P" horiz-adv-x="1347" 
d="M799 1434q203 0 334 -135t131 -345q0 -214 -130.5 -348.5t-334.5 -134.5h-379v-471h-238v1434h617zM768 686q111 0 181.5 72t70.5 196q0 114 -72.5 190.5t-179.5 76.5h-348v-535h348z" />
    <glyph glyph-name="Q" unicode="Q" horiz-adv-x="1712" 
d="M1604 717q0 -162 -65.5 -304t-182.5 -245l145 -182l-155 -123l-156 190q-154 -80 -334 -80q-225 0 -396.5 100.5t-260 268.5t-88.5 375q0 154 53 290t148 236t236 158.5t308 58.5q203 0 375 -99t272.5 -270.5t100.5 -373.5zM856 193q97 0 184 49l-153 188l155 125
l164 -201q70 67 111 162.5t41 200.5q0 216 -147.5 369t-354.5 153q-219 0 -359.5 -151t-140.5 -371q0 -221 139.5 -372.5t360.5 -151.5z" />
    <glyph glyph-name="R" unicode="R" horiz-adv-x="1361" 
d="M623 522h-207v-518h-236v1430h641q189 0 322 -133t133 -322q0 -160 -97.5 -280.5t-246.5 -153.5l-51 -6l393 -531l-279 -8zM416 737h375q100 0 170.5 70.5t70.5 171.5q0 100 -70.5 171t-170.5 71h-375v-484z" />
    <glyph glyph-name="S" unicode="S" horiz-adv-x="1288" 
d="M653 -27q-210 0 -359 84t-222 238l161 127q135 -236 429 -236q145 0 228 56.5t83 154.5q0 75 -56 122t-190 79l-215 51q-205 51 -303 149t-98 251q0 187 140 299t386 112q189 0 331.5 -74t211.5 -202l-162 -129q-129 194 -383 194q-138 0 -212.5 -51.5t-74.5 -144.5
q0 -70 56.5 -116t197.5 -79l223 -53q199 -49 292 -147t93 -248q0 -197 -151.5 -317t-405.5 -120z" />
    <glyph glyph-name="T" unicode="T" horiz-adv-x="1249" 
d="M508 1214h-461v220h1157v-220h-461v-1214h-235v1214z" />
    <glyph glyph-name="U" unicode="U" horiz-adv-x="1515" 
d="M762 -25q-264 0 -428 163t-164 427v869h238v-883q0 -165 94.5 -259.5t259.5 -94.5q171 0 262.5 94t91.5 260v883h238v-869q0 -266 -161 -428t-431 -162z" />
    <glyph glyph-name="V" unicode="V" horiz-adv-x="1402" 
d="M1376 1434l-532 -1434h-279l-538 1434h254l424 -1158l417 1158h254z" />
    <glyph glyph-name="W" unicode="W" horiz-adv-x="2152" 
d="M1855 1434h252l-436 -1434h-266l-315 977l-342 -977h-263l-440 1434h252l332 -1104l399 1104h121l375 -1110z" />
    <glyph glyph-name="X" unicode="X" horiz-adv-x="1304" 
d="M1001 0l-342 535l-354 -535h-274l483 725l-451 709h269l330 -529l327 529h266l-448 -711l467 -723h-273z" />
    <glyph glyph-name="Y" unicode="Y" horiz-adv-x="1312" 
d="M1311 1434l-539 -859v-575h-237v575l-533 859h270l381 -631l385 631h273z" />
    <glyph glyph-name="Z" unicode="Z" horiz-adv-x="1245" 
d="M1157 213v-213h-1069v178l750 1043h-736v213h1045v-179l-750 -1042h760z" />
    <glyph glyph-name="bracketleft" unicode="[" horiz-adv-x="776" 
d="M406 1315v-1352h301v-201h-525v1754h525v-201h-301z" />
    <glyph glyph-name="backslash" unicode="\" horiz-adv-x="1007" 
d="M774 -193l-758 1709h217l758 -1709h-217z" />
    <glyph glyph-name="bracketright" unicode="]" horiz-adv-x="776" 
d="M594 1516v-1754h-524v201h301v1352h-301v201h524z" />
    <glyph glyph-name="asciicircum" unicode="^" horiz-adv-x="1183" 
d="M883 721l-289 459l-291 -459h-246l432 663h205l434 -663h-245z" />
    <glyph glyph-name="underscore" unicode="_" horiz-adv-x="892" 
d="M0 -111h893v-168h-893v168z" />
    <glyph glyph-name="grave" unicode="`" horiz-adv-x="1269" 
d="M526 1192l-286 338h266l242 -338h-222z" />
    <glyph glyph-name="a" unicode="a" horiz-adv-x="1116" 
d="M1014 0h-195v184q-39 -97 -133 -152t-227 -55q-177 0 -274 89.5t-97 238.5q0 100 53 171t146.5 105t222.5 42t281 -17l-3 66q0 98 -64.5 147t-164.5 49q-85 0 -159.5 -35t-127.5 -100l-122 129q166 187 428 187q192 0 314 -114.5t122 -295.5v-639zM791 477
q-221 36 -350.5 -4.5t-129.5 -153.5q0 -82 50 -128t153 -46q129 0 203 71.5t74 197.5v63z" />
    <glyph glyph-name="b" unicode="b" horiz-adv-x="1304" 
d="M750 1049q223 0 353 -147t130 -384q0 -248 -126.5 -394.5t-354.5 -146.5q-130 0 -239 63.5t-153 168.5v-209h-206v1434h223v-613q29 89 130 158.5t243 69.5zM688 178q139 0 226 94.5t87 245.5q0 150 -85 243t-222 93q-140 0 -228.5 -93.5t-88.5 -242.5t87 -244.5
t224 -95.5z" />
    <glyph glyph-name="c" unicode="c" horiz-adv-x="1134" 
d="M625 -27q-239 0 -387 151.5t-148 393.5t149.5 395.5t385.5 153.5q152 0 271 -65.5t185 -184.5l-168 -117q-98 158 -280 158q-140 0 -225.5 -93.5t-85.5 -246.5q0 -151 86 -244.5t225 -93.5q89 0 161 42t119 120l170 -117q-66 -120 -186 -186t-272 -66z" />
    <glyph glyph-name="d" unicode="d" horiz-adv-x="1304" 
d="M1155 1434v-1434h-207v209q-45 -105 -153 -168.5t-238 -63.5q-229 0 -355 146t-126 395q0 237 129.5 384t353.5 147q133 0 238.5 -71t134.5 -157v613h223zM618 178q137 0 225.5 95.5t88.5 244.5t-89.5 242.5t-230.5 93.5q-135 0 -220 -93t-85 -243q0 -152 86 -246
t225 -94z" />
    <glyph glyph-name="e" unicode="e" horiz-adv-x="1224" 
d="M315 459q0 -129 95 -212t231 -83q106 0 195.5 38.5t140.5 106.5l127 -133q-66 -92 -193 -145.5t-278 -53.5q-246 0 -397.5 148.5t-151.5 390.5q0 234 151.5 382.5t387.5 148.5q258 0 396 -156t116 -432h-820zM623 877q-128 0 -216.5 -82t-93.5 -193h598q-2 121 -79 198
t-209 77z" />
    <glyph glyph-name="f" unicode="f" horiz-adv-x="815" 
d="M260 823h-219v201h219v145q0 66 24 118t64.5 83.5t90.5 47.5t106 16h237v-201h-221q-33 0 -53.5 -23t-20.5 -57v-129h291v-201h-291v-823h-227v823z" />
    <glyph glyph-name="g" unicode="g" horiz-adv-x="1320" 
d="M1171 1026v-932q0 -235 -152.5 -385.5t-393.5 -150.5q-155 0 -288 58.5t-208 154.5l104 159q65 -78 165 -125t212 -47q70 0 131 22t109 64.5t76 112t28 158.5v123q-45 -103 -138 -165.5t-222 -62.5q-232 0 -368 145.5t-136 383.5q0 228 129.5 369t351.5 141
q89 0 163 -24.5t119.5 -62.5t72 -73.5t37.5 -67.5v205h208zM629 197q138 0 227.5 90t89.5 235q0 158 -91.5 244t-219.5 86q-140 0 -226.5 -91t-86.5 -239q0 -143 84 -234t223 -91z" />
    <glyph glyph-name="h" unicode="h" horiz-adv-x="1239" 
d="M719 1044q164 0 271.5 -105.5t107.5 -268.5v-670h-230v612q0 106 -68 176t-169 70q-107 0 -179.5 -75t-72.5 -185v-598h-227v1434h227v-560q40 76 133 123t207 47z" />
    <glyph glyph-name="i" unicode="i" horiz-adv-x="534" 
d="M268 1229q-60 0 -101.5 41t-41.5 100t41.5 100t101.5 41q57 0 98.5 -41.5t41.5 -99.5t-41.5 -99.5t-98.5 -41.5zM154 1024h227v-1024h-227v1024z" />
    <glyph glyph-name="j" unicode="j" horiz-adv-x="534" 
d="M266 1231q-65 0 -105 38t-40 101t40 101t105 38q66 0 107 -38t41 -101t-41 -101t-107 -38zM-82 -209h115q57 0 88 31t31 88v1114h229v-1155q0 -131 -78.5 -205t-218.5 -74h-166v201z" />
    <glyph glyph-name="k" unicode="k" horiz-adv-x="1114" 
d="M831 0l-393 401l-59 -67v-334h-227v1434h227v-838l450 428h265l-484 -475l492 -549h-271z" />
    <glyph glyph-name="l" unicode="l" horiz-adv-x="518" 
d="M143 0v1434h228v-1434h-228z" />
    <glyph glyph-name="m" unicode="m" horiz-adv-x="1878" 
d="M1376 1049q156 0 258.5 -111t102.5 -276v-662h-230v602q0 104 -63.5 173t-157.5 69q-98 0 -162.5 -70.5t-64.5 -171.5v-602h-228v602q0 103 -66 172.5t-159 69.5q-98 0 -161.5 -70t-63.5 -172v-602h-227v1024h223v-162q42 83 130.5 135t194.5 52q111 0 201.5 -60
t124.5 -153q39 93 135 153t213 60z" />
    <glyph glyph-name="n" unicode="n" horiz-adv-x="1234" 
d="M717 1049q157 0 267 -109t110 -264v-676h-230v600q0 100 -70 171.5t-171 72.5q-101 0 -172.5 -72t-71.5 -172l2 -600h-229v1024h223v-172q44 89 138 143t204 54z" />
    <glyph glyph-name="o" unicode="o" horiz-adv-x="1273" 
d="M637 -25q-245 0 -397 151t-152 394q0 232 155 380.5t400 148.5q241 0 392 -148t151 -381q0 -240 -153 -392.5t-396 -152.5zM637 172q141 0 230 95.5t89 246.5t-88 247.5t-225 96.5q-144 0 -234 -95.5t-90 -248.5q0 -152 88.5 -247t229.5 -95z" />
    <glyph glyph-name="p" unicode="p" horiz-adv-x="1320" 
d="M750 1047q228 0 353.5 -145.5t125.5 -395.5q0 -236 -130 -382.5t-354 -146.5q-140 0 -240.5 69.5t-129.5 158.5v-576h-223v1395h206v-209q44 105 153 168.5t239 63.5zM692 170q135 0 221 93.5t86 242.5q0 152 -87 247t-226 95q-137 0 -224 -95.5t-87 -246.5
q0 -148 88 -242t229 -94z" />
    <glyph glyph-name="q" unicode="q" horiz-adv-x="1320" 
d="M1169 1024v-1427h-223v608q-29 -89 -130 -158.5t-243 -69.5q-222 0 -352.5 146.5t-130.5 382.5q0 250 126 395.5t355 145.5q130 0 239 -63.5t153 -168.5v209h206zM629 170q141 0 229 94t88 242q0 151 -87 246.5t-224 95.5q-139 0 -226 -95t-87 -247q0 -149 86 -242.5
t221 -93.5z" />
    <glyph glyph-name="r" unicode="r" horiz-adv-x="841" 
d="M700 1047q45 0 95 -13l-4 -217q-65 6 -132 6q-132 0 -206 -77t-74 -216v-530h-227v1024h221v-184q45 94 132.5 150.5t194.5 56.5z" />
    <glyph glyph-name="s" unicode="s" horiz-adv-x="1042" 
d="M532 -27q-150 0 -272.5 49t-191.5 136l102 153q63 -69 160.5 -110t204.5 -41q97 0 147.5 35.5t50.5 95.5q0 46 -35 75.5t-116 49.5l-195 47q-146 35 -213.5 104t-67.5 176q0 150 113 237t309 87q134 0 245 -43t175 -117l-104 -153q-137 125 -316 125q-96 0 -145 -33
t-49 -94q0 -44 33.5 -71.5t115.5 -47.5l195 -47q151 -38 219 -107.5t68 -177.5q0 -152 -115 -240t-318 -88z" />
    <glyph glyph-name="t" unicode="t" horiz-adv-x="851" 
d="M459 0q-89 0 -152 63t-63 152l2 608h-203v201h203v324h227v-324h301v-201h-301v-590q0 -12 8.5 -20t20.5 -8h276v-205h-319z" />
    <glyph glyph-name="u" unicode="u" horiz-adv-x="1230" 
d="M1079 1024v-1024h-223v172q-44 -89 -138 -144t-204 -55q-157 0 -267 110t-110 265v676h230v-600q0 -101 70.5 -171.5t170.5 -72.5q100 0 172 71.5t72 172.5l-2 600h229z" />
    <glyph glyph-name="v" unicode="v" horiz-adv-x="1120" 
d="M1094 1024l-408 -1024h-250l-409 1024h245l289 -748l287 748h246z" />
    <glyph glyph-name="w" unicode="w" horiz-adv-x="1732" 
d="M1698 1040l-336 -1040h-254l-242 739l-243 -739h-254l-334 1040h233l240 -768l254 768h209l254 -768l239 768h234z" />
    <glyph glyph-name="x" unicode="x" horiz-adv-x="1101" 
d="M813 0l-264 377l-262 -377h-256l372 532l-352 492h254l246 -338l242 338h254l-351 -494l373 -530h-256z" />
    <glyph glyph-name="y" unicode="y" horiz-adv-x="1128" 
d="M1104 1040l-475 -1202q-47 -128 -140 -188t-239 -60h-207v205h170q89 0 138.5 29t72.5 92l39 92l-426 1032h244l294 -766l283 766h246z" />
    <glyph glyph-name="z" unicode="z" horiz-adv-x="1013" 
d="M926 195v-195h-844v152l543 694h-525v194h822v-151l-543 -694h547z" />
    <glyph glyph-name="braceleft" unicode="{" horiz-adv-x="765" 
d="M455 885q0 -107 -41.5 -166.5t-130.5 -79.5q89 -20 130.5 -79.5t41.5 -166.5v-272q0 -89 32 -123.5t115 -34.5h94v-201h-168q-163 0 -230 66.5t-67 226.5v338q0 78 -33.5 112t-109.5 34h-14v200h14q76 0 109.5 34.5t33.5 111.5v338q0 160 67 226.5t230 66.5h168v-201h-94
q-83 0 -115 -34.5t-32 -123.5v-272z" />
    <glyph glyph-name="bar" unicode="|" horiz-adv-x="638" 
d="M223 1567h193v-1772h-193v1772z" />
    <glyph glyph-name="braceright" unicode="}" horiz-adv-x="765" 
d="M692 739v-200h-14q-76 0 -109.5 -34t-33.5 -112v-338q0 -160 -67 -226.5t-230 -66.5h-168v201h94q83 0 115 34.5t32 123.5v272q0 107 41.5 166.5t130.5 79.5q-89 20 -130.5 79.5t-41.5 166.5v272q0 89 -32 123.5t-115 34.5h-94v201h168q163 0 230 -66.5t67 -226.5v-338
q0 -77 33.5 -111.5t109.5 -34.5h14z" />
    <glyph glyph-name="asciitilde" unicode="~" horiz-adv-x="1454" 
d="M522 602q-65 0 -122.5 -22t-127.5 -72v203q121 92 252 92q69 0 209 -53.5t201 -53.5q131 0 250 95v-203q-126 -94 -250 -94q-70 0 -206 54t-206 54z" />
    <glyph glyph-name="uni00A0" unicode="&#xa0;" horiz-adv-x="473" 
 />
    <glyph glyph-name="exclamdown" unicode="&#xa1;" horiz-adv-x="616" 
d="M444 920q8 -62 -24 -104t-96 -48q-62 -8 -104 25t-48 96q-7 64 25.5 104.5t95.5 46.5q64 8 104.5 -24t46.5 -96zM412 582l18 -977h-244l19 977h207z" />
    <glyph glyph-name="cent" unicode="&#xa2;" horiz-adv-x="1134" 
d="M1083 225q-60 -108 -163.5 -173t-235.5 -77v-235h-86v233q-228 9 -368 159.5t-140 385.5t141 387.5t367 161.5v186h86v-188q131 -12 234 -76.5t163 -171.5l-168 -117q-82 136 -229 154v-670q147 21 229 158zM322 518q0 -141 75 -232.5t201 -103.5v674
q-127 -12 -201.5 -103t-74.5 -235z" />
    <glyph glyph-name="sterling" unicode="&#xa3;" horiz-adv-x="1103" 
d="M444 205h603v-205h-988v205h154v418h-152v165h152v250q0 200 107.5 311t306.5 111q295 0 428 -241l-174 -119q-86 143 -236 143q-97 0 -149 -56.5t-52 -164.5v-234h476v-165h-476v-418z" />
    <glyph glyph-name="currency" unicode="&#xa4;" horiz-adv-x="1138" 
d="M995 711q0 -138 -73 -242l129 -129l-103 -107l-135 136q-103 -70 -242 -70q-140 0 -241 72l-137 -138l-105 107l129 129q-72 107 -72 242q0 136 72 243l-127 129l103 107l137 -137q100 71 241 71q142 0 242 -71l135 137l103 -107l-127 -129q71 -106 71 -243zM571 487
q98 0 159 62.5t61 161.5q0 100 -61 162.5t-159 62.5q-99 0 -160 -62.5t-61 -162.5q0 -99 61 -161.5t160 -62.5z" />
    <glyph glyph-name="yen" unicode="&#xa5;" horiz-adv-x="1204" 
d="M768 725h313v-137h-362v-182h362v-140h-362v-266h-234v266h-360v140h360v182h-360v137h309l-411 709h245l334 -588l334 588h246z" />
    <glyph glyph-name="brokenbar" unicode="&#xa6;" horiz-adv-x="638" 
d="M223 1567h193v-729h-193v729zM223 508h193v-713h-193v713z" />
    <glyph glyph-name="section" unicode="&#xa7;" horiz-adv-x="1128" 
d="M817 348q205 -78 205 -274q0 -160 -116 -250t-331 -90q-155 0 -281 48t-196 134l103 154q62 -68 162 -107t219 -39q209 0 209 142q0 59 -38.5 94t-125.5 55l-195 47q-153 37 -229 111t-76 190q0 102 56.5 179t158.5 106q-205 75 -205 272q0 159 116 249.5t327 90.5
q141 0 252.5 -42t175.5 -118l-105 -151q-133 121 -323 121q-211 0 -211 -144q0 -57 36.5 -90.5t122.5 -52.5l195 -47q157 -38 232 -112t75 -189q0 -104 -56.5 -181t-156.5 -106zM348 602q0 -71 42 -111.5t138 -62.5l60 -10q105 -16 163 36.5t58 141.5q0 69 -42.5 109
t-139.5 65l-60 8q-105 16 -162 -36t-57 -140z" />
    <glyph glyph-name="dieresis" unicode="&#xa8;" horiz-adv-x="1269" 
d="M397 1229q-64 0 -103.5 39t-39.5 102q0 62 39.5 100.5t103.5 38.5q63 0 102.5 -38.5t39.5 -100.5q0 -63 -39.5 -102t-102.5 -39zM872 1229q-63 0 -102 39t-39 102q0 62 39 100.5t102 38.5q64 0 104 -38.5t40 -100.5q0 -63 -40 -102t-104 -39z" />
    <glyph glyph-name="copyright" unicode="&#xa9;" horiz-adv-x="1703" 
d="M852 -27q-151 -2 -289.5 57t-238.5 159.5t-158 239t-57 288.5q-1 150 57 288.5t158 239t238.5 159t289.5 56.5q151 2 289.5 -56.5t238.5 -159t158 -239t57 -288.5q1 -150 -57 -288.5t-158 -239t-238.5 -159.5t-289.5 -57zM852 86q171 -2 314 83.5t224.5 231t79.5 316.5
q2 171 -79.5 316.5t-224.5 230.5t-314 84q-129 1 -245 -49.5t-198.5 -135.5t-130.5 -201.5t-47 -244.5q-2 -171 79.5 -316.5t225.5 -231t316 -83.5zM874 291q-189 0 -304 119t-115 309t115 308t304 118q120 0 213 -50t142 -143l-135 -94q-69 119 -215 119
q-105 0 -171.5 -70.5t-66.5 -187.5q0 -119 66 -189.5t172 -70.5q146 0 215 119l135 -95q-49 -92 -142.5 -142t-212.5 -50z" />
    <glyph glyph-name="guillemotleft" unicode="&#xab;" horiz-adv-x="1159" 
d="M295 520l309 -444h-239l-312 444l312 443h239zM782 520l310 -444h-240l-311 444l311 443h240z" />
    <glyph glyph-name="logicalnot" unicode="&#xac;" horiz-adv-x="1454" 
d="M1184 752v-416h-213v211h-699v205h912z" />
    <glyph glyph-name="registered" unicode="&#xae;" horiz-adv-x="1124" 
d="M561 1462q189 0 322 -132t133 -318q0 -92 -36 -176t-97 -144.5t-145 -96.5t-177 -36q-124 0 -228 60.5t-164 165t-60 227.5q0 186 131.5 318t320.5 132zM561 645q151 0 255 107t104 260q0 152 -104 258t-255 106t-253.5 -106t-102.5 -258q0 -153 102.5 -260t253.5 -107z
M762 1104q0 -131 -129 -146l139 -180h-100l-129 176h-68v-176h-88v475h205q83 0 126.5 -38.5t43.5 -110.5zM475 1028h111q84 0 84 74q0 72 -84 72h-111v-146z" />
    <glyph glyph-name="macron" unicode="&#xaf;" horiz-adv-x="1425" 
d="M381 1350h663v-181h-663v181z" />
    <glyph glyph-name="degree" unicode="&#xb0;" horiz-adv-x="776" 
d="M387 829q-140 0 -232 90t-92 226q0 135 91.5 225t232.5 90q142 0 234 -89.5t92 -225.5t-92 -226t-234 -90zM387 979q72 0 118 46.5t46 119.5t-46 119.5t-118 46.5q-71 0 -116.5 -46.5t-45.5 -119.5t45.5 -119.5t116.5 -46.5z" />
    <glyph glyph-name="plusminus" unicode="&#xb1;" horiz-adv-x="1454" 
d="M1184 868v-204h-348v-324h-215v324h-349v204h349v324h215v-324h348zM272 205h912v-205h-912v205z" />
    <glyph glyph-name="acute" unicode="&#xb4;" horiz-adv-x="1269" 
d="M768 1530h266l-286 -338h-222z" />
    <glyph glyph-name="uni00B5" unicode="&#xb5;" horiz-adv-x="1247" 
d="M1096 1040v-1040h-203v172q-34 -94 -111 -146.5t-184 -52.5q-152 0 -219 111v-535h-227v1491h227v-610q0 -250 223 -250q126 0 195 75.5t69 223.5v561h230z" />
    <glyph glyph-name="paragraph" unicode="&#xb6;" horiz-adv-x="1341" 
d="M487 809h-28q-170 0 -267.5 87t-97.5 226q0 141 103.5 226.5t294.5 85.5h192v-1700h-197v1075zM920 1434h198v-1700h-198v1700z" />
    <glyph glyph-name="cedilla" unicode="&#xb8;" horiz-adv-x="1269" 
d="M551 23h194l-122 -431h-232z" />
    <glyph glyph-name="guillemotright" unicode="&#xbb;" horiz-adv-x="1159" 
d="M377 520l-309 443h239l311 -443l-311 -444h-239zM1106 520l-311 -444h-240l309 444l-309 443h240z" />
    <glyph glyph-name="questiondown" unicode="&#xbf;" horiz-adv-x="950" 
d="M645 920q8 -62 -24.5 -104t-96.5 -48q-62 -8 -103.5 25t-47.5 96q-7 64 25.5 104.5t95.5 46.5q65 8 105 -24t46 -96zM616 465q-3 -107 -27.5 -153t-129.5 -136l-92 -76q-97 -85 -97 -170q0 -72 50.5 -111.5t132.5 -39.5q92 0 168.5 50.5t128.5 147.5l163 -108
q-65 -137 -186.5 -214t-277.5 -77q-176 0 -288 95t-112 251q0 86 40 159t134 150l86 72q61 52 76.5 81.5t15.5 92.5v103h215v-117z" />
    <glyph glyph-name="Agrave" unicode="&#xc0;" horiz-adv-x="1439" 
d="M598 1585l-225 338h227l219 -338h-221zM1032 307h-637l-119 -307h-251l561 1434h245l574 -1434h-252zM958 512l-243 686l-244 -686h487z" />
    <glyph glyph-name="Aacute" unicode="&#xc1;" horiz-adv-x="1439" 
d="M846 1585h-221l219 338h227zM1032 307h-637l-119 -307h-251l561 1434h245l574 -1434h-252zM958 512l-243 686l-244 -686h487z" />
    <glyph glyph-name="Acircumflex" unicode="&#xc2;" horiz-adv-x="1439" 
d="M555 1585h-229l295 338h225l295 -338h-230l-178 209zM1032 307h-637l-119 -307h-251l561 1434h245l574 -1434h-252zM958 512l-243 686l-244 -686h487z" />
    <glyph glyph-name="Atilde" unicode="&#xc3;" horiz-adv-x="1439" 
d="M723 1675q-59 47 -109 47q-71 0 -71 -108h-166q0 138 49 210t141 72q45 0 84 -15.5t90 -51.5q65 -47 111 -47q70 0 70 108h168q0 -138 -50 -210t-143 -72q-43 0 -82.5 15.5t-91.5 51.5zM1032 307h-637l-119 -307h-251l561 1434h245l574 -1434h-252zM958 512l-243 686
l-244 -686h487z" />
    <glyph glyph-name="Adieresis" unicode="&#xc4;" horiz-adv-x="1439" 
d="M496 1620q-60 0 -102 41.5t-42 101.5q0 59 42 101.5t102 42.5q58 0 99.5 -42.5t41.5 -101.5q0 -60 -41 -101.5t-100 -41.5zM973 1620q-60 0 -102 41.5t-42 101.5q0 59 42 101.5t102 42.5q58 0 99.5 -42.5t41.5 -101.5q0 -60 -41 -101.5t-100 -41.5zM1032 307h-637
l-119 -307h-251l561 1434h245l574 -1434h-252zM958 512l-243 686l-244 -686h487z" />
    <glyph glyph-name="Aring" unicode="&#xc5;" horiz-adv-x="1439" 
d="M537 1753q-34 75 0 150.5t118 107.5q84 31 161.5 1t113.5 -105q34 -75 -0.5 -150.5t-118.5 -107.5q-84 -31 -162 -0.5t-112 104.5zM797 1894q-30 29 -64 28.5t-65 -28.5q-30 -30 -29 -64t31 -65q30 -29 64 -28.5t65 28.5q30 30 29 64t-31 65zM1032 307h-637l-119 -307
h-251l561 1434h245l574 -1434h-252zM958 512l-243 686l-244 -686h487z" />
    <glyph glyph-name="AE" unicode="&#xc6;" horiz-adv-x="2226" 
d="M2103 217v-217h-1020v326h-575l-211 -326h-281l928 1434h1139v-217h-766v-383h723v-218h-723v-399h786zM1083 522v711l-460 -711h460z" />
    <glyph glyph-name="Ccedilla" unicode="&#xc7;" horiz-adv-x="1538" 
d="M852 193q144 0 254.5 68.5t169.5 191.5l192 -119q-81 -164 -223 -254.5t-330 -104.5l-104 -383h-233l143 390q-284 42 -446 243.5t-162 489.5q0 156 51.5 292.5t145 237t234 158t308.5 57.5q204 0 364.5 -96t251.5 -270l-194 -113q-59 121 -169.5 188.5t-252.5 67.5
q-222 0 -358 -147.5t-136 -374.5t134.5 -374.5t359.5 -147.5z" />
    <glyph glyph-name="Egrave" unicode="&#xc8;" horiz-adv-x="1327" 
d="M627 1585l-226 338h228l219 -338h-221zM1198 215v-215h-1016v1434h996v-213h-760v-424h717v-211h-717v-371h780z" />
    <glyph glyph-name="Eacute" unicode="&#xc9;" horiz-adv-x="1327" 
d="M745 1585h-221l219 338h230zM1204 215v-215h-1022v1434h1002v-213h-766v-406h719v-211h-719v-389h786z" />
    <glyph glyph-name="Ecircumflex" unicode="&#xca;" horiz-adv-x="1327" 
d="M850 1585l-178 209l-178 -209h-228l293 338h225l295 -338h-229zM1198 215v-215h-1016v1434h996v-213h-760v-424h717v-211h-717v-371h780z" />
    <glyph glyph-name="Edieresis" unicode="&#xcb;" horiz-adv-x="1327" 
d="M289 1765q0 60 42.5 102t102.5 42q57 0 99 -42t42 -102q0 -59 -41.5 -100t-99.5 -41q-60 0 -102.5 40.5t-42.5 100.5zM766 1765q0 60 42.5 102t102.5 42q57 0 99.5 -42.5t42.5 -101.5t-42 -100t-100 -41q-60 0 -102.5 40.5t-42.5 100.5zM1198 215v-215h-1016v1434h996
v-213h-760v-424h717v-211h-717v-371h780z" />
    <glyph glyph-name="Igrave" unicode="&#xcc;" horiz-adv-x="610" 
d="M231 1585l-264 338h266l220 -338h-222zM186 1434h238v-1434h-238v1434z" />
    <glyph glyph-name="Iacute" unicode="&#xcd;" horiz-adv-x="610" 
d="M416 1913h266l-264 -338h-221zM186 1434h238v-1434h-238v1434z" />
    <glyph glyph-name="Icircumflex" unicode="&#xce;" horiz-adv-x="610" 
d="M711 1585h-228l-178 209l-178 -209h-229l295 338h225zM186 1434h238v-1434h-238v1434z" />
    <glyph glyph-name="Idieresis" unicode="&#xcf;" horiz-adv-x="610" 
d="M66 1624q-63 0 -102.5 38.5t-39.5 100.5t39.5 102t102.5 40q64 0 103.5 -40t39.5 -102t-39.5 -100.5t-103.5 -38.5zM543 1624q-63 0 -103.5 39t-40.5 100q0 62 40.5 102t103.5 40q64 0 103.5 -40t39.5 -102t-39.5 -100.5t-103.5 -38.5zM186 1434h238v-1434h-238v1434z
" />
    <glyph glyph-name="Eth" unicode="&#xd0;" horiz-adv-x="1574" 
d="M1466 717q0 -223 -90 -386.5t-250 -247t-372 -83.5h-523v623h-196v188h196v623h523q212 0 372 -83.5t250 -247t90 -386.5zM1219 717q0 245 -122 371t-343 126h-285v-403h346v-188h-346v-404h285q220 0 342.5 127t122.5 371z" />
    <glyph glyph-name="Eth" unicode="&#xf0;" horiz-adv-x="1574" 
d="M1466 717q0 -223 -90 -386.5t-250 -247t-372 -83.5h-523v623h-196v188h196v623h523q212 0 372 -83.5t250 -247t90 -386.5zM1219 717q0 245 -122 371t-343 126h-285v-403h346v-188h-346v-404h285q220 0 342.5 127t122.5 371z" />
    <glyph glyph-name="Ntilde" unicode="&#xd1;" horiz-adv-x="1605" 
d="M686 1722q-72 0 -72 -108h-168q0 138 50 210t143 72q43 0 82.5 -15.5t91.5 -51.5q62 -47 111 -47q69 0 69 108h168q0 -139 -49.5 -210.5t-142.5 -71.5q-43 0 -82.5 15.5t-91.5 51.5q-62 47 -109 47zM1423 1434v-1434h-221l-786 1047v-1047h-234v1434h221l789 -1049v1049
h231z" />
    <glyph glyph-name="Ograve" unicode="&#xd2;" horiz-adv-x="1703" 
d="M788 1585l-225 338h230l219 -338h-224zM858 -27q-214 0 -384.5 95.5t-265.5 265.5t-95 383q0 160 56 298t153.5 236t236.5 153.5t299 55.5q213 0 383 -95t265.5 -265t95.5 -383t-95.5 -383t-265.5 -265.5t-383 -95.5zM858 195q215 0 357.5 148t142.5 374t-142.5 374
t-357.5 148q-217 0 -359.5 -148t-142.5 -374t142.5 -374t359.5 -148z" />
    <glyph glyph-name="Oacute" unicode="&#xd3;" horiz-adv-x="1703" 
d="M928 1585h-221l219 338h227zM858 -27q-214 0 -384.5 95.5t-265.5 265.5t-95 383q0 160 56 298t153.5 236t236.5 153.5t299 55.5q213 0 383 -95t265.5 -265t95.5 -383t-95.5 -383t-265.5 -265.5t-383 -95.5zM858 195q215 0 357.5 148t142.5 374t-142.5 374t-357.5 148
q-217 0 -359.5 -148t-142.5 -374t142.5 -374t359.5 -148z" />
    <glyph glyph-name="Ocircumflex" unicode="&#xd4;" horiz-adv-x="1703" 
d="M674 1585h-228l293 338h226l295 -338h-230l-178 209zM858 -27q-214 0 -384.5 95.5t-265.5 265.5t-95 383q0 160 56 298t153.5 236t236.5 153.5t299 55.5q213 0 383 -95t265.5 -265t95.5 -383t-95.5 -383t-265.5 -265.5t-383 -95.5zM858 195q215 0 357.5 148t142.5 374
t-142.5 374t-357.5 148q-217 0 -359.5 -148t-142.5 -374t142.5 -374t359.5 -148z" />
    <glyph glyph-name="Otilde" unicode="&#xd5;" horiz-adv-x="1703" 
d="M1018 1608q-45 0 -84.5 15.5t-91.5 51.5q-59 47 -109 47q-69 0 -69 -108h-168q0 139 49.5 210.5t142.5 71.5q43 0 82.5 -15.5t91.5 -51.5q62 -47 109 -47q71 0 71 108h166q0 -139 -48.5 -210.5t-141.5 -71.5zM852 -27q-157 -2 -296 55t-237.5 156t-154.5 237.5t-55 293.5
q-2 208 94.5 380t268 270t380.5 95q209 3 380.5 -95t268 -270t94.5 -380q1 -155 -55 -293.5t-154.5 -237.5t-237.5 -156t-296 -55zM852 197q217 0 356.5 145.5t139.5 372.5q0 229 -139.5 375.5t-356.5 146.5t-356.5 -146.5t-139.5 -375.5q0 -227 139.5 -372.5t356.5 -145.5z
" />
    <glyph glyph-name="Odieresis" unicode="&#xd6;" horiz-adv-x="1703" 
d="M614 1624q-60 0 -102.5 40.5t-42.5 100.5t42.5 102t102.5 42q58 0 100 -42.5t42 -101.5t-42 -100t-100 -41zM1092 1624q-60 0 -103 40.5t-43 100.5t43 102t103 42q57 0 99 -42t42 -102q0 -59 -41.5 -100t-99.5 -41zM858 -27q-214 0 -384.5 95.5t-265.5 265.5t-95 383
q0 160 56 298t153.5 236t236.5 153.5t299 55.5q213 0 383 -95t265.5 -265t95.5 -383t-95.5 -383t-265.5 -265.5t-383 -95.5zM858 195q215 0 357.5 148t142.5 374t-142.5 374t-357.5 148q-217 0 -359.5 -148t-142.5 -374t142.5 -374t359.5 -148z" />
    <glyph glyph-name="multiply" unicode="&#xd7;" horiz-adv-x="1454" 
d="M866 649l293 -293l-139 -139l-293 293l-293 -293l-139 139l293 293l-293 293l139 139l293 -293l293 293l139 -139z" />
    <glyph glyph-name="Oslash" unicode="&#xd8;" horiz-adv-x="1703" 
d="M1595 715q1 -155 -55 -293.5t-154.5 -237.5t-237.5 -156t-296 -55q-268 0 -463 156l-147 -147l-125 122l147 146q-155 193 -155 465q-2 208 94.5 380t268 270t380.5 95q268 0 465 -155l149 149l125 -123l-149 -149q153 -197 153 -467zM356 715q0 -163 84 -293l711 713
q-124 102 -299 102q-217 0 -356.5 -146.5t-139.5 -375.5zM1348 715q0 170 -84 295l-711 -711q124 -102 299 -102q217 0 356.5 145.5t139.5 372.5z" />
    <glyph glyph-name="Ugrave" unicode="&#xd9;" horiz-adv-x="1513" 
d="M674 1585l-225 338h227l219 -338h-221zM762 -27q-264 0 -428 164t-164 428v869h238v-883q0 -165 94.5 -259.5t259.5 -94.5q171 0 262.5 94t91.5 260v883h238v-869q0 -266 -161 -429t-431 -163z" />
    <glyph glyph-name="Uacute" unicode="&#xda;" horiz-adv-x="1513" 
d="M823 1585h-221l219 338h228zM762 -27q-264 0 -428 164t-164 428v869h238v-883q0 -165 94.5 -259.5t259.5 -94.5q171 0 262.5 94t91.5 260v883h238v-869q0 -266 -161 -429t-431 -163z" />
    <glyph glyph-name="Ucircumflex" unicode="&#xdb;" horiz-adv-x="1513" 
d="M934 1585l-178 209l-176 -209h-230l293 338h227l293 -338h-229zM762 -27q-264 0 -428 164t-164 428v869h238v-883q0 -165 94.5 -259.5t259.5 -94.5q171 0 262.5 94t91.5 260v883h238v-869q0 -266 -161 -429t-431 -163z" />
    <glyph glyph-name="Udieresis" unicode="&#xdc;" horiz-adv-x="1513" 
d="M518 1624q-60 0 -101.5 40.5t-41.5 100.5t41.5 102t101.5 42q59 0 100 -42t41 -102t-41 -100.5t-100 -40.5zM995 1624q-60 0 -102.5 40.5t-42.5 100.5t42.5 102t102.5 42q57 0 99.5 -42.5t42.5 -101.5t-42 -100t-100 -41zM762 -27q-264 0 -428 164t-164 428v869h238v-883
q0 -165 94.5 -259.5t259.5 -94.5q171 0 262.5 94t91.5 260v883h238v-869q0 -266 -161 -429t-431 -163z" />
    <glyph glyph-name="Yacute" unicode="&#xdd;" horiz-adv-x="1318" 
d="M731 1585h-221l219 338h227zM1331 1434l-549 -859v-575h-237v575l-543 859h270l392 -631l395 631h272z" />
    <glyph glyph-name="Thorn" unicode="&#xde;" horiz-adv-x="1370" 
d="M1288 731q0 -229 -133.5 -347t-392.5 -118h-342v-266h-238v1434h238v-238h342q259 0 392.5 -118t133.5 -347zM1042 731q0 246 -290 246h-332v-496h332q290 0 290 250z" />
    <glyph glyph-name="germandbls" unicode="&#xdf;" horiz-adv-x="1294" 
d="M864 764q167 -12 260 -108t93 -253q0 -186 -125 -294.5t-349 -108.5h-180v199h144q138 0 208 58t70 169q0 221 -285 221h-137v203h64q133 0 203.5 58.5t70.5 172.5q0 111 -66.5 170.5t-191.5 59.5q-264 0 -264 -269v-1042h-227v1053q0 221 128 342t363 121
q224 0 354.5 -110t130.5 -296q0 -134 -68.5 -224.5t-195.5 -121.5z" />
    <glyph glyph-name="agrave" unicode="&#xe0;" horiz-adv-x="1120" 
d="M528 1192l-264 338h266l220 -338h-222zM1014 0h-195v184q-39 -97 -133 -152t-227 -55q-170 0 -270.5 91t-100.5 237q0 100 54.5 171t149.5 105t223.5 42t275.5 -17l-3 78q0 89 -57 136.5t-153 47.5q-87 0 -164 -35.5t-129 -99.5l-123 129q61 81 184.5 133t249.5 52
q192 0 305 -107.5t113 -290.5v-649zM791 477q-221 36 -350.5 -4.5t-129.5 -153.5q0 -80 54 -127t149 -47q129 0 203 71.5t74 197.5v63z" />
    <glyph glyph-name="aacute" unicode="&#xe1;" horiz-adv-x="1153" 
d="M750 1192h-222l220 338h223zM1030 0h-194v184q-37 -96 -132 -151.5t-229 -55.5q-170 0 -278.5 91.5t-108.5 236.5q0 80 37 142t103 99.5t156.5 58.5t197 19.5t225.5 -18.5l-2 78q0 88 -56 136t-147 48t-170 -35.5t-131 -99.5l-123 129q61 80 183 132.5t241 52.5
q210 0 319 -105.5t109 -292.5v-649zM807 477q-222 36 -359 -4.5t-137 -153.5q0 -79 61.5 -126.5t157.5 -47.5q129 0 203 71.5t74 197.5v63z" />
    <glyph glyph-name="acircumflex" unicode="&#xe2;" horiz-adv-x="1138" 
d="M795 1192l-179 207l-176 -207h-229l293 338h227l293 -338h-229zM1014 0h-195v184q-39 -97 -133 -152t-227 -55q-170 0 -270.5 91t-100.5 237q0 100 54.5 171t149.5 105t223.5 42t275.5 -17l-3 78q0 89 -57 136.5t-153 47.5q-87 0 -164 -35.5t-129 -99.5l-123 129
q61 81 184.5 133t249.5 52q192 0 305 -107.5t113 -290.5v-649zM791 477q-221 36 -350.5 -4.5t-129.5 -153.5q0 -80 54 -127t149 -47q129 0 203 71.5t74 197.5v63z" />
    <glyph glyph-name="atilde" unicode="&#xe3;" horiz-adv-x="1103" 
d="M651 1280q-58 49 -108 49q-70 0 -70 -108h-168q0 138 50 210t143 72q80 0 174 -67q62 -50 108 -50q72 0 72 111h166q0 -139 -50 -212t-141 -73q-84 0 -176 68zM1014 0h-195v184q-39 -97 -133 -152t-227 -55q-170 0 -270.5 91t-100.5 237q0 100 54.5 171t149.5 105
t223.5 42t275.5 -17l-3 78q0 89 -57 136.5t-153 47.5q-87 0 -164 -35.5t-129 -99.5l-123 129q61 81 184.5 133t249.5 52q192 0 305 -107.5t113 -290.5v-649zM791 477q-221 36 -350.5 -4.5t-129.5 -153.5q0 -80 54 -127t149 -47q129 0 203 71.5t74 197.5v63z" />
    <glyph glyph-name="adieresis" unicode="&#xe4;" horiz-adv-x="1181" 
d="M432 1229q-59 0 -101 41.5t-42 101.5q0 59 42.5 101.5t100.5 42.5t100.5 -42.5t42.5 -101.5q0 -60 -42 -101.5t-101 -41.5zM909 1229q-60 0 -101.5 41.5t-41.5 101.5q0 59 41.5 101.5t101.5 42.5q58 0 100 -42.5t42 -101.5q0 -60 -41.5 -101.5t-100.5 -41.5zM1014 0h-195
v184q-39 -97 -133 -152t-227 -55q-170 0 -270.5 91t-100.5 237q0 100 54.5 171t149.5 105t223.5 42t275.5 -17l-3 78q0 89 -57 136.5t-153 47.5q-87 0 -164 -35.5t-129 -99.5l-123 129q61 81 184.5 133t249.5 52q192 0 305 -107.5t113 -290.5v-649zM791 477
q-221 36 -350.5 -4.5t-129.5 -153.5q0 -80 54 -127t149 -47q129 0 203 71.5t74 197.5v63z" />
    <glyph glyph-name="aring" unicode="&#xe5;" horiz-adv-x="1198" 
d="M625 1178q-118 0 -196.5 75t-78.5 183t78.5 183t196.5 75q116 0 195 -75t79 -183t-79 -183t-195 -75zM625 1563q-60 0 -94.5 -34t-34.5 -93t34.5 -93t94.5 -34t94.5 34t34.5 93t-34.5 93t-94.5 34zM1014 0h-195v184q-39 -97 -133 -152t-227 -55q-170 0 -270.5 91
t-100.5 237q0 100 54.5 171t149.5 105t223.5 42t275.5 -17l-3 78q0 89 -57 136.5t-153 47.5q-87 0 -164 -35.5t-129 -99.5l-123 129q61 81 184.5 133t249.5 52q192 0 305 -107.5t113 -290.5v-649zM791 477q-221 36 -350.5 -4.5t-129.5 -153.5q0 -80 54 -127t149 -47
q129 0 203 71.5t74 197.5v63z" />
    <glyph glyph-name="ae" unicode="&#xe6;" horiz-adv-x="1914" 
d="M1315 1047q257 0 394.5 -156t117.5 -432h-821q0 -130 94.5 -212.5t230.5 -82.5q106 0 196.5 39t139.5 106l129 -133q-66 -92 -194 -145.5t-279 -53.5q-146 0 -262 55t-187 156q-80 -108 -192.5 -159.5t-239.5 -51.5q-169 0 -269.5 91t-100.5 237q0 100 54.5 171t149 105
t223 42t275.5 -17v78q0 88 -58 136t-155 48q-86 0 -163 -35.5t-128 -99.5l-125 129q62 81 186.5 133t248.5 52q230 0 344 -152q152 152 391 152zM1004 602h598q-2 121 -79 198t-208 77q-129 0 -217.5 -81.5t-93.5 -193.5zM776 406v71q-223 36 -352 -4.5t-129 -153.5
q0 -80 54.5 -127t150.5 -47q133 0 204.5 70.5t71.5 190.5z" />
    <glyph glyph-name="ccedilla" unicode="&#xe7;" horiz-adv-x="1134" 
d="M1083 225q-55 -101 -149 -163.5t-215 -81.5l-111 -388h-231l145 390q-197 32 -314.5 177.5t-117.5 358.5q0 242 149.5 395.5t385.5 153.5q152 0 271 -65.5t185 -184.5l-168 -117q-98 158 -280 158q-140 0 -225.5 -93.5t-85.5 -246.5q0 -151 86 -244.5t225 -93.5
q89 0 161 42t119 120z" />
    <glyph glyph-name="egrave" unicode="&#xe8;" horiz-adv-x="1224" 
d="M541 1192l-265 338h269l219 -338h-223zM315 459q0 -129 95 -212t231 -83q106 0 195.5 38.5t140.5 106.5l127 -133q-66 -92 -193 -145.5t-278 -53.5q-246 0 -397.5 148.5t-151.5 390.5q0 234 151.5 382.5t387.5 148.5q258 0 396 -156t116 -432h-820zM623 877
q-128 0 -216.5 -82t-93.5 -193h598q-2 121 -79 198t-209 77z" />
    <glyph glyph-name="eacute" unicode="&#xe9;" horiz-adv-x="1230" 
d="M709 1192h-222l220 338h227zM315 459q0 -129 95 -212t231 -83q106 0 195.5 38.5t140.5 106.5l127 -133q-66 -92 -193 -145.5t-278 -53.5q-246 0 -397.5 148.5t-151.5 390.5q0 234 151.5 382.5t387.5 148.5q258 0 396 -156t116 -432h-820zM623 877q-128 0 -216.5 -82
t-93.5 -193h598q-2 121 -79 198t-209 77z" />
    <glyph glyph-name="ecircumflex" unicode="&#xea;" horiz-adv-x="1224" 
d="M797 1192l-179 207l-176 -207h-229l293 338h227l293 -338h-229zM315 459q0 -129 95 -212t231 -83q106 0 195.5 38.5t140.5 106.5l127 -133q-66 -92 -193 -145.5t-278 -53.5q-246 0 -397.5 148.5t-151.5 390.5q0 234 151.5 382.5t387.5 148.5q258 0 396 -156t116 -432
h-820zM623 877q-128 0 -216.5 -82t-93.5 -193h598q-2 121 -79 198t-209 77z" />
    <glyph glyph-name="edieresis" unicode="&#xeb;" horiz-adv-x="1224" 
d="M371 1229q-59 0 -101.5 41.5t-42.5 101.5q0 58 42.5 101t101.5 43q58 0 100.5 -42.5t42.5 -101.5q0 -60 -42 -101.5t-101 -41.5zM848 1229q-60 0 -101.5 41.5t-41.5 101.5q0 59 41.5 101.5t101.5 42.5q58 0 99.5 -42.5t41.5 -101.5q0 -60 -41 -101.5t-100 -41.5zM315 459
q0 -129 95 -212t231 -83q106 0 195.5 38.5t140.5 106.5l127 -133q-66 -92 -193 -145.5t-278 -53.5q-246 0 -397.5 148.5t-151.5 390.5q0 234 151.5 382.5t387.5 148.5q258 0 396 -156t116 -432h-820zM623 877q-128 0 -216.5 -82t-93.5 -193h598q-2 121 -79 198t-209 77z" />
    <glyph glyph-name="igrave" unicode="&#xec;" horiz-adv-x="534" 
d="M-84 1530h227l232 -338h-221zM154 1024h227v-1024h-227v1024z" />
    <glyph glyph-name="iacute" unicode="&#xed;" horiz-adv-x="534" 
d="M373 1192h-221l219 338h227zM154 1024h227v-1024h-227v1024z" />
    <glyph glyph-name="icircumflex" unicode="&#xee;" horiz-adv-x="534" 
d="M614 1192h-204l-142 209l-141 -209h-205l240 338h213zM154 1024h227v-1024h-227v1024z" />
    <glyph glyph-name="idieresis" unicode="&#xef;" horiz-adv-x="534" 
d="M76 1241q-56 0 -89.5 34.5t-33.5 94.5q0 58 33.5 92.5t89.5 34.5q54 0 87.5 -34.5t33.5 -92.5q0 -59 -33 -94t-88 -35zM461 1241q-55 0 -88 35t-33 94q0 58 33.5 92.5t87.5 34.5t87.5 -34.5t33.5 -92.5q0 -59 -34 -94t-87 -35zM154 1024h227v-1024h-227v1024z" />
    <glyph glyph-name="ntilde" unicode="&#xf1;" horiz-adv-x="1234" 
d="M612 1280q-58 49 -108 49q-70 0 -70 -108h-168q0 138 50 210t143 72q43 0 82.5 -15.5t91.5 -51.5q62 -50 108 -50q72 0 72 111h166q0 -139 -49 -212t-142 -73q-44 0 -83.5 15.5t-92.5 52.5zM717 1051q157 0 267 -110t110 -265v-676h-230v600q0 100 -70 171.5t-171 72.5
q-101 0 -172.5 -72t-71.5 -172l2 -600h-229v1024h223v-172q44 89 138 144t204 55z" />
    <glyph glyph-name="ograve" unicode="&#xf2;" horiz-adv-x="1277" 
d="M594 1192l-225 338h227l219 -338h-221zM637 -27q-244 0 -396.5 156t-152.5 391q0 153 68 277.5t195.5 197t291.5 72.5t289 -73t189.5 -196.5t64.5 -277.5q0 -153 -66 -276.5t-192.5 -197t-290.5 -73.5zM637 178q145 0 232 97t87 245q0 149 -84.5 245.5t-228.5 96.5
q-146 0 -235 -96.5t-89 -245.5q0 -150 85.5 -246t232.5 -96z" />
    <glyph glyph-name="oacute" unicode="&#xf3;" horiz-adv-x="1277" 
d="M715 1192h-221l219 338h227zM637 -27q-244 0 -396.5 156t-152.5 391q0 153 68 277.5t195.5 197t291.5 72.5t289 -73t189.5 -196.5t64.5 -277.5q0 -153 -66 -276.5t-192.5 -197t-290.5 -73.5zM637 178q145 0 232 97t87 245q0 149 -84.5 245.5t-228.5 96.5
q-146 0 -235 -96.5t-89 -245.5q0 -150 85.5 -246t232.5 -96z" />
    <glyph glyph-name="ocircumflex" unicode="&#xf4;" horiz-adv-x="1277" 
d="M817 1192l-178 207l-178 -207h-230l295 338h226l295 -338h-230zM637 -27q-244 0 -396.5 156t-152.5 391q0 153 68 277.5t195.5 197t291.5 72.5t289 -73t189.5 -196.5t64.5 -277.5q0 -153 -66 -276.5t-192.5 -197t-290.5 -73.5zM637 178q145 0 232 97t87 245
q0 149 -84.5 245.5t-228.5 96.5q-146 0 -235 -96.5t-89 -245.5q0 -150 85.5 -246t232.5 -96z" />
    <glyph glyph-name="otilde" unicode="&#xf5;" horiz-adv-x="1277" 
d="M803 1212q-76 0 -174 68q-58 49 -109 49q-71 0 -71 -108h-166q0 138 49 210t141 72q45 0 84 -15.5t90 -51.5q65 -50 111 -50q69 0 69 111h168q0 -139 -49.5 -212t-142.5 -73zM639 -27q-245 0 -397 154t-152 393q0 156 67.5 280t193.5 195.5t288 71.5t288 -71.5
t193.5 -195.5t67.5 -280q0 -239 -152 -393t-397 -154zM639 178q143 0 230 93.5t87 248.5t-87 248.5t-230 93.5t-230 -93.5t-87 -248.5t87 -248.5t230 -93.5z" />
    <glyph glyph-name="odieresis" unicode="&#xf6;" horiz-adv-x="1277" 
d="M256 1372q0 59 42.5 101.5t102.5 42.5q57 0 99.5 -43t42.5 -101q0 -59 -42 -101t-100 -42q-60 0 -102.5 41.5t-42.5 101.5zM733 1372q0 59 42 101.5t102 42.5q58 0 99.5 -42.5t41.5 -101.5q0 -60 -41 -101.5t-100 -41.5q-60 0 -102 41.5t-42 101.5zM637 -27
q-244 0 -396.5 156t-152.5 391q0 153 68 277.5t195.5 197t291.5 72.5t289 -73t189.5 -196.5t64.5 -277.5q0 -153 -66 -276.5t-192.5 -197t-290.5 -73.5zM637 178q145 0 232 97t87 245q0 149 -84.5 245.5t-228.5 96.5q-146 0 -235 -96.5t-89 -245.5q0 -150 85.5 -246
t232.5 -96z" />
    <glyph glyph-name="divide" unicode="&#xf7;" horiz-adv-x="1454" 
d="M731 911q-58 0 -97.5 40.5t-39.5 97.5q0 59 39.5 99t97.5 40t97.5 -40t39.5 -99q0 -57 -39.5 -97.5t-97.5 -40.5zM272 752h912v-205h-912v205zM731 113q-58 0 -97.5 40t-39.5 99q0 58 39.5 98.5t97.5 40.5t97.5 -40.5t39.5 -98.5q0 -59 -39.5 -99t-97.5 -40z" />
    <glyph glyph-name="oslash" unicode="&#xf8;" horiz-adv-x="1286" 
d="M1087 858q105 -138 105 -338q0 -239 -152 -393t-397 -154q-194 0 -336 105l-127 -125l-104 106l123 123q-105 138 -105 338q0 156 67.5 280t193.5 195.5t288 71.5q195 0 336 -104l125 122l106 -104zM643 874q-150 0 -240 -96.5t-90 -257.5q0 -113 52 -190l479 477
q-76 67 -201 67zM643 164q149 0 238.5 97.5t89.5 258.5q0 115 -49 191l-480 -480q83 -67 201 -67z" />
    <glyph glyph-name="ugrave" unicode="&#xf9;" horiz-adv-x="1224" 
d="M563 1192l-225 338h227l219 -338h-221zM1079 1024v-1024h-223v184q-42 -96 -138 -153.5t-220 -57.5q-161 0 -261 104.5t-100 274.5v672h230v-594q0 -118 61.5 -184t165.5 -66q111 0 184.5 71.5t73.5 186.5l-2 586h229z" />
    <glyph glyph-name="uacute" unicode="&#xfa;" horiz-adv-x="1224" 
d="M659 1192h-221l219 338h228zM1079 1024v-1024h-223v172q-44 -89 -138 -144t-204 -55q-157 0 -267 110t-110 265v676h230v-600q0 -101 70.5 -171.5t170.5 -72.5q100 0 172 71.5t72 172.5l-2 600h229z" />
    <glyph glyph-name="ucircumflex" unicode="&#xfb;" horiz-adv-x="1224" 
d="M432 1192h-229l293 338h227l293 -338h-230l-176 207zM1079 1024v-1024h-223v172q-44 -89 -138 -144t-204 -55q-157 0 -267 110t-110 265v676h230v-600q0 -101 70.5 -171.5t170.5 -72.5q100 0 172 71.5t72 172.5l-2 600h229z" />
    <glyph glyph-name="udieresis" unicode="&#xfc;" horiz-adv-x="1224" 
d="M227 1372q0 59 42 101.5t102 42.5q58 0 99.5 -42.5t41.5 -101.5q0 -60 -41 -101.5t-100 -41.5q-60 0 -102 41.5t-42 101.5zM705 1372q0 59 41.5 101.5t101.5 42.5q58 0 99.5 -42.5t41.5 -101.5q0 -60 -41 -101.5t-100 -41.5q-60 0 -101.5 41.5t-41.5 101.5zM1079 1024
v-1024h-223v172q-44 -89 -138 -144t-204 -55q-157 0 -267 110t-110 265v676h230v-600q0 -101 70.5 -171.5t170.5 -72.5q100 0 172 71.5t72 172.5l-2 600h229z" />
    <glyph glyph-name="yacute" unicode="&#xfd;" horiz-adv-x="1120" 
d="M610 1192h-221l219 338h230zM1094 1024l-465 -1171q-58 -146 -147 -204.5t-249 -58.5h-190v205h152q103 0 149.5 27t75.5 104l33 82l-424 1016h245l295 -752l281 752h244z" />
    <glyph glyph-name="thorn" unicode="&#xfe;" horiz-adv-x="1320" 
d="M750 1047q228 0 353.5 -145.5t125.5 -395.5q0 -236 -130 -382.5t-354 -146.5q-140 0 -240.5 69.5t-129.5 158.5v-576h-223v1805h206v-619q44 105 153 168.5t239 63.5zM692 170q135 0 221 93.5t86 242.5q0 152 -87 247t-226 95q-137 0 -224 -95.5t-87 -246.5
q0 -148 88 -242t229 -94z" />
    <glyph glyph-name="ydieresis" unicode="&#xff;" horiz-adv-x="1120" 
d="M324 1229q-60 0 -102 41.5t-42 101.5q0 59 42 101.5t102 42.5q58 0 99.5 -42.5t41.5 -101.5q0 -60 -41 -101.5t-100 -41.5zM801 1229q-60 0 -103 41.5t-43 101.5q0 59 43 101.5t103 42.5q57 0 99 -43t42 -101q0 -60 -42 -101.5t-99 -41.5zM1094 1040l-465 -1187
q-58 -146 -147 -204.5t-249 -58.5h-190v205h152q103 0 149.5 27t75.5 104l33 82l-424 1032h245l295 -768l281 768h244z" />
    <glyph glyph-name="Amacron" unicode="&#x100;" horiz-adv-x="1439" 
d="M1065 1636h-664v179h664v-179zM1032 307h-637l-119 -307h-251l561 1434h245l574 -1434h-252zM958 512l-243 686l-244 -686h487z" />
    <glyph glyph-name="amacron" unicode="&#x101;" horiz-adv-x="1095" 
d="M973 1241h-664v180h664v-180zM1014 0h-195v184q-39 -97 -133 -152t-227 -55q-170 0 -270.5 91t-100.5 237q0 100 54.5 171t149.5 105t223.5 42t275.5 -17l-3 78q0 89 -57 136.5t-153 47.5q-87 0 -164 -35.5t-129 -99.5l-123 129q61 81 184.5 133t249.5 52
q192 0 305 -107.5t113 -290.5v-649zM791 477q-221 36 -350.5 -4.5t-129.5 -153.5q0 -80 54 -127t149 -47q129 0 203 71.5t74 197.5v63z" />
    <glyph glyph-name="Abreve" unicode="&#x102;" horiz-adv-x="1439" 
d="M733 1583q-152 0 -244 80.5t-92 214.5v16h181q0 -75 42.5 -120t112.5 -45q71 0 113.5 45t42.5 120h180v-16q0 -133 -92.5 -214t-243.5 -81zM1032 307h-637l-119 -307h-251l561 1434h245l574 -1434h-252zM958 512l-243 686l-244 -686h487z" />
    <glyph glyph-name="abreve" unicode="&#x103;" horiz-adv-x="1183" 
d="M643 1188q-152 0 -245 81.5t-93 213.5v16h182q0 -74 43 -120t113 -46q69 0 111.5 46t42.5 120h182v-16q0 -132 -92.5 -213.5t-243.5 -81.5zM1014 0h-195v184q-39 -97 -133 -152t-227 -55q-170 0 -270.5 91t-100.5 237q0 100 54.5 171t149.5 105t223.5 42t275.5 -17l-3 78
q0 89 -57 136.5t-153 47.5q-87 0 -164 -35.5t-129 -99.5l-123 129q61 81 184.5 133t249.5 52q192 0 305 -107.5t113 -290.5v-649zM791 477q-221 36 -350.5 -4.5t-129.5 -153.5q0 -80 54 -127t149 -47q129 0 203 71.5t74 197.5v63z" />
    <glyph glyph-name="Aogonek" unicode="&#x104;" horiz-adv-x="1439" 
d="M1219 -195q0 -79 133 -79h45v-162h-88q-134 0 -205.5 50.5t-71.5 139.5q0 145 158 246h-37l-121 307h-637l-119 -307h-251l561 1434h245l574 -1434h-14q-93 -58 -132.5 -104t-39.5 -91zM471 512h487l-243 686z" />
    <glyph glyph-name="aogonek" unicode="&#x105;" horiz-adv-x="1122" 
d="M836 -195q0 -79 133 -79h47v-162h-88q-136 0 -207.5 50.5t-71.5 139.5q0 68 44.5 132t125.5 116v182q-39 -97 -133 -152t-227 -55q-170 0 -270.5 91t-100.5 237q0 100 54.5 171t149.5 105t223.5 42t275.5 -17l-3 78q0 89 -57 136.5t-153 47.5q-87 0 -164 -35.5
t-129 -99.5l-123 129q61 81 184.5 133t249.5 52q192 0 305 -107.5t113 -290.5v-649h2q-96 -59 -138 -105.5t-42 -89.5zM791 414v63q-221 36 -350.5 -4.5t-129.5 -153.5q0 -80 54 -127t149 -47q129 0 203 71.5t74 197.5z" />
    <glyph glyph-name="Cacute" unicode="&#x106;" horiz-adv-x="1538" 
d="M936 1585h-221l219 338h227zM852 -27q-171 0 -311.5 57.5t-233.5 157.5t-143.5 235.5t-50.5 291.5t51.5 292.5t145 237t234 158t308.5 57.5q204 0 364.5 -96t251.5 -270l-194 -113q-59 121 -169.5 188.5t-252.5 67.5q-222 0 -358 -147.5t-136 -374.5t134.5 -374.5
t359.5 -147.5q144 0 254.5 68.5t169.5 191.5l192 -119q-87 -178 -246.5 -269.5t-369.5 -91.5z" />
    <glyph glyph-name="cacute" unicode="&#x107;" horiz-adv-x="1134" 
d="M686 1192h-221l219 338h227zM625 -27q-239 0 -387 151.5t-148 393.5t149.5 395.5t385.5 153.5q152 0 271 -65.5t185 -184.5l-168 -117q-98 158 -280 158q-140 0 -225.5 -93.5t-85.5 -246.5q0 -151 86 -244.5t225 -93.5q89 0 161 42t119 120l170 -117q-66 -120 -186 -186
t-272 -66z" />
    <glyph glyph-name="Ccircumflex" unicode="&#x108;" horiz-adv-x="1538" 
d="M659 1585h-229l295 338h225l295 -338h-229l-178 209zM852 -27q-171 0 -311.5 57.5t-233.5 157.5t-143.5 235.5t-50.5 291.5t51.5 292.5t145 237t234 158t308.5 57.5q204 0 364.5 -96t251.5 -270l-194 -113q-59 121 -169.5 188.5t-252.5 67.5q-222 0 -358 -147.5
t-136 -374.5t134.5 -374.5t359.5 -147.5q144 0 254.5 68.5t169.5 191.5l192 -119q-87 -178 -246.5 -269.5t-369.5 -91.5z" />
    <glyph glyph-name="ccircumflex" unicode="&#x109;" horiz-adv-x="1134" 
d="M446 1192h-229l293 338h227l293 -338h-229l-178 207zM625 -27q-239 0 -387 151.5t-148 393.5t149.5 395.5t385.5 153.5q152 0 271 -65.5t185 -184.5l-168 -117q-98 158 -280 158q-140 0 -225.5 -93.5t-85.5 -246.5q0 -151 86 -244.5t225 -93.5q89 0 161 42t119 120
l170 -117q-66 -120 -186 -186t-272 -66z" />
    <glyph glyph-name="Cdotaccent" unicode="&#x10a;" horiz-adv-x="1538" 
d="M838 1624q-60 0 -102 40.5t-42 100.5t42 102t102 42q59 0 100 -42t41 -102t-41 -100.5t-100 -40.5zM852 -27q-171 0 -311.5 57.5t-233.5 157.5t-143.5 235.5t-50.5 291.5t51.5 292.5t145 237t234 158t308.5 57.5q204 0 364.5 -96t251.5 -270l-194 -113
q-59 121 -169.5 188.5t-252.5 67.5q-222 0 -358 -147.5t-136 -374.5t134.5 -374.5t359.5 -147.5q144 0 254.5 68.5t169.5 191.5l192 -119q-87 -178 -246.5 -269.5t-369.5 -91.5z" />
    <glyph glyph-name="cdotaccent" unicode="&#x10b;" horiz-adv-x="1134" 
d="M623 1229q-59 0 -101.5 41.5t-42.5 101.5q0 58 42.5 101t101.5 43q58 0 100.5 -42.5t42.5 -101.5q0 -60 -42 -101.5t-101 -41.5zM625 -27q-239 0 -387 151.5t-148 393.5t149.5 395.5t385.5 153.5q152 0 271 -65.5t185 -184.5l-168 -117q-98 158 -280 158
q-140 0 -225.5 -93.5t-85.5 -246.5q0 -151 86 -244.5t225 -93.5q89 0 161 42t119 120l170 -117q-66 -120 -186 -186t-272 -66z" />
    <glyph glyph-name="Ccaron" unicode="&#x10c;" horiz-adv-x="1538" 
d="M725 1585l-295 338h229l179 -207l178 207h229l-295 -338h-225zM852 -27q-171 0 -311.5 57.5t-233.5 157.5t-143.5 235.5t-50.5 291.5t51.5 292.5t145 237t234 158t308.5 57.5q204 0 364.5 -96t251.5 -270l-194 -113q-59 121 -169.5 188.5t-252.5 67.5q-222 0 -358 -147.5
t-136 -374.5t134.5 -374.5t359.5 -147.5q144 0 254.5 68.5t169.5 191.5l192 -119q-87 -178 -246.5 -269.5t-369.5 -91.5z" />
    <glyph glyph-name="ccaron" unicode="&#x10d;" horiz-adv-x="1134" 
d="M510 1192l-293 338h229l177 -207l178 207h229l-293 -338h-227zM625 -27q-239 0 -387 151.5t-148 393.5t149.5 395.5t385.5 153.5q152 0 271 -65.5t185 -184.5l-168 -117q-98 158 -280 158q-140 0 -225.5 -93.5t-85.5 -246.5q0 -151 86 -244.5t225 -93.5q89 0 161 42
t119 120l170 -117q-66 -120 -186 -186t-272 -66z" />
    <glyph glyph-name="Dcaron" unicode="&#x10e;" horiz-adv-x="1525" 
d="M569 1585l-293 338h230l176 -207l178 207h230l-293 -338h-228zM725 1434q200 0 359 -94t246 -257.5t87 -365.5q0 -203 -86.5 -366.5t-245.5 -257t-360 -93.5h-543v1434h543zM696 219q215 0 344 139t129 359t-129 358.5t-344 138.5h-278v-995h278z" />
    <glyph glyph-name="dcaron" unicode="&#x10f;" horiz-adv-x="1476" 
d="M1499 1499v-418h-178v418h178zM1155 1495v-1495h-207v209q-47 -108 -142 -170t-222 -62q-231 0 -369.5 147.5t-138.5 389.5q0 238 136 386.5t361 148.5q135 0 232.5 -69.5t126.5 -158.5v674h223zM618 178q138 0 226 95.5t88 246.5t-88 246.5t-226 95.5t-224.5 -95
t-86.5 -247t86.5 -247t224.5 -95z" />
    <glyph glyph-name="Dcroat" unicode="&#x110;" horiz-adv-x="1576" 
d="M754 1434q212 0 372 -83.5t250 -247t90 -386.5t-90 -386.5t-250 -247t-372 -83.5h-523v623h-196v188h196v623h523zM754 219q220 0 342.5 127t122.5 371q0 245 -122 371t-343 126h-285v-403h346v-188h-346v-404h285z" />
    <glyph glyph-name="dcroat" unicode="&#x111;" horiz-adv-x="1304" 
d="M1378 1350v-181h-223v-1169h-207v209q-47 -108 -142 -170t-222 -62q-231 0 -369.5 147.5t-138.5 389.5q0 238 136 386.5t361 148.5q135 0 232.5 -69.5t126.5 -158.5v348h-217v181h217v145h223v-145h223zM618 178q138 0 226 95.5t88 246.5t-88 246.5t-226 95.5t-224.5 -95
t-86.5 -247t86.5 -247t224.5 -95z" />
    <glyph glyph-name="Emacron" unicode="&#x112;" horiz-adv-x="1327" 
d="M340 1815h664v-179h-664v179zM1198 215v-215h-1016v1434h996v-213h-760v-424h717v-211h-717v-371h780z" />
    <glyph glyph-name="emacron" unicode="&#x113;" horiz-adv-x="1224" 
d="M289 1421h661v-180h-661v180zM315 459q0 -129 95 -212t231 -83q106 0 195.5 38.5t140.5 106.5l127 -133q-66 -92 -193 -145.5t-278 -53.5q-246 0 -397.5 148.5t-151.5 390.5q0 234 151.5 382.5t387.5 148.5q258 0 396 -156t116 -432h-820zM623 877q-128 0 -216.5 -82
t-93.5 -193h598q-2 121 -79 198t-209 77z" />
    <glyph glyph-name="Ebreve" unicode="&#x114;" horiz-adv-x="1327" 
d="M336 1894h180q0 -75 43.5 -120t112.5 -45q70 0 112.5 45t42.5 120h181q0 -140 -92 -225.5t-244 -85.5q-151 0 -243.5 85.5t-92.5 225.5zM1198 215v-215h-1016v1434h996v-213h-760v-424h717v-211h-717v-371h780z" />
    <glyph glyph-name="ebreve" unicode="&#x115;" horiz-adv-x="1224" 
d="M283 1499h180q0 -74 43 -120t112 -46q70 0 113 46t43 120h180q0 -140 -92 -225.5t-244 -85.5q-151 0 -243 85.5t-92 225.5zM315 459q0 -129 95 -212t231 -83q106 0 195.5 38.5t140.5 106.5l127 -133q-66 -92 -193 -145.5t-278 -53.5q-246 0 -397.5 148.5t-151.5 390.5
q0 234 151.5 382.5t387.5 148.5q258 0 396 -156t116 -432h-820zM623 877q-128 0 -216.5 -82t-93.5 -193h598q-2 121 -79 198t-209 77z" />
    <glyph glyph-name="Edotaccent" unicode="&#x116;" horiz-adv-x="1327" 
d="M526 1763q0 63 40.5 102.5t105.5 39.5q66 0 106.5 -39.5t40.5 -102.5t-40.5 -101t-106.5 -38q-65 0 -105.5 38t-40.5 101zM1198 215v-215h-1016v1434h996v-213h-760v-424h717v-211h-717v-371h780z" />
    <glyph glyph-name="edotaccent" unicode="&#x117;" horiz-adv-x="1224" 
d="M473 1370q0 63 40 101t105 38q66 0 107 -38t41 -101q0 -64 -41 -102.5t-107 -38.5q-65 0 -105 38.5t-40 102.5zM315 459q0 -129 95 -212t231 -83q106 0 195.5 38.5t140.5 106.5l127 -133q-66 -92 -193 -145.5t-278 -53.5q-246 0 -397.5 148.5t-151.5 390.5
q0 234 151.5 382.5t387.5 148.5q258 0 396 -156t116 -432h-820zM623 877q-128 0 -216.5 -82t-93.5 -193h598q-2 121 -79 198t-209 77z" />
    <glyph glyph-name="Eogonek" unicode="&#x118;" horiz-adv-x="1327" 
d="M418 215h780v-215h-2q-94 -59 -136 -105.5t-42 -89.5q0 -45 41.5 -62t136.5 -17v-162q-195 0 -280 42.5t-85 147.5q0 69 42 132.5t120 113.5h-811v1434h996v-213h-760v-424h717v-211h-717v-371z" />
    <glyph glyph-name="eogonek" unicode="&#x119;" horiz-adv-x="1200" 
d="M641 164q106 0 195.5 38.5t140.5 106.5l127 -133q-82 -116 -268 -172q-72 -60 -72 -125q0 -78 133 -78h45v-163h-88q-134 0 -205 51t-71 139q0 85 55 158q-41 -6 -84 0q-210 22 -337.5 166t-127.5 364q0 234 151.5 382.5t387.5 148.5q258 0 396 -156t116 -432h-820
q0 -129 95 -212t231 -83zM623 877q-128 0 -216.5 -82t-93.5 -193h598q-2 121 -79 198t-209 77z" />
    <glyph glyph-name="Ecaron" unicode="&#x11a;" horiz-adv-x="1327" 
d="M1079 1923l-295 -338h-225l-293 338h228l178 -207l178 207h229zM1198 215v-215h-1016v1434h996v-213h-760v-424h717v-211h-717v-371h780z" />
    <glyph glyph-name="ecaron" unicode="&#x11b;" horiz-adv-x="1224" 
d="M1026 1530l-293 -338h-227l-293 338h229l176 -207l179 207h229zM315 459q0 -129 95 -212t231 -83q106 0 195.5 38.5t140.5 106.5l127 -133q-66 -92 -193 -145.5t-278 -53.5q-246 0 -397.5 148.5t-151.5 390.5q0 234 151.5 382.5t387.5 148.5q258 0 396 -156t116 -432
h-820zM623 877q-128 0 -216.5 -82t-93.5 -193h598q-2 121 -79 198t-209 77z" />
    <glyph glyph-name="Gcircumflex" unicode="&#x11c;" horiz-adv-x="1587" 
d="M657 1585h-229l295 338h225l293 -338h-227l-178 209zM1473 786l-3 -536q-232 -279 -620 -279q-173 1 -313.5 59t-232.5 158t-141.5 234.5t-49.5 290.5q0 157 51 293.5t144.5 236.5t233.5 157.5t308 57.5q189 0 345 -82.5t251 -228.5l-193 -133q-64 107 -167.5 165
t-235.5 58q-222 0 -358 -148.5t-136 -375.5q0 -224 134 -370.5t360 -149.5q261 0 403 151v248h-340v194h560z" />
    <glyph glyph-name="gcircumflex" unicode="&#x11d;" horiz-adv-x="1320" 
d="M485 1192h-229l295 338h225l293 -338h-227l-178 207zM1171 1024v-913q0 -250 -153.5 -398.5t-411.5 -148.5q-144 0 -274 47.5t-209 126.5l102 164q67 -64 167 -102t200 -38q163 0 262.5 91.5t99.5 279.5v103q-41 -102 -147.5 -163t-237.5 -61q-216 0 -347.5 146.5
t-131.5 382.5q0 225 131.5 365.5t347.5 140.5q132 0 232.5 -54t140.5 -145v176h229zM635 209q140 0 227.5 92t87.5 240q0 146 -87.5 237.5t-227.5 91.5q-138 0 -225.5 -91.5t-87.5 -237.5q0 -147 87.5 -239.5t225.5 -92.5z" />
    <glyph glyph-name="Gbreve" unicode="&#x11e;" horiz-adv-x="1587" 
d="M836 1583q-152 0 -244 80.5t-92 214.5v16h180q0 -75 42.5 -120t113.5 -45q69 0 112 45t43 120h180v-16q0 -133 -92 -214t-243 -81zM1473 786l-3 -536q-232 -279 -620 -279q-173 1 -313.5 59t-232.5 158t-141.5 234.5t-49.5 290.5q0 157 51 293.5t144.5 236.5t233.5 157.5
t308 57.5q189 0 345 -82.5t251 -228.5l-193 -133q-64 107 -167.5 165t-235.5 58q-222 0 -358 -148.5t-136 -375.5q0 -224 134 -370.5t360 -149.5q261 0 403 151v248h-340v194h560z" />
    <glyph glyph-name="gbreve" unicode="&#x11f;" horiz-adv-x="1320" 
d="M328 1499h180q0 -74 43 -120t113 -46q69 0 112 46t43 120h180v-16q0 -132 -92 -213.5t-243 -81.5q-152 0 -244 81.5t-92 213.5v16zM1171 1026v-932q0 -235 -152.5 -385.5t-393.5 -150.5q-142 0 -278.5 59.5t-211.5 153.5l105 159q65 -76 168 -124t202 -48q70 0 131 22
t109 64.5t76 112t28 158.5v114q-42 -98 -150 -158.5t-235 -60.5q-215 0 -347 147t-132 382q0 225 132.5 365t346.5 140q130 0 230.5 -52.5t142.5 -139.5v174h229zM635 209q138 0 225.5 92t87.5 238t-87.5 238.5t-225.5 92.5q-140 0 -226.5 -91.5t-86.5 -239.5t86.5 -239
t226.5 -91z" />
    <glyph glyph-name="Gdotaccent" unicode="&#x120;" horiz-adv-x="1587" 
d="M836 1624q-66 0 -107 38t-41 101t41 102.5t107 39.5q64 0 104.5 -39.5t40.5 -102.5t-40 -101t-105 -38zM1473 786l-3 -536q-232 -279 -620 -279q-173 1 -313.5 59t-232.5 158t-141.5 234.5t-49.5 290.5q0 157 51 293.5t144.5 236.5t233.5 157.5t308 57.5q189 0 345 -82.5
t251 -228.5l-193 -133q-64 107 -167.5 165t-235.5 58q-222 0 -358 -148.5t-136 -375.5q0 -224 134 -370.5t360 -149.5q261 0 403 151v248h-340v194h560z" />
    <glyph glyph-name="gdotaccent" unicode="&#x121;" horiz-adv-x="1320" 
d="M518 1372q0 59 43 101.5t103 42.5q57 0 99 -43t42 -101q0 -60 -41.5 -101.5t-99.5 -41.5q-60 0 -103 41.5t-43 101.5zM1171 1026v-932q0 -235 -152.5 -385.5t-393.5 -150.5q-142 0 -278.5 59.5t-211.5 153.5l105 159q65 -76 168 -124t202 -48q70 0 131 22t109 64.5
t76 112t28 158.5v114q-42 -98 -150 -158.5t-235 -60.5q-215 0 -347 147t-132 382q0 225 132.5 365t346.5 140q130 0 230.5 -52.5t142.5 -139.5v174h229zM635 209q138 0 225.5 92t87.5 238t-87.5 238.5t-225.5 92.5q-140 0 -226.5 -91.5t-86.5 -239.5t86.5 -239t226.5 -91z
" />
    <glyph glyph-name="uni0122" unicode="&#x122;" horiz-adv-x="1587" 
d="M1473 786l-3 -536q-232 -279 -620 -279q-173 1 -313.5 59t-232.5 158t-141.5 234.5t-49.5 290.5q0 157 51 293.5t144.5 236.5t233.5 157.5t308 57.5q189 0 345 -82.5t251 -228.5l-193 -133q-64 107 -167.5 165t-235.5 58q-222 0 -358 -148.5t-136 -375.5
q0 -224 134 -370.5t360 -149.5q261 0 403 151v248h-340v194h560zM750 -178h225l-129 -371h-178z" />
    <glyph glyph-name="uni0123" unicode="&#x123;" horiz-adv-x="1320" 
d="M758 1192h-221l219 338h227zM1171 1026v-932q0 -235 -152.5 -385.5t-393.5 -150.5q-142 0 -278.5 59.5t-211.5 153.5l105 159q65 -76 168 -124t202 -48q70 0 131 22t109 64.5t76 112t28 158.5v114q-42 -98 -150 -158.5t-235 -60.5q-215 0 -347 147t-132 382
q0 225 132.5 365t346.5 140q130 0 230.5 -52.5t142.5 -139.5v174h229zM635 209q138 0 225.5 92t87.5 238t-87.5 238.5t-225.5 92.5q-140 0 -226.5 -91.5t-86.5 -239.5t86.5 -239t226.5 -91z" />
    <glyph glyph-name="Hcircumflex" unicode="&#x124;" horiz-adv-x="1564" 
d="M961 1585l-179 209l-178 -209h-229l295 338h225l295 -338h-229zM1382 1434v-1434h-235v569h-727v-569h-238v1434h238v-646h727v646h235z" />
    <glyph glyph-name="hcircumflex" unicode="&#x125;" horiz-adv-x="1239" 
d="M442 1651l-176 209l-178 -209h-229l293 338h227l293 -338h-230zM719 1047q164 0 271.5 -106t107.5 -269v-672h-230v614q0 106 -68 176t-169 70q-108 0 -180 -74t-72 -186v-600h-227v1497h227v-620q40 76 133 123t207 47z" />
    <glyph glyph-name="Hbar" unicode="&#x126;" horiz-adv-x="1634" 
d="M1561 1055h-144v-1055h-235v625h-727v-625h-238v1055h-143v166h143v213h238v-213h727v213h235v-213h144v-166zM1182 1055h-727v-211h727v211z" />
    <glyph glyph-name="hbar" unicode="&#x127;" horiz-adv-x="1239" 
d="M733 1047q172 0 267.5 -104.5t95.5 -297.5v-645h-230v588q0 252 -221 252q-124 0 -195 -72t-71 -203v-565h-227v1190h-160v151h160v158h227v-158h364v-151h-364v-348q42 95 135 150t219 55z" />
    <glyph glyph-name="Itilde" unicode="&#x128;" horiz-adv-x="610" 
d="M469 1608q-43 0 -82.5 15.5t-91.5 51.5q-59 47 -109 47q-71 0 -71 -108h-166q0 139 48.5 210.5t141.5 71.5q45 0 84 -15.5t90 -51.5q62 -47 111 -47q70 0 70 108h168q0 -138 -50 -210t-143 -72zM186 1434h238v-1434h-238v1434z" />
    <glyph glyph-name="itilde" unicode="&#x129;" horiz-adv-x="534" 
d="M258 1280q-61 49 -106 49q-28 0 -40 -24.5t-12 -83.5h-147q0 282 151 282q78 0 172 -67q62 -50 109 -50q27 0 39 25.5t12 85.5h146q0 -285 -152 -285q-74 0 -172 68zM154 1024h227v-1024h-227v1024z" />
    <glyph glyph-name="Imacron" unicode="&#x12a;" horiz-adv-x="610" 
d="M-27 1815h664v-179h-664v179zM186 1434h238v-1434h-238v1434z" />
    <glyph glyph-name="imacron" unicode="&#x12b;" horiz-adv-x="534" 
d="M-6 1421h547v-180h-547v180zM154 1024h227v-1024h-227v1024z" />
    <glyph glyph-name="Ibreve" unicode="&#x12c;" horiz-adv-x="610" 
d="M305 1583q-161 0 -248.5 77.5t-87.5 217.5v16h181q0 -84 38.5 -124.5t116.5 -40.5q156 0 156 165h180v-16q0 -140 -87.5 -217.5t-248.5 -77.5zM186 1434h238v-1434h-238v1434z" />
    <glyph glyph-name="ibreve" unicode="&#x12d;" horiz-adv-x="534" 
d="M268 1188q-144 0 -225.5 78.5t-81.5 216.5v16h168q0 -85 33.5 -125.5t105.5 -40.5q70 0 104 40.5t34 125.5h169v-16q0 -138 -81.5 -216.5t-225.5 -78.5zM154 1024h227v-1024h-227v1024z" />
    <glyph glyph-name="Iogonek" unicode="&#x12e;" horiz-adv-x="610" 
d="M424 0q-96 -59 -138 -105.5t-42 -89.5q0 -76 129 -79h51v-162h-92q-133 0 -204 50.5t-71 139.5q0 145 168 250l-39 4v1426h238v-1434z" />
    <glyph glyph-name="iogonek" unicode="&#x12f;" horiz-adv-x="534" 
d="M268 1509q65 0 105.5 -38t40.5 -101q0 -64 -40.5 -102.5t-105.5 -38.5q-66 0 -106.5 38.5t-40.5 102.5q0 63 40.5 101t106.5 38zM154 1024h227v-1024q-95 -59 -136.5 -105t-41.5 -90q0 -79 133 -79h45v-162h-88q-134 0 -205.5 50.5t-71.5 139.5q0 145 168 250l-30 2v1018
z" />
    <glyph glyph-name="Idotaccent" unicode="&#x130;" horiz-adv-x="610" 
d="M295 1624q-64 0 -103.5 38.5t-39.5 100.5t39.5 102t103.5 40q63 0 103 -40t40 -102q0 -61 -40 -100t-103 -39zM186 1434h238v-1434h-238v1434z" />
    <glyph glyph-name="dotlessi" unicode="&#x131;" horiz-adv-x="534" 
d="M154 1024h227v-1024h-227v1024z" />
    <glyph glyph-name="ij" unicode="&#x133;" horiz-adv-x="1069" 
d="M266 1229q-65 0 -105 38.5t-40 102.5q0 63 40 101t105 38q66 0 107 -38t41 -101q0 -64 -41 -102.5t-107 -38.5zM801 1229q-65 0 -105.5 38.5t-40.5 102.5q0 63 40.5 101t105.5 38q66 0 106.5 -38t40.5 -101q0 -64 -40.5 -102.5t-106.5 -38.5zM154 1024h227v-1024h-227
v1024zM453 -209h110q125 0 125 127v1106h227v-1147q0 -140 -76.5 -213.5t-226.5 -73.5h-159v201z" />
    <glyph glyph-name="Jcircumflex" unicode="&#x134;" horiz-adv-x="1183" 
d="M1081 1585l-178 209l-178 -209h-229l295 338h225l295 -338h-230zM549 -31q-129 0 -242 62.5t-182.5 168.5t-75.5 228l234 76v-37q0 -109 78 -187.5t188 -78.5t188 78.5t78 187.5v967h236v-961q0 -137 -67.5 -253t-183 -183.5t-251.5 -67.5z" />
    <glyph glyph-name="jcircumflex" unicode="&#x135;" horiz-adv-x="534" 
d="M614 1192h-204l-142 209l-141 -209h-205l240 338h213zM154 1024h227v-1147q0 -140 -76.5 -213.5t-226.5 -73.5h-160v201h111q125 0 125 127v1106z" />
    <glyph glyph-name="uni0136" unicode="&#x136;" horiz-adv-x="1386" 
d="M1362 1434l-694 -723l692 -711h-295l-559 551l-86 -90v-461h-238v1434h238v-672l655 672h287zM614 -178h226l-129 -371h-179z" />
    <glyph glyph-name="uni0137" unicode="&#x137;" horiz-adv-x="1114" 
d="M831 0l-393 401l-59 -67v-334h-227v1499h227v-903l450 428h265l-484 -475l492 -549h-271zM483 -178h226l-131 -371h-177z" />
    <glyph glyph-name="Lacute" unicode="&#x139;" horiz-adv-x="1206" 
d="M377 1585h-221l219 338h227zM1145 219v-219h-963v1434h238v-1215h725z" />
    <glyph glyph-name="lacute" unicode="&#x13a;" horiz-adv-x="518" 
d="M360 1651h-221l219 338h228zM143 0v1499h228v-1499h-228z" />
    <glyph glyph-name="uni013B" unicode="&#x13b;" horiz-adv-x="1206" 
d="M1145 219v-219h-963v1434h238v-1215h725zM528 -178h228l-131 -371h-179z" />
    <glyph glyph-name="uni013C" unicode="&#x13c;" horiz-adv-x="518" 
d="M143 0v1499h228v-1499h-228zM188 -178h226l-131 -371h-177z" />
    <glyph glyph-name="Lcaron" unicode="&#x13d;" horiz-adv-x="1206" 
d="M670 1460h223l-47 -418h-176v418zM1145 219v-219h-963v1434h238v-1215h725z" />
    <glyph glyph-name="lcaron" unicode="&#x13e;" horiz-adv-x="518" 
d="M143 0v1499h228v-1499h-228zM453 1499h178v-418h-178v418z" />
    <glyph glyph-name="Ldot" unicode="&#x13f;" horiz-adv-x="1218" 
d="M1145 219v-219h-963v1434h238v-1215h725zM827 584q-68 0 -110.5 42t-42.5 111q0 67 42.5 109.5t110.5 42.5q69 0 111.5 -42t42.5 -110q0 -69 -42.5 -111t-111.5 -42z" />
    <glyph glyph-name="ldot" unicode="&#x140;" horiz-adv-x="518" 
d="M143 0v1499h228v-1499h-228zM647 586q-60 0 -101.5 41.5t-41.5 101.5q0 59 41.5 101t101.5 42q58 0 99.5 -42t41.5 -101q0 -60 -41 -101.5t-100 -41.5z" />
    <glyph glyph-name="Lslash" unicode="&#x141;" horiz-adv-x="1257" 
d="M1198 219v-219h-962v504l-224 -115v207l224 115v723h235v-600l492 253v-206l-492 -254v-408h727z" />
    <glyph glyph-name="lslash" unicode="&#x142;" horiz-adv-x="724" 
d="M449 748v-748h-230v623l-194 -107v195l194 106v682h230v-557l233 127v-195z" />
    <glyph glyph-name="Nacute" unicode="&#x143;" horiz-adv-x="1605" 
d="M852 1585h-221l219 338h229zM1423 1434v-1434h-221l-786 1047v-1047h-234v1434h221l789 -1049v1049h231z" />
    <glyph glyph-name="nacute" unicode="&#x144;" horiz-adv-x="1239" 
d="M690 1192h-221l219 338h227zM717 1051q157 0 267 -110t110 -265v-676h-230v600q0 100 -70 171.5t-171 72.5q-101 0 -172.5 -72t-71.5 -172l2 -600h-229v1024h223v-172q44 89 138 144t204 55z" />
    <glyph glyph-name="uni0145" unicode="&#x145;" horiz-adv-x="1605" 
d="M1423 1434v-1434h-225l-782 1051v-1051h-234v1434h226l782 -1051v1051h233zM690 -178h228l-132 -371h-178z" />
    <glyph glyph-name="uni0146" unicode="&#x146;" horiz-adv-x="1239" 
d="M717 1051q157 0 267 -110t110 -265v-676h-230v600q0 100 -70 171.5t-171 72.5q-101 0 -172.5 -72t-71.5 -172l2 -600h-229v1024h223v-172q44 89 138 144t204 55zM506 -178h227l-131 -371h-178z" />
    <glyph glyph-name="Ncaron" unicode="&#x147;" horiz-adv-x="1605" 
d="M690 1585l-293 338h230l178 -207l176 207h229l-292 -338h-228zM1423 1434v-1434h-221l-786 1047v-1047h-234v1434h221l789 -1049v1049h231z" />
    <glyph glyph-name="ncaron" unicode="&#x148;" horiz-adv-x="1239" 
d="M1030 1530l-293 -338h-227l-293 338h229l177 -207l178 207h229zM717 1051q157 0 267 -110t110 -265v-676h-230v600q0 100 -70 171.5t-171 72.5q-101 0 -172.5 -72t-71.5 -172l2 -600h-229v1024h223v-172q44 89 138 144t204 55z" />
    <glyph glyph-name="Eng" unicode="&#x14a;" horiz-adv-x="1605" 
d="M1423 1434v-1512q0 -142 -76 -215.5t-225 -73.5h-161v203h110q117 0 123 111l2 57l-780 1043v-1047h-234v1434h221l789 -1049v1049h231z" />
    <glyph glyph-name="eng" unicode="&#x14b;" horiz-adv-x="1239" 
d="M717 1051q157 0 267 -110t110 -265v-778q-4 -129 -82 -197t-221 -68h-160v203h110q123 0 123 119v645q0 100 -70 171.5t-171 72.5q-101 0 -172.5 -72t-71.5 -172l2 -600h-229v1024h223v-172q44 89 138 144t204 55z" />
    <glyph glyph-name="Omacron" unicode="&#x14c;" horiz-adv-x="1703" 
d="M520 1815h664v-179h-664v179zM109 715q-2 208 94.5 380t268 270t380.5 95q209 3 380.5 -95t268 -270t94.5 -380q1 -155 -55 -293.5t-154.5 -237.5t-237.5 -156t-296 -55q-157 -2 -296 55t-237.5 156t-154.5 237.5t-55 293.5zM1348 715q0 229 -139.5 375.5t-356.5 146.5
t-356.5 -146.5t-139.5 -375.5q0 -227 139.5 -372.5t356.5 -145.5t356.5 145.5t139.5 372.5z" />
    <glyph glyph-name="omacron" unicode="&#x14d;" horiz-adv-x="1277" 
d="M307 1421h664v-180h-664v180zM637 -27q-244 0 -396.5 156t-152.5 391q0 153 68 277.5t195.5 197t291.5 72.5t289 -73t189.5 -196.5t64.5 -277.5q0 -153 -66 -276.5t-192.5 -197t-290.5 -73.5zM637 178q145 0 232 97t87 245q0 149 -84.5 245.5t-228.5 96.5
q-146 0 -235 -96.5t-89 -245.5q0 -150 85.5 -246t232.5 -96z" />
    <glyph glyph-name="Obreve" unicode="&#x14e;" horiz-adv-x="1703" 
d="M852 1583q-151 0 -243.5 81t-92.5 214v16h180q0 -75 43.5 -120t112.5 -45q71 0 113.5 45t42.5 120h180v-16q0 -134 -92 -214.5t-244 -80.5zM858 -27q-214 0 -384.5 95.5t-265.5 265.5t-95 383q0 160 56 298t153.5 236t236.5 153.5t299 55.5q213 0 383 -95t265.5 -265
t95.5 -383t-95.5 -383t-265.5 -265.5t-383 -95.5zM858 195q215 0 357.5 148t142.5 374t-142.5 374t-357.5 148q-217 0 -359.5 -148t-142.5 -374t142.5 -374t359.5 -148z" />
    <glyph glyph-name="obreve" unicode="&#x14f;" horiz-adv-x="1277" 
d="M303 1499h180q0 -74 43 -120t113 -46t113 46t43 120h180q0 -140 -92.5 -225.5t-243.5 -85.5q-152 0 -244 85.5t-92 225.5zM637 -27q-244 0 -396.5 156t-152.5 391q0 153 68 277.5t195.5 197t291.5 72.5t289 -73t189.5 -196.5t64.5 -277.5q0 -153 -66 -276.5t-192.5 -197
t-290.5 -73.5zM637 178q145 0 232 97t87 245q0 149 -84.5 245.5t-228.5 96.5q-146 0 -235 -96.5t-89 -245.5q0 -150 85.5 -246t232.5 -96z" />
    <glyph glyph-name="Ohungarumlaut" unicode="&#x150;" horiz-adv-x="1703" 
d="M717 1923h227l-246 -338h-223zM1135 1923h227l-246 -338h-223zM109 715q-2 208 94.5 380t268 270t380.5 95q209 3 380.5 -95t268 -270t94.5 -380q1 -155 -55 -293.5t-154.5 -237.5t-237.5 -156t-296 -55q-157 -2 -296 55t-237.5 156t-154.5 237.5t-55 293.5zM1348 715
q0 229 -139.5 375.5t-356.5 146.5t-356.5 -146.5t-139.5 -375.5q0 -227 139.5 -372.5t356.5 -145.5t356.5 145.5t139.5 372.5z" />
    <glyph glyph-name="ohungarumlaut" unicode="&#x151;" horiz-adv-x="1277" 
d="M485 1192h-221l219 338h228zM903 1192h-221l219 338h227zM637 -27q-244 0 -396.5 156t-152.5 391q0 153 68 277.5t195.5 197t291.5 72.5t289 -73t189.5 -196.5t64.5 -277.5q0 -153 -66 -276.5t-192.5 -197t-290.5 -73.5zM637 178q145 0 232 97t87 245q0 149 -84.5 245.5
t-228.5 96.5q-146 0 -235 -96.5t-89 -245.5q0 -150 85.5 -246t232.5 -96z" />
    <glyph glyph-name="OE" unicode="&#x152;" horiz-adv-x="2242" 
d="M2120 215v-215h-1268q-216 0 -385 89.5t-263.5 252.5t-94.5 373q-2 209 94 374t266 255.5t383 89.5h1247v-213h-766v-392h719v-211h-719v-403h787zM1098 219v995h-246q-220 0 -358 -137t-138 -362q0 -224 138 -360t358 -136h246z" />
    <glyph glyph-name="oe" unicode="&#x153;" horiz-adv-x="2093" 
d="M1493 1047q258 0 396 -156t116 -432h-819q0 -130 94 -212.5t231 -82.5q105 0 195 39t141 106l127 -133q-66 -92 -193 -145.5t-278 -53.5q-138 0 -249.5 49.5t-184.5 141.5q-74 -92 -185 -143.5t-247 -51.5q-244 0 -396.5 156t-152.5 391q0 153 68 277.5t195.5 197
t291.5 72.5q139 0 250 -53t182 -148q73 86 181 133.5t237 47.5zM1182 602h600q-2 121 -80 198t-209 77q-128 0 -217 -82t-94 -193zM637 178q135 0 221.5 86t95.5 221v31v35q-8 137 -91.5 224t-219.5 87q-146 0 -235 -96.5t-89 -245.5q0 -150 85.5 -246t232.5 -96z" />
    <glyph glyph-name="Racute" unicode="&#x154;" horiz-adv-x="1413" 
d="M735 1585h-221l219 338h228zM629 522h-213v-518h-236v1430h649q92 0 176 -36t144.5 -97t96.5 -145t36 -177q0 -160 -97.5 -280.5t-246.5 -153.5l-51 -6l426 -531l-279 -8zM416 737h383q99 0 169 70.5t70 171.5q0 100 -70.5 171t-168.5 71h-383v-484z" />
    <glyph glyph-name="racute" unicode="&#x155;" horiz-adv-x="827" 
d="M535 1192h-222l219 338h228zM700 1047q45 0 95 -13l-4 -217q-65 6 -132 6q-132 0 -206 -77t-74 -216v-530h-227v1024h221v-184q45 94 132.5 150.5t194.5 56.5z" />
    <glyph glyph-name="uni0156" unicode="&#x156;" horiz-adv-x="1413" 
d="M629 522h-213v-518h-236v1430h649q92 0 176 -36t144.5 -97t96.5 -145t36 -177q0 -160 -97.5 -280.5t-246.5 -153.5l-51 -6l426 -531l-279 -8zM416 737h383q99 0 169 70.5t70 171.5q0 100 -70.5 171t-168.5 71h-383v-484zM600 -178h225l-129 -371h-178z" />
    <glyph glyph-name="uni0157" unicode="&#x157;" horiz-adv-x="827" 
d="M700 1047q45 0 95 -13l-4 -217q-65 6 -132 6q-132 0 -206 -77t-74 -216v-530h-227v1024h221v-184q45 94 132.5 150.5t194.5 56.5zM152 -178h227l-131 -371h-178z" />
    <glyph glyph-name="Rcaron" unicode="&#x158;" horiz-adv-x="1413" 
d="M573 1585l-294 338h229l178 -207l178 207h230l-295 -338h-226zM629 522h-213v-518h-236v1430h649q92 0 176 -36t144.5 -97t96.5 -145t36 -177q0 -160 -97.5 -280.5t-246.5 -153.5l-51 -6l426 -531l-279 -8zM416 737h383q99 0 169 70.5t70 171.5q0 100 -70.5 171
t-168.5 71h-383v-484z" />
    <glyph glyph-name="rcaron" unicode="&#x159;" horiz-adv-x="827" 
d="M838 1530l-293 -338h-228l-292 338h229l178 -207l176 207h230zM700 1047q45 0 95 -13l-4 -217q-65 6 -132 6q-132 0 -206 -77t-74 -216v-530h-227v1024h221v-184q45 94 132.5 150.5t194.5 56.5z" />
    <glyph glyph-name="Sacute" unicode="&#x15a;" horiz-adv-x="1288" 
d="M735 1585h-221l219 338h228zM668 -27q-212 0 -368 84.5t-228 237.5l161 127q66 -115 179.5 -175.5t263.5 -60.5q143 0 220 56t77 155q0 75 -56 122t-190 79l-215 51q-205 51 -303 149t-98 251q0 187 140 299t386 112q191 0 333 -69.5t210 -194.5l-162 -129
q-121 182 -383 182q-138 0 -212.5 -51.5t-74.5 -144.5q0 -70 56.5 -116t197.5 -79l223 -53q199 -49 292 -147t93 -248q0 -199 -145 -318t-397 -119z" />
    <glyph glyph-name="sacute" unicode="&#x15b;" horiz-adv-x="1042" 
d="M621 1192h-222l219 338h230zM532 -27q-150 0 -272.5 49t-191.5 136l102 153q63 -69 160.5 -110t204.5 -41q97 0 147.5 35.5t50.5 95.5q0 46 -35 75.5t-116 49.5l-195 47q-146 35 -213.5 104t-67.5 176q0 150 113 237t309 87q134 0 245 -43t175 -117l-104 -153
q-137 125 -316 125q-96 0 -145 -33t-49 -94q0 -44 33.5 -71.5t115.5 -47.5l195 -47q151 -38 219 -107.5t68 -177.5q0 -152 -115 -240t-318 -88z" />
    <glyph glyph-name="Scircumflex" unicode="&#x15c;" horiz-adv-x="1288" 
d="M467 1585h-229l292 338h228l293 -338h-230l-176 209zM825 805q199 -49 292 -147t93 -248q0 -199 -145 -318t-397 -119q-212 0 -368 84.5t-228 237.5l161 127q66 -115 179.5 -175.5t263.5 -60.5q143 0 220 56t77 155q0 75 -56 122t-190 79l-215 51q-205 51 -303 149
t-98 251q0 187 140 299t386 112q191 0 333 -69.5t210 -194.5l-162 -129q-121 182 -383 182q-138 0 -212.5 -51.5t-74.5 -144.5q0 -70 56.5 -116t197.5 -79z" />
    <glyph glyph-name="scircumflex" unicode="&#x15d;" horiz-adv-x="1042" 
d="M346 1192h-227l293 338h225l295 -338h-230l-178 207zM678 586q151 -38 219 -107.5t68 -177.5q0 -152 -115 -240t-318 -88q-150 0 -272.5 49t-191.5 136l102 153q63 -69 160.5 -110t204.5 -41q97 0 147.5 35.5t50.5 95.5q0 46 -35 75.5t-116 49.5l-195 47
q-146 35 -213.5 104t-67.5 176q0 150 113 237t309 87q134 0 245 -43t175 -117l-104 -153q-137 125 -316 125q-96 0 -145 -33t-49 -94q0 -44 33.5 -71.5t115.5 -47.5z" />
    <glyph glyph-name="Scedilla" unicode="&#x15e;" horiz-adv-x="1288" 
d="M770 -20l-113 -388h-231l145 388q-178 17 -307 98.5t-192 216.5l161 127q66 -115 179.5 -175.5t263.5 -60.5q143 0 220 56t77 155q0 75 -56 122t-190 79l-215 51q-205 51 -303 149t-98 251q0 187 140 299t386 112q191 0 333 -69.5t210 -194.5l-162 -129
q-121 182 -383 182q-138 0 -212.5 -51.5t-74.5 -144.5q0 -70 56.5 -116t197.5 -79l223 -53q199 -49 292 -147t93 -248q0 -179 -116.5 -293t-323.5 -137z" />
    <glyph glyph-name="scedilla" unicode="&#x15f;" horiz-adv-x="1042" 
d="M965 301q0 -130 -88 -215t-248 -104l-111 -390h-231l143 388q-118 13 -212 59.5t-150 118.5l102 153q63 -69 160.5 -110t204.5 -41q97 0 147.5 35.5t50.5 95.5q0 46 -35 75.5t-116 49.5l-195 47q-146 35 -213.5 104t-67.5 176q0 150 113 237t309 87q134 0 245 -43
t175 -117l-104 -153q-137 125 -316 125q-96 0 -145 -33t-49 -94q0 -44 33.5 -71.5t115.5 -47.5l195 -47q151 -38 219 -107.5t68 -177.5z" />
    <glyph glyph-name="Scaron" unicode="&#x160;" horiz-adv-x="1288" 
d="M530 1585l-292 338h229l178 -207l176 207h230l-293 -338h-228zM825 805q199 -49 292 -147t93 -248q0 -199 -145 -318t-397 -119q-212 0 -368 84.5t-228 237.5l161 127q66 -115 179.5 -175.5t263.5 -60.5q143 0 220 56t77 155q0 75 -56 122t-190 79l-215 51
q-205 51 -303 149t-98 251q0 187 140 299t386 112q191 0 333 -69.5t210 -194.5l-162 -129q-121 182 -383 182q-138 0 -212.5 -51.5t-74.5 -144.5q0 -70 56.5 -116t197.5 -79z" />
    <glyph glyph-name="scaron" unicode="&#x161;" horiz-adv-x="1042" 
d="M412 1192l-293 338h227l178 -207l178 207h230l-295 -338h-225zM678 586q151 -38 219 -107.5t68 -177.5q0 -152 -115 -240t-318 -88q-150 0 -272.5 49t-191.5 136l102 153q63 -69 160.5 -110t204.5 -41q97 0 147.5 35.5t50.5 95.5q0 46 -35 75.5t-116 49.5l-195 47
q-146 35 -213.5 104t-67.5 176q0 150 113 237t309 87q134 0 245 -43t175 -117l-104 -153q-137 125 -316 125q-96 0 -145 -33t-49 -94q0 -44 33.5 -71.5t115.5 -47.5z" />
    <glyph glyph-name="uni0162" unicode="&#x162;" horiz-adv-x="1241" 
d="M1196 1434v-220h-457v-1214h-22l-117 -408h-231l151 408l-18 4v1210h-455v220h1149z" />
    <glyph glyph-name="uni0163" unicode="&#x163;" horiz-adv-x="849" 
d="M778 205v-205h-166l-108 -408h-205l131 418q-81 24 -133.5 93t-52.5 157l2 563h-203v201h203v324h227v-324h301v-201h-301v-532q0 -36 25 -61t61 -25h219z" />
    <glyph glyph-name="Tcaron" unicode="&#x164;" horiz-adv-x="1241" 
d="M508 1585l-295 338h229l179 -207l178 207h229l-295 -338h-225zM1196 1434v-220h-457v-1214h-237v1214h-455v220h1149z" />
    <glyph glyph-name="tcaron" unicode="&#x165;" horiz-adv-x="851" 
d="M625 1593h178v-419h-178v419zM459 0q-89 0 -152 63t-63 152l2 608h-203v201h203v324h227v-324h301v-201h-301v-590q0 -12 8.5 -20t20.5 -8h276v-205h-319z" />
    <glyph glyph-name="Tbar" unicode="&#x166;" horiz-adv-x="1241" 
d="M739 1214v-387h273v-188h-273v-639h-237v639h-273v188h273v387h-455v220h1149v-220h-457z" />
    <glyph glyph-name="tbar" unicode="&#x167;" horiz-adv-x="849" 
d="M778 442h-305v-151q0 -36 25 -61t61 -25h219v-205h-276q-106 0 -182 76.5t-76 183.5v182h-201v203h203v178h-203v201h203v324h227v-324h301v-201h-301v-178h305v-203z" />
    <glyph glyph-name="Utilde" unicode="&#x168;" horiz-adv-x="1513" 
d="M922 1608q-80 0 -177 67q-59 47 -108 47q-70 0 -70 -108h-168q0 138 50 210t143 72q43 0 82.5 -15.5t91.5 -51.5q62 -47 108 -47q72 0 72 108h166q0 -139 -48.5 -210.5t-141.5 -71.5zM762 -27q-264 0 -428 164t-164 428v869h238v-883q0 -165 94.5 -259.5t259.5 -94.5
q171 0 262.5 94t91.5 260v883h238v-869q0 -266 -161 -429t-431 -163z" />
    <glyph glyph-name="utilde" unicode="&#x169;" horiz-adv-x="1224" 
d="M600 1280q-61 49 -108 49q-72 0 -72 -108h-166q0 139 48.5 210.5t141.5 71.5q45 0 84 -15.5t90 -51.5q62 -50 111 -50q70 0 70 111h168q0 -139 -50 -212t-143 -73q-76 0 -174 68zM1079 1024v-1024h-223v172q-44 -89 -138 -144t-204 -55q-157 0 -267 110t-110 265v676h230
v-600q0 -101 70.5 -171.5t170.5 -72.5q100 0 172 71.5t72 172.5l-2 600h229z" />
    <glyph glyph-name="Umacron" unicode="&#x16a;" horiz-adv-x="1513" 
d="M426 1815h661v-179h-661v179zM762 -27q-264 0 -428 164t-164 428v869h238v-883q0 -165 94.5 -259.5t259.5 -94.5q171 0 262.5 94t91.5 260v883h238v-869q0 -266 -161 -429t-431 -163z" />
    <glyph glyph-name="umacron" unicode="&#x16b;" horiz-adv-x="1224" 
d="M279 1421h661v-180h-661v180zM1079 1024v-1024h-223v172q-44 -89 -138 -144t-204 -55q-157 0 -267 110t-110 265v676h230v-600q0 -101 70.5 -171.5t170.5 -72.5q100 0 172 71.5t72 172.5l-2 600h229z" />
    <glyph glyph-name="Ubreve" unicode="&#x16c;" horiz-adv-x="1513" 
d="M756 1583q-151 0 -243.5 81t-92.5 214v16h180q0 -75 43.5 -120t112.5 -45q70 0 112.5 45t42.5 120h181v-16q0 -134 -92 -214.5t-244 -80.5zM762 -27q-264 0 -428 164t-164 428v869h238v-883q0 -165 94.5 -259.5t259.5 -94.5q171 0 262.5 94t91.5 260v883h238v-869
q0 -266 -161 -429t-431 -163z" />
    <glyph glyph-name="ubreve" unicode="&#x16d;" horiz-adv-x="1224" 
d="M274 1499h181q0 -74 42.5 -120t112.5 -46q69 0 112.5 46.5t43.5 119.5h180v-16q0 -132 -92.5 -213.5t-243.5 -81.5q-152 0 -244 81.5t-92 213.5v16zM1079 1024v-1024h-223v172q-44 -89 -138 -144t-204 -55q-157 0 -267 110t-110 265v676h230v-600q0 -101 70.5 -171.5
t170.5 -72.5q100 0 172 71.5t72 172.5l-2 600h229z" />
    <glyph glyph-name="Uring" unicode="&#x16e;" horiz-adv-x="1513" 
d="M756 1573q-116 0 -195.5 75t-79.5 181q0 108 79.5 183t195.5 75q117 0 195.5 -75t78.5 -183q0 -107 -78.5 -181.5t-195.5 -74.5zM756 1702q60 0 94.5 35t34.5 92q0 59 -34.5 94t-94.5 35t-94.5 -35t-34.5 -94q0 -57 34.5 -92t94.5 -35zM762 -27q-264 0 -428 164t-164 428
v869h238v-883q0 -165 94.5 -259.5t259.5 -94.5q171 0 262.5 94t91.5 260v883h238v-869q0 -266 -161 -429t-431 -163z" />
    <glyph glyph-name="uring" unicode="&#x16f;" horiz-adv-x="1224" 
d="M336 1436q0 108 78.5 183t195.5 75q116 0 195.5 -75t79.5 -183t-79.5 -183t-195.5 -75q-117 0 -195.5 75t-78.5 183zM739 1436q0 59 -34.5 93t-94.5 34t-94.5 -34t-34.5 -93t34.5 -93t94.5 -34t94.5 34t34.5 93zM1079 1024v-1024h-223v172q-44 -89 -138 -144t-204 -55
q-157 0 -267 110t-110 265v676h230v-600q0 -101 70.5 -171.5t170.5 -72.5q100 0 172 71.5t72 172.5l-2 600h229z" />
    <glyph glyph-name="Uhungarumlaut" unicode="&#x170;" horiz-adv-x="1513" 
d="M621 1923h227l-246 -338h-223zM1038 1923h228l-246 -338h-223zM762 -27q-264 0 -428 164t-164 428v869h238v-883q0 -165 94.5 -259.5t259.5 -94.5q171 0 262.5 94t91.5 260v883h238v-869q0 -266 -161 -429t-431 -163z" />
    <glyph glyph-name="uhungarumlaut" unicode="&#x171;" horiz-adv-x="1224" 
d="M455 1192h-222l220 338h229zM905 1192h-221l219 338h227zM1079 1024v-1024h-223v172q-44 -89 -138 -144t-204 -55q-157 0 -267 110t-110 265v676h230v-600q0 -101 70.5 -171.5t170.5 -72.5q100 0 172 71.5t72 172.5l-2 600h229z" />
    <glyph glyph-name="Uogonek" unicode="&#x172;" horiz-adv-x="1513" 
d="M1116 1434h238v-869q0 -205 -99 -352.5t-274 -206.5l12 2q-96 -59 -138 -105t-42 -89q0 -78 133 -78h47v-164h-88q-136 0 -207 50.5t-71 139.5q0 120 114 211q-255 6 -413 169.5t-158 422.5v869h238v-883q0 -165 94.5 -259.5t259.5 -94.5q171 0 262.5 94t91.5 260v883z
" />
    <glyph glyph-name="uogonek" unicode="&#x173;" horiz-adv-x="1224" 
d="M850 1024h229v-1018l-16 -6q-92 -57 -130 -103.5t-38 -91.5q0 -79 133 -79h45v-162h-88q-134 0 -205 50.5t-71 139.5q0 145 168 250l-21 4v164q-44 -89 -138 -144t-204 -55q-157 0 -267 110t-110 265v676h230v-600q0 -101 70.5 -171.5t170.5 -72.5q100 0 172 71.5
t72 172.5z" />
    <glyph glyph-name="Wcircumflex" unicode="&#x174;" horiz-adv-x="2146" 
d="M895 1585h-227l293 338h225l295 -338h-230l-178 209zM1855 1434h252l-436 -1434h-266l-328 977l-329 -977h-263l-440 1434h252l332 -1104l387 1104h123l385 -1110z" />
    <glyph glyph-name="wcircumflex" unicode="&#x175;" horiz-adv-x="1732" 
d="M690 1192h-229l293 338h227l293 -338h-230l-178 207zM1698 1024l-336 -1024h-254l-242 739l-243 -739h-254l-334 1024h233l240 -752l254 752h209l254 -752l239 752h234z" />
    <glyph glyph-name="Ycircumflex" unicode="&#x176;" horiz-adv-x="1318" 
d="M481 1585h-229l295 338h225l293 -338h-227l-179 209zM1331 1434l-549 -859v-575h-237v575l-543 859h270l392 -631l395 631h272z" />
    <glyph glyph-name="ycircumflex" unicode="&#x177;" horiz-adv-x="1120" 
d="M385 1192h-229l293 338h227l293 -338h-230l-178 207zM1094 1040l-465 -1187q-58 -146 -147 -204.5t-249 -58.5h-190v205h152q103 0 149.5 27t75.5 104l33 82l-424 1032h245l295 -768l281 768h244z" />
    <glyph glyph-name="Ydieresis" unicode="&#x178;" horiz-adv-x="1318" 
d="M420 1624q-63 0 -102 38.5t-39 100.5t39 102t102 40q64 0 103.5 -40t39.5 -102t-39.5 -100.5t-103.5 -38.5zM897 1622q-63 0 -103 39.5t-40 101.5t40 102t103 40q64 0 103.5 -40t39.5 -102t-39.5 -101.5t-103.5 -39.5zM1331 1434l-549 -859v-575h-237v575l-543 859h270
l392 -631l395 631h272z" />
    <glyph glyph-name="Zacute" unicode="&#x179;" horiz-adv-x="1245" 
d="M674 1585h-221l241 338h267zM1157 213v-213h-1069v178l750 1043h-736v213h1045v-179l-750 -1042h760z" />
    <glyph glyph-name="zacute" unicode="&#x17a;" horiz-adv-x="1013" 
d="M600 1192h-223l219 338h229zM926 195v-195h-844v152l543 694h-525v194h822v-151l-543 -694h547z" />
    <glyph glyph-name="Zdotaccent" unicode="&#x17b;" horiz-adv-x="1245" 
d="M625 1624q-65 0 -105.5 38t-40.5 101t40.5 102.5t105.5 39.5q66 0 106.5 -39.5t40.5 -102.5t-40.5 -101t-106.5 -38zM1157 213v-213h-1069v178l750 1043h-736v213h1045v-179l-750 -1042h760z" />
    <glyph glyph-name="zdotaccent" unicode="&#x17c;" horiz-adv-x="1013" 
d="M508 1229q-60 0 -101.5 41.5t-41.5 101.5q0 59 41.5 101.5t101.5 42.5q58 0 99.5 -42.5t41.5 -101.5q0 -60 -41 -101.5t-100 -41.5zM926 195v-195h-844v152l543 694h-525v194h822v-151l-543 -694h547z" />
    <glyph glyph-name="Zcaron" unicode="&#x17d;" horiz-adv-x="1245" 
d="M512 1585l-293 338h230l176 -207l178 207h229l-293 -338h-227zM1157 213v-213h-1069v178l750 1043h-736v213h1045v-179l-750 -1042h760z" />
    <glyph glyph-name="zcaron" unicode="&#x17e;" horiz-adv-x="1013" 
d="M915 1530l-294 -338h-226l-295 338h230l178 -207l178 207h229zM926 195v-195h-844v152l543 694h-525v194h822v-151l-543 -694h547z" />
    <glyph glyph-name="uni01CD" unicode="&#x1cd;" horiz-adv-x="1439" 
d="M621 1585l-295 338h229l178 -207l178 207h230l-295 -338h-225zM1032 307h-637l-119 -307h-251l561 1434h245l574 -1434h-252zM958 512l-243 686l-244 -686h487z" />
    <glyph glyph-name="uni01CE" unicode="&#x1ce;" horiz-adv-x="1144" 
d="M516 1192l-293 338h230l178 -207l176 207h229l-293 -338h-227zM1014 0h-195v184q-39 -97 -133 -152t-227 -55q-170 0 -270.5 91t-100.5 237q0 100 54.5 171t149.5 105t223.5 42t275.5 -17l-3 78q0 89 -57 136.5t-153 47.5q-87 0 -164 -35.5t-129 -99.5l-123 129
q61 81 184.5 133t249.5 52q192 0 305 -107.5t113 -290.5v-649zM791 477q-221 36 -350.5 -4.5t-129.5 -153.5q0 -80 54 -127t149 -47q129 0 203 71.5t74 197.5v63z" />
    <glyph glyph-name="uni01E2" unicode="&#x1e2;" horiz-adv-x="2226" 
d="M1790 1636h-664v179h664v-179zM2103 217v-217h-1020v326h-575l-211 -326h-281l928 1434h1139v-217h-766v-383h723v-218h-723v-399h786zM1083 522v711l-460 -711h460z" />
    <glyph glyph-name="uni01E3" unicode="&#x1e3;" horiz-adv-x="1929" 
d="M1309 1421v-180h-662v180h662zM1329 1047q258 0 396 -156t116 -432h-819q0 -130 94 -212.5t232 -82.5q104 0 194 39t141 106l127 -133q-66 -92 -193 -145.5t-278 -53.5q-146 0 -262.5 55t-187.5 156q-80 -108 -192 -159.5t-238 -51.5q-170 0 -270.5 91t-100.5 237
q0 100 54.5 171t149.5 105t223.5 42t275.5 -17l-3 78q0 89 -57 136.5t-153 47.5q-87 0 -164 -35.5t-129 -99.5l-123 129q61 81 184.5 133t249.5 52q230 0 344 -152q71 73 171.5 112.5t217.5 39.5zM1018 602h600q-2 121 -80 198t-209 77q-128 0 -217 -82t-94 -193zM791 406
v71q-221 36 -350.5 -4.5t-129.5 -153.5q0 -80 54 -127t149 -47q134 0 205.5 70.5t71.5 190.5z" />
    <glyph glyph-name="Gcaron" unicode="&#x1e6;" horiz-adv-x="1587" 
d="M723 1585l-295 338h229l179 -207l178 207h227l-293 -338h-225zM1473 786l-3 -536q-232 -279 -620 -279q-173 1 -313.5 59t-232.5 158t-141.5 234.5t-49.5 290.5q0 157 51 293.5t144.5 236.5t233.5 157.5t308 57.5q189 0 345 -82.5t251 -228.5l-193 -133
q-64 107 -167.5 165t-235.5 58q-222 0 -358 -148.5t-136 -375.5q0 -224 134 -370.5t360 -149.5q261 0 403 151v248h-340v194h560z" />
    <glyph glyph-name="gcaron" unicode="&#x1e7;" horiz-adv-x="1320" 
d="M1069 1530l-293 -338h-225l-295 338h229l179 -207l178 207h227zM1171 1026v-932q0 -235 -152.5 -385.5t-393.5 -150.5q-142 0 -278.5 59.5t-211.5 153.5l105 159q65 -76 168 -124t202 -48q70 0 131 22t109 64.5t76 112t28 158.5v114q-42 -98 -150 -158.5t-235 -60.5
q-215 0 -347 147t-132 382q0 225 132.5 365t346.5 140q130 0 230.5 -52.5t142.5 -139.5v174h229zM635 209q138 0 225.5 92t87.5 238t-87.5 238.5t-225.5 92.5q-140 0 -226.5 -91.5t-86.5 -239.5t86.5 -239t226.5 -91z" />
    <glyph glyph-name="uni01E8" unicode="&#x1e8;" horiz-adv-x="1386" 
d="M1147 1923l-293 -338h-227l-293 338h229l178 -207l177 207h229zM1362 1434l-694 -723l692 -711h-295l-559 551l-86 -90v-461h-238v1434h238v-672l655 672h287z" />
    <glyph glyph-name="uni01E9" unicode="&#x1e9;" horiz-adv-x="1112" 
d="M152 1651l-295 338h229l178 -207l178 207h230l-295 -338h-225zM831 0l-393 401l-59 -67v-334h-227v1499h227v-903l450 428h265l-484 -475l492 -549h-271z" />
    <glyph glyph-name="AEacute" unicode="&#x1fc;" horiz-adv-x="2226" 
d="M1507 1585h-221l219 338h228zM2103 217v-217h-1020v326h-575l-211 -326h-281l928 1434h1139v-217h-766v-383h723v-218h-723v-399h786zM1083 522v711l-460 -711h460z" />
    <glyph glyph-name="aeacute" unicode="&#x1fd;" horiz-adv-x="1929" 
d="M1389 1530l-226 -338h-221l219 338h228zM1329 1047q258 0 396 -156t116 -432h-819q0 -130 94 -212.5t232 -82.5q104 0 194 39t141 106l127 -133q-66 -92 -193 -145.5t-278 -53.5q-146 0 -262.5 55t-187.5 156q-80 -108 -192 -159.5t-238 -51.5q-170 0 -270.5 91
t-100.5 237q0 100 54.5 171t149.5 105t223.5 42t275.5 -17l-3 78q0 89 -57 136.5t-153 47.5q-87 0 -164 -35.5t-129 -99.5l-123 129q61 81 184.5 133t249.5 52q230 0 344 -152q71 73 171.5 112.5t217.5 39.5zM1018 602h600q-2 121 -80 198t-209 77q-128 0 -217 -82t-94 -193
zM791 406v71q-221 36 -350.5 -4.5t-129.5 -153.5q0 -80 54 -127t149 -47q134 0 205.5 70.5t71.5 190.5z" />
    <glyph glyph-name="Oslashacute" unicode="&#x1fe;" horiz-adv-x="1703" 
d="M924 1585h-222l220 338h227zM1595 715q1 -155 -55 -293.5t-154.5 -237.5t-237.5 -156t-296 -55q-268 0 -463 156l-147 -147l-125 122l147 146q-155 193 -155 465q-2 208 94.5 380t268 270t380.5 95q268 0 465 -155l149 149l125 -123l-149 -149q153 -197 153 -467z
M356 715q0 -163 84 -293l711 713q-124 102 -299 102q-217 0 -356.5 -146.5t-139.5 -375.5zM1348 715q0 170 -84 295l-711 -711q124 -102 299 -102q217 0 356.5 145.5t139.5 372.5z" />
    <glyph glyph-name="oslashacute" unicode="&#x1ff;" horiz-adv-x="1286" 
d="M688 1192h-221l242 338h266zM1087 858q105 -138 105 -338q0 -239 -152 -393t-397 -154q-194 0 -336 105l-127 -125l-104 106l123 123q-105 138 -105 338q0 156 67.5 280t193.5 195.5t288 71.5q195 0 336 -104l125 122l106 -104zM643 874q-150 0 -240 -96.5t-90 -257.5
q0 -113 52 -190l479 477q-76 67 -201 67zM643 164q149 0 238.5 97.5t89.5 258.5q0 115 -49 191l-480 -480q83 -67 201 -67z" />
    <glyph glyph-name="uni0218" unicode="&#x218;" horiz-adv-x="1288" 
d="M668 -27q-212 0 -368 84.5t-228 237.5l161 127q66 -115 179.5 -175.5t263.5 -60.5q143 0 220 56t77 155q0 75 -56 122t-190 79l-215 51q-205 51 -303 149t-98 251q0 187 140 299t386 112q191 0 333 -69.5t210 -194.5l-162 -129q-121 182 -383 182q-138 0 -212.5 -51.5
t-74.5 -144.5q0 -70 56.5 -116t197.5 -79l223 -53q199 -49 292 -147t93 -248q0 -199 -145 -318t-397 -119zM551 -178h227l-131 -371h-178z" />
    <glyph glyph-name="uni0219" unicode="&#x219;" horiz-adv-x="1042" 
d="M532 -27q-150 0 -272.5 49t-191.5 136l102 153q63 -69 160.5 -110t204.5 -41q97 0 147.5 35.5t50.5 95.5q0 46 -35 75.5t-116 49.5l-195 47q-146 35 -213.5 104t-67.5 176q0 150 113 237t309 87q134 0 245 -43t175 -117l-104 -153q-137 125 -316 125q-96 0 -145 -33
t-49 -94q0 -44 33.5 -71.5t115.5 -47.5l195 -47q151 -38 219 -107.5t68 -177.5q0 -152 -115 -240t-318 -88zM412 -178h227l-131 -371h-178z" />
    <glyph glyph-name="uni021A" unicode="&#x21a;" horiz-adv-x="1241" 
d="M502 1214h-455v220h1149v-220h-457v-1214h-237v1214zM496 -178h225l-131 -371h-176z" />
    <glyph glyph-name="uni021B" unicode="&#x21b;" horiz-adv-x="849" 
d="M246 838h-203v202h203v308h227v-308h301v-202h-301v-504q0 -67 32 -98t103 -31h170v-205h-231q-156 0 -228.5 69t-72.5 222v547zM397 -178h176l-79 -371h-179z" />
    <glyph glyph-name="uni0237" unicode="&#x237;" horiz-adv-x="534" 
d="M-82 -209h111q125 0 125 127v1106h227v-1147q0 -140 -76.5 -213.5t-226.5 -73.5h-160v201z" />
    <glyph glyph-name="circumflex" unicode="&#x2c6;" horiz-adv-x="1269" 
d="M813 1192l-178 207l-178 -207h-230l295 338h226l294 -338h-229z" />
    <glyph glyph-name="caron" unicode="&#x2c7;" horiz-adv-x="1269" 
d="M1042 1530l-294 -338h-226l-295 338h230l178 -207l178 207h229z" />
    <glyph glyph-name="breve" unicode="&#x2d8;" horiz-adv-x="1269" 
d="M635 1188q-161 0 -248.5 77.5t-87.5 217.5v16h180q0 -166 156 -166t156 166h180v-16q0 -140 -87.5 -217.5t-248.5 -77.5z" />
    <glyph glyph-name="dotaccent" unicode="&#x2d9;" horiz-adv-x="1269" 
d="M635 1229q-66 0 -107 38.5t-41 102.5q0 63 41 101t107 38t106.5 -38t40.5 -101q0 -64 -40.5 -102.5t-106.5 -38.5z" />
    <glyph glyph-name="ring" unicode="&#x2da;" horiz-adv-x="1269" 
d="M635 1178q-116 0 -195.5 75t-79.5 183t79.5 183t195.5 75q117 0 195.5 -75t78.5 -183t-78.5 -183t-195.5 -75zM635 1309q60 0 94.5 34t34.5 93t-34.5 93t-94.5 34t-94.5 -34t-34.5 -93t34.5 -93t94.5 -34z" />
    <glyph glyph-name="ogonek" unicode="&#x2db;" horiz-adv-x="1269" 
d="M756 -436h-88q-136 0 -207.5 50.5t-71.5 139.5q0 91 72 169.5t201 127.5l94 -51q-95 -59 -136.5 -105t-41.5 -90q0 -79 131 -79h47v-162z" />
    <glyph glyph-name="tilde" unicode="&#x2dc;" horiz-adv-x="1269" 
d="M801 1212q-44 0 -83.5 15.5t-92.5 52.5q-58 49 -109 49q-70 0 -70 -108h-167q0 139 49.5 210.5t142.5 71.5q43 0 82.5 -15.5t91.5 -51.5q62 -50 109 -50q71 0 71 111h166q0 -139 -49.5 -212t-140.5 -73z" />
    <glyph glyph-name="hungarumlaut" unicode="&#x2dd;" horiz-adv-x="1269" 
d="M553 1530h227l-245 -338h-224zM971 1530h227l-246 -338h-223z" />
    <glyph glyph-name="gravecomb" unicode="&#x300;" 
d="M-745 1192l-285 338h266l242 -338h-223z" />
    <glyph glyph-name="acutecomb" unicode="&#x301;" 
d="M-502 1530h266l-286 -338h-221z" />
    <glyph glyph-name="uni0302" unicode="&#x302;" 
d="M-457 1192l-178 207l-178 -207h-229l294 338h226l295 -338h-230z" />
    <glyph glyph-name="tildecomb" unicode="&#x303;" 
d="M-471 1212q-76 0 -174 68q-58 49 -109 49q-71 0 -71 -108h-166q0 138 49 210t141 72q45 0 84 -15.5t90 -51.5q65 -50 111 -50q70 0 70 111h167q0 -139 -49.5 -212t-142.5 -73z" />
    <glyph glyph-name="uni0304" unicode="&#x304;" 
d="M-967 1421h664v-180h-664v180z" />
    <glyph glyph-name="uni0306" unicode="&#x306;" 
d="M-635 1188q-161 0 -248.5 77.5t-87.5 217.5v16h180q0 -166 156 -166t156 166h180v-16q0 -140 -87.5 -217.5t-248.5 -77.5z" />
    <glyph glyph-name="uni0307" unicode="&#x307;" 
d="M-635 1229q-66 0 -106.5 38.5t-40.5 102.5q0 63 40.5 101t106.5 38t107 -38t41 -101q0 -64 -41 -102.5t-107 -38.5z" />
    <glyph glyph-name="uni0308" unicode="&#x308;" 
d="M-872 1229q-64 0 -104 39t-40 102q0 62 40 100.5t104 38.5q63 0 102 -38.5t39 -100.5q0 -63 -39 -102t-102 -39zM-397 1229q-63 0 -102.5 39t-39.5 102q0 62 39.5 100.5t102.5 38.5q64 0 103.5 -38.5t39.5 -100.5q0 -63 -39.5 -102t-103.5 -39z" />
    <glyph glyph-name="uni030A" unicode="&#x30a;" 
d="M-635 1178q-117 0 -195.5 75t-78.5 183t78.5 183t195.5 75q116 0 195.5 -75t79.5 -183t-79.5 -183t-195.5 -75zM-635 1309q60 0 94.5 34t34.5 93t-34.5 93t-94.5 34t-94.5 -34t-34.5 -93t34.5 -93t94.5 -34z" />
    <glyph glyph-name="uni030B" unicode="&#x30b;" 
d="M-717 1530h228l-246 -338h-223zM-299 1530h227l-245 -338h-224z" />
    <glyph glyph-name="uni030C" unicode="&#x30c;" 
d="M-227 1530l-295 -338h-226l-294 338h229l178 -207l178 207h230z" />
    <glyph glyph-name="uni0312" unicode="&#x312;" 
 />
    <glyph glyph-name="uni0315" unicode="&#x315;" 
d="M-748 1563h226l-49 -418h-177v418z" />
    <glyph glyph-name="uni0326" unicode="&#x326;" 
d="M-748 -178h226l-129 -371h-178z" />
    <glyph glyph-name="uni0327" unicode="&#x327;" 
d="M-719 23h195l-123 -431h-232z" />
    <glyph glyph-name="uni0328" unicode="&#x328;" 
d="M-514 -436h-88q-136 0 -207.5 50.5t-71.5 139.5q0 91 71.5 169.5t201.5 127.5l94 -51q-96 -59 -138 -105.5t-42 -89.5q0 -79 129 -79h51v-162z" />
    <glyph glyph-name="uni060C" unicode="&#x60c;" horiz-adv-x="493" 
d="M293 -2h-230l148 592h186z" />
    <glyph glyph-name="uni0615" unicode="&#x615;" 
d="M645 1769q75 0 114.5 -47t39.5 -137v-123h-471v97h78v344h96v-205q71 71 143 71zM705 1559v30q0 40 -19 62t-53 22q-62 0 -131 -78v-36h203z" />
    <glyph glyph-name="uni061B" unicode="&#x61b;" horiz-adv-x="524" 
d="M350 733h-229l147 592h187zM377 168q8 -65 -25 -106.5t-96 -47.5q-65 -8 -106 24.5t-48 96.5q-6 63 26 105t95 49q63 6 105.5 -27t48.5 -94z" />
    <glyph glyph-name="uni061F" unicode="&#x61f;" horiz-adv-x="950" 
d="M602 573v-114h-215v100q0 65 -15.5 94t-76.5 80l-86 72q-93 78 -132.5 151t-39.5 160q0 156 110.5 250t286.5 94q157 0 278.5 -76.5t188.5 -212.5l-166 -110q-52 98 -129 149.5t-168 51.5q-81 0 -130.5 -41t-49.5 -113q0 -89 94 -168l92 -78q106 -89 131.5 -135.5
t26.5 -153.5zM633 119q-7 -61 -49.5 -94t-104.5 -27q-64 7 -96.5 49t-24.5 105q6 64 47 95t107 25q62 -8 94.5 -48.5t26.5 -104.5z" />
    <glyph glyph-name="uni0621" unicode="&#x621;" horiz-adv-x="1277" 
d="M1122 211v-211h-1032v211h232q-109 98 -109 244v49q0 123 63.5 227t170 163.5t229.5 59.5q174 0 305 -125q72 -66 111 -165l-183 -107q-12 55 -53 102q-67 82 -180 82q-102 0 -176 -69.5t-74 -171.5v-43q0 -103 74.5 -174.5t179.5 -71.5h442z" />
    <glyph glyph-name="uni0622" unicode="&#x622;" horiz-adv-x="569" 
d="M47 1669l-61 72l139 94q12 9 28.5 7.5t28.5 -13.5q61 -64 193 -64q60 0 172 47l41 -106q-44 -22 -109 -40.5t-104 -18.5q-125 0 -217 77q-13 13 -29 0zM180 0v1434h211v-1434h-211z" />
    <glyph glyph-name="uni0623" unicode="&#x623;" horiz-adv-x="528" 
d="M477 1659v-111h-411v111h67q-27 45 -24 92q6 75 59.5 125.5t128.5 50.5q65 0 115 -37t69 -98l-88 -57q-26 80 -96 80q-33 0 -54.5 -21.5t-21.5 -54.5q0 -30 19 -55t57 -25h180zM160 6v1428h211v-1428h-211z" />
    <glyph glyph-name="uni0624" unicode="&#x624;" horiz-adv-x="1146" 
d="M903 1264v-111h-411v111h69q-29 48 -26 92q8 74 61 125t127 51q66 0 115.5 -37t68.5 -98l-88 -60q-26 82 -96 82q-33 0 -54.5 -21.5t-21.5 -54.5q0 -29 19 -54t57 -25h180zM1022 979v-956q0 -217 -148 -353q-108 -102 -248.5 -135t-408.5 -33l2 211h119.5t114.5 6
t106 16.5t94.5 33t81.5 55.5q54 51 66 143l2 33h-228q-133 0 -242.5 66t-172 179.5t-62.5 248.5q0 203 137.5 344t339.5 141h447zM575 211h234v555h-234q-115 0 -191.5 -78t-76.5 -194q0 -119 76.5 -201t191.5 -82z" />
    <glyph glyph-name="uni0625" unicode="&#x625;" horiz-adv-x="528" 
d="M160 6v1421h211v-1421h-211zM477 -410v-110h-411v110h67q-29 49 -24 93q8 76 61 126t127 50q65 0 115 -37t69 -96l-88 -60q-27 82 -96 82q-32 0 -54 -22t-22 -54q0 -30 19.5 -56t56.5 -26h180z" />
    <glyph glyph-name="uni0626" unicode="&#x626;" horiz-adv-x="2091" 
d="M1972 979l-2 -977h-213l4 764h-327q-44 0 -76.5 -31.5t-32.5 -72.5v-898q0 -73 -51.5 -124.5t-122.5 -51.5h-520q-108 0 -206.5 42.5t-170 114t-114 170t-42.5 206.5v352h215v-352q0 -132 93 -227t225 -95h407q30 0 51 21t21 51v791q0 132 94.5 224.5t229.5 92.5h538z
M422 709v-109h-414v109h70q-30 50 -27 92q8 75 62 125.5t129 50.5q65 0 115 -37t67 -96l-86 -60q-26 82 -96 82q-33 0 -55.5 -21.5t-22.5 -53.5q0 -30 20 -56t58 -26h180z" />
    <glyph glyph-name="uni0627" unicode="&#x627;" horiz-adv-x="569" 
d="M180 0v1434h211v-1434h-211z" />
    <glyph glyph-name="uni0628" unicode="&#x628;" horiz-adv-x="1751" 
d="M1626 971v-785q0 -84 -60 -143t-145 -59h-917q-173 0 -296.5 121.5t-123.5 293.5v359h215v-359q0 -86 59.5 -145t145.5 -59h864q19 0 32 13t13 32v731h213zM743 -313q0 51 37.5 89t89.5 38q54 0 92.5 -38t38.5 -89q0 -54 -38.5 -91.5t-92.5 -37.5q-53 0 -90 37.5
t-37 91.5z" />
    <glyph glyph-name="uni0629" unicode="&#x629;" horiz-adv-x="1116" 
d="M389 1407q54 0 92.5 -37.5t38.5 -89.5q0 -54 -38.5 -91.5t-92.5 -37.5q-53 0 -90 37.5t-37 91.5q0 52 37 89.5t90 37.5zM735 1407q54 0 92.5 -37.5t38.5 -89.5q0 -54 -38.5 -91.5t-92.5 -37.5q-53 0 -90 37.5t-37 91.5q0 52 37 89.5t90 37.5zM100 979h467
q192 0 323.5 -131t131.5 -320v-69q0 -125 -60.5 -230t-165 -166.5t-229.5 -62.5q-128 -1 -235.5 57t-169.5 160.5t-62 226.5v535zM567 211q107 0 177.5 72t70.5 178v57q0 104 -73 177t-175 73h-258v-315q0 -111 76.5 -176.5t181.5 -65.5z" />
    <glyph glyph-name="uni062A" unicode="&#x62a;" horiz-adv-x="1751" 
d="M686 1233q54 0 92.5 -37.5t38.5 -89.5q0 -54 -38.5 -91.5t-92.5 -37.5q-53 0 -90 37.5t-37 91.5q0 52 37.5 89.5t89.5 37.5zM1032 1233q54 0 92.5 -37.5t38.5 -89.5q0 -54 -38.5 -91.5t-92.5 -37.5q-53 0 -90 37.5t-37 91.5q0 52 37.5 89.5t89.5 37.5zM1626 971v-768
q0 -85 -60 -144t-145 -59h-917q-173 0 -296.5 122t-123.5 294v342h215v-342q0 -86 59.5 -145.5t145.5 -59.5h864q19 0 32 13t13 32v715h213z" />
    <glyph glyph-name="uni062B" unicode="&#x62b;" horiz-adv-x="1744" 
d="M834 1552q54 0 92.5 -38t38.5 -89q0 -54 -38.5 -91.5t-92.5 -37.5q-53 0 -90 37.5t-37 91.5q0 51 37.5 89t89.5 38zM664 1233q54 0 91.5 -37t37.5 -90q0 -54 -37.5 -91.5t-91.5 -37.5q-53 0 -91 37.5t-38 91.5q0 52 38 89.5t91 37.5zM1010 1233q54 0 91.5 -37t37.5 -90
q0 -54 -37.5 -91.5t-91.5 -37.5q-53 0 -91 37.5t-38 91.5q0 52 38 89.5t91 37.5zM1626 971v-768q0 -85 -60 -144t-145 -59h-917q-173 0 -296.5 122t-123.5 294v342h215v-342q0 -86 59.5 -145.5t145.5 -59.5h864q19 0 32 13t13 32v715h213z" />
    <glyph glyph-name="uni062C" unicode="&#x62c;" horiz-adv-x="1492" 
d="M510 0q-97 0 -164 -68t-67 -165t67.5 -165.5t163.5 -68.5h418v-211h-420q-184 0 -314.5 130t-130.5 315q0 184 130 314t315 130h598q-20 11 -37.5 45t-17.5 72v65q0 201 -123 291q-54 42 -128 62.5t-149.5 18.5t-142 -13.5t-123.5 -30.5l-90 188q89 33 182.5 51t196 20
t203 -29t180.5 -95q88 -71 145.5 -184.5t57.5 -272.5v-73q0 -43 25 -79t69 -36h20v-211h-864zM573 -123q49 0 85 -35t36 -82q0 -51 -35.5 -85.5t-85.5 -34.5t-85 34.5t-35 85.5q0 47 35.5 82t84.5 35z" />
    <glyph glyph-name="uni062D" unicode="&#x62d;" horiz-adv-x="1492" 
d="M487 0q-79 0 -133.5 -54t-54.5 -132q0 -77 54.5 -133t133.5 -56h492v-211h-492q-168 0 -285.5 116.5t-117.5 283.5q0 166 118 281.5t285 115.5h621q-26 14 -42.5 43t-16.5 63v72q0 211 -125 305q-56 43 -145 61t-173 13t-149.5 -16.5t-91.5 -24.5l-54 207q37 10 79 19.5
t135.5 20t176 7t181 -31.5t170.5 -83q207 -164 207 -473v-67q0 -50 33 -82.5t85 -32.5h21v-211h-912z" />
    <glyph glyph-name="uni062E" unicode="&#x62e;" horiz-adv-x="1492" 
d="M709 1413q52 0 90.5 -38t38.5 -89q0 -54 -38 -91.5t-91 -37.5q-54 0 -91.5 37.5t-37.5 91.5q0 52 38 89.5t91 37.5zM487 0q-79 0 -133.5 -54t-54.5 -132q0 -77 54.5 -133t133.5 -56h492v-211h-492q-168 0 -285.5 116.5t-117.5 283.5q0 166 118 281.5t285 115.5h621
q-26 14 -42.5 43t-16.5 63v72q0 204 -125 305q-55 43 -144 60.5t-173.5 12.5t-149.5 -16.5t-92 -23.5l-54 205q25 7 49.5 13t82 16t109.5 15t123 4t132.5 -11.5t127.5 -36.5t118 -66q207 -168 207 -475v-65q0 -50 33 -82.5t85 -32.5h21v-211h-912z" />
    <glyph glyph-name="uni062F" unicode="&#x62f;" horiz-adv-x="1089" 
d="M627 0h-543v211h543q67 0 110 53q41 59 25 117l-160 594l203 57l162 -596q39 -171 -68 -305q-50 -62 -120.5 -96.5t-151.5 -34.5z" />
    <glyph glyph-name="uni0630" unicode="&#x630;" horiz-adv-x="1089" 
d="M532 1303q8 44 47 71.5t85 20.5t73 -45t19 -82q-6 -46 -43.5 -73.5t-83.5 -20.5q-46 8 -74.5 45.5t-22.5 83.5zM627 0h-543v211h543q67 0 110 53q41 59 25 117l-160 594l203 57l162 -596q39 -171 -68 -305q-50 -62 -120.5 -96.5t-151.5 -34.5z" />
    <glyph glyph-name="uni0631" unicode="&#x631;" horiz-adv-x="653" 
d="M528 35q0 -236 -128.5 -369t-346.5 -147l-76 200q175 18 257.5 87.5t82.5 228.5v938h211v-938z" />
    <glyph glyph-name="uni0632" unicode="&#x632;" horiz-adv-x="671" 
d="M416 1413q54 0 91.5 -37.5t37.5 -89.5q0 -54 -37.5 -91.5t-91.5 -37.5q-53 0 -91 37.5t-38 91.5q0 51 38.5 89t90.5 38zM528 35q0 -236 -128.5 -369t-346.5 -147l-76 200q175 18 257.5 87.5t82.5 228.5v938h211v-938z" />
    <glyph glyph-name="uni0633" unicode="&#x633;" horiz-adv-x="2617" 
d="M2079 0q-93 0 -172.5 39.5t-132.5 110.5q-48 -69 -126.5 -109.5t-170.5 -40.5q-129 0 -213 78v-258q0 -98 -68.5 -167t-165.5 -69h-409q-142 0 -262.5 69.5t-190.5 189.5t-70 261v355h213v-355q0 -128 90.5 -218.5t219.5 -90.5h360q31 0 52.5 21.5t21.5 52.5v911h209
v-381q0 -81 56 -134.5t144 -53.5q92 0 149.5 56.5t57.5 138.5v366h211v-373q0 -85 58.5 -136.5t146.5 -51.5q79 0 135.5 57.5t56.5 137.5v567h213v-570q-1 -114 -55.5 -206.5t-149 -144.5t-208.5 -52z" />
    <glyph glyph-name="uni0634" unicode="&#x634;" horiz-adv-x="2611" 
d="M1726 1561q54 0 91.5 -37t37.5 -90q0 -54 -37.5 -91.5t-91.5 -37.5q-53 0 -91 37.5t-38 91.5q0 52 38 89.5t91 37.5zM1548 1233q53 0 91 -37.5t38 -89.5q0 -54 -38 -91.5t-91 -37.5q-54 0 -91.5 37.5t-37.5 91.5q0 53 37.5 90t91.5 37zM1911 1233q54 0 92.5 -37.5
t38.5 -89.5q0 -54 -38.5 -91.5t-92.5 -37.5q-53 0 -90 37.5t-37 91.5q0 52 37 89.5t90 37.5zM2079 0q-93 0 -172.5 39.5t-132.5 110.5q-48 -69 -126.5 -109.5t-170.5 -40.5q-129 0 -213 78v-258q0 -98 -68.5 -167t-165.5 -69h-409q-142 0 -262.5 69.5t-190.5 189.5t-70 261
v355h213v-355q0 -128 90.5 -218.5t219.5 -90.5h360q31 0 52.5 21.5t21.5 52.5v911h209v-381q0 -81 56 -134.5t144 -53.5q92 0 149.5 56.5t57.5 138.5v366h211v-373q0 -85 58.5 -136.5t146.5 -51.5q79 0 135.5 57.5t56.5 137.5v567h213v-570q-1 -114 -55.5 -206.5
t-149 -144.5t-208.5 -52z" />
    <glyph glyph-name="uni0635" unicode="&#x635;" horiz-adv-x="2613" 
d="M2417 725q71 -121 71 -266v-277q0 -75 -53 -128.5t-127 -53.5h-1030v-205q0 -89 -65 -154t-156 -65h-430q-144 0 -266 70.5t-192.5 192t-70.5 265.5v320h209v-320q0 -131 94.5 -224t225.5 -93h383q23 0 41 17t18 40v1129h209v-187l530 160q175 55 347.5 -7.5
t261.5 -213.5zM2277 258v201q0 89 -43 162q-51 88 -152.5 123t-211.5 4l-592 -181v-356h956q19 0 31 13.5t12 33.5z" />
    <glyph glyph-name="uni0636" unicode="&#x636;" horiz-adv-x="2605" 
d="M1847 1413q53 0 91 -37.5t38 -89.5q0 -54 -37.5 -91.5t-91.5 -37.5q-53 0 -91 37.5t-38 91.5q0 51 38.5 89t90.5 38zM2417 725q71 -121 71 -266v-277q0 -75 -53 -128.5t-127 -53.5h-1030v-205q0 -89 -65 -154t-156 -65h-430q-144 0 -266 70.5t-192.5 192t-70.5 265.5v359
h209v-359q0 -131 94.5 -224t225.5 -93h383q23 0 41 17t18 40v1129h209v-187l530 160q175 55 347.5 -7.5t261.5 -213.5zM2277 258v201q0 89 -43 162q-51 88 -152.5 123t-211.5 4l-592 -181v-356h956q19 0 31 13.5t12 33.5z" />
    <glyph glyph-name="uni0637" unicode="&#x637;" horiz-adv-x="1861" 
d="M1677 729q72 -123 72 -266v-281q0 -74 -53.5 -128t-126.5 -54h-1467v211h222v1216h211v-636l532 161q175 54 348 -8.5t262 -214.5zM1538 258v205q0 89 -43 162q-53 88 -155.5 123.5t-211.5 3.5l-593 -181v-360h958q20 0 32.5 13.5t12.5 33.5z" />
    <glyph glyph-name="uni0638" unicode="&#x638;" horiz-adv-x="1830" 
d="M1677 729q72 -123 72 -266v-281q0 -74 -53.5 -128t-126.5 -54h-1467v211h222v1216h211v-636l532 161q175 54 348 -8.5t262 -214.5zM1096 1413q52 0 90.5 -38t38.5 -89q0 -54 -38 -91.5t-91 -37.5q-54 0 -91.5 37.5t-37.5 91.5q0 52 37.5 89.5t91.5 37.5zM1538 258v205
q0 89 -43 162q-53 88 -155.5 123.5t-211.5 3.5l-593 -181v-360h958q20 0 32.5 13.5t12.5 33.5z" />
    <glyph glyph-name="uni0639" unicode="&#x639;" horiz-adv-x="1275" 
d="M1145 211v-211h-656q-76 0 -129 -53.5t-53 -128.5t53 -129t129 -54h488v-206h-488q-164 0 -277.5 113.5t-113.5 275.5q0 113 59.5 204t155.5 125l27 7q-141 122 -141 292v72q0 126 63 232t169.5 167.5t230.5 61.5q169 0 286.5 -90.5t157.5 -247.5l-154 -98
q-21 97 -100.5 162t-189.5 65q-103 0 -178 -73.5t-76 -176.5v-71q0 -104 74 -171t180 -67h483z" />
    <glyph glyph-name="uni063A" unicode="&#x63a;" horiz-adv-x="1267" 
d="M649 1413q53 0 91 -37.5t38 -89.5q0 -54 -37.5 -91.5t-91.5 -37.5q-53 0 -91 37.5t-38 91.5q0 51 38.5 89t90.5 38zM1145 211v-211h-656q-76 0 -129 -53.5t-53 -128.5t53 -129t129 -54h496v-206h-496q-164 0 -277.5 113.5t-113.5 275.5q0 113 59.5 204t155.5 125l27 7
q-65 38 -103 117.5t-38 174.5v72q0 126 63 232t169.5 167.5t230.5 61.5q169 0 286.5 -90.5t157.5 -247.5l-154 -98q-21 97 -100.5 162t-189.5 65q-103 0 -178 -73.5t-76 -176.5v-71q0 -104 74 -171t180 -67h483z" />
    <glyph glyph-name="uni0640" unicode="&#x640;" horiz-adv-x="602" 
d="M-20 211h643v-211h-643v211z" />
    <glyph glyph-name="uni0641" unicode="&#x641;" horiz-adv-x="2035" 
d="M1563 1415q54 0 91.5 -37t37.5 -90t-37.5 -91t-91.5 -38q-53 0 -91 38.5t-38 90.5t38 89.5t91 37.5zM1911 979v-774q0 -88 -59 -146.5t-148 -58.5h-1147q-189 0 -324 135.5t-135 325.5v256h209v-256q0 -104 74 -177t176 -73h557q-59 46 -95 122.5t-36 160.5
q0 130 66.5 241.5t181 177.5t248.5 66h432zM1630 211q28 0 48 20.5t20 49.5v487l-219 -2q-119 0 -203 -83.5t-84 -197.5q0 -111 83 -192.5t189 -81.5h166z" />
    <glyph glyph-name="uni0642" unicode="&#x642;" horiz-adv-x="1552" 
d="M766 1415q53 0 91 -37.5t38 -89.5t-38.5 -90.5t-90.5 -38.5q-54 0 -91.5 38t-37.5 91t37.5 90t91.5 37zM1114 1415q54 0 91.5 -37t37.5 -90t-37.5 -91t-91.5 -38q-52 0 -90.5 38.5t-38.5 90.5t38 89.5t91 37.5zM977 979h450v-1159q0 -103 -72 -175.5t-175 -72.5h-547
q-146 0 -269 71t-194.5 193.5t-71.5 267.5v357h211v-352q0 -133 95.5 -228.5t228.5 -95.5h518q28 0 47 18.5t19 46.5v150h-240q-127 0 -235 61t-171 166t-63 228v71q0 195 135 324t334 129zM977 211h240v575h-240q-110 0 -185 -76t-75 -184v-67q0 -101 77 -174.5t183 -73.5z
" />
    <glyph glyph-name="uni0643" unicode="&#x643;" horiz-adv-x="1771" 
d="M1606 1427v-1228q0 -82 -59 -140.5t-142 -58.5h-846q-186 0 -317 131.5t-131 317.5v311h208v-311q0 -99 70.5 -168.5t169.5 -69.5h768q28 0 49 19t21 46v1151h209zM1069 975v-109h-412v109h70q-30 50 -27 92q8 75 62 125.5t127 50.5q66 0 115.5 -36.5t68.5 -96.5l-88 -59
q-26 82 -96 82q-32 0 -54 -22t-22 -54q0 -30 19.5 -56t56.5 -26h180z" />
    <glyph glyph-name="uni0644" unicode="&#x644;" horiz-adv-x="1421" 
d="M1030 -399h-403q-143 0 -265 70.5t-193 192t-71 265.5v334h211v-334q0 -132 93.5 -224.5t224.5 -92.5h362q34 0 58 23.5t24 55.5v1539l211 -3v-1574q0 -104 -74.5 -178t-177.5 -74z" />
    <glyph glyph-name="uni0645" unicode="&#x645;" horiz-adv-x="1267" 
d="M678 0q-75 0 -142 26.5t-112 69.5l-2 -63q-8 -95 -44.5 -173.5t-94 -132.5t-128.5 -89t-155 -52l-41 205q256 54 256 305v883h463q127 0 234 -63.5t169 -171.5t62 -234v-51q-2 -125 -64 -230.5t-168.5 -167t-232.5 -61.5zM678 211q105 0 179 71.5t77 174.5v53
q0 106 -74 180t-180 74h-254v-315q3 -109 76.5 -173.5t175.5 -64.5z" />
    <glyph glyph-name="uni0646" unicode="&#x646;" horiz-adv-x="1421" 
d="M670 971q54 0 92.5 -37.5t38.5 -89.5q0 -54 -38.5 -91.5t-92.5 -37.5q-53 0 -90 37.5t-37 91.5q0 52 37.5 89.5t89.5 37.5zM1102 -397h-477q-144 0 -265.5 71t-191.5 192.5t-70 264.5v332h209v-332q0 -131 93 -224t225 -93h366q31 0 52.5 20t21.5 49v1073h209v-1179
q0 -72 -50 -123t-122 -51z" />
    <glyph glyph-name="uni0647" unicode="&#x647;" horiz-adv-x="1116" 
d="M100 979h467q192 0 323.5 -131t131.5 -320v-69q0 -125 -60.5 -230t-165 -166.5t-229.5 -62.5q-128 -1 -235.5 57t-169.5 160.5t-62 226.5v535zM567 211q107 0 177.5 72t70.5 178v57q0 104 -73 177t-175 73h-258v-315q0 -111 76.5 -176.5t181.5 -65.5z" />
    <glyph glyph-name="uni0648" unicode="&#x648;" horiz-adv-x="1146" 
d="M1022 979v-956q0 -217 -148 -353q-108 -102 -248.5 -135t-408.5 -33l2 211h119.5t114.5 6t106 16.5t94.5 33t81.5 55.5q54 51 66 143l2 33h-228q-133 0 -242.5 66t-172 179.5t-62.5 248.5q0 203 137.5 344t339.5 141h447zM575 211h234v555h-234q-115 0 -191.5 -78
t-76.5 -194q0 -119 76.5 -201t191.5 -82z" />
    <glyph glyph-name="uni0649" unicode="&#x649;" horiz-adv-x="2099" 
d="M1972 979l-2 -977h-213l4 764h-327q-44 0 -76.5 -31.5t-32.5 -72.5v-898q0 -73 -51.5 -124.5t-122.5 -51.5h-520q-108 0 -206.5 42.5t-170 114t-114 170t-42.5 206.5v352h215v-352q0 -132 93 -227t225 -95h407q30 0 51 21t21 51v791q0 132 94.5 224.5t229.5 92.5h538z
" />
    <glyph glyph-name="uni064A" unicode="&#x64a;" horiz-adv-x="2099" 
d="M1972 979l-2 -977h-213l4 764h-327q-44 0 -76.5 -31.5t-32.5 -72.5v-898q0 -73 -51.5 -124.5t-122.5 -51.5h-520q-108 0 -206.5 42.5t-170 114t-114 170t-42.5 206.5v352h215v-352q0 -132 93 -227t225 -95h407q30 0 51 21t21 51v791q0 132 94.5 224.5t229.5 92.5h538z
M676 -555q54 0 91.5 -37t37.5 -90q0 -54 -37.5 -91.5t-91.5 -37.5q-53 0 -91 37.5t-38 91.5q0 52 38 89.5t91 37.5zM1026 -555q54 0 92.5 -37.5t38.5 -89.5q0 -54 -38.5 -91.5t-92.5 -37.5q-53 0 -90 37.5t-37 91.5q0 52 37.5 89.5t89.5 37.5z" />
    <glyph glyph-name="uni064B" unicode="&#x64b;" 
d="M14 1903l371 118l4 -71l-369 -131zM14 1724l371 136l4 -86l-369 -132z" />
    <glyph glyph-name="uni064C" unicode="&#x64c;" 
d="M485 1671q0 -55 -33 -93.5t-85 -49.5l-271 -82l-12 70q-6 69 -55 69l-23 -6l-18 63l22 13q53 20 86.5 -1t44.5 -79l6 -23l91 29q-37 37 -37 90q0 60 41.5 102t101.5 42q59 0 100 -42t41 -102zM346 1604q26 0 43.5 17.5t20.5 45.5q2 29 -16 49.5t-46 20.5q-29 0 -47 -18.5
t-18 -45.5q0 -31 17.5 -50t45.5 -19z" />
    <glyph glyph-name="uni064D" unicode="&#x64d;" 
d="M14 -197l369 121l4 -74l-369 -129zM14 -373l369 133l4 -84l-369 -131z" />
    <glyph glyph-name="uni064E" unicode="&#x64e;" 
d="M80 1708l369 121l4 -74l-369 -129z" />
    <glyph glyph-name="uni064F" unicode="&#x64f;" 
d="M219 2019q59 0 101 -41.5t42 -101.5q0 -101 -118 -141l-228 -78l-30 86l131 43q-41 33 -41 90q0 60 41.5 101.5t101.5 41.5zM217 1817q28 0 47 19.5t19 51.5q0 27 -19.5 46.5t-46.5 19.5t-47 -20t-20 -46q0 -32 19.5 -51.5t47.5 -19.5z" />
    <glyph glyph-name="uni0650" unicode="&#x650;" 
d="M78 -526l368 135l5 -86l-369 -131z" />
    <glyph glyph-name="uni0651" unicode="&#x651;" 
d="M381 1765h98v-141q0 -73 -36.5 -117.5t-98.5 -44.5q-26 0 -53 11.5t-41 31.5q-17 -33 -45.5 -51t-61.5 -18q-61 0 -102 41t-41 108v84h100v-84q0 -49 43 -49t43 57v117h99v-102q0 -21 12.5 -32t30.5 -11q53 0 53 59v141z" />
    <glyph glyph-name="uni0652" unicode="&#x652;" 
d="M201 1704q-65 0 -109.5 45t-44.5 111q0 63 45 108t109 45q63 0 108 -45t45 -108q0 -66 -45 -111t-108 -45zM201 1786q28 0 46.5 20t18.5 52q0 29 -18.5 47t-46.5 18q-30 0 -49 -18t-19 -47q0 -32 19 -52t49 -20z" />
    <glyph glyph-name="uni0653" unicode="&#x653;" 
d="M66 1982l-62 72l139 94q12 9 29 7.5t29 -13.5q60 -63 192 -63q60 0 172 47l41 -107q-44 -22 -109 -40.5t-104 -18.5q-124 0 -217 78q-13 13 -29 0z" />
    <glyph glyph-name="uni0658" unicode="&#x658;" 
 />
    <glyph glyph-name="uni0660" unicode="&#x660;" horiz-adv-x="538" 
d="M117 135q0 70 41 112t110 42q72 0 113 -41.5t41 -112.5q0 -70 -41.5 -111.5t-112.5 -41.5q-69 0 -110 42t-41 111z" />
    <glyph glyph-name="uni0661" unicode="&#x661;" horiz-adv-x="530" 
d="M383 1434v-1434h-231v1434h231z" />
    <glyph glyph-name="uni0662" unicode="&#x662;" horiz-adv-x="1234" 
d="M1059 1434v-232h-402q-101 0 -173 -79.5t-72 -184.5v-938h-236v932q0 133 63.5 248.5t174.5 184.5t241 69h404z" />
    <glyph glyph-name="uni0663" unicode="&#x663;" horiz-adv-x="1689" 
d="M1149 559q-93 0 -171.5 39.5t-133.5 110.5q-48 -70 -126 -110t-171 -40q-124 0 -213 76v-637h-209v1436h209v-476q0 -82 56 -135t145 -53q92 0 150 56.5t58 136.5v471h211v-476q0 -85 58.5 -136.5t146.5 -51.5q79 0 136 57t57 136v471h211v-471q-1 -173 -120 -288.5
t-294 -115.5z" />
    <glyph glyph-name="uni0664" unicode="&#x664;" horiz-adv-x="1204" 
d="M1073 723v-207h-600q-66 0 -112 -45.5t-46 -110.5t46 -110t112 -45h449v-205h-449q-152 0 -257 106t-105 254q0 102 53.5 184t138.5 113l27 9q-60 50 -93.5 122.5t-33.5 155.5v72q0 178 126 301t300 123q160 0 268 -87t145 -237l-153 -100q-22 99 -91.5 159t-168.5 60
q-90 0 -155 -63.5t-66 -153.5v-70q0 -91 65.5 -158t155.5 -67h444z" />
    <glyph glyph-name="uni0665" unicode="&#x665;" horiz-adv-x="1427" 
d="M715 -27q-173 0 -306 92.5t-205.5 261.5t-72.5 390t72.5 389.5t205.5 261t306 92.5q261 0 421 -204.5t160 -538.5t-160 -539t-421 -205zM715 186q154 0 248 146t94 385t-94 384.5t-248 145.5q-155 0 -248.5 -145t-93.5 -385t93.5 -385.5t248.5 -145.5z" />
    <glyph glyph-name="uni0666" unicode="&#x666;" horiz-adv-x="1234" 
d="M176 1434h404q130 0 241 -69t174.5 -184.5t63.5 -248.5v-932h-236v938q0 105 -72 184.5t-173 79.5h-402v232z" />
    <glyph glyph-name="uni0667" unicode="&#x667;" horiz-adv-x="1402" 
d="M1376 1434l-532 -1434h-279l-538 1434h254l424 -1158l417 1158h254z" />
    <glyph glyph-name="uni0668" unicode="&#x668;" horiz-adv-x="1427" 
d="M1401 0h-254l-430 1159l-436 -1159h-254l551 1434h278z" />
    <glyph glyph-name="uni0669" unicode="&#x669;" horiz-adv-x="1169" 
d="M586 1434q188 1 322 -134t134 -323v-977h-215v444l-192 2q-238 0 -376 127.5t-138 341.5v62q0 189 137.5 322t327.5 135zM834 655v322q0 101 -72.5 173.5t-173.5 72.5q-107 0 -183.5 -76.5t-76.5 -185.5v-54q0 -104 77.5 -178t182.5 -74h246z" />
    <glyph glyph-name="uni066A" unicode="&#x66a;" horiz-adv-x="1501" 
d="M1176 1434h202l-989 -1434h-203zM291 1116q-68 0 -113 43t-45 109t45 109.5t113 43.5q66 0 110.5 -43.5t44.5 -109.5t-44.5 -109t-110.5 -43zM1184 -18q-67 0 -111.5 43.5t-44.5 109.5t44 109t112 43q66 0 110.5 -43t44.5 -109t-44.5 -109.5t-110.5 -43.5z" />
    <glyph glyph-name="uni066B" unicode="&#x66b;" horiz-adv-x="493" 
d="M168 274h229l-147 -591h-187z" />
    <glyph glyph-name="uni066C" unicode="&#x66c;" horiz-adv-x="493" 
d="M168 274h229l-147 -591h-187z" />
    <glyph glyph-name="uni066D" unicode="&#x66d;" horiz-adv-x="944" 
d="M588 348l196 -248l-135 -98l-178 262l-178 -262l-135 98l196 250l-305 88l51 158l297 -107l-10 316h168l-12 -318l301 109l51 -160z" />
    <glyph glyph-name="uni066E" unicode="&#x66e;" horiz-adv-x="1738" 
d="M1626 971v-768q0 -85 -60 -144t-145 -59h-917q-173 0 -296.5 122t-123.5 294v350h215v-350q0 -86 59.5 -145.5t145.5 -59.5h864q19 0 32 13t13 32v715h213z" />
    <glyph glyph-name="uni066F" unicode="&#x66f;" horiz-adv-x="1552" 
d="M977 999q184 0 317 -134t133 -322v-723q0 -103 -72 -175.5t-175 -72.5h-547q-146 0 -269 71t-194.5 193.5t-71.5 267.5v357h211v-352q0 -133 95.5 -228.5t228.5 -95.5h518q28 0 47 18.5t19 46.5v150h-240q-127 0 -235 61t-171 166t-63 228v71q0 197 136 335t333 138z
M977 211h240v332q0 101 -71.5 172t-168.5 71q-110 0 -185 -76t-75 -184v-67q0 -101 77 -174.5t183 -73.5z" />
    <glyph glyph-name="uni0671" unicode="&#x671;" horiz-adv-x="528" 
d="M160 0v1434h211v-1434h-211z" />
    <glyph glyph-name="uni0679" unicode="&#x679;" horiz-adv-x="1738" 
d="M641 1073v96h78v344h96v-204q71 71 143 71q75 0 114.5 -47t39.5 -137v-123h-471zM946 1284q-62 0 -131 -78v-37h203v31q0 40 -19 62t-53 22zM1413 971h213v-768q0 -85 -60 -144t-145 -59h-917q-173 0 -296.5 122t-123.5 294v350h215v-350q0 -86 59.5 -145.5t145.5 -59.5
h864q19 0 32 13t13 32v715z" />
    <glyph glyph-name="uni067E" unicode="&#x67e;" horiz-adv-x="1738" 
d="M1626 971v-768q0 -85 -60 -144t-145 -59h-917q-173 0 -296.5 122t-123.5 294v350h215v-350q0 -86 59.5 -145.5t145.5 -59.5h864q19 0 32 13t13 32v715h213zM694 -426q-53 0 -91 37.5t-38 89.5q0 54 38 91.5t91 37.5q54 0 91.5 -37.5t37.5 -91.5q0 -53 -37.5 -90
t-91.5 -37zM1040 -426q-53 0 -91 37.5t-38 89.5q0 54 38 91.5t91 37.5q54 0 91.5 -37.5t37.5 -91.5q0 -53 -37.5 -90t-91.5 -37zM864 -745q-52 0 -89.5 37.5t-37.5 89.5q0 54 37 91.5t90 37.5q54 0 92.5 -37.5t38.5 -91.5q0 -52 -38.5 -89.5t-92.5 -37.5z" />
    <glyph glyph-name="uni0686" unicode="&#x686;" horiz-adv-x="1492" 
d="M510 0q-97 0 -164 -68t-67 -165t67.5 -165.5t163.5 -68.5h418v-211h-420q-184 0 -314.5 130t-130.5 315q0 184 130 314t315 130h598q-20 11 -37.5 45t-17.5 72v65q0 199 -123 289q-54 43 -128 63.5t-149.5 19t-142 -13.5t-123.5 -32l-90 190q89 33 182.5 51t196 19.5
t203 -29.5t180.5 -94q203 -163 203 -465v-65q0 -43 25 -79t69 -36h20v-211h-864zM520 -233q-26 0 -44.5 18.5t-18.5 44.5t18.5 45t44.5 19t45 -19t19 -45t-19 -44.5t-45 -18.5zM702 -233q-25 0 -43 18.5t-18 44.5t18 45t43 19q28 0 47 -19t19 -45t-19 -44.5t-47 -18.5z
M610 -403q-25 0 -43 18.5t-18 44.5q0 27 18 45.5t43 18.5q28 0 47 -18t19 -46q0 -26 -19 -44.5t-47 -18.5z" />
    <glyph glyph-name="uni0688" unicode="&#x688;" horiz-adv-x="1089" 
d="M455 1143v96h77v344h97v-205q72 72 143 72q75 0 114.5 -47t39.5 -137v-123h-471zM760 1354q-62 0 -131 -78v-37h202v31q0 40 -18.5 62t-52.5 22zM967 436q39 -171 -68 -305q-50 -62 -120.5 -96.5t-151.5 -34.5h-543v211h543q67 0 110 53q41 59 25 117l-160 594l203 57z
" />
    <glyph glyph-name="uni0691" unicode="&#x691;" horiz-adv-x="653" 
d="M508 1425q75 0 114.5 -47t39.5 -137v-123h-472v96h78v345h97v-205q71 71 143 71zM567 1214v31q0 40 -18.5 62t-52.5 22q-62 0 -131 -78v-37h202zM317 35v938h211v-938q0 -236 -128.5 -369t-346.5 -147l-76 200q175 18 257.5 87.5t82.5 228.5z" />
    <glyph glyph-name="uni0698" unicode="&#x698;" horiz-adv-x="653" 
d="M406 1710q54 0 91.5 -37t37.5 -90q0 -54 -37.5 -91.5t-91.5 -37.5q-53 0 -91.5 37.5t-38.5 91.5q0 52 38.5 89.5t91.5 37.5zM236 1391q53 0 91 -37.5t38 -89.5t-38.5 -90.5t-90.5 -38.5q-54 0 -92 38t-38 91t38 90t92 37zM580 1391q54 0 92.5 -37.5t38.5 -89.5
q0 -53 -38.5 -91t-92.5 -38q-52 0 -89.5 38t-37.5 91q0 52 37.5 89.5t89.5 37.5zM528 35q0 -236 -128.5 -369t-346.5 -147l-76 200q175 18 257.5 87.5t82.5 228.5v938h211v-938z" />
    <glyph glyph-name="uni06A1" unicode="&#x6a1;" horiz-adv-x="2035" 
d="M1911 979v-774q0 -88 -59 -146.5t-148 -58.5h-1147q-189 0 -324 135.5t-135 325.5v256h209v-256q0 -104 74 -177t176 -73h557q-59 46 -95 122.5t-36 160.5q0 130 66.5 241.5t181 177.5t248.5 66h432zM1630 211q28 0 48 20.5t20 49.5v487l-219 -2q-119 0 -203 -83.5
t-84 -197.5q0 -111 83 -192.5t189 -81.5h166z" />
    <glyph glyph-name="uni06A4" unicode="&#x6a4;" horiz-adv-x="2035" 
d="M1556 1683q54 0 92 -37t38 -90t-38 -91t-92 -38q-52 0 -90.5 38.5t-38.5 90.5t38 89.5t91 37.5zM1386 1366q54 0 92 -37t38 -90q0 -54 -38 -91.5t-92 -37.5q-53 0 -91 37.5t-38 91.5q0 52 38 89.5t91 37.5zM1733 1366q54 0 91.5 -37t37.5 -90q0 -54 -37.5 -91.5
t-91.5 -37.5q-53 0 -91 37.5t-38 91.5q0 52 38 89.5t91 37.5zM1911 979v-774q0 -88 -59 -146.5t-148 -58.5h-1147q-189 0 -324 135.5t-135 325.5v256h209v-256q0 -104 74 -177t176 -73h557q-59 46 -95 122.5t-36 160.5q0 130 66.5 241.5t181 177.5t248.5 66h432zM1630 211
q28 0 48 20.5t20 49.5v487l-219 -2q-119 0 -203 -83.5t-84 -197.5q0 -111 83 -192.5t189 -81.5h166z" />
    <glyph glyph-name="uni06A9" unicode="&#x6a9;" horiz-adv-x="2091" 
d="M1444 981q142 0 262.5 -70t190 -190.5t69.5 -263.5v-457h-1434q-173 0 -296 122t-123 294v348h215v-348q0 -86 59 -145.5t145 -59.5h1223v233q0 135 -94.5 229.5t-228.5 94.5h-488l-153 233l413 578l174 -123l-344 -475h410z" />
    <glyph glyph-name="uni06AF" unicode="&#x6af;" horiz-adv-x="2091" 
d="M1094 1618l-392 -528l-69 63l385 522zM1444 981q142 0 262.5 -70t190 -190.5t69.5 -263.5v-457h-1434q-173 0 -296 122t-123 294v348h215v-348q0 -86 59 -145.5t145 -59.5h1223v233q0 135 -94.5 229.5t-228.5 94.5h-488l-153 233l413 578l174 -123l-344 -475h410z" />
    <glyph glyph-name="uni06BA" unicode="&#x6ba;" horiz-adv-x="1413" 
d="M1102 -397h-477q-144 0 -265.5 71t-191.5 192.5t-70 264.5v332h209v-332q0 -131 93 -224t225 -93h366q31 0 52.5 20t21.5 49v1073h209v-1179q0 -72 -50 -123t-122 -51z" />
    <glyph glyph-name="uni06BE" unicode="&#x6be;" horiz-adv-x="1546" 
d="M791 1200q180 -39 322.5 -150t225 -283.5t82.5 -377.5v-170q0 -91 -63 -155t-152 -64h-1226v211h262q-50 43 -80.5 112.5t-30.5 143.5q0 174 129.5 288.5t314.5 114.5q191 0 321 -135.5t130 -328.5v-117q0 -48 -12 -78h155q19 0 31 12t12 31v135q0 229 -125.5 394.5
t-330.5 209.5q-152 35 -326 35l2 207q135 -1 197 -7.5t162 -27.5zM575 659q-91 0 -162 -62.5t-71 -158.5q0 -97 64.5 -162t146.5 -65h217q20 0 34.5 13t14.5 34v166q0 88 -71.5 161t-172.5 74z" />
    <glyph glyph-name="uni06C1" unicode="&#x6c1;" horiz-adv-x="1116" 
d="M100 979h467q192 0 323.5 -131t131.5 -320v-69q0 -125 -60.5 -230t-165 -166.5t-229.5 -62.5q-128 -1 -235.5 57t-169.5 160.5t-62 226.5v535zM567 211q107 0 177.5 72t70.5 178v57q0 104 -73 177t-175 73h-258v-315q0 -111 76.5 -176.5t181.5 -65.5z" />
    <glyph glyph-name="uni06C2" unicode="&#x6c2;" horiz-adv-x="1116" 
d="M692 1227v-109h-411v109h69q-29 48 -26 92q8 76 61 126t127 50q66 0 115.5 -36.5t68.5 -96.5l-88 -59q-25 81 -96 81q-32 0 -54 -21.5t-22 -53.5q0 -30 19.5 -56t56.5 -26h180zM100 979h467q192 0 323.5 -131t131.5 -320v-69q0 -125 -60.5 -230t-165 -166.5t-229.5 -62.5
q-128 -1 -235.5 57t-169.5 160.5t-62 226.5v535zM567 211q107 0 177.5 72t70.5 178v57q0 104 -73 177t-175 73h-258v-315q0 -111 76.5 -176.5t181.5 -65.5z" />
    <glyph glyph-name="uni06C3" unicode="&#x6c3;" horiz-adv-x="1116" 
d="M389 1407q54 0 92.5 -37.5t38.5 -89.5q0 -54 -38.5 -91.5t-92.5 -37.5q-53 0 -90 37.5t-37 91.5q0 52 37 89.5t90 37.5zM735 1407q54 0 92.5 -37.5t38.5 -89.5q0 -54 -38.5 -91.5t-92.5 -37.5q-53 0 -90 37.5t-37 91.5q0 52 37 89.5t90 37.5zM100 979h467
q192 0 323.5 -131t131.5 -320v-69q0 -125 -60.5 -230t-165 -166.5t-229.5 -62.5q-128 -1 -235.5 57t-169.5 160.5t-62 226.5v535zM567 211q107 0 177.5 72t70.5 178v57q0 104 -73 177t-175 73h-258v-315q0 -111 76.5 -176.5t181.5 -65.5z" />
    <glyph glyph-name="uni06CC" unicode="&#x6cc;" horiz-adv-x="2099" 
d="M1970 979l-2 -977h-213l4 764h-327q-44 0 -76.5 -31.5t-32.5 -72.5v-898q0 -73 -51.5 -124.5t-122.5 -51.5h-520q-108 0 -206.5 42.5t-170 114t-114 170t-42.5 206.5v352h215v-352q0 -132 93 -227t225 -95h407q30 0 51 21t21 51v791q0 132 94.5 224.5t229.5 92.5h538z
" />
    <glyph glyph-name="uni06D2" unicode="&#x6d2;" horiz-adv-x="1308" 
d="M463 0q-166 0 -275 131q-104 134 -65 305l98 363l203 -58l-98 -360q-13 -60 26 -117q43 -53 111 -53h866v-211h-866z" />
    <glyph glyph-name="uni06D3" unicode="&#x6d3;" horiz-adv-x="1308" 
d="M547 1028v-110h-414v110h70q-30 50 -27 92q8 74 62.5 125t128.5 51q65 0 114 -37t68 -98l-86 -59q-29 82 -96 82q-34 0 -56 -22t-22 -54q0 -29 20 -54.5t58 -25.5h180zM463 0q-166 0 -275 131q-104 134 -65 305l98 363l203 -58l-98 -360q-13 -60 26 -117q43 -53 111 -53
h866v-211h-866z" />
    <glyph glyph-name="uni06D4" unicode="&#x6d4;" horiz-adv-x="1228" 
 />
    <glyph glyph-name="uni06F0" unicode="&#x6f0;" horiz-adv-x="538" 
d="M117 135q0 70 41 112t110 42q72 0 113 -41.5t41 -112.5q0 -70 -41.5 -111.5t-112.5 -41.5q-69 0 -110 42t-41 111z" />
    <glyph glyph-name="uni06F1" unicode="&#x6f1;" horiz-adv-x="530" 
d="M383 1434v-1434h-231v1434h231z" />
    <glyph glyph-name="uni06F2" unicode="&#x6f2;" horiz-adv-x="1234" 
d="M1059 1434v-232h-402q-101 0 -173 -79.5t-72 -184.5v-938h-236v932q0 133 63.5 248.5t174.5 184.5t241 69h404z" />
    <glyph glyph-name="uni06F3" unicode="&#x6f3;" horiz-adv-x="1689" 
d="M1149 559q-93 0 -171.5 39.5t-133.5 110.5q-48 -70 -126 -110t-171 -40q-124 0 -213 76v-637h-209v1436h209v-476q0 -82 56 -135t145 -53q92 0 150 56.5t58 136.5v471h211v-476q0 -85 58.5 -136.5t146.5 -51.5q79 0 136 57t57 136v471h211v-471q-1 -173 -120 -288.5
t-294 -115.5z" />
    <glyph glyph-name="uni06F4" unicode="&#x6f4;" horiz-adv-x="1568" 
d="M1440 643v-211h-1075v-432h-232v1434h232v-791h270q-141 79 -141 256v72q0 191 136 326t326 135q169 0 287 -90.5t158 -247.5l-154 -99q-21 96 -102 162t-189 66q-103 0 -178 -73.5t-76 -176.5v-72q0 -106 75 -182t179 -76h484z" />
    <glyph glyph-name="uni06F5" unicode="&#x6f5;" horiz-adv-x="1517" 
d="M993 -27q-149 0 -221 117q-69 -117 -225 -117q-103 0 -187.5 53.5t-138.5 151.5q-92 170 -92 412q0 153 37 299.5t106 263.5q85 146 205.5 222.5t265.5 76.5q148 0 275 -81t217 -236q73 -122 113.5 -278t40.5 -312q0 -229 -86 -383q-52 -90 -131.5 -139.5t-178.5 -49.5z
M874 365q0 -33 5.5 -63t18 -60t38.5 -48t63 -18q77 -3 127 92q58 103 58 277q0 128 -33.5 257t-93.5 228q-22 38 -49.5 72.5t-66.5 69t-90.5 55t-107.5 20.5q-173 0 -290 -188q-56 -94 -87.5 -218t-31.5 -251q0 -90 20.5 -183t61.5 -149q53 -80 131 -80q42 0 69 18.5
t37.5 51t13.5 56t3 54.5l-2 177h204z" />
    <glyph glyph-name="uni06F6" unicode="&#x6f6;" horiz-adv-x="1275" 
d="M1145 647v-211h-656q-68 0 -118.5 -44t-61.5 -109l-2 -283h-209l2 285q8 104 65.5 185.5t147.5 113.5l27 6q-67 58 -104 138.5t-37 172.5v72q0 126 63 232t169.5 167.5t230.5 61.5q169 0 286.5 -90.5t157.5 -247.5l-154 -99q-21 97 -101 162.5t-189 65.5
q-103 0 -177.5 -73.5t-76.5 -174.5v-74q0 -106 75 -181t179 -75h483z" />
    <glyph glyph-name="uni06F7" unicode="&#x6f7;" horiz-adv-x="1402" 
d="M1376 1434l-532 -1434h-279l-538 1434h254l424 -1158l417 1158h254z" />
    <glyph glyph-name="uni06F8" unicode="&#x6f8;" horiz-adv-x="1427" 
d="M1401 0h-254l-430 1159l-436 -1159h-254l551 1434h278z" />
    <glyph glyph-name="uni06F9" unicode="&#x6f9;" horiz-adv-x="1169" 
d="M586 1434q188 1 322 -134t134 -323v-977h-215v444l-192 2q-238 0 -376 127.5t-138 341.5v62q0 189 137.5 322t327.5 135zM834 655v322q0 101 -72.5 173.5t-173.5 72.5q-107 0 -183.5 -76.5t-76.5 -185.5v-54q0 -104 77.5 -178t182.5 -74h246z" />
    <glyph glyph-name="uni1E20" unicode="&#x1e20;" horiz-adv-x="1587" 
d="M1167 1636h-663v179h663v-179zM1473 786l-3 -536q-232 -279 -620 -279q-173 1 -313.5 59t-232.5 158t-141.5 234.5t-49.5 290.5q0 157 51 293.5t144.5 236.5t233.5 157.5t308 57.5q189 0 345 -82.5t251 -228.5l-193 -133q-64 107 -167.5 165t-235.5 58
q-222 0 -358 -148.5t-136 -375.5q0 -224 134 -370.5t360 -149.5q261 0 403 151v248h-340v194h560z" />
    <glyph glyph-name="uni1E21" unicode="&#x1e21;" horiz-adv-x="1320" 
d="M332 1421h663v-180h-663v180zM1171 1026v-932q0 -235 -152.5 -385.5t-393.5 -150.5q-142 0 -278.5 59.5t-211.5 153.5l105 159q65 -76 168 -124t202 -48q70 0 131 22t109 64.5t76 112t28 158.5v114q-42 -98 -150 -158.5t-235 -60.5q-215 0 -347 147t-132 382
q0 225 132.5 365t346.5 140q130 0 230.5 -52.5t142.5 -139.5v174h229zM635 209q138 0 225.5 92t87.5 238t-87.5 238.5t-225.5 92.5q-140 0 -226.5 -91.5t-86.5 -239.5t86.5 -239t226.5 -91z" />
    <glyph glyph-name="uni1E30" unicode="&#x1e30;" horiz-adv-x="1386" 
d="M788 1585h-221l219 338h230zM1362 1434l-694 -723l692 -711h-295l-559 551l-86 -90v-461h-238v1434h238v-672l655 672h287z" />
    <glyph glyph-name="uni1E31" unicode="&#x1e31;" horiz-adv-x="1112" 
d="M383 1651h-221l219 338h229zM831 0l-393 401l-59 -67v-334h-227v1499h227v-903l450 428h265l-484 -475l492 -549h-271z" />
    <glyph glyph-name="uni1E3E" unicode="&#x1e3e;" horiz-adv-x="1914" 
d="M1001 1585h-221l219 338h230zM1733 1434v-1434h-234v1096l-459 -1096h-184l-440 1096v-1096h-234v1434h303l463 -1166l492 1166h293z" />
    <glyph glyph-name="uni1E3F" unicode="&#x1e3f;" horiz-adv-x="1875" 
d="M934 1192h-221l219 338h227zM1376 1047q157 0 259 -106.5t102 -270.5v-670h-230v616q0 98 -63.5 163t-157.5 65q-99 0 -163 -69t-64 -175v-600h-228v616q0 97 -66 162.5t-159 65.5q-99 0 -162 -69t-63 -175v-600h-227v1024h223v-162q42 83 130.5 134t194.5 51
q112 0 202 -59t124 -152q39 93 135 152t213 59z" />
    <glyph glyph-name="uni1E40" unicode="&#x1e40;" horiz-adv-x="1914" 
d="M958 1624q-60 0 -102.5 40.5t-42.5 100.5t42.5 102t102.5 42q58 0 100 -42.5t42 -101.5t-42 -100t-100 -41zM1733 1434v-1434h-234v1096l-459 -1096h-184l-440 1096v-1096h-234v1434h303l463 -1166l492 1166h293z" />
    <glyph glyph-name="uni1E41" unicode="&#x1e41;" horiz-adv-x="1875" 
d="M807 1370q0 63 40.5 101t106.5 38q65 0 105.5 -38t40.5 -101q0 -64 -40.5 -102.5t-105.5 -38.5q-66 0 -106.5 38.5t-40.5 102.5zM1376 1047q157 0 259 -106.5t102 -270.5v-670h-230v616q0 98 -63.5 163t-157.5 65q-99 0 -163 -69t-64 -175v-600h-228v616q0 97 -66 162.5
t-159 65.5q-99 0 -162 -69t-63 -175v-600h-227v1024h223v-162q42 83 130.5 134t194.5 51q112 0 202 -59t124 -152q39 93 135 152t213 59z" />
    <glyph glyph-name="uni1E44" unicode="&#x1e44;" horiz-adv-x="1605" 
d="M805 1624q-60 0 -103 40.5t-43 100.5t43 102t103 42q57 0 99 -42t42 -102q0 -59 -41.5 -100t-99.5 -41zM1423 1434v-1434h-225l-782 1051v-1051h-234v1434h226l782 -1051v1051h233z" />
    <glyph glyph-name="uni1E45" unicode="&#x1e45;" horiz-adv-x="1239" 
d="M477 1370q0 63 40.5 101t105.5 38q66 0 106.5 -38t40.5 -101q0 -64 -40.5 -102.5t-106.5 -38.5q-65 0 -105.5 38.5t-40.5 102.5zM717 1051q157 0 267 -110t110 -265v-676h-230v600q0 100 -70 171.5t-171 72.5q-101 0 -172.5 -72t-71.5 -172l2 -600h-229v1024h223v-172
q44 89 138 144t204 55z" />
    <glyph glyph-name="Wgrave" unicode="&#x1e80;" horiz-adv-x="2146" 
d="M999 1585l-225 338h227l220 -338h-222zM1855 1434h252l-436 -1434h-266l-328 977l-329 -977h-263l-440 1434h252l332 -1104l387 1104h123l385 -1110z" />
    <glyph glyph-name="wgrave" unicode="&#x1e81;" horiz-adv-x="1732" 
d="M741 1192l-227 338h229l220 -338h-222zM1698 1024l-336 -1024h-254l-242 739l-243 -739h-254l-334 1024h233l240 -752l254 752h209l254 -752l239 752h234z" />
    <glyph glyph-name="Wacute" unicode="&#x1e82;" horiz-adv-x="2146" 
d="M1194 1585h-221l219 338h227zM1855 1434h252l-436 -1434h-266l-328 977l-329 -977h-263l-440 1434h252l332 -1104l387 1104h123l385 -1110z" />
    <glyph glyph-name="wacute" unicode="&#x1e83;" horiz-adv-x="1732" 
d="M991 1192h-221l219 338h225zM1702 1024l-340 -1024h-254l-242 739l-243 -739h-254l-330 1024h233l236 -752l256 752h211l250 -752l243 752h234z" />
    <glyph glyph-name="Wdieresis" unicode="&#x1e84;" horiz-adv-x="2146" 
d="M836 1624q-60 0 -103 40.5t-43 100.5t43 102t103 42q57 0 99 -42t42 -102q0 -59 -41.5 -100t-99.5 -41zM1313 1624q-60 0 -103 40.5t-43 100.5t43 102t103 42q57 0 99 -42t42 -102q0 -59 -41.5 -100t-99.5 -41zM1855 1434h252l-436 -1434h-266l-328 977l-329 -977h-263
l-440 1434h252l332 -1104l387 1104h123l385 -1110z" />
    <glyph glyph-name="wdieresis" unicode="&#x1e85;" horiz-adv-x="1732" 
d="M485 1372q0 59 42 101.5t102 42.5q58 0 99.5 -42.5t41.5 -101.5q0 -60 -41 -101.5t-100 -41.5q-60 0 -102 41.5t-42 101.5zM961 1372q0 59 42.5 101.5t102.5 42.5q57 0 99 -43t42 -101q0 -60 -41.5 -101.5t-99.5 -41.5q-60 0 -102.5 41.5t-42.5 101.5zM1698 1040
l-336 -1040h-254l-242 739l-243 -739h-254l-334 1040h233l240 -768l254 768h209l254 -768l239 768h234z" />
    <glyph glyph-name="uni1E90" unicode="&#x1e90;" horiz-adv-x="1245" 
d="M449 1585h-230l293 338h227l293 -338h-229l-178 209zM1157 213v-213h-1069v178l750 1043h-736v213h1045v-179l-750 -1042h760z" />
    <glyph glyph-name="uni1E91" unicode="&#x1e91;" horiz-adv-x="1013" 
d="M686 1192l-178 207l-178 -207h-230l295 338h226l294 -338h-229zM926 195v-195h-844v152l543 694h-525v194h822v-151l-543 -694h547z" />
    <glyph glyph-name="Ygrave" unicode="&#x1ef2;" horiz-adv-x="1318" 
d="M598 1585l-225 338h227l219 -338h-221zM1331 1434l-549 -859v-575h-237v575l-543 859h270l392 -631l395 631h272z" />
    <glyph glyph-name="ygrave" unicode="&#x1ef3;" horiz-adv-x="1120" 
d="M516 1192l-225 338h227l219 -338h-221zM1094 1040l-465 -1187q-58 -146 -147 -204.5t-249 -58.5h-190v205h152q103 0 149.5 27t75.5 104l33 82l-424 1032h245l295 -768l281 768h244z" />
    <glyph glyph-name="uni2000" unicode="&#x2000;" horiz-adv-x="1024" 
 />
    <glyph glyph-name="uni2001" unicode="&#x2001;" horiz-adv-x="2048" 
 />
    <glyph glyph-name="uni2002" unicode="&#x2002;" horiz-adv-x="1024" 
 />
    <glyph glyph-name="uni2003" unicode="&#x2003;" horiz-adv-x="2048" 
 />
    <glyph glyph-name="uni2009" unicode="&#x2009;" horiz-adv-x="432" 
 />
    <glyph glyph-name="uni200A" unicode="&#x200a;" horiz-adv-x="122" 
 />
    <glyph glyph-name="uni200B" unicode="&#x200b;" 
 />
    <glyph glyph-name="endash" unicode="&#x2013;" horiz-adv-x="1200" 
d="M88 682h1024v-193h-1024v193z" />
    <glyph glyph-name="emdash" unicode="&#x2014;" horiz-adv-x="2226" 
d="M88 682h2050v-193h-2050v193z" />
    <glyph glyph-name="quoteleft" unicode="&#x2018;" horiz-adv-x="483" 
d="M219 1460h197l-117 -530h-231z" />
    <glyph glyph-name="quoteright" unicode="&#x2019;" horiz-adv-x="483" 
d="M264 930h-196l116 530h232z" />
    <glyph glyph-name="quotesinglbase" unicode="&#x201a;" horiz-adv-x="473" 
d="M244 -297h-197l117 530h231z" />
    <glyph glyph-name="quotedblleft" unicode="&#x201c;" horiz-adv-x="882" 
d="M219 1460h197l-117 -530h-231zM618 1460h197l-117 -530h-231z" />
    <glyph glyph-name="quotedblright" unicode="&#x201d;" horiz-adv-x="882" 
d="M264 930h-196l116 530h232zM664 930h-197l117 530h231z" />
    <glyph glyph-name="quotedblbase" unicode="&#x201e;" horiz-adv-x="872" 
d="M244 -297h-197l117 530h231zM643 -297h-197l117 530h232z" />
    <glyph glyph-name="dagger" unicode="&#x2020;" horiz-adv-x="1069" 
d="M985 834h-342v-1100h-217v1100h-342v200h342v482h217v-482h342v-200z" />
    <glyph glyph-name="daggerdbl" unicode="&#x2021;" horiz-adv-x="1110" 
d="M664 834v-412h301v-203h-301v-485h-218v485h-301v203h301v412h-342v200h342v482h218v-482h342v-200h-342z" />
    <glyph glyph-name="bullet" unicode="&#x2022;" horiz-adv-x="1005" 
d="M279 664q-29 94 15.5 178.5t139.5 113.5t179.5 -16t113.5 -139t-16 -179t-140 -114t-179 16.5t-113 139.5z" />
    </font>
</defs>
</svg>
