<svg width="16" height="16" viewBox="0 0 16 16" fill="none" xmlns="http://www.w3.org/2000/svg">
<g clip-path="url(#clip0_3092_386)">
<path d="M3.66656 2.02435C3.66656 1.80404 3.66197 1.61127 3.66656 1.42309C3.67574 1.13852 3.88228 0.918213 4.16226 0.881495C4.43764 0.844777 4.70385 1.0146 4.77729 1.28999C4.80942 1.40473 4.80942 1.53324 4.81401 1.65258C4.8186 1.76732 4.81401 1.88207 4.81401 2.02435C5.25463 2.02435 5.67689 2.02435 6.10374 2.02435C6.52141 2.02435 6.94367 2.02435 7.39347 2.02435C7.39347 1.82699 7.38888 1.64799 7.39347 1.46899C7.39805 1.13393 7.62754 0.890675 7.93965 0.881495C8.25634 0.867726 8.51796 1.11098 8.53632 1.45063C8.5455 1.63422 8.53632 1.81322 8.53632 2.01517C9.41297 2.01517 10.2713 2.01517 11.1525 2.01517C11.1525 1.84076 11.1525 1.67553 11.1525 1.50571C11.1525 1.13852 11.3774 0.886085 11.7079 0.881495C12.0337 0.876905 12.2816 1.12475 12.2999 1.48276C12.3091 1.65717 12.2999 1.83158 12.2999 2.00599C12.6855 2.02435 13.0527 2.01976 13.4153 2.07025C14.4801 2.21712 15.32 3.17639 15.3292 4.25957C15.3384 5.35194 15.3338 6.4489 15.3292 7.54127C15.3292 7.91304 15.0768 8.18384 14.7463 8.17466C14.4204 8.16548 14.1863 7.90845 14.1818 7.54586C14.1772 6.52234 14.1818 5.49423 14.1818 4.47071C14.1818 3.64454 13.7136 3.17639 12.892 3.17639C12.7038 3.17639 12.5111 3.17639 12.2999 3.17639C12.2999 3.35998 12.3045 3.5298 12.2999 3.69503C12.2908 4.07139 12.0475 4.32383 11.7125 4.32383C11.4508 4.32383 11.1112 4.09434 11.1525 3.68126C11.1663 3.52521 11.1571 3.36457 11.1571 3.19016C10.285 3.19016 9.43133 3.19016 8.54091 3.19016C8.54091 3.34621 8.54091 3.50226 8.54091 3.65831C8.53632 4.05762 8.31142 4.31924 7.96719 4.32383C7.62295 4.32842 7.39347 4.0668 7.39347 3.66749C7.39347 3.51603 7.39347 3.36457 7.39347 3.19475C6.53977 3.19475 5.69525 3.19475 4.81401 3.19475C4.81401 3.37834 4.82319 3.56652 4.80942 3.7547C4.78647 4.06221 4.60288 4.26875 4.32749 4.31924C4.08423 4.36514 3.83179 4.23663 3.72164 4.00255C3.68492 3.92452 3.67115 3.82814 3.66656 3.73634C3.65738 3.56193 3.66197 3.38752 3.66197 3.14885C3.28102 3.18098 2.90925 3.16721 2.56501 3.25441C2.08309 3.37375 1.79852 3.82814 1.79393 4.37432C1.78934 5.29228 1.79393 6.21023 1.79393 7.12819C1.79393 9.12474 1.79393 11.1213 1.79393 13.1179C1.79393 13.9578 2.2575 14.4214 3.09743 14.4214C4.48354 14.4214 5.86507 14.4214 7.25118 14.4214C7.53116 14.4214 7.74688 14.5177 7.85703 14.7839C8.01309 15.1603 7.74688 15.5596 7.32462 15.5688C6.81056 15.578 6.3011 15.5734 5.78704 15.5734C4.85532 15.5734 3.919 15.5734 2.98727 15.5734C1.65624 15.5688 0.646484 14.5682 0.646484 13.2418C0.646484 10.2814 0.646484 7.32096 0.646484 4.36055C0.646484 3.04787 1.65624 2.03812 2.96891 2.03353C3.18922 2.02435 3.40953 2.02435 3.66656 2.02435Z" fill="white"/>
<path d="M8.40235 12.0807C8.40235 10.1576 9.94452 8.62921 11.8768 8.62921C13.7908 8.6338 15.3421 10.1851 15.3329 12.1037C15.3283 14.013 13.7632 15.569 11.8493 15.5598C9.93534 15.5598 8.39776 14.0084 8.40235 12.0807ZM9.5498 12.0761C9.54521 13.375 10.5779 14.4169 11.863 14.4169C13.1344 14.4169 14.1855 13.3705 14.1855 12.1037C14.1901 10.8231 13.1528 9.78584 11.8768 9.78125C10.5825 9.77666 9.55439 10.791 9.5498 12.0761Z" fill="white"/>
<path d="M11.1562 6.90347C11.1562 6.5776 11.3903 6.33893 11.7162 6.33893C12.0329 6.33893 12.2945 6.58219 12.3037 6.8897C12.3129 7.19263 12.0237 7.48637 11.7208 7.48178C11.4087 7.47719 11.1562 7.22017 11.1562 6.90347Z" fill="white"/>
<path d="M6.73674 6.33875C7.05344 6.34334 7.30588 6.59119 7.30129 6.90788C7.2967 7.2154 7.03508 7.4816 6.73215 7.48619C6.42005 7.49078 6.14925 7.20622 6.15843 6.89411C6.16302 6.57742 6.41546 6.33416 6.73674 6.33875Z" fill="white"/>
<path d="M6.73743 9.96465C6.42073 9.96924 6.1637 9.72598 6.15452 9.40928C6.14534 9.09259 6.41614 8.8172 6.72825 8.8172C7.03576 8.8172 7.29738 9.07882 7.29738 9.39092C7.30656 9.70303 7.05412 9.96006 6.73743 9.96465Z" fill="white"/>
<path d="M3.66602 9.39092C3.66602 9.07423 3.91845 8.8172 4.23056 8.8172C4.53348 8.8172 4.80428 9.08341 4.80887 9.38633C4.81346 9.70303 4.54725 9.96465 4.22138 9.96006C3.90468 9.96006 3.66602 9.7168 3.66602 9.39092Z" fill="white"/>
<path d="M3.66602 6.90788C3.66602 6.582 3.8955 6.33874 4.22138 6.33874C4.55184 6.33415 4.81346 6.59118 4.80887 6.91247C4.80428 7.2108 4.52889 7.48619 4.23056 7.48619C3.92763 7.4816 3.67061 7.21998 3.66602 6.90788Z" fill="white"/>
<path d="M9.78933 6.90793C9.78933 7.22004 9.5323 7.48165 9.22937 7.48624C8.93104 7.48624 8.65565 7.21545 8.64647 6.91711C8.63729 6.60042 8.9035 6.34339 9.23396 6.34339C9.55525 6.3388 9.78933 6.57747 9.78933 6.90793Z" fill="white"/>
<path d="M3.66602 11.8878C3.66602 11.562 3.90468 11.3233 4.22597 11.3233C4.53807 11.3233 4.79969 11.5757 4.80428 11.8833C4.80887 12.1954 4.53807 12.4662 4.21679 12.4616C3.90468 12.457 3.66602 12.2137 3.66602 11.8878Z" fill="white"/>
<path d="M7.30162 11.8833C7.30621 12.1954 7.05836 12.4524 6.74167 12.4616C6.41579 12.4707 6.15417 12.2137 6.15417 11.8878C6.15417 11.5757 6.40661 11.3233 6.72331 11.3233C7.04 11.3233 7.29703 11.5712 7.30162 11.8833Z" fill="white"/>
<path d="M12.0299 12.1111C12.1355 12.1111 12.2043 12.1111 12.2732 12.1111C12.5945 12.1203 12.8331 12.3406 12.8561 12.6435C12.879 12.951 12.6541 13.2264 12.3283 13.2494C12.0253 13.2723 11.7178 13.2723 11.4103 13.2494C11.089 13.2264 10.8871 12.9878 10.8825 12.6665C10.8779 12.2855 10.8779 11.9 10.8825 11.519C10.8871 11.1794 11.1349 10.9224 11.4516 10.9224C11.7499 10.9224 12.007 11.1748 12.0253 11.4961C12.0391 11.6934 12.0299 11.8908 12.0299 12.1111Z" fill="white"/>
</g>
<defs>
<clipPath id="clip0_3092_386">
<rect width="14.6919" height="14.6919" fill="white" transform="translate(0.646484 0.876953)"/>
</clipPath>
</defs>
</svg>
