<svg width="123" height="51" viewBox="0 0 123 51" fill="none" xmlns="http://www.w3.org/2000/svg">
<g clip-path="url(#clip0_3092_583)">
<path d="M123 0.218262H0V50.2183H123V0.218262Z" fill="white"/>
<path d="M118.578 4.54248H46.7017V45.8938H118.578V4.54248Z" fill="#FFD520"/>
<path d="M53.2588 12.3008H58.8121C61.9597 12.3008 63.4026 14.1841 63.4026 16.9352V21.0291C63.3677 23.2738 62.0354 23.9622 59.775 24.4686V24.5398C62.2535 25.0149 63.5132 25.6607 63.5132 28.5597V32.6507C63.5132 35.7289 62.0674 38.0846 58.7743 38.0846H53.2588V12.3008ZM57.1831 22.9836H58.0732C59.0711 22.9836 59.4783 22.554 59.4783 21.0661V17.1543C59.4783 15.6692 59.0711 15.2368 58.0732 15.2368H57.1831V22.9836ZM57.1831 35.0063H57.9598C59.0711 35.0063 59.5918 34.5739 59.5918 32.9779V28.0903C59.5918 26.4971 59.0711 26.059 57.9598 26.059H57.1831V35.0063Z" fill="#231F20"/>
<path d="M65.5901 16.1415C65.5901 12.7759 68.2926 11.7944 70.6984 11.7944C73.1041 11.7944 75.8445 12.7731 75.8445 16.1415V34.2496C75.8445 37.6152 73.142 38.591 70.6984 38.591C68.2548 38.591 65.5901 37.6124 65.5901 34.2496V16.1415ZM69.5144 33.9196C69.5144 35.2226 69.9216 35.5128 70.7362 35.5128C71.5507 35.5128 71.9202 35.2254 71.9202 33.9196V16.4658C71.9202 15.16 71.5129 14.8727 70.7362 14.8727C69.9595 14.8727 69.5144 15.16 69.5144 16.4658V33.9196Z" fill="#231F20"/>
<path d="M80.9499 12.3008L82.1717 23.0575C82.4656 25.5924 82.7652 30.6251 83.0619 33.1969H83.1346C83.3557 30.0817 83.6524 27.0035 83.9143 23.9281L85.0953 12.3036H89.0225L85.9128 38.0874H79.99L77.0286 12.3036H80.9529L80.9499 12.3008Z" fill="#231F20"/>
<path d="M91.9111 12.3008H97.799L100.795 38.0846H96.8361L96.0943 31.0945H93.3191L92.4667 38.0846H88.9119L91.9111 12.3008ZM95.7248 27.7289L94.9103 17.0092H94.6514L93.6885 27.7289H95.7277H95.7248Z" fill="#231F20"/>
<path d="M112.312 21.7177V16.1416C112.312 12.776 109.61 11.7974 107.166 11.7974C104.723 11.7974 102.058 12.776 102.058 16.1416V34.2497C102.058 37.6124 104.76 38.5911 107.166 38.5911C109.572 38.5911 112.312 37.6124 112.312 34.2497V25.2369H112.274H107.265V28.3237H108.388V33.9254C108.388 35.2284 107.981 35.5186 107.204 35.5186C106.387 35.5186 105.982 35.2312 105.982 33.9254V16.4716C105.982 15.1658 106.389 14.8784 107.204 14.8784C108.018 14.8784 108.388 15.1658 108.388 16.4716V21.7206H112.312V21.7177Z" fill="#231F20"/>
<path d="M27.2286 30.1214C26.7021 30.2921 26.1436 30.3888 25.5588 30.3888C22.6411 30.3888 20.2731 28.073 20.2731 25.2195C20.2731 22.3661 22.6382 20.0503 25.5588 20.0503C28.4795 20.0503 30.8446 22.3632 30.8446 25.2195C30.8446 25.6747 30.7777 26.1129 30.6642 26.5339L39.2982 34.3006C41.0931 31.7089 42.1404 28.5851 42.1404 25.2195C42.1404 16.2636 34.7165 9.00049 25.5588 9.00049C16.4012 9.00049 8.98022 16.2608 8.98022 25.2195C8.98022 34.1783 16.4041 41.4358 25.5588 41.4358C29.4628 41.4358 33.0496 40.1129 35.8801 37.908L27.2257 30.1242L27.2286 30.1214Z" fill="#231F20"/>
<path d="M32.4299 4.5424C39.1788 6.68464 44.5111 11.8994 46.7016 18.4997V4.5424H32.4299ZM4.42163 18.4997C6.61214 11.8994 11.9444 6.68464 18.6934 4.53955H4.42163V18.4997ZM4.42163 31.9336V45.8909H18.6934C11.9444 43.7487 6.61505 38.5339 4.42163 31.9336ZM32.4299 45.8909H46.7016V31.9336C44.5111 38.5339 39.1788 43.7458 32.4299 45.8909Z" fill="#231F20"/>
<path d="M27.2285 30.1217C26.702 30.2924 26.1434 30.3891 25.5587 30.3891C22.6409 30.3891 20.273 28.0733 20.273 25.2199C20.273 22.3664 22.638 20.0506 25.5587 20.0506C28.4794 20.0506 30.8444 22.3635 30.8444 25.2199C30.8444 25.6751 30.7775 26.1132 30.6641 26.5342L36.2 31.5157C37.3374 29.6807 37.9919 27.5243 37.9919 25.2227C37.9919 18.5058 32.424 13.0605 25.5558 13.0605C18.6876 13.0605 13.1226 18.5058 13.1226 25.2227C13.1226 31.9396 18.6905 37.3849 25.5558 37.3849C28.2496 37.3849 30.7426 36.5428 32.7789 35.1203L27.2256 30.1246L27.2285 30.1217Z" fill="#ED1C24"/>
<path d="M22.833 25.2141C22.833 23.7404 24.0548 22.5512 25.5617 22.5483C27.0686 22.5483 28.2904 23.7375 28.2904 25.2141C28.2904 26.6877 27.0686 27.8826 25.5617 27.8826C24.0548 27.8826 22.833 26.6877 22.833 25.2141ZM23.9646 25.2141C23.9646 26.0761 24.6802 26.7731 25.5588 26.7759C26.4402 26.7759 27.1529 26.0761 27.1529 25.2141C27.1529 24.352 26.4402 23.655 25.5588 23.655C24.6773 23.655 23.9646 24.352 23.9646 25.2141Z" fill="#231F20"/>
</g>
<defs>
<clipPath id="clip0_3092_583">
<rect width="123" height="50" fill="white" transform="translate(0 0.218262)"/>
</clipPath>
</defs>
</svg>
