<svg width="11" height="11" viewBox="0 0 11 11" fill="none" xmlns="http://www.w3.org/2000/svg">
<path d="M10.1671 10.1571L10.5848 9.6764C10.8507 9.41014 11 9.04952 11 8.67356C11 8.29761 10.8507 7.93699 10.5848 7.67072C10.5706 7.65651 9.46611 6.80832 9.46611 6.80832C9.20104 6.55644 8.84894 6.41619 8.48297 6.41671C8.117 6.41722 7.76529 6.55845 7.50092 6.81107L6.62598 7.54699C5.91178 7.25194 5.26301 6.81894 4.71692 6.27288C4.17084 5.72683 3.7382 5.07846 3.44385 4.36502L4.17833 3.49438C4.43159 3.23051 4.57325 2.87937 4.57384 2.51394C4.57444 2.14851 4.43394 1.79691 4.18154 1.53222C4.18154 1.53222 3.33092 0.431087 3.31669 0.416882C3.05478 0.153741 2.69968 0.00402406 2.3281 7.99382e-05C1.95652 -0.00386418 1.5983 0.138281 1.33085 0.395804L0.802941 0.854037C-2.31584 4.46583 4.40005 11.118 8.13762 10.9984C8.51505 11.0006 8.88908 10.9273 9.23765 10.7828C9.58621 10.6383 9.90224 10.4255 10.1671 10.1571Z" fill="#00FF87"/>
</svg>
