<svg width="13" height="11" viewBox="0 0 13 11" fill="none" xmlns="http://www.w3.org/2000/svg">
<path d="M12.477 2.27106L8.268 6.48006C7.79869 6.94819 7.16287 7.21108 6.5 7.21108C5.83713 7.21108 5.20131 6.94819 4.732 6.48006L0.523 2.27106C0.516 2.35006 0.5 2.42156 0.5 2.50006V8.50006C0.500794 9.16286 0.764441 9.79828 1.23311 10.2669C1.70178 10.7356 2.3372 10.9993 3 11.0001H10C10.6628 10.9993 11.2982 10.7356 11.7669 10.2669C12.2356 9.79828 12.4992 9.16286 12.5 8.50006V2.50006C12.5 2.42156 12.484 2.35006 12.477 2.27106Z" fill="#00FF87"/>
<path d="M7.56095 5.773L12.1279 1.2055C11.9067 0.838659 11.5947 0.535019 11.2219 0.323865C10.8492 0.112712 10.4283 0.00117033 9.99995 0H2.99995C2.57156 0.00117033 2.1507 0.112712 1.77796 0.323865C1.40522 0.535019 1.09319 0.838659 0.871948 1.2055L5.43895 5.773C5.72073 6.05366 6.10224 6.21123 6.49995 6.21123C6.89766 6.21123 7.27916 6.05366 7.56095 5.773Z" fill="#00FF87"/>
</svg>
