<svg width="10" height="11" viewBox="0 0 10 11" fill="none" xmlns="http://www.w3.org/2000/svg">
<path d="M4.57462 0C3.36184 0.00133425 2.19911 0.483667 1.34151 1.34119C0.483905 2.19871 0.00145576 3.36138 0 4.57416C0 5.75207 0.912082 7.59549 2.71104 10.0531C2.9252 10.3465 3.2056 10.5851 3.52944 10.7497C3.85327 10.9142 4.21138 11 4.57462 11C4.93786 11 5.29597 10.9142 5.6198 10.7497C5.94363 10.5851 6.22404 10.3465 6.4382 10.0531C8.23715 7.59549 9.14924 5.75207 9.14924 4.57416C9.14778 3.36138 8.66533 2.19871 7.80772 1.34119C6.95012 0.483667 5.78739 0.00133425 4.57462 0ZM4.57462 6.39741C4.21202 6.39741 3.85756 6.28988 3.55607 6.08843C3.25458 5.88699 3.0196 5.60066 2.88084 5.26566C2.74208 4.93066 2.70577 4.56204 2.77651 4.20641C2.84725 3.85078 3.02186 3.52411 3.27826 3.26772C3.53465 3.01132 3.86132 2.83671 4.21695 2.76597C4.57258 2.69523 4.94121 2.73154 5.2762 2.8703C5.6112 3.00906 5.89753 3.24404 6.09898 3.54553C6.30042 3.84702 6.40795 4.20148 6.40795 4.56408C6.40795 5.05031 6.21479 5.51662 5.87098 5.86044C5.52716 6.20425 5.06085 6.39741 4.57462 6.39741Z" fill="#00FF87"/>
</svg>
