<svg width="271" height="41" viewBox="0 0 271 41" fill="none" xmlns="http://www.w3.org/2000/svg">
<path d="M49.9419 23.6195C50.8245 23.1214 51.5279 22.3725 52.0554 21.3728C52.5829 20.3732 52.845 19.1605 52.845 17.7315C52.845 15.5982 52.2968 13.9596 51.2038 12.8123C50.1108 11.6649 48.7765 11.0912 47.194 11.0912C45.6114 11.0912 44.2909 11.6649 43.2255 12.8123C42.1601 13.9596 41.6257 15.5982 41.6257 17.7315C41.6257 19.8648 42.1463 21.5034 43.1841 22.6507C44.2254 23.7981 45.5321 24.3718 47.1147 24.3718C48.1145 24.3718 49.0558 24.121 49.9384 23.6229L49.9419 23.6195ZM41.4292 27.8688C39.7432 26.9104 38.4192 25.5569 37.4607 23.8015C36.4988 22.0461 36.0195 20.0228 36.0195 17.7315C36.0195 15.4402 36.5126 13.4134 37.4987 11.658C38.4882 9.90262 39.8363 8.54914 41.5464 7.59071C43.2565 6.63228 45.1666 6.15479 47.2733 6.15479C49.3799 6.15479 51.2866 6.63572 53.0001 7.59071C54.7103 8.54914 56.0618 9.90262 57.0479 11.658C58.0374 13.4134 58.527 15.4368 58.527 17.7315C58.527 20.0262 58.0202 22.0496 57.0065 23.8015C55.9929 25.5569 54.6241 26.9104 52.8967 27.8688C51.1728 28.8273 49.242 29.3048 47.1112 29.3048C44.9805 29.3048 43.1083 28.8273 41.4223 27.8688H41.4292Z" fill="white"/>
<path d="M109.218 15.6252C109.19 14.1686 108.676 13.0007 107.676 12.1247C106.676 11.2487 105.452 10.809 104.001 10.809C102.632 10.809 101.481 11.235 100.546 12.0835C99.6119 12.932 99.0395 14.1137 98.8292 15.6252H109.214H109.218ZM114.789 19.428H98.7947C98.9257 21.046 99.4774 22.3136 100.453 23.2308C101.429 24.148 102.625 24.6083 104.046 24.6083C106.101 24.6083 107.559 23.7048 108.428 21.8979H114.393C113.762 24.0587 112.548 25.8312 110.759 27.2225C108.969 28.6138 106.77 29.3077 104.163 29.3077C102.056 29.3077 100.167 28.8302 98.4948 27.8718C96.8226 26.9133 95.5193 25.5599 94.5849 23.8045C93.6505 22.0491 93.1816 20.0257 93.1816 17.7344C93.1816 15.4431 93.6436 13.3785 94.5642 11.6231C95.4848 9.86774 96.7743 8.52113 98.4361 7.57645C100.095 6.63176 102.001 6.16113 104.163 6.16113C106.325 6.16113 108.107 6.62145 109.752 7.53866C111.397 8.45586 112.676 9.75781 113.582 11.4445C114.489 13.1312 114.944 15.0652 114.944 17.2535C114.944 18.0608 114.889 18.7925 114.786 19.4383L114.789 19.428Z" fill="white"/>
<path d="M196.864 15.6252C196.837 14.1686 196.323 13.0007 195.323 12.1247C194.323 11.2487 193.099 10.809 191.648 10.809C190.279 10.809 189.127 11.235 188.193 12.0835C187.259 12.932 186.686 14.1137 186.476 15.6252H196.861H196.864ZM202.433 19.428H186.438C186.569 21.046 187.121 22.3136 188.096 23.2308C189.072 24.148 190.269 24.6083 191.689 24.6083C193.744 24.6083 195.202 23.7048 196.071 21.8979H202.036C201.405 24.0587 200.191 25.8312 198.402 27.2225C196.613 28.6138 194.413 29.3077 191.806 29.3077C189.7 29.3077 187.81 28.8302 186.138 27.8718C184.466 26.9133 183.163 25.5599 182.228 23.8045C181.294 22.0491 180.825 20.0257 180.825 17.7344C180.825 15.4431 181.287 13.3785 182.208 11.6231C183.128 9.86774 184.418 8.52113 186.079 7.57645C187.738 6.63176 189.645 6.16113 191.806 6.16113C193.968 6.16113 195.751 6.62145 197.395 7.53866C199.04 8.45586 200.319 9.75781 201.226 11.4445C202.133 13.1312 202.588 15.0652 202.588 17.2535C202.588 18.0608 202.533 18.7925 202.429 19.4383L202.433 19.428Z" fill="#00FF87"/>
<path d="M252.478 15.6252C252.451 14.1686 251.937 13.0007 250.937 12.1247C249.937 11.2487 248.713 10.809 247.262 10.809C245.893 10.809 244.741 11.235 243.807 12.0835C242.873 12.932 242.3 14.1137 242.09 15.6252H252.475H252.478ZM258.046 19.428H242.052C242.183 21.046 242.735 22.3136 243.71 23.2308C244.686 24.148 245.882 24.6083 247.303 24.6083C249.358 24.6083 250.816 23.7048 251.685 21.8979H257.65C257.019 24.0587 255.805 25.8312 254.016 27.2225C252.226 28.6138 250.027 29.3077 247.42 29.3077C245.314 29.3077 243.424 28.8302 241.752 27.8718C240.08 26.9133 238.776 25.5599 237.842 23.8045C236.908 22.0491 236.439 20.0257 236.439 17.7344C236.439 15.4431 236.901 13.3785 237.821 11.6231C238.742 9.86774 240.031 8.52113 241.693 7.57645C243.352 6.63176 245.258 6.16113 247.42 6.16113C249.582 6.16113 251.365 6.62145 253.009 7.53866C254.654 8.45586 255.933 9.75781 256.84 11.4445C257.746 13.1312 258.202 15.0652 258.202 17.2535C258.202 18.0608 258.146 18.7925 258.043 19.4383L258.046 19.428Z" fill="#00FF87"/>
<path d="M125.374 6.15479C119.616 6.15479 114.948 10.9401 114.948 16.8383V29.3048H120.636V16.8383C120.636 14.1554 122.757 11.9809 125.374 11.9809C127.991 11.9809 130.111 14.1554 130.111 16.8383V29.3048H135.8V16.8383C135.8 10.9366 131.132 6.15479 125.374 6.15479Z" fill="white"/>
<path d="M157.604 6.15479C151.847 6.15479 147.178 10.9401 147.178 16.8383V29.3048H152.867V16.8383C152.867 14.1554 154.988 11.9809 157.604 11.9809C160.221 11.9809 162.342 14.1554 162.342 16.8383V29.3048H168.031V16.8383C168.031 10.9366 163.362 6.15479 157.604 6.15479Z" fill="#00FF87"/>
<path d="M226.019 6.15479C220.261 6.15479 215.593 10.9401 215.593 16.8383V29.3048H221.282V16.8383C221.282 14.1554 223.402 11.9809 226.019 11.9809C228.636 11.9809 230.756 14.1554 230.756 16.8383V29.3048H236.445V16.8383C236.445 10.9366 231.777 6.15479 226.019 6.15479Z" fill="#00FF87"/>
<path d="M25.5933 0.688965C22.604 0.688965 19.9113 1.98061 18.0115 4.04518C16.1117 1.98061 13.4155 0.688965 10.4297 0.688965C4.66837 0.688965 0 5.47423 0 11.376V29.3078H5.68893V11.376C5.68893 8.69304 7.80935 6.51854 10.4263 6.51854C13.0432 6.51854 15.1636 8.69304 15.1636 11.376V29.3078H20.8525V11.376C20.8525 8.69304 22.9729 6.51854 25.5899 6.51854C28.2068 6.51854 30.3272 8.69304 30.3272 11.376V29.3078H36.0161V11.376C36.0161 5.47423 31.3512 0.6924 25.5899 0.6924L25.5933 0.688965Z" fill="white"/>
<path d="M86.7027 32.9631C86.1751 33.9627 85.4718 34.7116 84.5891 35.2097C83.7065 35.7112 82.7652 35.9586 81.7653 35.9586C80.1862 35.9586 78.8761 35.3849 77.8348 34.2375C76.9453 33.2551 76.4384 31.9119 76.3109 30.208H70.6943C70.8047 32.1386 71.277 33.8665 72.1114 35.3883C73.0733 37.1437 74.3939 38.4972 76.0799 39.4556C77.7659 40.4141 79.6587 40.8916 81.7688 40.8916C83.8789 40.8916 85.8303 40.4141 87.5543 39.4556C89.2782 38.4972 90.647 37.1437 91.6641 35.3883C92.5467 33.8631 93.0432 32.1386 93.157 30.208H87.4543C87.3646 31.2558 87.1198 32.1798 86.7061 32.9596L86.7027 32.9631Z" fill="white"/>
<path d="M86.6992 21.3763C86.1717 22.3759 85.4683 23.1248 84.5857 23.6229C83.703 24.1245 82.7618 24.3718 81.7619 24.3718C80.1828 24.3718 78.8726 23.7981 77.8314 22.6507C76.7901 21.5034 76.2729 19.8648 76.2729 17.7315C76.2729 15.5982 76.8073 13.9596 77.8727 12.8123C78.9381 11.6649 80.2621 11.0912 81.8412 11.0912C83.4203 11.0912 84.7581 11.6649 85.851 12.8123C86.944 13.9596 87.4922 15.5982 87.4922 17.7315C87.4922 19.164 87.2302 20.3766 86.7026 21.3728L86.6992 21.3763ZM93.1777 6.15479H81.9205C79.8139 6.15479 77.9072 6.63572 76.1936 7.59071C74.4835 8.54914 73.1319 9.90262 72.1459 11.658C71.1563 13.4134 70.6667 15.4368 70.6667 17.7315C70.6667 20.0262 71.146 22.0496 72.1079 23.8015C73.0699 25.5569 74.3904 26.9104 76.0764 27.8688C77.7624 28.8273 79.6553 29.3048 81.7653 29.3048C83.8754 29.3048 85.8269 28.8273 87.5508 27.8688C89.2747 26.9104 90.6435 25.5569 91.6606 23.8015C92.6743 22.0461 93.1811 20.0228 93.1811 17.7315C93.1811 15.4402 92.6881 13.4134 91.702 11.658C91.5917 11.4622 91.4779 11.2767 91.3572 11.0912H93.1811V6.15479H93.1777Z" fill="white"/>
<path d="M68.9599 6.15431C63.2021 6.15431 58.5337 10.9396 58.5337 16.8379V29.3043H64.2226V16.8379C64.2226 14.155 66.343 11.9805 68.9599 11.9805H71.5355V6.15088H68.9599V6.15431Z" fill="white"/>
<path d="M213.018 6.15431C207.26 6.15431 202.591 10.9396 202.591 16.8379V29.3043H208.28V16.8379C208.28 14.155 210.401 11.9805 213.018 11.9805H215.593V6.15088H213.018V6.15431Z" fill="#00FF87"/>
<path d="M147.178 6.51854V0.688965H144.334H138.645H135.8V6.51854H138.645V23.4748H135.8V29.3044H138.645V29.3078H144.334V29.3044H147.178V23.4748H144.334V6.51854H147.178Z" fill="#00FF87"/>
<path d="M179.405 23.4748H176.56V12.355C176.56 12.355 176.56 12.324 176.56 12.3069V11.9805H179.408V6.15094H176.56V1.66797H170.872V6.15094H168.034V11.9805H170.872V18.6174C170.872 18.6174 170.872 18.6483 170.872 18.6655V23.6362C170.872 26.7657 173.419 29.3044 176.56 29.3044H179.405H180.829V23.4748H179.405Z" fill="#00FF87"/>
<path d="M269.576 23.4748H266.732V12.355C266.732 12.355 266.732 12.324 266.732 12.3069V11.9805H269.58V6.15094H266.732V1.66797H261.043V6.15094H258.205V11.9805H261.043V18.6174C261.043 18.6174 261.043 18.6483 261.043 18.6655V23.6362C261.043 26.7657 263.591 29.3044 266.732 29.3044H269.576H271V23.4748H269.576Z" fill="#00FF87"/>
</svg>
