<svg width="16" height="18" viewBox="0 0 16 18" fill="none" xmlns="http://www.w3.org/2000/svg">
<g clip-path="url(#clip0_3092_457)">
<path d="M8.46692 17.5539H8.47142V17.5532C8.47014 17.5539 8.46821 17.5539 8.46692 17.5539ZM8.46692 0.272128H8.47142V0.271484C8.47014 0.271484 8.46821 0.271484 8.46692 0.272128Z" fill="#0F0F0F"/>
<path d="M8.46179 17.5532V17.5539H8.46694C8.46501 17.5539 8.46372 17.5539 8.46179 17.5532ZM8.46179 0.271484V0.272128H8.46694C8.46501 0.271484 8.46372 0.271484 8.46179 0.271484Z" fill="#0F0F0F"/>
<path d="M15.9609 8.67469C15.9525 10.3168 15.477 11.8161 14.5349 13.1616C13.0608 15.2671 10.9759 16.554 8.65746 17.5192C8.60341 17.5417 8.53778 17.5527 8.4715 17.5533C8.47021 17.554 8.46828 17.554 8.467 17.554C8.46507 17.554 8.46378 17.554 8.46185 17.5533C8.39557 17.5527 8.32994 17.5417 8.27589 17.5192C5.95745 16.554 3.8726 15.2671 2.3984 13.1616C1.45636 11.8161 0.980831 10.3168 0.972466 8.67469C0.963457 7.04541 0.967318 5.41614 0.968605 3.78687C0.968605 3.26308 1.08636 3.11186 1.56446 2.92461C3.78444 2.05721 6.00121 1.1808 8.22441 0.321764C8.29519 0.294738 8.37755 0.277365 8.46185 0.272217H8.4715C8.5558 0.277365 8.63816 0.294738 8.70894 0.321764C10.9321 1.1808 13.1489 2.05721 15.3689 2.92461C15.847 3.11186 15.9647 3.26308 15.9647 3.78687C15.966 5.41614 15.9699 7.04541 15.9609 8.67469Z" fill="#0F0F0F"/>
<path d="M7.43612 9.92354C8.68124 8.67134 9.91349 7.4333 11.1432 6.19397C11.3761 5.9591 11.6071 5.73839 11.981 5.89154C12.36 6.04726 12.5048 6.46873 12.2873 6.81814C12.2255 6.91723 12.1483 7.00925 12.0653 7.09161C10.7584 8.39143 9.44762 9.68867 8.14072 10.9885C7.49532 11.63 7.35311 11.6255 6.7135 10.9743C6.15754 10.4087 5.58742 9.85726 5.02567 9.29744C4.9195 9.19191 4.81204 9.08381 4.72646 8.96219C4.52505 8.67584 4.57202 8.31679 4.82619 8.09221C5.07393 7.87343 5.38087 7.89531 5.6537 8.16493C6.17298 8.67649 6.68647 9.19384 7.20318 9.70862C7.26946 9.77554 7.34153 9.83731 7.43612 9.92354Z" fill="white"/>
</g>
<defs>
<clipPath id="clip0_3092_457">
<rect width="15" height="17.2824" fill="white" transform="translate(0.966675 0.271484)"/>
</clipPath>
</defs>
</svg>
