<svg width="14" height="17" viewBox="0 0 14 17" fill="none" xmlns="http://www.w3.org/2000/svg">
<path d="M2.01198 9.90205C1.64589 9.95918 1.2859 9.74269 1.03573 9.47209C-0.0808508 8.28143 -0.227288 6.11357 0.27609 4.6493C0.974718 2.61074 2.52756 1.49825 2.90891 1.23666C4.82175 -0.071266 6.80475 -0.0201516 7.55219 0.00991566C8.45217 0.0459964 10.2125 0.115151 11.7928 1.42007C13.4127 2.75506 13.8124 4.54105 13.9192 5.19953C14.2792 7.41849 13.4219 9.82087 11.6463 11.1949C11.1979 11.5437 10.0508 12.4307 8.42166 12.3375C7.08847 12.2623 5.94748 11.3994 5.91087 11.3633C5.90782 11.3603 5.89867 11.3513 5.88036 11.3393C5.88036 11.3393 5.8285 11.3062 5.74918 11.3152C5.62715 11.3272 5.17564 13.4921 4.94073 14.2889C4.78514 14.815 4.56853 15.3262 4.28176 15.7982C4.0499 16.1801 3.82414 16.568 3.49771 16.8807C3.41534 16.9588 3.29331 17.037 3.19263 16.9799C3.14382 16.9498 3.11636 16.8957 3.09501 16.8446C2.28045 14.9413 2.97298 12.7945 3.62889 10.9574C3.96753 10.0103 4.27566 9.16841 4.17498 8.14011C4.11091 7.48765 3.91261 6.84421 3.94312 6.18874C3.99193 5.12436 4.74548 4.08403 5.79799 3.83447C6.04816 3.77434 6.31663 3.76231 6.55764 3.84951C7.12203 4.05998 7.33253 4.74551 7.32948 5.34085C7.32338 6.18874 7.03966 7.00958 6.72238 7.79434C6.5912 8.11606 6.45391 8.44379 6.41425 8.78656C6.37764 9.1173 6.43256 9.45405 6.56984 9.75773C6.73763 10.1276 7.03051 10.4493 7.4088 10.6086C8.06472 10.8792 8.82741 10.6177 9.41316 10.2178C10.7311 9.31875 11.4938 7.75525 11.6067 6.17972C11.6707 5.2747 11.5304 4.3366 11.0606 3.55786C10.5023 2.63479 9.51079 2.00939 8.45217 1.75682C7.29897 1.48021 6.05121 1.62152 4.98039 2.12064C3.90346 2.62577 3.00653 3.47968 2.43909 4.50798C1.893 5.49419 2.02113 6.51948 2.38418 7.53876C2.64044 8.25737 3.17738 9.70661 2.02113 9.90205C2.01808 9.90205 2.01503 9.90205 2.01198 9.90205Z" fill="white"/>
</svg>
