<svg width="17" height="17" viewBox="0 0 17 17" fill="none" xmlns="http://www.w3.org/2000/svg">
<path d="M16.2075 4.74459C16.2049 4.42762 16.1766 4.10549 16.1173 3.79367C15.723 1.65991 13.7645 0.0157711 11.5972 0.00546307C9.27789 -0.00484498 6.95858 0.000309049 4.64184 0.00546307C4.38157 0.00546307 4.12129 0.0312332 3.86616 0.0776194C1.63447 0.484787 0.000644253 2.45105 0.000644253 4.7214C0.000644253 7.11802 -0.00193276 9.51464 0.00322127 11.9113C0.00579828 12.2257 0.0341454 12.5426 0.0908397 12.8519C0.4877 15.0114 2.46169 16.6581 4.65473 16.6607C6.95858 16.6659 9.26243 16.6633 11.5663 16.6581C11.8214 16.6581 12.0791 16.6324 12.3291 16.586C14.5788 16.1814 16.2101 14.2203 16.2126 11.937V8.33437C16.2126 7.13863 16.2178 5.94032 16.2075 4.74459ZM12.1023 15.3619C11.9271 15.3928 11.7492 15.4108 11.5714 15.4108C9.26501 15.4134 6.956 15.4186 4.64958 15.4108C3.05183 15.4057 1.6087 14.1945 1.3175 12.6251C1.27627 12.3957 1.2505 12.1612 1.2505 11.9267C1.24534 9.52237 1.24792 7.11802 1.24792 4.71367C1.24792 3.04892 2.45654 1.60063 4.09294 1.30428C4.30683 1.26562 4.52846 1.25274 4.7475 1.25274C6.98693 1.24758 9.22893 1.25016 11.4684 1.25016C13.164 1.25016 14.5891 2.42012 14.9061 4.08745C14.9499 4.3065 14.9602 4.53585 14.9602 4.76263C14.9679 5.95063 14.9628 7.14121 14.9628 8.32921C14.9628 9.52237 14.9525 10.7155 14.9654 11.9087C14.986 13.5863 13.7645 15.0629 12.1023 15.3619Z" fill="black"/>
<path d="M11.0354 8.29319C11.0302 9.89093 9.70565 11.2001 8.09501 11.1975C6.49211 11.1923 5.18041 9.87032 5.18814 8.26484C5.19588 6.64132 6.49727 5.34508 8.11821 5.34766C9.73915 5.35281 11.038 6.66451 11.0354 8.29319Z" fill="white"/>
<path d="M16.2075 4.74459C16.2049 4.42762 16.1766 4.10549 16.1173 3.79367C15.723 1.65991 13.7645 0.0157711 11.5972 0.00546307C9.27789 -0.00484498 6.95858 0.000309049 4.64184 0.00546307C4.38157 0.00546307 4.12129 0.0312332 3.86616 0.0776194C1.63447 0.484787 0.000644253 2.45105 0.000644253 4.7214C0.000644253 7.11802 -0.00193276 9.51464 0.00322127 11.9113C0.00579828 12.2257 0.0341454 12.5426 0.0908397 12.8519C0.4877 15.0114 2.46169 16.6581 4.65473 16.6607C6.95858 16.6659 9.26243 16.6633 11.5663 16.6581C11.8214 16.6581 12.0791 16.6324 12.3291 16.586C14.5788 16.1814 16.2101 14.2203 16.2126 11.937V8.33437C16.2126 7.13863 16.2178 5.94032 16.2075 4.74459ZM8.13112 12.7359C5.66234 12.7308 3.65743 10.7233 3.66516 8.25963C3.67031 5.79343 5.6778 3.79109 8.144 3.79883C10.6025 3.80398 12.5997 5.8089 12.5971 8.27252C12.5945 10.7336 10.5896 12.7385 8.13112 12.7359ZM12.6744 2.67783C13.2568 2.6804 13.731 3.15457 13.7284 3.7344C13.7258 4.31681 13.2388 4.79871 12.6615 4.79098C12.0765 4.78582 11.6127 4.31423 11.6127 3.72925C11.6152 3.13653 12.0817 2.67267 12.6744 2.67783Z" fill="#E2E2E2"/>
</svg>
