<svg width="21" height="17" viewBox="0 0 21 17" fill="none" xmlns="http://www.w3.org/2000/svg">
<path d="M14.541 15.1685C15.0562 14.8378 15.4966 14.5553 15.9369 14.2728C12.3392 15.4638 8.80129 15.5569 5.17954 14.2439C5.6199 14.5585 6.05727 14.8731 6.48864 15.1845C5.68581 17.2456 5.55699 17.3804 3.78357 16.4398C-0.521194 14.1604 -0.257576 14.8667 0.320586 9.81998C0.623147 7.18747 1.90229 4.66733 2.85192 2.14398C3.19342 1.23224 6.99191 -0.449996 7.42629 0.111818C8.81028 1.90321 10.5957 0.506694 12.1025 1.02677C12.3452 1.11024 12.6747 1.02998 12.9233 0.924042C13.4296 0.708947 14.0197 0.0893459 14.3852 0.224181C15.7063 0.712158 17.3898 1.09098 18.1418 2.15361C20.3615 5.29015 21.1644 9.05591 20.9726 12.9918C20.9397 13.6435 20.4903 14.4397 20.0021 14.857C19.2232 15.5216 18.2766 15.9871 17.3539 16.4237C15.4996 17.3066 15.4876 17.2745 14.541 15.1685ZM14.0077 7.19389C13.0252 7.20995 12.1924 8.19874 12.1834 9.36411C12.1744 10.629 13.0401 11.6467 14.1036 11.5568C15.3588 11.4476 15.7962 10.5263 15.8291 9.33521C15.8561 8.14417 14.9963 7.17784 14.0077 7.19389ZM8.90015 9.48931C8.94508 8.27579 8.18419 7.26131 7.18364 7.19711C6.16811 7.1329 5.32633 8.05106 5.27241 9.28064C5.22148 10.4845 5.99136 11.5086 6.99191 11.5664C8.0344 11.621 8.85521 10.7285 8.90015 9.48931Z" fill="white"/>
</svg>
